<svg xmlns="http://www.w3.org/2000/svg" xmlns:xlink="http://www.w3.org/1999/xlink" width="1638" height="963" viewBox="0 0 1638 963">
  <defs>
    <path id="pattern7-a" d="M96.0051266,-2.66453526e-15 C104.792772,11.6992474 110,26.2415171 110,42 C110,80.6599325 78.6599325,112 40,112 C25.1275186,112 11.3383348,107.361852 -2.60484967e-11,99.4531072 L6.1817218e-13,0 L96.0051266,0 Z M1580.99487,0 L1638,0 L1638,111.993003 C1637.66722,111.997662 1637.33388,112 1637,112 C1598.34007,112 1567,80.6599325 1567,42 C1567,26.2415171 1572.20723,11.6992474 1580.99487,-3.09352544e-12 Z M1638,662.925654 L1638,733.402265 L1395.66383,630.563925 L1421.01886,570.847037 L1638,662.925654 Z M450.151706,82.6068492 L501.286717,42.6663887 L681.06644,272.712951 L629.931428,312.653411 L450.151706,82.6068492 Z M83.7782822,813.092619 L195.876614,918.140539 L49.6021782,962.849269 L83.7782822,813.092619 Z M1267.95977,403.292647 L1380.0581,508.340567 L1233.78366,553.049297 L1267.95977,403.292647 Z M648,931 C609.340068,931 578,899.659932 578,861 C578,822.340068 609.340068,791 648,791 C686.659932,791 718,822.340068 718,861 C718,899.659932 686.659932,931 648,931 Z M358.649428,429 L482.512362,471.649428 L439.862933,595.512362 L316,552.862933 L358.649428,429 Z M951.035392,142.940687 L1077.57167,109.035392 L1111.47697,235.571675 L984.940687,269.47697 L951.035392,142.940687 Z M994.046607,678.474773 L1124.96681,683.046607 L1120.39497,813.966805 L989.474773,809.394971 L994.046607,678.474773 Z"/>
  </defs>
  <g fill="none" fill-rule="evenodd">
    <use fill="#1767D0" xlink:href="#pattern7-a"/>
  </g>
</svg>
