<?xml version="1.0" encoding="UTF-8"?>
<svg width="1024px" height="260px" viewBox="0 0 1024 260" version="1.1" xmlns="http://www.w3.org/2000/svg" xmlns:xlink="http://www.w3.org/1999/xlink">
    <!-- Generator: Sketch 52.5 (67469) - http://www.bohemiancoding.com/sketch -->
    <title>bg-patter-mobile</title>
    <desc>Created with Sketch.</desc>
    <defs>
        <rect id="path-1" x="90" y="46" width="275" height="1028"></rect>
    </defs>
    <g id="bg-patter-mobile" stroke="none" stroke-width="1" fill="none" fill-rule="evenodd">
        <g id="pattern-3" transform="translate(588.000000, 137.500000) rotate(-90.000000) translate(-588.000000, -137.500000) translate(367.000000, -501.000000)">
            <mask id="mask-2" fill="white">
                <use xlink:href="#path-1"></use>
            </mask>
            <rect stroke="#979797" x="90.5" y="46.5" width="274" height="1027"></rect>
            <path d="M80.0266469,290.031088 C78.0934104,293.069201 76.9450517,296.333511 75.8383609,299.580824 C74.7445112,302.789958 73.9664471,306.106569 73.0426761,309.402521 C69.9954111,309.470772 68.3580433,307.991464 67.4316517,304.049344 C66.4080348,305.079656 65.4874086,306.033087 64.5371692,306.955922 C63.4063687,308.053701 61.9430106,308.199357 60.908125,307.057907 C59.8776945,305.921426 58.847264,304.629876 58.3558964,303.21908 C58.0568829,302.360574 58.579698,301.040258 59.0841687,300.118469 C59.9990295,298.446697 61.2152625,296.942023 62.2273486,295.319412 C62.7674599,294.453584 63.144306,293.486294 63.6002951,292.553522 C63.0549426,291.906308 62.5326517,291.426193 62.1833221,290.843309 C61.4458777,289.611903 61.8518128,288.6284 62.7737494,287.472568 C64.155606,285.739604 65.2871927,283.8079 66.5796859,281.879595 C65.8081733,281.196295 65.2698965,280.770833 64.7913701,280.287057 C63.0821972,278.559062 63.0633286,276.354613 64.6191949,274.478347 C66.4945155,272.216891 68.3072032,270.004074 69.1932371,267.015908 C69.8861309,264.678878 71.6175791,262.661402 72.7646276,260.438648 C73.2381748,259.521566 73.3899091,258.439215 73.7180116,257.331238 C74.1270915,257.062415 75.1231918,256.776857 75.2987738,256.229013 C76.0207565,253.975664 77.8219134,252.472036 78.9865201,250.537455 C80.3597286,248.25691 82.0227784,246.150523 83.5579417,243.966994 C85.1924267,241.641732 86.8211464,239.312547 88.4585141,236.989638 C89.4996892,235.512684 90.9517786,234.178508 91.5076136,232.539685 C92.3632483,230.01699 95.0818867,228.627115 95.2642823,225.740672 C95.3069985,225.064955 96.2805614,224.477102 96.7433642,223.793278 C99.0644535,220.362915 101.350426,216.909017 103.663916,213.473423 C105.140901,211.28048 106.966954,211.021333 109.064766,212.604457 C109.907297,213.240426 110.848103,213.746953 112.063549,214.514195 C113.168406,213.692561 115.002582,212.328574 117.037499,210.815794 C119.076609,211.771317 120.601814,210.906796 121.643251,208.829698 C122.031366,208.055918 122.530333,207.337314 122.981605,206.595176 C124.064186,204.815142 125.591488,204.556257 127.251917,205.895924 C127.649204,206.216262 127.942976,206.67075 128.354153,206.967291 C130.139586,208.255181 130.775874,209.724291 129.560689,211.82074 C128.837134,213.06862 128.960566,214.374554 130.441482,215.149903 C132.861893,216.417657 132.36214,218.603278 132.06496,220.609771 C131.920826,221.582292 131.349005,222.546444 130.786357,223.392398 C128.735716,226.477058 126.620608,229.519877 124.498686,232.556944 C123.956741,233.332293 123.26044,233.99938 122.706177,234.767407 C121.801799,236.020256 120.939089,237.303962 120.089743,238.59499 C119.002707,240.24715 117.949477,241.921276 116.875807,243.582065 C115.334092,245.967211 113.796832,248.354972 112.239918,250.72992 C110.457367,253.44874 108.622928,256.134089 106.883356,258.879844 C106.38963,259.658853 106.238682,260.648894 105.774831,261.452747 C104.133794,264.296826 102.403132,267.089128 100.74873,269.925624 C99.2696485,272.461917 97.8665649,275.042404 96.3908898,277.580527 C95.6096809,278.924378 94.7055646,280.197363 93.9264523,281.54226 C92.3294422,284.298998 90.7617831,287.072995 89.2166615,289.859021 C88.424708,291.286814 87.7323384,292.769783 86.9485089,294.202544 C86.1599622,295.643673 85.2230881,295.926094 84.044068,294.780721 C82.639674,293.415689 81.4905291,291.789417 80.0266469,290.031088 Z M-35.7386248,486.748357 C-36.0558351,486.765711 -36.3724306,486.791758 -36.6881666,486.830608 C-39.8301737,487.216886 -43.020752,487.203939 -46.190179,487.36736 C-49.5650957,487.541695 -52.939476,487.724306 -56.3142933,487.894214 C-58.4601483,488.00215 -60.7724963,487.620465 -62.7153541,488.301737 C-65.7060735,489.350422 -68.9964459,487.823206 -71.8361024,489.769292 C-72.5008797,490.224855 -73.7636899,489.74405 -74.7431355,489.812062 C-79.6560787,490.15374 -84.5654196,490.545572 -89.4777112,490.898205 C-92.6134389,491.123026 -94.1911923,489.602615 -94.2402759,486.476513 C-94.2598497,485.220887 -94.4726234,483.968141 -94.6417024,482.266927 C-96.2196769,481.834596 -98.8392676,481.116872 -101.745101,480.320241 C-102.339715,477.709412 -104.265159,476.914792 -106.973901,477.462632 C-107.983096,477.666578 -109.021586,477.726222 -110.047279,477.847803 C-112.507567,478.139234 -113.866699,476.898473 -113.824338,474.360622 C-113.81439,473.753544 -113.602999,473.145042 -113.625515,472.542406 C-113.723074,469.925437 -112.810738,468.251968 -109.956849,467.852686 C-108.257943,467.61524 -107.123722,466.541841 -107.479249,464.586015 C-108.059831,461.389027 -105.645289,460.254199 -103.546771,459.060992 C-102.529578,458.482751 -101.207608,458.311262 -100.003165,458.217868 C-95.6120419,457.876401 -91.2130249,457.626007 -86.8144214,457.386214 C-85.6913111,457.325211 -84.5568789,457.488192 -83.4316305,457.444096 C-81.5958908,457.372383 -79.7616773,457.239008 -77.9303681,457.087745 C-75.5867177,456.89427 -73.2471829,456.65302 -70.9052109,456.440697 C-67.5419587,456.135546 -64.1795112,455.824303 -60.8147108,455.540869 C-56.962563,455.216589 -53.1038701,454.965463 -49.257884,454.581172 C-48.1665878,454.472316 -47.1279868,453.887607 -46.0352358,453.732547 C-42.1690866,453.183846 -38.2859708,452.757071 -34.4171625,452.22645 C-30.9579768,451.751778 -27.5129071,451.173506 -24.0544954,450.694299 C-22.2234642,450.440471 -20.369037,450.353745 -18.5385577,450.097187 C-14.7864814,449.571302 -11.0396776,449.005266 -7.29806933,448.409298 C-5.38048054,448.103971 -3.48395017,447.664897 -1.5676412,447.348316 C0.359961676,447.030017 1.30957973,447.700462 1.09749726,449.644878 C0.844200882,451.961503 0.159388905,454.23063 -0.419179302,456.891424 C2.67036016,456.588897 5.56983664,455.812783 8.39936127,454.896293 C8.53459371,454.796947 8.6720919,454.698274 8.81268174,454.601441 C8.90395508,454.610487 9.01041652,454.631144 9.12675674,454.657317 C9.95401252,454.381954 10.7761302,454.096962 11.5961471,453.810768 C15.4045987,452.481781 19.0829931,450.778172 22.8485243,449.226199 C23.2508704,449.718603 23.5767073,450.205284 23.824155,450.693418 C24.596315,450.486879 25.3680864,450.279225 26.1356537,450.059923 C29.0847067,449.217044 32.0315943,448.366955 34.9814634,447.528012 C36.8571383,446.994663 38.9800751,446.86035 40.5591034,445.861379 C42.9897701,444.323644 46.2116517,445.002834 48.3254001,442.702283 C48.820244,442.163735 50.0352521,442.331254 50.8875483,442.071236 C55.1625963,440.766506 59.4242129,439.418156 63.696447,438.103871 C66.4236553,437.265154 68.1295623,438.287811 68.8115782,441.042456 C69.0853911,442.148912 69.5294753,443.213395 70.0265316,444.683412 C71.5103585,444.743748 73.9736575,444.843923 76.7062198,444.95547 C77.7654239,447.143095 79.6305506,447.452926 81.9141597,446.41567 C82.7649958,446.029363 83.6712183,445.764697 84.5534709,445.447865 C86.6697356,444.688073 88.1251733,445.508026 88.6061489,447.761094 C88.7213674,448.300012 88.6587257,448.881296 88.8017469,449.40966 C89.4226252,451.704147 88.9576452,453.370304 86.5153255,454.305797 C85.0613745,454.862477 84.2775831,456.043223 84.9915403,457.700366 C86.1580773,460.409241 84.2545602,461.905581 82.6424509,463.389062 C81.861003,464.10802 80.7269278,464.529448 79.6808364,464.857827 C75.867226,466.055886 72.0280299,467.175012 68.1870337,468.284678 C67.2062535,468.567815 66.1697045,468.655175 65.1835796,468.923796 C63.5747609,469.361827 61.9798883,469.854078 60.3912386,470.361557 C58.3581139,471.010918 56.3383889,471.701691 54.310599,472.367377 C51.3985855,473.323567 48.4885279,474.28498 45.5707087,475.222279 C42.2302393,476.295152 38.8690378,477.304665 35.5462769,478.429353 C34.6034075,478.748317 33.8043484,479.477363 32.869631,479.837487 C29.5626247,481.11169 26.2157064,482.281527 22.9026548,483.540283 C19.940431,484.665971 17.0118544,485.880399 14.0512413,487.009938 C12.4837896,487.608067 10.8615112,488.063188 9.2951054,488.663619 C6.08432045,489.894366 2.88640042,491.159545 -0.300810024,492.450137 C-1.93429015,493.111473 -3.52182463,493.886796 -5.151874,494.557824 C-6.79156026,495.232676 -7.76833161,494.833532 -7.977983,493.070651 C-8.22722194,490.970186 -8.08513945,488.823671 -8.11702635,486.352453 C-11.8006542,487.59116 -14.9803881,489.552979 -18.1136653,491.528823 C-21.2102471,493.481322 -24.1152817,495.738588 -27.1283539,497.879532 C-29.7276955,495.86704 -30.0944834,493.512346 -28.192481,489.571957 C-29.7500136,489.742078 -31.1690314,489.917579 -32.5920734,490.047267 C-34.2852382,490.201254 -35.6101808,489.329627 -35.7017423,487.667943 C-35.7184438,487.364971 -35.7316126,487.057631 -35.7386248,486.748357 Z M377.901998,505.472673 C376.57927,507.80577 375.285514,510.155745 373.941003,512.476001 C373.013489,514.076864 371.940049,515.593306 371.015024,517.195414 C369.118926,520.479378 367.257674,523.783902 365.423182,527.102755 C364.482911,528.803613 363.660874,530.5702 362.730248,532.276976 C361.794022,533.993721 360.68169,534.330155 359.281862,532.96573 C357.614453,531.339636 356.250095,529.40234 354.512056,527.30773 C352.216762,530.926882 350.853338,534.815491 349.539386,538.683852 C348.24068,542.506733 347.316899,546.457645 346.220124,550.383947 C342.602165,550.465252 340.658151,548.703026 339.558264,544.006976 C338.342944,545.234335 337.249902,546.37011 336.121701,547.469437 C334.779124,548.777166 333.041707,548.950679 331.813008,547.590927 C330.589598,546.237094 329.366188,544.698534 328.782797,543.017925 C328.427784,541.995229 329.048512,540.422403 329.64746,539.324322 C330.733656,537.332823 332.177666,535.540381 333.379296,533.607446 C334.02056,532.576028 334.467982,531.423744 335.009369,530.312579 C334.361883,529.541586 333.741777,528.969649 333.327024,528.275288 C332.451471,526.808376 332.93343,525.636778 334.028027,524.259893 C335.668679,522.1955 337.012189,519.894358 338.546742,517.597265 C337.63074,516.783283 336.991654,516.276453 336.423509,515.700155 C334.394241,513.641681 334.371839,511.015631 336.219089,508.78053 C338.44562,506.08657 340.597789,503.450552 341.64976,499.8909 C342.472419,497.106913 344.528134,494.703595 345.890002,492.055739 C346.452236,490.963265 346.632387,489.673916 347.021937,488.354037 C347.507629,488.033803 348.69028,487.693631 348.898745,487.041013 C349.755941,484.35671 351.894419,482.565514 353.277134,480.260945 C354.907518,477.544245 356.882024,475.035013 358.704694,472.433884 C360.645286,469.663916 362.579033,466.889274 364.523048,464.12211 C365.759215,462.362688 367.483252,460.773351 368.143184,458.821103 C369.159063,455.815943 372.386849,454.160254 372.603404,450.72178 C372.65412,449.916832 373.810012,449.216552 374.359489,448.401947 C377.115273,444.315527 379.829364,440.201071 382.576125,436.108421 C384.329721,433.496078 386.497758,433.187369 388.988449,435.073265 C389.988771,435.830864 391.10577,436.434263 392.548846,437.348241 C393.860621,436.369469 396.038303,434.74462 398.45432,432.942521 C400.875316,434.080787 402.686162,433.050927 403.92264,430.576584 C404.383441,429.654818 404.975855,428.798782 405.511642,427.91471 C406.624176,426.079309 408.132296,425.601515 409.796096,426.541124 C410.497584,425.538551 411.199606,424.536382 411.902972,423.535192 C413.139139,421.77577 414.863176,420.186433 415.523108,418.234185 C416.538987,415.229025 419.766773,413.573336 419.983328,410.134862 C420.034044,409.329914 421.189936,408.629634 421.739413,407.815029 C424.495197,403.72861 427.209288,399.614154 429.956049,395.521503 C431.709645,392.90916 433.877682,392.600452 436.368373,394.486348 C437.368694,395.243946 438.485694,395.847345 439.92877,396.761323 C441.240545,395.782551 443.418227,394.157702 445.834244,392.355603 C448.255239,393.493869 450.066086,392.464009 451.302564,389.989666 C451.763365,389.067901 452.355779,388.211865 452.891565,387.327792 C454.176893,385.207327 455.990228,384.89893 457.961623,386.494808 C458.433314,386.876411 458.782104,387.417819 459.270286,387.771075 C461.390096,389.305273 462.145549,391.05535 460.702784,393.552745 C459.843721,395.039282 459.990269,396.594975 461.748532,397.51861 C464.622239,399.028822 464.028891,401.632443 463.676056,404.022677 C463.504928,405.181192 462.826016,406.329738 462.157994,407.337481 C459.723309,411.012081 457.212082,414.63684 454.692766,418.254745 C454.049325,419.178379 453.22262,419.973047 452.564555,420.887959 C451.490804,422.380415 450.466525,423.90963 449.458114,425.447567 C448.167497,427.415702 446.917018,429.410005 445.64227,431.38842 C443.811822,434.229725 441.986663,437.074145 440.138169,439.9033 C438.021781,443.142095 435.843788,446.341016 433.778428,449.611896 C433.192236,450.539892 433.013018,451.719278 432.462297,452.676867 C430.513926,456.064876 428.459145,459.391205 426.494906,462.770181 C424.738821,465.79154 423.072967,468.865544 421.320927,471.889084 C420.393413,473.489946 419.319973,475.006388 418.394948,476.608497 C416.498849,479.892461 414.637598,483.196984 412.803105,486.515838 C411.862834,488.216695 411.040797,489.983282 410.110172,491.690059 C409.173946,493.406804 408.061613,493.743237 406.661786,492.378813 C404.994376,490.752718 403.630019,488.815422 401.89198,486.720813 C399.596686,490.339964 398.233262,494.228573 396.91931,498.096935 C395.620603,501.919815 394.696823,505.870727 393.600048,509.797029 C389.982089,509.878334 388.038074,508.116108 386.938188,503.420059 C385.722867,504.647418 384.629826,505.783192 383.501625,506.882519 C382.159048,508.190248 380.421631,508.363761 379.192932,507.004009 C378.752679,506.516823 378.312426,506.005714 377.901998,505.472673 Z M244.591248,197.741964 C240.898498,195.571643 236.969297,194.343138 233.062034,193.163426 C229.200702,191.997382 225.224653,191.21095 221.267132,190.250564 C221.059709,186.633342 222.750921,184.626697 227.400143,183.362281 C226.132576,182.189089 224.960697,181.135051 223.823973,180.044561 C222.471739,178.746843 222.237904,177.014473 223.55233,175.737605 C224.861033,174.466236 226.35413,173.18842 228.011358,172.546038 C229.019825,172.155127 230.611487,172.721325 231.728497,173.282299 C233.754324,174.299624 235.593939,175.681917 237.565335,176.816787 C238.617278,177.422427 239.783106,177.829894 240.911167,178.332817 C241.658177,177.658047 242.207444,177.017621 242.886083,176.578395 C244.319801,175.651138 245.506113,176.092489 246.918724,177.139669 C249.036663,178.709227 251.380556,179.97321 253.727074,181.428486 C254.507625,180.483544 254.991241,179.8264 255.546675,179.237812 C257.530628,177.135526 260.151174,177.021463 262.446726,178.791782 C265.213547,180.925589 267.919936,182.987012 271.509902,183.915363 C274.317594,184.641341 276.788335,186.614375 279.478959,187.884625 C280.589091,188.409059 281.88241,188.544317 283.21351,188.88803 C283.55012,189.362828 283.930954,190.534294 284.589674,190.720104 C287.299067,191.484117 289.161675,193.561326 291.510357,194.864415 C294.279072,196.400935 296.852703,198.289017 299.512766,200.021967 C302.34548,201.867016 305.18262,203.705053 308.012655,205.553624 C309.812056,206.729106 311.458703,208.398678 313.430473,208.990861 C316.465684,209.90245 318.231044,213.074329 321.670894,213.171008 C322.476165,213.193662 323.215526,214.325786 324.047843,214.847152 C328.223092,217.461923 332.424872,220.033998 336.606025,222.639523 C339.274872,224.302968 339.658689,226.461491 337.863107,229.019445 C337.141781,230.046787 336.578449,231.185494 335.716478,232.661306 C336.73927,233.939683 338.437198,236.061924 340.320375,238.416452 C339.268647,240.878579 340.359853,242.654535 342.8729,243.805378 C343.80909,244.234278 344.684262,244.797161 345.585444,245.302405 C347.746954,246.514475 348.118081,248.318101 346.593873,250.346336 C346.229418,250.831619 345.701156,251.199507 345.365573,251.700301 C343.908113,253.874885 342.187547,254.691853 339.64429,253.335407 C338.130444,252.527725 336.582662,252.728651 335.722051,254.52017 C334.314845,257.448251 331.695197,256.945424 329.296946,256.675802 C328.134541,256.545006 326.964366,255.905784 325.935122,255.272544 C322.182158,252.964686 318.476275,250.578503 314.776951,248.183987 C313.832522,247.572406 313.010431,246.772955 312.074197,246.146437 C310.546951,245.124149 308.984739,244.152644 307.414374,243.19732 C305.404735,241.974641 303.370376,240.793035 301.35103,239.586592 C298.450951,237.854241 295.547948,236.127291 292.659367,234.376459 C289.352534,232.371875 286.083353,230.304257 282.746273,228.351849 C281.799488,227.797704 280.615967,227.659542 279.64088,227.141921 C276.190964,225.310658 272.798904,223.37077 269.357452,221.523315 C266.280238,219.871654 263.153623,218.312114 260.074374,216.664576 C258.444019,215.792392 256.892841,214.771252 255.26133,213.901603 C251.917097,212.119011 248.553557,210.372005 245.176647,208.652273 C243.446032,207.770815 241.653932,207.009954 239.917746,206.138353 C238.171413,205.261497 237.796765,204.16026 239.109883,202.712002 C240.674863,200.986874 242.561061,199.554113 244.591248,197.741964 Z M227.872614,433.246923 C229.308028,437.285965 231.529242,440.755705 233.764977,444.173947 C235.974302,447.55216 238.515224,450.7134 240.930271,453.995973 C238.766826,456.900414 236.18297,457.349209 231.809675,455.325786 C232.027471,457.04025 232.248465,458.601856 232.419127,460.168763 C232.621833,462.033106 231.68874,463.510664 229.862052,463.642899 C228.043279,463.774604 226.079113,463.792581 224.397178,463.21816 C223.373674,462.868613 222.517903,461.410562 222.022381,460.261976 C221.123655,458.178933 220.601892,455.936145 219.820327,453.798087 C219.403327,452.657158 218.771855,451.594748 218.230598,450.48352 C217.225137,450.519683 216.393205,450.656795 215.591345,450.556522 C213.897733,450.344168 213.272322,449.242619 212.862514,447.531343 C212.247771,444.965985 211.263751,442.489299 210.400534,439.864384 C209.195924,440.085926 208.40355,440.278096 207.600176,440.371529 C204.730664,440.705194 202.649977,439.106111 202.028068,436.272659 C201.278514,432.857472 200.528781,429.536626 198.374731,426.515134 C196.690008,424.152104 196.064044,421.050619 194.818437,418.345992 C194.304725,417.229824 193.400824,416.293891 192.601814,415.173958 C192.648787,414.593615 193.10916,413.451134 192.723845,412.884873 C191.138844,410.555968 191.045619,407.766047 190.083038,405.256321 C188.94856,402.297464 188.189237,399.194841 187.264105,396.155433 C186.278684,392.919041 185.285371,389.685174 184.304264,386.447809 C183.680529,384.389327 183.491028,382.050657 182.36076,380.32808 C180.620915,377.676442 181.30499,374.110539 178.731982,371.822753 C178.129653,371.287165 178.29012,369.944089 177.987257,369.009059 C176.467574,364.319035 174.900156,359.644643 173.370014,354.957902 C172.393529,351.966085 173.48533,350.065554 176.503091,349.261599 C177.715236,348.93882 178.87785,348.429055 180.485663,347.853242 C180.522907,346.215726 180.584746,343.497289 180.65381,340.481691 C183.040223,339.272436 183.344516,337.209726 182.158278,334.71085 C181.716478,333.779806 181.407441,332.785393 181.041475,331.818395 C180.163839,329.498849 181.037508,327.878352 183.507294,327.305542 C184.098045,327.16834 184.73891,327.226486 185.317503,327.058821 C187.830115,326.330946 189.672658,326.812388 190.750036,329.488206 C191.391159,331.081166 192.705827,331.923328 194.51529,331.104794 C197.473169,329.767365 199.157109,331.838435 200.821173,333.588379 C201.627652,334.436643 202.113663,335.679386 202.495555,336.826849 C203.888794,341.010002 205.19568,345.222856 206.492191,349.437873 C206.823017,350.514162 206.93951,351.655636 207.254467,352.738092 C207.768073,354.504074 208.341068,356.253657 208.930698,357.99609 C209.685182,360.226026 210.484973,362.440406 211.257318,364.664151 C212.366697,367.857564 213.481785,371.04872 214.570492,374.24889 C215.816684,377.912613 216.993563,381.600392 218.296424,385.243611 C218.665929,386.277417 219.483855,387.144913 219.898491,388.168955 C221.365566,391.791987 222.718582,395.460997 224.168778,399.090987 C225.465656,402.336583 226.859522,405.543403 228.160606,408.78715 C228.849568,410.504501 229.382244,412.285005 230.073719,414.001159 C231.491085,417.518894 232.946088,421.021795 234.428843,424.512406 C235.188655,426.301385 236.072992,428.037549 236.8434,429.822562 C237.618207,431.61813 237.198184,432.702833 235.262462,432.967202 C232.956046,433.28158 230.591269,433.16527 227.872614,433.246923 Z M-22.4402421,227.91923 C-19.9484466,231.405681 -16.8580263,234.12803 -13.7678251,236.796869 C-10.7140317,239.434519 -7.40122078,241.772091 -4.17600532,244.261033 C-5.4560216,247.649997 -7.81622639,248.794461 -12.5771743,248.056301 C-11.8958074,249.644245 -11.2534488,251.084371 -10.6580139,252.543481 C-9.94988899,254.279664 -10.4400501,255.957485 -12.1595694,256.5887 C-13.8716261,257.217222 -15.7547548,257.776544 -17.5296778,257.688532 C-18.6097668,257.634977 -19.8338026,256.469572 -20.626345,255.502227 C-22.0637382,253.747896 -23.1827498,251.735978 -24.5226655,249.896429 C-25.2376203,248.914776 -26.1371219,248.067787 -26.9633436,247.148974 C-27.9198985,247.461208 -28.6818542,247.822594 -29.4802579,247.947491 C-31.1667255,248.210742 -32.0711755,247.324457 -32.9362393,245.792565 C-34.2334357,243.496233 -35.8611921,241.387045 -37.4136329,239.102033 C-38.5105866,239.647424 -39.2193586,240.050817 -39.9658882,240.362334 C-42.6323792,241.474961 -45.0727064,240.512021 -46.4505999,237.959958 C-48.1113515,234.883921 -49.7463015,231.898619 -52.6487532,229.588618 C-54.918777,227.782053 -56.3743605,224.973459 -58.3163248,222.71735 C-59.117428,221.786187 -60.2439848,221.135956 -61.3203712,220.279907 C-61.4349909,219.709082 -61.3069887,218.483811 -61.833274,218.045821 C-63.9980447,216.244539 -64.8557497,213.588421 -66.4719935,211.441557 C-68.3771254,208.910398 -69.9612151,206.137512 -71.6872874,203.47115 C-73.5255442,200.632074 -75.3706926,197.797601 -77.205071,194.956397 C-78.3713624,193.149787 -79.197381,190.954008 -80.7581065,189.610076 C-83.160574,187.541296 -83.4847259,183.924749 -86.587909,182.435649 C-87.3143577,182.087031 -87.5298688,180.751701 -88.0784216,179.936472 C-90.8304431,175.847511 -93.6240468,171.786751 -96.3852181,167.703832 C-98.1475513,165.097389 -97.6212797,162.969183 -94.9417575,161.363573 C-93.8654331,160.718789 -92.8882008,159.907929 -91.5011976,158.910721 C-91.9162206,157.326362 -92.6051882,154.696167 -93.3690225,151.778329 C-91.4079747,149.95735 -91.6833538,147.890572 -93.5116035,145.815859 C-94.1926137,145.042803 -94.7634503,144.172196 -95.3814639,143.343652 C-96.8636944,141.356158 -96.470008,139.557334 -94.2535977,138.325138 C-93.723504,138.030224 -93.0914567,137.909261 -92.5814377,137.58842 C-90.3665505,136.195347 -88.4628399,136.149659 -86.6905187,138.424501 C-85.6356752,139.778826 -84.1400795,140.22556 -82.6260622,138.939385 C-80.1509736,136.837493 -77.9620814,138.363624 -75.8807044,139.586555 C-74.8719315,140.179398 -74.0626092,141.239876 -73.3796031,142.2375 C-70.8886742,145.874119 -68.4725757,149.563118 -66.0658543,153.25706 C-65.4515315,154.200358 -65.025293,155.265466 -64.4245259,156.219072 C-63.4446247,157.774905 -62.4121497,159.298585 -61.3656529,160.810802 C-60.0264733,162.746143 -58.6480252,164.654026 -57.2933812,166.578487 C-55.3478003,169.342042 -53.3973531,172.101853 -51.4697834,174.877608 C-49.2632095,178.055498 -47.1166398,181.27564 -44.8612367,184.418182 C-44.2214287,185.30997 -43.1963577,185.918141 -42.5158562,186.788088 C-40.1081575,189.865908 -37.797441,193.019401 -35.4040527,196.108567 C-33.2638702,198.87054 -31.0411324,201.568475 -28.8974153,204.32751 C-27.7623398,205.788204 -26.7601086,207.352734 -25.6229467,208.811584 C-23.2920208,211.801904 -20.9290006,214.767577 -18.5426862,217.713779 C-17.3197856,219.223774 -15.9917232,220.648636 -14.7597281,222.151894 C-13.5205995,223.664085 -13.6257219,224.82268 -15.4136742,225.611001 C-17.5441926,226.549691 -19.8493829,227.090484 -22.4402421,227.91923 Z M456.167762,301.164086 C452.475012,298.993765 448.545811,297.76526 444.638548,296.585548 C440.777216,295.419504 436.801167,294.633072 432.843646,293.672686 C432.636223,290.055463 434.327435,288.048819 438.976657,286.784403 C437.709091,285.611211 436.537212,284.557173 435.400487,283.466683 C434.048253,282.168965 433.814418,280.436594 435.128844,279.159727 C436.437547,277.888358 437.930644,276.610542 439.587873,275.96816 C440.596339,275.577249 442.188001,276.143447 443.305011,276.704421 C445.330838,277.721746 447.170453,279.104039 449.141849,280.238908 C450.193792,280.844548 451.35962,281.252016 452.487681,281.754939 C453.234691,281.080169 453.783959,280.439743 454.462597,280.000517 C455.896315,279.07326 457.082627,279.514611 458.495238,280.561791 C460.613177,282.131349 462.95707,283.395332 465.303588,284.850608 C466.084139,283.905666 466.567755,283.248521 467.123189,282.659934 C469.107142,280.557648 471.727689,280.443585 474.02324,282.213903 C476.790061,284.34771 479.49645,286.409134 483.086416,287.337485 C485.894108,288.063463 488.364849,290.036497 491.055473,291.306747 C492.165605,291.83118 493.458924,291.966439 494.790024,292.310152 C495.126634,292.78495 495.507468,293.956416 496.166188,294.142226 C498.875581,294.906239 500.738189,296.983448 503.086871,298.286537 C505.855586,299.823056 508.429217,301.711139 511.08928,303.444089 C513.921994,305.289138 516.759134,307.127175 519.589169,308.975746 C521.38857,310.151228 523.035217,311.8208 525.006987,312.412982 C528.042198,313.324572 529.807558,316.496451 533.247409,316.59313 C534.05268,316.615784 534.792041,317.747908 535.624358,318.269274 C539.799606,320.884045 544.001386,323.45612 548.182539,326.061645 C550.851386,327.72509 551.235203,329.883613 549.439621,332.441567 C548.718295,333.468909 548.154963,334.607616 547.292992,336.083428 C548.315784,337.361805 550.013712,339.484046 551.896889,341.838574 C550.845161,344.300701 551.936367,346.076657 554.449414,347.2275 C555.385604,347.6564 556.260776,348.219283 557.161958,348.724527 C559.323468,349.936597 559.694596,351.740223 558.170387,353.768458 C557.805932,354.253741 557.27767,354.621629 556.942087,355.122423 C555.484627,357.297006 553.764061,358.113975 551.220804,356.757529 C549.706958,355.949847 548.159176,356.150773 547.298565,357.942291 C545.891359,360.870373 543.271711,360.367546 540.87346,360.097924 C539.711055,359.967128 538.54088,359.327906 537.511636,358.694666 C533.758672,356.386808 530.052789,354.000625 526.353465,351.606108 C525.409036,350.994528 524.586945,350.195077 523.650711,349.568559 C522.123465,348.546271 520.561253,347.574766 518.990888,346.619442 C516.981249,345.396763 514.946891,344.215157 512.927544,343.008714 C510.027465,341.276363 507.124462,339.549413 504.235881,337.798581 C500.929048,335.793997 497.659867,333.726379 494.322787,331.773971 C493.376002,331.219826 492.192481,331.081664 491.217394,330.564042 C487.767478,328.73278 484.375418,326.792892 480.933966,324.945437 C477.856753,323.293776 474.730137,321.734236 471.650888,320.086698 C470.020534,319.214514 468.469355,318.193374 466.837844,317.323725 C463.493611,315.541133 460.130071,313.794127 456.753161,312.074395 C455.022546,311.192937 453.230447,310.432076 451.49426,309.560475 C449.747928,308.683619 449.373279,307.582382 450.686397,306.134124 C452.251377,304.408996 454.137575,302.976235 456.167762,301.164086 Z" id="Combined-Shape" fill="#FF9565" mask="url(#mask-2)" transform="translate(222.635671, 343.500747) rotate(-92.000000) translate(-222.635671, -343.500747) "></path>
            <path d="M75.8931431,880.031088 C73.9599066,883.069201 72.8115478,886.333511 71.7048571,889.580824 C70.6110074,892.789958 69.8329432,896.106569 68.9091722,899.402521 C65.8619072,899.470772 64.2245395,897.991464 63.2981479,894.049344 C62.274531,895.079656 61.3539047,896.033087 60.4036654,896.955922 C59.2728649,898.053701 57.8095068,898.199357 56.7746212,897.057907 C55.7441907,895.921426 54.7137602,894.629876 54.2223926,893.21908 C53.9233791,892.360574 54.4461941,891.040258 54.9506648,890.118469 C55.8655257,888.446697 57.0817587,886.942023 58.0938448,885.319412 C58.633956,884.453584 59.0108022,883.486294 59.4667913,882.553522 C58.9214388,881.906308 58.3991478,881.426193 58.0498183,880.843309 C57.3123738,879.611903 57.718309,878.6284 58.6402455,877.472568 C60.0221021,875.739604 61.1536888,873.8079 62.446182,871.879595 C61.6746695,871.196295 61.1363927,870.770833 60.6578662,870.287057 C58.9486933,868.559062 58.9298248,866.354613 60.485691,864.478347 C62.3610117,862.216891 64.1736993,860.004074 65.0597333,857.015908 C65.7526271,854.678878 67.4840753,852.661402 68.6311237,850.438648 C69.104671,849.521566 69.2564053,848.439215 69.5845078,847.331238 C69.9935877,847.062415 70.989688,846.776857 71.16527,846.229013 C71.8872527,843.975664 73.6884096,842.472036 74.8530162,840.537455 C76.2262247,838.25691 77.8892746,836.150523 79.4244379,833.966994 C81.0589229,831.641732 82.6876426,829.312547 84.3250103,826.989638 C85.3661854,825.512684 86.8182748,824.178508 87.3741097,822.539685 C88.2297444,820.01699 90.9483828,818.627115 91.1307785,815.740672 C91.1734947,815.064955 92.1470576,814.477102 92.6098603,813.793278 C94.9309496,810.362915 97.2169225,806.909017 99.530412,803.473423 C101.007397,801.28048 102.83345,801.021333 104.931262,802.604457 C105.773794,803.240426 106.714599,803.746953 107.930045,804.514195 C109.034902,803.692561 110.869079,802.328574 112.903995,800.815794 C114.943105,801.771317 116.46831,800.906796 117.509747,798.829698 C117.897862,798.055918 118.39683,797.337314 118.848101,796.595176 C119.930682,794.815142 121.457984,794.556257 123.118413,795.895924 C123.5157,796.216262 123.809472,796.67075 124.220649,796.967291 C126.006082,798.255181 126.64237,799.724291 125.427185,801.82074 C124.70363,803.06862 124.827062,804.374554 126.307978,805.149903 C128.728389,806.417657 128.228636,808.603278 127.931457,810.609771 C127.787322,811.582292 127.215501,812.546444 126.652853,813.392398 C124.602212,816.477058 122.487104,819.519877 120.365182,822.556944 C119.823237,823.332293 119.126936,823.99938 118.572674,824.767407 C117.668295,826.020256 116.805585,827.303962 115.95624,828.59499 C114.869204,830.24715 113.815974,831.921276 112.742303,833.582065 C111.200588,835.967211 109.663328,838.354972 108.106414,840.72992 C106.323863,843.44874 104.489424,846.134089 102.749852,848.879844 C102.256126,849.658853 102.105178,850.648894 101.641327,851.452747 C100.00029,854.296826 98.2696284,857.089128 96.6152266,859.925624 C95.1361447,862.461917 93.733061,865.042404 92.257386,867.580527 C91.4761771,868.924378 90.5720608,870.197363 89.7929484,871.54226 C88.1959383,874.298998 86.6282793,877.072995 85.0831577,879.859021 C84.2912042,881.286814 83.5988346,882.769783 82.815005,884.202544 C82.0264584,885.643673 81.0895842,885.926094 79.9105642,884.780721 C78.5061702,883.415689 77.3570253,881.789417 75.8931431,880.031088 Z M-39.8721287,1076.74836 C-40.1893389,1076.76571 -40.5059344,1076.79176 -40.8216705,1076.83061 C-43.9636775,1077.21689 -47.1542558,1077.20394 -50.3236828,1077.36736 C-53.6985996,1077.54169 -57.0729798,1077.72431 -60.4477971,1077.89421 C-62.5936521,1078.00215 -64.9060002,1077.62047 -66.848858,1078.30174 C-69.8395774,1079.35042 -73.1299498,1077.82321 -75.9696062,1079.76929 C-76.6343836,1080.22485 -77.8971937,1079.74405 -78.8766394,1079.81206 C-83.7895825,1080.15374 -88.6989234,1080.54557 -93.6112151,1080.8982 C-96.7469428,1081.12303 -98.3246961,1079.60262 -98.3737797,1076.47651 C-98.3933535,1075.22089 -98.6061272,1073.96814 -98.7752062,1072.26693 C-100.353181,1071.8346 -102.972771,1071.11687 -105.878605,1070.32024 C-106.473219,1067.70941 -108.398663,1066.91479 -111.107405,1067.46263 C-112.116599,1067.66658 -113.155089,1067.72622 -114.180782,1067.8478 C-116.641071,1068.13923 -118.000203,1066.89847 -117.957841,1064.36062 C-117.947894,1063.75354 -117.736502,1063.14504 -117.759019,1062.54241 C-117.856577,1059.92544 -116.944241,1058.25197 -114.090353,1057.85269 C-112.391447,1057.61524 -111.257226,1056.54184 -111.612752,1054.58601 C-112.193335,1051.38903 -109.778793,1050.2542 -107.680275,1049.06099 C-106.663082,1048.48275 -105.341112,1048.31126 -104.136669,1048.21787 C-99.7455457,1047.8764 -95.3465287,1047.62601 -90.9479252,1047.38621 C-89.8248149,1047.32521 -88.6903827,1047.48819 -87.5651343,1047.4441 C-85.7293947,1047.37238 -83.8951811,1047.23901 -82.0638719,1047.08774 C-79.7202215,1046.89427 -77.3806867,1046.65302 -75.0387148,1046.4407 C-71.6754626,1046.13555 -68.3130151,1045.8243 -64.9482147,1045.54087 C-61.0960669,1045.21659 -57.237374,1044.96546 -53.3913878,1044.58117 C-52.3000916,1044.47232 -51.2614906,1043.88761 -50.1687397,1043.73255 C-46.3025905,1043.18385 -42.4194747,1042.75707 -38.5506663,1042.22645 C-35.0914807,1041.75178 -31.6464109,1041.17351 -28.1879992,1040.6943 C-26.3569681,1040.44047 -24.5025409,1040.35375 -22.6720615,1040.09719 C-18.9199853,1039.5713 -15.1731814,1039.00527 -11.4315732,1038.4093 C-9.51398438,1038.10397 -7.61745401,1037.6649 -5.70114504,1037.34832 C-3.77354216,1037.03002 -2.82392411,1037.70046 -3.03600658,1039.64488 C-3.28930296,1041.9615 -3.97411493,1044.23063 -4.55268314,1046.89142 C-1.46314368,1046.5889 1.4363328,1045.81278 4.26585743,1044.89629 C4.40108987,1044.79695 4.53858806,1044.69827 4.6791779,1044.60144 C4.77045124,1044.61049 4.87691268,1044.63114 4.9932529,1044.65732 C5.82050868,1044.38195 6.64262636,1044.09696 7.4626433,1043.81077 C11.2710949,1042.48178 14.9494893,1040.77817 18.7150205,1039.2262 C19.1173666,1039.7186 19.4432035,1040.20528 19.6906512,1040.69342 C20.4628111,1040.48688 21.2345825,1040.27923 22.0021499,1040.05992 C24.9512028,1039.21704 27.8980904,1038.36696 30.8479596,1037.52801 C32.7236345,1036.99466 34.8465712,1036.86035 36.4255995,1035.86138 C38.8562663,1034.32364 42.0781478,1035.00283 44.1918963,1032.70228 C44.6867401,1032.16374 45.9017483,1032.33125 46.7540445,1032.07124 C51.0290925,1030.76651 55.2907091,1029.41816 59.5629431,1028.10387 C62.2901515,1027.26515 63.9960585,1028.28781 64.6780743,1031.04246 C64.9518873,1032.14891 65.3959715,1033.2134 65.8930278,1034.68341 C67.3768547,1034.74375 69.8401537,1034.84392 72.5727159,1034.95547 C73.63192,1037.14309 75.4970467,1037.45293 77.7806558,1036.41567 C78.6314919,1036.02936 79.5377145,1035.7647 80.419967,1035.44787 C82.5362318,1034.68807 83.9916695,1035.50803 84.4726451,1037.76109 C84.5878635,1038.30001 84.5252219,1038.8813 84.6682431,1039.40966 C85.2891213,1041.70415 84.8241414,1043.3703 82.3818216,1044.3058 C80.9278707,1044.86248 80.1440792,1046.04322 80.8580365,1047.70037 C82.0245735,1050.40924 80.1210563,1051.90558 78.5089471,1053.38906 C77.7274992,1054.10802 76.593424,1054.52945 75.5473326,1054.85783 C71.7337222,1056.05589 67.894526,1057.17501 64.0535299,1058.28468 C63.0727497,1058.56782 62.0362007,1058.65518 61.0500757,1058.9238 C59.4412571,1059.36183 57.8463844,1059.85408 56.2577347,1060.36156 C54.2246101,1061.01092 52.204885,1061.70169 50.1770951,1062.36738 C47.2650816,1063.32357 44.355024,1064.28498 41.4372049,1065.22228 C38.0967354,1066.29515 34.7355339,1067.30466 31.412773,1068.42935 C30.4699036,1068.74832 29.6708445,1069.47736 28.7361272,1069.83749 C25.4291209,1071.11169 22.0822025,1072.28153 18.7691509,1073.54028 C15.8069271,1074.66597 12.8783506,1075.8804 9.91773745,1077.00994 C8.3502858,1077.60807 6.7280074,1078.06319 5.16160156,1078.66362 C1.95081661,1079.89437 -1.24710342,1081.15955 -4.43431386,1082.45014 C-6.06779399,1083.11147 -7.65532847,1083.8868 -9.28537784,1084.55782 C-10.9250641,1085.23268 -11.9018355,1084.83353 -12.1114868,1083.07065 C-12.3607258,1080.97019 -12.2186433,1078.82367 -12.2505302,1076.35245 C-15.9341581,1077.59116 -19.1138919,1079.55298 -22.2471692,1081.52882 C-25.3437509,1083.48132 -28.2487856,1085.73859 -31.2618577,1087.87953 C-33.8611994,1085.86704 -34.2279873,1083.51235 -32.3259849,1079.57196 C-33.8835175,1079.74208 -35.3025353,1079.91758 -36.7255772,1080.04727 C-38.418742,1080.20125 -39.7436846,1079.32963 -39.8352461,1077.66794 C-39.8519476,1077.36497 -39.8651164,1077.05763 -39.8721287,1076.74836 Z M373.768494,1095.47267 C372.445767,1097.80577 371.15201,1100.15574 369.807499,1102.476 C368.879985,1104.07686 367.806546,1105.59331 366.881521,1107.19541 C364.985422,1110.47938 363.124171,1113.7839 361.289678,1117.10276 C360.349407,1118.80361 359.52737,1120.5702 358.596744,1122.27698 C357.660518,1123.99372 356.548186,1124.33015 355.148358,1122.96573 C353.480949,1121.33964 352.116591,1119.40234 350.378553,1117.30773 C348.083258,1120.92688 346.719835,1124.81549 345.405882,1128.68385 C344.107176,1132.50673 343.183395,1136.45764 342.08662,1140.38395 C338.468662,1140.46525 336.524647,1138.70303 335.42476,1134.00698 C334.20944,1135.23434 333.116398,1136.37011 331.988197,1137.46944 C330.64562,1138.77717 328.908203,1138.95068 327.679504,1137.59093 C326.456094,1136.23709 325.232684,1134.69853 324.649293,1133.01792 C324.29428,1131.99523 324.915008,1130.4224 325.513956,1129.32432 C326.600153,1127.33282 328.044162,1125.54038 329.245792,1123.60745 C329.887056,1122.57603 330.334478,1121.42374 330.875865,1120.31258 C330.228379,1119.54159 329.608273,1118.96965 329.193521,1118.27529 C328.317967,1116.80838 328.799926,1115.63678 329.894523,1114.25989 C331.535175,1112.1955 332.878686,1109.89436 334.413238,1107.59727 C333.497236,1106.78328 332.85815,1106.27645 332.290005,1105.70015 C330.260737,1103.64168 330.238335,1101.01563 332.085585,1098.78053 C334.312117,1096.08657 336.464285,1093.45055 337.516256,1089.8909 C338.338915,1087.10691 340.39463,1084.70359 341.756498,1082.05574 C342.318732,1080.96327 342.498883,1079.67392 342.888433,1078.35404 C343.374125,1078.0338 344.556776,1077.69363 344.765241,1077.04101 C345.622437,1074.35671 347.760915,1072.56551 349.14363,1070.26094 C350.774014,1067.54425 352.748521,1065.03501 354.57119,1062.43388 C356.511782,1059.66392 358.445529,1056.88927 360.389544,1054.12211 C361.625711,1052.36269 363.349749,1050.77335 364.009681,1048.8211 C365.025559,1045.81594 368.253345,1044.16025 368.4699,1040.72178 C368.520616,1039.91683 369.676509,1039.21655 370.225985,1038.40195 C372.981769,1034.31553 375.69586,1030.20107 378.442621,1026.10842 C380.196217,1023.49608 382.364254,1023.18737 384.854945,1025.07327 C385.855267,1025.83086 386.972266,1026.43426 388.415343,1027.34824 C389.727117,1026.36947 391.904799,1024.74462 394.320816,1022.94252 C396.741812,1024.08079 398.552658,1023.05093 399.789136,1020.57658 C400.249937,1019.65482 400.842351,1018.79878 401.378138,1017.91471 C402.490673,1016.07931 403.998793,1015.60152 405.662592,1016.54112 C406.364081,1015.53855 407.066102,1014.53638 407.769468,1013.53519 C409.005635,1011.77577 410.729672,1010.18643 411.389604,1008.23419 C412.405483,1005.22902 415.633269,1003.57334 415.849824,1000.13486 C415.90054,999.329914 417.056432,998.629634 417.605909,997.815029 C420.361693,993.72861 423.075784,989.614154 425.822545,985.521503 C427.576141,982.90916 429.744178,982.600452 432.234869,984.486348 C433.235191,985.243946 434.35219,985.847345 435.795266,986.761323 C437.107041,985.782551 439.284723,984.157702 441.70074,982.355603 C444.121736,983.493869 445.932582,982.464009 447.16906,979.989666 C447.629861,979.067901 448.222275,978.211865 448.758062,977.327792 C450.043389,975.207327 451.856724,974.89893 453.828119,976.494808 C454.299811,976.876411 454.648601,977.417819 455.136782,977.771075 C457.256592,979.305273 458.012045,981.05535 456.56928,983.552745 C455.710217,985.039282 455.856765,986.594975 457.615028,987.51861 C460.488735,989.028822 459.895387,991.632443 459.542552,994.022677 C459.371424,995.181192 458.692512,996.329738 458.024491,997.337481 C455.589805,1001.01208 453.078578,1004.63684 450.559262,1008.25474 C449.915821,1009.17838 449.089117,1009.97305 448.431051,1010.88796 C447.357301,1012.38042 446.333021,1013.90963 445.32461,1015.44757 C444.033994,1017.4157 442.783514,1019.41 441.508766,1021.38842 C439.678318,1024.22972 437.853159,1027.07414 436.004665,1029.9033 C433.888277,1033.14209 431.710284,1036.34102 429.644924,1039.6119 C429.058732,1040.53989 428.879515,1041.71928 428.328793,1042.67687 C426.380423,1046.06488 424.325641,1049.39121 422.361402,1052.77018 C420.605317,1055.79154 418.939463,1058.86554 417.187423,1061.88908 C416.259909,1063.48995 415.186469,1065.00639 414.261444,1066.6085 C412.365345,1069.89246 410.504094,1073.19698 408.669602,1076.51584 C407.729331,1078.2167 406.907294,1079.98328 405.976668,1081.69006 C405.040442,1083.4068 403.92811,1083.74324 402.528282,1082.37881 C400.860872,1080.75272 399.496515,1078.81542 397.758476,1076.72081 C395.463182,1080.33996 394.099758,1084.22857 392.785806,1088.09693 C391.487099,1091.91981 390.563319,1095.87073 389.466544,1099.79703 C385.848585,1099.87833 383.904571,1098.11611 382.804684,1093.42006 C381.589363,1094.64742 380.496322,1095.78319 379.368121,1096.88252 C378.025544,1098.19025 376.288127,1098.36376 375.059428,1097.00401 C374.619175,1096.51682 374.178922,1096.00571 373.768494,1095.47267 Z M240.457744,787.741964 C236.764994,785.571643 232.835793,784.343138 228.92853,783.163426 C225.067198,781.997382 221.091149,781.21095 217.133628,780.250564 C216.926205,776.633342 218.617417,774.626697 223.266639,773.362281 C221.999073,772.189089 220.827194,771.135051 219.690469,770.044561 C218.338236,768.746843 218.1044,767.014473 219.418826,765.737605 C220.727529,764.466236 222.220626,763.18842 223.877855,762.546038 C224.886322,762.155127 226.477983,762.721325 227.594993,763.282299 C229.62082,764.299624 231.460435,765.681917 233.431831,766.816787 C234.483774,767.422427 235.649602,767.829894 236.777663,768.332817 C237.524673,767.658047 238.073941,767.017621 238.752579,766.578395 C240.186297,765.651138 241.372609,766.092489 242.78522,767.139669 C244.903159,768.709227 247.247052,769.97321 249.59357,771.428486 C250.374121,770.483544 250.857737,769.8264 251.413171,769.237812 C253.397124,767.135526 256.017671,767.021463 258.313222,768.791782 C261.080043,770.925589 263.786432,772.987012 267.376398,773.915363 C270.18409,774.641341 272.654831,776.614375 275.345455,777.884625 C276.455587,778.409059 277.748906,778.544317 279.080006,778.88803 C279.416616,779.362828 279.79745,780.534294 280.45617,780.720104 C283.165563,781.484117 285.028171,783.561326 287.376853,784.864415 C290.145568,786.400935 292.719199,788.289017 295.379262,790.021967 C298.211976,791.867016 301.049116,793.705053 303.879151,795.553624 C305.678552,796.729106 307.325199,798.398678 309.296969,798.990861 C312.33218,799.90245 314.09754,803.074329 317.537391,803.171008 C318.342662,803.193662 319.082023,804.325786 319.91434,804.847152 C324.089589,807.461923 328.291368,810.033998 332.472521,812.639523 C335.141368,814.302968 335.525185,816.461491 333.729603,819.019445 C333.008277,820.046787 332.444945,821.185494 331.582974,822.661306 C332.605766,823.939683 334.303694,826.061924 336.186871,828.416452 C335.135143,830.878579 336.226349,832.654535 338.739397,833.805378 C339.675586,834.234278 340.550759,834.797161 341.45194,835.302405 C343.61345,836.514475 343.984578,838.318101 342.460369,840.346336 C342.095914,840.831619 341.567652,841.199507 341.232069,841.700301 C339.774609,843.874885 338.054043,844.691853 335.510786,843.335407 C333.99694,842.527725 332.449158,842.728651 331.588547,844.52017 C330.181341,847.448251 327.561693,846.945424 325.163442,846.675802 C324.001038,846.545006 322.830862,845.905784 321.801618,845.272544 C318.048654,842.964686 314.342771,840.578503 310.643447,838.183987 C309.699018,837.572406 308.876927,836.772955 307.940693,836.146437 C306.413447,835.124149 304.851235,834.152644 303.28087,833.19732 C301.271231,831.974641 299.236873,830.793035 297.217526,829.586592 C294.317447,827.854241 291.414444,826.127291 288.525863,824.376459 C285.21903,822.371875 281.949849,820.304257 278.612769,818.351849 C277.665984,817.797704 276.482463,817.659542 275.507376,817.141921 C272.05746,815.310658 268.6654,813.37077 265.223948,811.523315 C262.146735,809.871654 259.020119,808.312114 255.94087,806.664576 C254.310516,805.792392 252.759337,804.771252 251.127826,803.901603 C247.783593,802.119011 244.420053,800.372005 241.043143,798.652273 C239.312528,797.770815 237.520429,797.009954 235.784242,796.138353 C234.03791,795.261497 233.663261,794.16026 234.976379,792.712002 C236.541359,790.986874 238.427557,789.554113 240.457744,787.741964 Z M223.73911,1023.24692 C225.174524,1027.28597 227.395738,1030.7557 229.631473,1034.17395 C231.840798,1037.55216 234.38172,1040.7134 236.796767,1043.99597 C234.633322,1046.90041 232.049466,1047.34921 227.676171,1045.32579 C227.893967,1047.04025 228.114962,1048.60186 228.285623,1050.16876 C228.488329,1052.03311 227.555236,1053.51066 225.728548,1053.6429 C223.909776,1053.7746 221.945609,1053.79258 220.263675,1053.21816 C219.24017,1052.86861 218.384399,1051.41056 217.888878,1050.26198 C216.990151,1048.17893 216.468388,1045.93614 215.686824,1043.79809 C215.269823,1042.65716 214.638351,1041.59475 214.097094,1040.48352 C213.091633,1040.51968 212.259701,1040.6568 211.457841,1040.55652 C209.764229,1040.34417 209.138818,1039.24262 208.72901,1037.53134 C208.114267,1034.96599 207.130247,1032.4893 206.26703,1029.86438 C205.06242,1030.08593 204.270046,1030.2781 203.466672,1030.37153 C200.59716,1030.70519 198.516473,1029.10611 197.894565,1026.27266 C197.14501,1022.85747 196.395277,1019.53663 194.241227,1016.51513 C192.556504,1014.1521 191.93054,1011.05062 190.684933,1008.34599 C190.171221,1007.22982 189.26732,1006.29389 188.46831,1005.17396 C188.515284,1004.59362 188.975656,1003.45113 188.590341,1002.88487 C187.00534,1000.55597 186.912116,997.766047 185.949535,995.256321 C184.815056,992.297464 184.055734,989.194841 183.130601,986.155433 C182.14518,982.919041 181.151867,979.685174 180.17076,976.447809 C179.547026,974.389327 179.357524,972.050657 178.227256,970.32808 C176.487411,967.676442 177.171486,964.110539 174.598479,961.822753 C173.996149,961.287165 174.156616,959.944089 173.853753,959.009059 C172.33407,954.319035 170.766652,949.644643 169.23651,944.957902 C168.260026,941.966085 169.351826,940.065554 172.369587,939.261599 C173.581732,938.93882 174.744346,938.429055 176.35216,937.853242 C176.389403,936.215726 176.451243,933.497289 176.520307,930.481691 C178.90672,929.272436 179.211012,927.209726 178.024774,924.71085 C177.582974,923.779806 177.273938,922.785393 176.907971,921.818395 C176.030335,919.498849 176.904005,917.878352 179.37379,917.305542 C179.964542,917.16834 180.605407,917.226486 181.183999,917.058821 C183.696612,916.330946 185.539154,916.812388 186.616533,919.488206 C187.257655,921.081166 188.572324,921.923328 190.381786,921.104794 C193.339665,919.767365 195.023605,921.838435 196.687669,923.588379 C197.494148,924.436643 197.980159,925.679386 198.362051,926.826849 C199.75529,931.010002 201.062176,935.222856 202.358688,939.437873 C202.689514,940.514162 202.806006,941.655636 203.120964,942.738092 C203.634569,944.504074 204.207564,946.253657 204.797194,947.99609 C205.551678,950.226026 206.351469,952.440406 207.123814,954.664151 C208.233193,957.857564 209.348281,961.04872 210.436988,964.24889 C211.68318,967.912613 212.860059,971.600392 214.16292,975.243611 C214.532425,976.277417 215.350351,977.144913 215.764987,978.168955 C217.232062,981.791987 218.585079,985.460997 220.035274,989.090987 C221.332152,992.336583 222.726018,995.543403 224.027102,998.78715 C224.716064,1000.5045 225.24874,1002.28501 225.940215,1004.00116 C227.357581,1007.51889 228.812584,1011.02179 230.295339,1014.51241 C231.055151,1016.30138 231.939488,1018.03755 232.709896,1019.82256 C233.484703,1021.61813 233.06468,1022.70283 231.128958,1022.9672 C228.822542,1023.28158 226.457765,1023.16527 223.73911,1023.24692 Z M-26.5737459,817.91923 C-24.0819504,821.405681 -20.9915301,824.12803 -17.9013289,826.796869 C-14.8475355,829.434519 -11.5347246,831.772091 -8.30950916,834.261033 C-9.58952544,837.649997 -11.9497302,838.794461 -16.7106781,838.056301 C-16.0293112,839.644245 -15.3869527,841.084371 -14.7915178,842.543481 C-14.0833928,844.279664 -14.5735539,845.957485 -16.2930733,846.5887 C-18.00513,847.217222 -19.8882587,847.776544 -21.6631816,847.688532 C-22.7432706,847.634977 -23.9673064,846.469572 -24.7598488,845.502227 C-26.197242,843.747896 -27.3162536,841.735978 -28.6561693,839.896429 C-29.3711242,838.914776 -30.2706258,838.067787 -31.0968474,837.148974 C-32.0534024,837.461208 -32.815358,837.822594 -33.6137617,837.947491 C-35.3002293,838.210742 -36.2046794,837.324457 -37.0697431,835.792565 C-38.3669395,833.496233 -39.9946959,831.387045 -41.5471367,829.102033 C-42.6440904,829.647424 -43.3528624,830.050817 -44.099392,830.362334 C-46.7658831,831.474961 -49.2062102,830.512021 -50.5841037,827.959958 C-52.2448553,824.883921 -53.8798053,821.898619 -56.7822571,819.588618 C-59.0522809,817.782053 -60.5078643,814.973459 -62.4498286,812.71735 C-63.2509319,811.786187 -64.3774887,811.135956 -65.453875,810.279907 C-65.5684948,809.709082 -65.4404926,808.483811 -65.9667779,808.045821 C-68.1315485,806.244539 -68.9892536,803.588421 -70.6054973,801.441557 C-72.5106293,798.910398 -74.0947189,796.137512 -75.8207912,793.47115 C-77.6590481,790.632074 -79.5041965,787.797601 -81.3385749,784.956397 C-82.5048662,783.149787 -83.3308849,780.954008 -84.8916103,779.610076 C-87.2940779,777.541296 -87.6182297,773.924749 -90.7214129,772.435649 C-91.4478615,772.087031 -91.6633727,770.751701 -92.2119254,769.936472 C-94.9639469,765.847511 -97.7575506,761.786751 -100.518722,757.703832 C-102.281055,755.097389 -101.754784,752.969183 -99.0752613,751.363573 C-97.998937,750.718789 -97.0217046,749.907929 -95.6347015,748.910721 C-96.0497244,747.326362 -96.7386921,744.696167 -97.5025264,741.778329 C-95.5414785,739.95735 -95.8168576,737.890572 -97.6451073,735.815859 C-98.3261175,735.042803 -98.8969542,734.172196 -99.5149677,733.343652 C-100.997198,731.356158 -100.603512,729.557334 -98.3871016,728.325138 C-97.8570079,728.030224 -97.2249605,727.909261 -96.7149416,727.58842 C-94.5000543,726.195347 -92.5963437,726.149659 -90.8240226,728.424501 C-89.7691791,729.778826 -88.2735833,730.22556 -86.7595661,728.939385 C-84.2844775,726.837493 -82.0955853,728.363624 -80.0142082,729.586555 C-79.0054353,730.179398 -78.1961131,731.239876 -77.5131069,732.2375 C-75.022178,735.874119 -72.6060795,739.563118 -70.1993582,743.25706 C-69.5850353,744.200358 -69.1587969,745.265466 -68.5580297,746.219072 C-67.5781285,747.774905 -66.5456536,749.298585 -65.4991567,750.810802 C-64.1599771,752.746143 -62.781529,754.654026 -61.426885,756.578487 C-59.4813042,759.342042 -57.530857,762.101853 -55.6032873,764.877608 C-53.3967133,768.055498 -51.2501436,771.27564 -48.9947405,774.418182 C-48.3549326,775.30997 -47.3298616,775.918141 -46.6493601,776.788088 C-44.2416613,779.865908 -41.9309448,783.019401 -39.5375565,786.108567 C-37.397374,788.87054 -35.1746362,791.568475 -33.0309191,794.32751 C-31.8958436,795.788204 -30.8936124,797.352734 -29.7564505,798.811584 C-27.4255246,801.801904 -25.0625044,804.767577 -22.6761901,807.713779 C-21.4532894,809.223774 -20.1252271,810.648636 -18.8932319,812.151894 C-17.6541033,813.664085 -17.7592257,814.82268 -19.547178,815.611001 C-21.6776964,816.549691 -23.9828867,817.090484 -26.5737459,817.91923 Z M452.034258,891.164086 C448.341508,888.993765 444.412307,887.76526 440.505044,886.585548 C436.643712,885.419504 432.667663,884.633072 428.710142,883.672686 C428.502719,880.055463 430.193931,878.048819 434.843153,876.784403 C433.575587,875.611211 432.403708,874.557173 431.266983,873.466683 C429.91475,872.168965 429.680914,870.436594 430.99534,869.159727 C432.304043,867.888358 433.797141,866.610542 435.454369,865.96816 C436.462836,865.577249 438.054497,866.143447 439.171508,866.704421 C441.197334,867.721746 443.036949,869.104039 445.008345,870.238908 C446.060288,870.844548 447.226116,871.252016 448.354177,871.754939 C449.101187,871.080169 449.650455,870.439743 450.329093,870.000517 C451.762811,869.07326 452.949123,869.514611 454.361734,870.561791 C456.479673,872.131349 458.823567,873.395332 461.170085,874.850608 C461.950635,873.905666 462.434251,873.248521 462.989685,872.659934 C464.973638,870.557648 467.594185,870.443585 469.889736,872.213903 C472.656557,874.34771 475.362946,876.409134 478.952912,877.337485 C481.760604,878.063463 484.231345,880.036497 486.921969,881.306747 C488.032101,881.83118 489.32542,881.966439 490.656521,882.310152 C490.99313,882.78495 491.373964,883.956416 492.032685,884.142226 C494.742077,884.906239 496.604685,886.983448 498.953367,888.286537 C501.722082,889.823056 504.295713,891.711139 506.955776,893.444089 C509.78849,895.289138 512.62563,897.127175 515.455665,898.975746 C517.255066,900.151228 518.901713,901.8208 520.873483,902.412982 C523.908694,903.324572 525.674055,906.496451 529.113905,906.59313 C529.919176,906.615784 530.658537,907.747908 531.490854,908.269274 C535.666103,910.884045 539.867882,913.45612 544.049035,916.061645 C546.717882,917.72509 547.101699,919.883613 545.306117,922.441567 C544.584792,923.468909 544.02146,924.607616 543.159488,926.083428 C544.182281,927.361805 545.880208,929.484046 547.763386,931.838574 C546.711657,934.300701 547.802863,936.076657 550.315911,937.2275 C551.2521,937.6564 552.127273,938.219283 553.028454,938.724527 C555.189964,939.936597 555.561092,941.740223 554.036883,943.768458 C553.672428,944.253741 553.144166,944.621629 552.808583,945.122423 C551.351123,947.297006 549.630557,948.113975 547.0873,946.757529 C545.573454,945.949847 544.025673,946.150773 543.165061,947.942291 C541.757855,950.870373 539.138207,950.367546 536.739956,950.097924 C535.577552,949.967128 534.407376,949.327906 533.378132,948.694666 C529.625168,946.386808 525.919286,944.000625 522.219962,941.606108 C521.275532,940.994528 520.453441,940.195077 519.517207,939.568559 C517.989961,938.546271 516.427749,937.574766 514.857384,936.619442 C512.847745,935.396763 510.813387,934.215157 508.79404,933.008714 C505.893961,931.276363 502.990958,929.549413 500.102377,927.798581 C496.795544,925.793997 493.526363,923.726379 490.189283,921.773971 C489.242498,921.219826 488.058977,921.081664 487.08389,920.564042 C483.633975,918.73278 480.241914,916.792892 476.800462,914.945437 C473.723249,913.293776 470.596633,911.734236 467.517384,910.086698 C465.88703,909.214514 464.335851,908.193374 462.70434,907.323725 C459.360107,905.541133 455.996567,903.794127 452.619657,902.074395 C450.889042,901.192937 449.096943,900.432076 447.360756,899.560475 C445.614424,898.683619 445.239775,897.582382 446.552894,896.134124 C448.117873,894.408996 450.004071,892.976235 452.034258,891.164086 Z" id="Combined-Shape" fill="#FF9565" mask="url(#mask-2)" transform="translate(218.502167, 933.500747) rotate(-92.000000) translate(-218.502167, -933.500747) "></path>
        </g>
    </g>
</svg>