<svg xmlns="http://www.w3.org/2000/svg" width="1638" height="1024" viewBox="0 0 1638 1024">
  <g fill="none" fill-rule="evenodd">
    <path fill="#1767D0" d="M588.729424,133.326975 C585.651991,134.721348 584.811943,137.43873 583.015173,139.592049 C577.575448,146.108274 572.163175,152.647831 566.69737,159.144843 C562.832049,163.738316 558.876135,168.260423 554.999833,172.845661 C551.516103,176.96565 547.702942,180.883894 544.725711,185.336008 C541.141779,190.695288 538.223572,196.488251 535.135159,202.157697 C532.123613,207.687157 529.407182,213.371699 526.288571,218.842145 C523.723129,223.342293 520.745898,227.62011 517.985543,232.015955 C517.503751,232.781762 517.227852,233.66697 516.792729,234.464343 C514.961643,237.806173 513.182717,241.176824 511.233585,244.451406 C509.86233,246.751573 507.79927,248.73883 506.816468,251.165259 C502.702702,261.322502 498.859343,271.582675 494.965197,281.823635 C494.134757,284.005774 494.085342,286.761583 492.64271,288.360447 C490.662008,290.553566 490.933788,293.044499 490.206295,295.396818 C489.920789,296.321825 489.882355,297.09724 490.078641,297.732668 C487.817922,298.562979 485.537987,299.356235 483.234717,300.097339 C473.733385,303.153707 465.396042,309.079794 455.238594,310.781588 C449.080984,311.813644 443.104561,313.912067 437.069116,315.604254 C435.382156,316.077737 433.691078,316.538869 432,317 C432.958094,307.944807 433.52499,298.836089 433.850303,289.742469 C434.138555,281.668552 433.229875,273.558953 432.947113,265.461705 C432.683569,257.902444 432.550424,250.339066 432.341784,242.77706 C431.972547,229.39876 431.876463,216.043791 433.526362,202.708036 C434.369156,195.898113 435.21195,188.985259 434.898991,182.169847 C434.568187,174.971531 433.467339,167.819877 434.41308,160.588624 C434.904481,156.826834 435.577069,153.051321 435.629229,149.275808 C435.755511,140.04769 435.413726,130.815456 435.540008,121.588711 C435.778845,104.056111 436.74243,86.5166489 436.363585,69.0005181 C436.148082,59.0532552 437.778764,49.3571443 438.249576,39.5292815 C438.740977,29.2677356 439.523375,19.0185414 440.22616,8.76523005 C441.107388,-4.0888075 442.106661,-16.9373554 442.909648,-29.7955102 C465.644488,-25.0689134 488.666207,-21.4827934 511.637138,-17.9447079 C524.495918,-15.9629408 537.789822,-16.7973691 550.726842,-15.1518437 C558.434148,-14.1719395 564.605485,-15.7639407 570.461116,-20.1282199 C574.890587,-23.4302501 579.37359,-26.6691491 583.779727,-30 C582.939678,-28.8471715 582.216303,-27.6092533 581.766081,-26.172335 C581.521753,-25.3886861 580.63229,-24.753258 579.941858,-24.15763 C575.318847,-20.16802 572.859097,-15.0708712 571.830999,-8.98283888 C568.090587,-8.0976313 565.209441,-6.42877483 563.27678,-2.55170286 C560.893898,2.2297905 556.760915,6.16313148 554.254496,10.90208 C550.724096,17.574761 547.131929,24.1554903 542.585784,30.228426 C541.288651,31.9631584 539.677185,33.7967046 539.27775,35.789451 C538.197492,41.1679448 532.761885,44.0596229 531.684372,49.3228339 C526.33524,53.7722029 524.874764,60.3543045 522.147352,66.2035366 C519.021877,72.9050384 516.538793,79.8933748 513.361159,86.5701731 C509.018164,95.6953595 504.26338,104.63527 499.728217,113.673994 C498.229307,116.660369 498.952682,118.080818 502.395233,118.165908 C512.630921,118.418432 522.878962,118.238646 533.105042,118.658605 C538.537904,118.882309 544.020181,118.428039 549.4201,119.538323 C556.026559,120.897014 562.407907,123.73654 569.438508,122.508229 C570.004031,122.409415 570.84957,122.937794 571.327244,123.405788 C573.738952,125.780066 576.729909,126.239825 579.972056,126.334521 C582.173752,126.397652 584.404272,126.753108 586.545572,127.273253 C589.757522,128.051412 591.250942,132.185126 588.729424,133.326975 Z M121.988356,198.81045 C120.844893,206.305217 118.731245,213.65382 116.556296,221 C116.538315,220.27483 116.521968,219.550468 116.501534,218.825298 C116.282486,210.95341 116.224455,203.095251 117.206901,195.248397 C117.709567,191.24139 118.210598,187.173817 118.024244,183.16358 C117.828081,178.928039 117.171755,174.719955 117.734904,170.465033 C118.02833,168.251569 118.428828,166.03003 118.45907,163.808491 C118.534266,158.379408 118.330747,152.946287 118.405943,147.517204 C118.548978,137.200897 119.121935,126.880552 118.896348,116.573935 C118.768843,110.720894 119.739846,105.01644 120.019377,99.2328478 C120.311986,93.1948807 120.777871,87.1641813 121.196351,81.1310594 C121.793011,72.5348094 122.490204,63.9434047 122.990418,55.3423096 C123.202927,51.6922344 123.026381,48.0219708 123.026381,44.4914115 C122.541697,44.3371716 122.394575,44.2459197 122.345535,44.2814514 C119.173428,46.5393297 115.856651,48.6728471 114.790018,52.7040805 C114.658426,53.1991017 114.414041,53.7861824 114.020899,54.0760888 C112.641224,55.0927801 111.791188,56.4688261 111,57.8828264 C111.241933,56.8322185 111.493675,55.7824182 111.768302,54.7390781 C113.725021,47.3089141 116.436147,40.0652916 118.481956,32.6545085 C120.417423,25.6474949 121.322222,18.3287712 123.769346,11.5123367 C126.24426,4.61918596 128.649699,-2.19724858 130.134811,-9.38111325 C131.744976,-17.1641717 135.813709,-23.9305388 140.872243,-30 C142.556786,-29.5671592 143.984684,-28.7434697 145.209064,-28.9655429 C149.841762,-29.8053832 152.467885,-26.0277169 154.024923,-23.7706461 C157.339248,-18.9674057 159.022974,-13.0974065 161.249415,-7.61744863 C162.403503,-4.77491225 163.042665,-1.7224158 164.34551,1.04663456 C168.133893,9.09052799 172.158489,17.031864 176,25.0547614 C173.553693,30.5742887 171.246335,36.1414608 169.200526,41.7950396 C163.691635,57.0195675 162.027526,73.64033 155.707831,88.4699715 C146.882164,109.185763 144.564998,131.506134 135.619998,152.309947 C129.377952,166.827878 124.459183,182.616876 121.988356,198.81045 Z M1104.81223,357.557554 C1104.06726,361.322964 1103.15116,365.081114 1102.45192,368.852866 C1101.31813,369.752489 1100.22551,371.081808 1099.06938,372.921734 C1095.72006,378.246964 1093.04867,383.976429 1089.96756,389.468165 C1087.25003,394.31466 1085.02789,399.613745 1081.47234,403.792593 C1062.65992,425.90482 1046.20655,449.699157 1031.02043,474.211967 C1025.6541,482.873795 1019.69779,491.029818 1013.13008,498.485898 C1012.43403,497.369811 1011.742,496.251485 1011.06479,495.124955 C1006.69415,487.849432 1002.44776,480.499754 998.130204,473.193049 C990.491713,460.26335 983.131607,447.207513 977.494365,433.223088 C974.615965,426.081774 971.680224,418.840188 967.667146,412.320793 C963.426927,405.436055 958.455838,399.016311 955.449155,391.405555 C953.885813,387.445917 952.492031,383.376442 950.487924,379.643516 C945.592931,370.517578 940.235486,361.642698 935.339147,352.517506 C926.036222,335.182392 917.437827,317.442664 907.539065,300.460717 C901.916442,290.815479 898.240344,280.41348 893.354753,270.511122 C888.254167,260.173301 883.444233,249.690217 878.557449,239.246209 C871.590871,224.364672 864.795632,209.398724 857.667133,194.596376 C857.374363,193.985692 857.051389,193.393511 856.746508,192.789541 C859.184432,184.909319 856.732455,177.528114 850.501376,173.706642 C844.998266,170.332092 839.333069,167.337912 833.402554,165.159885 C829.220131,153.006642 826.056504,140.30804 827.308047,126.063573 C834.477633,126.970203 840.145401,127.503192 845.741654,128.42445 C870.234754,132.453433 882.804462,125.758847 890.277477,102.554616 C898.521005,76.9512446 903.211741,50.0668751 913.57007,25.3654124 C925.213762,-2.40266003 937.821338,-29.8123221 950.917857,-57 C950.035555,-44.9868288 945.696754,-33.2463003 948.077794,-20.8868722 C948.681694,-17.7441398 944.514251,-13.6187561 943.209813,-11.1895283 C944.568429,-4.90490687 946.730338,0.772452693 946.854624,6.52811809 C947.154149,20.4797757 944.006697,35.0391688 946.865839,48.2991968 C950.521241,65.2520897 947.497793,80.9840745 944.29281,97.1248172 C941.633883,110.515435 947.665788,121.175134 960.790208,124.874898 C964.466152,125.911558 968.279859,126.498574 973.944563,127.698824 C972.732023,140.620478 972.326411,153.115973 970.143306,165.33077 C968.686803,173.480447 969.321902,179.373784 976.29652,183.330698 C979.597125,185.203998 983.479266,186.10171 987.92524,187.746855 C988.175512,193.533048 988.913984,199.26696 988.567773,204.957687 C987.922535,215.624535 985.947917,226.27643 985.915076,236.911951 C985.897305,242.776293 986.86164,250.628202 990.656765,253.977569 C996.890492,259.48261 1005.47699,262.926369 1013.64688,265.618557 C1013.78317,265.664501 1013.91932,265.691154 1014.05681,265.732912 C1014.26842,267.406295 1014.47451,269.079222 1014.59166,270.750384 C1015.17326,279.025734 1016.54067,287.233502 1017.0577,295.512952 C1017.76421,306.828549 1017.96758,318.18534 1018.43731,329.521255 C1018.59321,333.26799 1020.07435,334.267594 1023.49553,332.480371 C1033.66607,327.166728 1043.61757,321.419861 1053.86977,316.275762 C1059.31755,313.543013 1064.44495,310.118041 1070.34408,308.272546 C1077.55982,306.015936 1085.35912,305.335706 1091.58467,300.308955 C1092.08532,299.904665 1093.20034,299.96449 1093.92396,300.165555 C1097.57914,301.183793 1100.76142,300.009677 1103.99136,298.340784 C1106.18412,297.206309 1108.56283,296.343806 1110.94635,295.689923 C1114.51849,294.708197 1118.23131,297.953521 1116.38053,300.444372 C1114.12213,303.485145 1114.77686,306.608505 1114.18757,309.699532 C1112.39961,319.050646 1110.65052,328.408393 1108.82655,337.754824 C1107.53607,344.363375 1106.1193,350.950371 1104.81223,357.557554 Z M1564.63065,829.640418 C1563.22676,853.93244 1561.27003,878.192534 1559.59545,902.470873 C1559.35459,905.980582 1559.10455,909.490291 1558.8568,913 L1479.00248,913 C1480.99362,904.206343 1484.99884,896.749066 1491.9426,890.787806 C1493.09645,889.798063 1494.58521,888.739906 1494.99353,887.442294 C1497.37006,879.896077 1504.03395,875.458199 1508.44749,869.405719 C1510.17024,867.045388 1511.47549,864.580154 1515.10909,863.736364 C1516.97177,863.305347 1519.43316,859.795638 1519.28176,857.84808 C1518.98814,854.055587 1520.21081,851.350899 1522.71808,848.992849 C1529.77883,842.37024 1531.40753,832.034957 1539.45696,826.064574 C1540.56034,825.24587 1541.24853,823.587937 1541.61556,822.189983 C1542.18904,820.009813 1542.99651,818.028047 1543.98749,816.199076 C1542.59048,815.768059 1541.18429,815.353006 1539.79417,814.901464 C1494.14707,800.041644 1450.32366,779.749641 1406.13321,760.88524 C1390.72711,754.308241 1375.7064,746.096115 1362.11481,736.486034 C1342.21948,722.419832 1341.15738,714.613637 1351.32183,692.586164 C1352.70278,689.591851 1355.47386,686.636307 1355.45092,683.678482 C1355.14353,645.126414 1385.99242,636.512917 1414.35698,626.633736 C1441.76497,617.08751 1469.98042,609.741978 1497.66139,600.90043 C1504.91712,598.58343 1511.82187,594.788656 1518.34354,590.825125 C1525.76444,586.316552 1533.20139,581.826222 1540.63604,577.335892 C1541.7876,575.486397 1542.91622,573.620937 1543.99896,571.732673 C1549.20849,562.644829 1553.75049,553.196665 1558.7834,544.01076 C1563.94476,534.589962 1568.82167,524.961637 1574.81115,516.056235 C1579.78441,508.660532 1586.15697,502.149668 1591.98129,495.303569 C1598.45937,487.684376 1605.06821,480.170087 1611.53024,472.53493 C1620.39631,462.055974 1629.1798,451.513164 1638,441 L1638,838.340574 C1613.88611,832.335984 1589.07716,828.044059 1564.89445,822.016664 C1564.85775,824.557155 1564.77746,827.099927 1564.63065,829.640418 Z M80.6306476,610.640418 C79.2267568,634.93244 77.2700267,659.192534 75.595451,683.470873 C75.3545874,686.980582 75.104548,690.490291 74.8568026,694 L-4.99751596,694 C-3.00637671,685.206343 0.998841191,677.749066 7.94259524,671.787806 C9.09644668,670.798063 10.5852132,669.739906 10.9935344,668.442294 C13.3700555,660.896077 20.0339489,656.458199 24.447488,650.405719 C26.1702364,648.045388 27.4754878,645.580154 31.1090875,644.736364 C32.9717662,644.305347 35.433163,640.795638 35.281763,638.84808 C34.9881388,635.055587 36.2108084,632.350899 38.718084,629.992849 C45.7788289,623.37024 47.4075258,613.034957 55.4569585,607.064574 C56.5603433,606.24587 57.2485251,604.587937 57.6155553,603.189983 C58.1890402,601.009813 58.9965068,599.028047 59.9874885,597.199076 C58.5904795,596.768059 57.1842948,596.353006 55.7941676,595.901464 C10.1470708,581.041644 -33.6763442,560.749641 -77.8667896,541.88524 C-93.2728854,535.308241 -108.2936,527.096115 -121.885189,517.486034 C-141.780524,503.419832 -142.842618,495.613637 -132.678174,473.586164 C-131.297222,470.591851 -128.526144,467.636307 -128.549083,464.678482 C-128.856471,426.126414 -98.007576,417.512917 -69.6430174,407.633736 C-42.2350315,398.08751 -14.019579,390.741978 13.6613857,381.90043 C20.9171155,379.58343 27.8218726,375.788656 34.3435418,371.825125 C41.7644353,367.316552 49.2013862,362.826222 56.6360433,358.335892 C57.7876008,356.486397 58.9162189,354.620937 59.9989582,352.732673 C65.2084942,343.644829 69.7504939,334.196665 74.7833965,325.01076 C79.9447598,315.589962 84.8216746,305.961637 90.81115,297.056235 C95.7844102,289.660532 102.156973,283.149668 107.981285,276.303569 C114.459369,268.684376 121.068208,261.170087 127.530235,253.53493 C136.39631,243.055974 145.179804,232.513164 154,222 L154,619.340574 C129.886111,613.335984 105.077158,609.044059 80.8944507,603.016664 C80.8577476,605.557155 80.7774598,608.099927 80.6306476,610.640418 Z M613.44664,368.269808 C613.859007,367.919115 614.392128,367.544989 614.538346,367.083593 C614.660741,366.700578 614.820924,366.343421 615,366 L615,457 C614.488237,456.93778 613.975653,456.890913 613.464712,456.876369 C611.524449,456.820613 609.734511,456.549917 608.291225,455.151993 C608.00536,454.876448 607.500169,454.56535 607.160911,454.623529 C602.953448,455.346733 599.134531,453.67488 595.181717,452.874912 C591.949315,452.221201 588.668447,452.488665 585.417151,452.356953 C579.297355,452.10969 573.163594,452.215545 567.038869,452.066864 C564.979496,452.016765 564.545771,451.180435 565.442793,449.422121 C568.157683,444.100313 571.002361,438.836685 573.601426,433.463971 C575.503081,429.532815 576.989083,425.418232 578.860344,421.472531 C580.492563,418.028628 581.365764,414.153227 584.566951,411.533534 C585.211789,408.434668 588.464728,406.73211 589.111208,403.565368 C589.35025,402.392081 590.31381,401.312528 591.090901,400.291155 C593.81154,396.71554 595.960451,392.840948 598.07404,388.912216 C599.574006,386.122024 602.04739,383.806157 603.473425,380.990916 C604.630026,378.708179 606.354248,377.725592 608.592697,377.204401 C609.207962,373.619898 610.679999,370.618805 613.44664,368.269808 Z M1091.44899,919.352112 C1090.19559,919.768432 1088.64759,920.127383 1087.89514,921.037374 C1087.26821,921.791849 1086.57943,922.453298 1085.86045,923.066406 L1169.02312,717.23159 C1170.12403,717.840098 1171.24083,718.414629 1172.38346,718.91455 C1176.72202,720.814142 1180.52406,723.06251 1182.51172,727.543725 C1182.90663,728.428277 1183.76523,729.593723 1184.58591,729.772221 C1194.7655,731.982181 1201.87728,739.254423 1210.08877,744.676917 C1216.80411,749.110106 1224.47094,751.503968 1231.70608,754.773705 C1245.3251,760.926733 1259.29842,766.293802 1273.01868,772.228351 C1277.63188,774.22402 1277.8488,776.512176 1274.21257,779.669428 C1263.20712,789.225418 1251.96123,798.531179 1241.1713,808.308186 C1233.27654,815.461962 1226.1545,823.410559 1218.31521,830.625015 C1211.4753,836.922937 1205.9582,844.890647 1196.32199,847.890173 C1192.03118,854.310156 1183.11603,855.187892 1178.75947,861.759904 C1177.14645,864.195291 1173.97998,865.756422 1171.28854,867.356396 C1161.86589,872.95738 1153.46345,879.757212 1145.09145,886.711789 C1139.14814,891.651952 1131.43612,894.629489 1125.63718,899.693888 C1120.93443,903.80008 1116.13572,904.446606 1110.59531,903.579468 C1105.92758,911.124954 1099.85473,916.567687 1091.44899,919.352112 Z M798.064065,1036.24805 C792.725371,1046.83094 785.600054,1056.12499 779.612282,1066.20166 C774.650707,1074.55556 769.500456,1082.79803 764.353069,1091.04203 L714.957376,1064.77787 L872.438668,768.598637 C875.147305,769.942554 877.701386,772.098689 880.054943,775.201853 C894.974391,773.029636 908.423606,771.070074 916.525058,769.890942 C920.811712,777.292151 924.369464,782.56885 927.054102,788.244224 C928.166747,790.596847 929.392158,792.637226 930.707202,794.412318 C928.480909,798.070916 926.284681,801.745501 924.145825,805.446888 C919.329448,813.779852 915.741572,822.814166 911.506308,831.487593 C907.554759,839.585985 903.463461,847.615627 899.451676,855.685694 C892.353703,869.960694 884.985194,884.064071 875.804192,897.175951 C871.11778,903.872552 866.372368,910.676663 862.886961,918.019256 C859.206009,925.774515 856.354349,933.907758 851.323478,940.989695 C848.705534,944.673371 845.89236,948.271758 843.727753,952.214995 C838.435545,961.850429 833.627715,971.75267 828.335508,981.388104 C818.279029,999.697153 807.465628,1017.613 798.064065,1036.24805 Z M1404.27717,64.4616636 C1410.03983,45.3445115 1419.12761,27.8377062 1426.10926,9.36857381 C1431.89317,-5.94224026 1438.0211,-21.1239019 1444.14385,-36.307244 L1533.36619,-7.31714761 L1358.75388,530.084305 C1353.88917,528.654252 1349.04503,525.832161 1344.25847,521.381001 C1320.23142,529.37712 1298.57252,536.587592 1285.5254,540.928908 C1276.30163,529.921836 1268.89665,522.222089 1262.81926,513.604209 C1260.30036,510.031758 1257.68539,507.01017 1254.99899,504.454783 C1257.62025,497.733678 1260.18721,490.994928 1262.6516,484.228646 C1268.20162,468.995319 1271.5187,452.961175 1276.00997,437.334607 C1280.19864,422.744918 1284.63813,408.228036 1288.93453,393.667559 C1296.537,367.911319 1304.63616,342.359903 1316.01723,317.918279 C1321.82558,305.436024 1327.70036,292.758157 1331.33723,279.55876 C1335.17793,265.617633 1337.53891,251.294175 1343.80509,238.071633 C1347.06632,231.193582 1350.67484,224.399413 1353.11187,217.224603 C1359.07164,199.691849 1364.15382,181.859467 1370.11359,164.326714 C1381.43878,131.011245 1394.12851,98.1246608 1404.27717,64.4616636 Z M150.281186,1058 C148.387677,1055.64187 146.283239,1053.47171 144.00424,1051.66893 C130.116893,1040.68752 117.650283,1028.63566 106.857768,1014.60039 C99.8995474,1005.54991 91.4090637,997.553992 83.048289,989.655721 C75.3372714,982.375054 66.9995291,975.741287 59,968.749895 C59.0703095,968.392269 59.1430436,968.035865 59.2121409,967.678239 C60.7541019,959.72138 62.5445709,951.777948 63.4561705,943.744193 C64.7290157,932.528428 65.2296682,921.228443 66.1703614,909.973619 C66.895277,901.310054 67.6662576,892.648929 68.6396811,884.010995 C69.8713104,873.083283 71.5260092,862.200731 72.609746,851.262034 C73.2473808,844.833321 73.4813419,843.773872 79.970428,842.714422 C83.655618,842.112683 88.1639145,841.388889 91.1969228,842.885301 C99.5552731,847.012029 108.396092,851.165609 115.087621,857.357532 C125.001267,866.530073 133.83845,877.018382 142.019814,887.767892 C146.776618,894.018402 151.546757,900.288441 156.019899,906.751329 C153.031743,912.417189 149.964793,917.993948 146.126861,923.158155 C144.980088,924.700949 143.558138,926.331622 143.204166,928.103882 C142.251351,932.887274 137.450906,935.460223 136.499302,940.141087 C131.775228,944.096936 130.485412,949.951983 128.076704,955.152808 C125.315236,961.112824 123.122305,967.329158 120.315985,973.267203 C116.480478,981.382736 112.282513,989.332271 108.277293,997.370908 C106.953534,1000.02686 107.592381,1001.29136 110.632663,1001.36581 C119.671076,1001.5904 128.722824,1001.43173 137.753964,1001.804 C142.551985,1002.00295 147.393645,1001.60016 152.162572,1002.5876 C157.997052,1003.79474 163.632726,1006.32009 169.841786,1005.22768 C170.341226,1005.14102 171.087962,1005.61094 171.508607,1006.02715 C173.639714,1008.13751 176.279958,1008.54762 179.143254,1008.63061 C181.088889,1008.68798 183.057556,1009.00289 184.949853,1009.46548 C187.785267,1010.15876 189.105389,1013.83388 186.877304,1014.85061 C184.160689,1016.0907 183.418802,1018.5062 181.831988,1020.42127 C177.027906,1026.21773 172.246857,1032.03371 167.419743,1037.81065 C164.006094,1041.89587 160.513649,1045.91763 157.089089,1049.99554 C154.840396,1052.67468 152.438961,1055.25861 150.281186,1058 Z M352.556296,945 L352.501534,942.826099 C352.282486,934.954186 352.224455,927.095193 353.206901,919.248314 C353.709567,915.241294 354.210598,911.173708 354.024244,907.163458 C353.828081,902.927904 353.171755,898.719806 353.734904,894.465678 C354.02833,892.252207 354.428828,890.030661 354.45907,887.809115 C354.534266,882.379207 354.330747,876.946876 354.405943,871.517776 C354.548978,861.200627 355.121935,850.880249 354.896348,840.574406 C354.768843,834.720539 355.739846,829.016067 356.019377,823.233264 C356.311986,817.194469 356.777871,811.164558 357.196351,805.131417 C357.793011,796.534332 358.490204,787.943707 358.990418,779.341777 C359.202927,775.692497 359.025564,772.022222 359.025564,768.491651 C358.541697,768.336603 358.394575,768.245351 358.344717,768.280883 C355.173428,770.539576 351.856651,772.6731 350.790018,776.704347 C350.658426,777.198562 350.414041,777.786452 350.020899,778.075552 C348.640407,779.093054 347.791188,780.469104 347,781.883109 C347.241933,780.83169 347.493675,779.781887 347.768302,778.738543 C349.725021,771.308355 352.436147,764.064709 354.481956,756.65471 C356.417423,749.647674 357.322222,742.328119 359.769346,735.511663 C362.24426,728.619297 364.649699,721.802033 366.134811,714.618953 C367.744159,706.835062 371.813709,700.068673 376.872243,694 C378.556786,694.432842 379.984684,695.255727 381.209064,695.033653 C385.841762,694.194617 388.467885,697.972296 390.024923,700.229374 C393.339248,705.03263 395.022974,710.90184 397.249415,716.381816 C398.403503,719.224361 399.041848,722.276868 400.34551,725.045927 C404.133893,733.090654 408.158489,741.032015 412,749.054131 C409.553693,754.573676 407.246335,760.140866 405.200526,765.794463 C399.691635,781.01904 398.027526,797.640663 391.707831,812.470353 C382.882164,833.185403 380.564998,855.506653 371.619998,876.309726 C365.377952,890.827704 360.459183,906.61756 357.988356,922.810379 C356.844893,930.305978 354.731245,937.653796 352.556296,945 Z M615,1024 L580,936.035022 C585.160489,927.994369 590.602034,920.130685 595.888958,912.168775 C600.507466,905.21428 605.067992,898.221632 609.641403,891.237102 C611.435655,888.496543 613.215412,885.746242 615,883 L615,1024 Z M485.535181,928.683038 L458,941 C470.376738,931.32233 483.104612,922.048429 496,913 C492.547431,918.23301 487.582401,922.471388 485.535181,928.683038 Z M615.899522,614.01334 C620.403861,599.788423 625.147094,585.63578 629.6801,571.420341 C631.752502,564.921618 633.528676,558.32337 636.06931,552 L774.508164,552 C774.392301,552.511841 774.280021,553.026052 774.189241,553.55685 C770.934315,554.321057 768.427127,555.76298 766.74651,559.108904 C764.671719,563.236808 761.07637,566.633679 758.894077,570.724853 C755.821905,576.485435 752.695982,582.16545 748.739903,587.408266 C747.611131,588.90706 746.208825,590.489976 745.861235,592.210331 C744.921189,596.852445 740.19229,599.35004 739.253438,603.893815 C734.598595,607.733808 733.328876,613.417377 730.955468,618.467068 C728.234469,624.251346 726.073677,630.285621 723.308483,636.049758 C719.529186,643.927608 715.391548,651.644323 711.445026,659.447531 C710.140666,662.025693 710.771346,663.253164 713.765877,663.325438 C722.673026,663.543444 731.590925,663.389418 740.489712,663.750787 C745.217417,663.943912 749.988123,663.552923 754.688355,664.51144 C760.43733,665.684409 765.989217,668.134611 772.107283,667.0742 C772.600598,666.990078 773.335196,667.446232 773.750871,667.850255 C775.850746,669.898804 778.452298,670.296903 781.273631,670.377471 C783.189558,670.433157 785.130569,670.73884 786.993939,671.18907 C789.788994,671.860862 791.088576,675.428347 788.894338,676.4153 C786.21634,677.619074 785.485326,679.963828 783.921767,681.822806 C779.18809,687.449504 774.478302,693.095158 769.72193,698.702899 C766.358308,702.669667 762.917045,706.572456 759.542673,710.53093 C756.511113,714.088937 753.191686,717.47159 750.603274,721.313953 C747.483323,725.94185 744.943884,730.942964 742.256331,735.836259 C739.635667,740.609888 737.271815,745.518587 734.557984,750.241268 C732.325523,754.126285 729.734721,757.818175 727.332646,761.613145 C726.913388,762.275458 726.674494,763.039665 726.294653,763.726859 C724.701233,766.61189 723.154397,769.522986 721.457057,772.34996 C720.264978,774.334529 718.468498,776.051329 717.613259,778.144902 C714.250831,786.379382 711.096241,794.69443 707.917761,803 C704.130103,798.045094 700.37589,793.068861 696.892821,787.924384 C685.994494,771.83338 675.889293,755.234089 665.570283,738.779345 C663.48952,735.461857 661.501925,731.950058 660.308651,728.27357 C655.754144,714.244148 652.007098,699.954066 647.073945,686.057343 C641.967594,671.67603 637.558812,656.04829 616.895708,655.946395 C615.310649,655.938102 613.745896,654.519875 612.150086,653.803061 C609.394448,652.563742 607.06643,651.657356 605,651.101677 C605.612762,648.679911 606.278081,646.268807 606.941011,643.868367 C609.707399,633.860215 612.762848,623.920782 615.899522,614.01334 Z"/>
  </g>
</svg>
