<svg xmlns="http://www.w3.org/2000/svg" width="1638" height="1024" viewBox="0 0 1638 1024">
  <g fill="none" fill-rule="evenodd">
    <rect width="1638" height="1024" fill="#CFCDC3"/>
    <g transform="translate(-139 -57)">
      <rect width="1777" height="1153" fill="#FF7340"/>
      <path fill="#FF616B" d="M727.729424,190.326975 C724.651991,191.721348 723.811943,194.43873 722.015173,196.592049 C716.575448,203.108274 711.163175,209.647831 705.69737,216.144843 C701.832049,220.738316 697.876135,225.260423 693.999833,229.845661 C690.516103,233.96565 686.702942,237.883894 683.725711,242.336008 C680.141779,247.695288 677.223572,253.488251 674.135159,259.157697 C671.123613,264.687157 668.407182,270.371699 665.288571,275.842145 C662.723129,280.342293 659.745898,284.62011 656.985543,289.015955 C656.503751,289.781762 656.227852,290.66697 655.792729,291.464343 C653.961643,294.806173 652.182717,298.176824 650.233585,301.451406 C648.86233,303.751573 646.79927,305.73883 645.816468,308.165259 C641.702702,318.322502 637.859343,328.582675 633.965197,338.823635 C633.134757,341.005774 633.085342,343.761583 631.64271,345.360447 C629.662008,347.553566 629.933788,350.044499 629.206295,352.396818 C628.920789,353.321825 628.882355,354.09724 629.078641,354.732668 C626.817922,355.562979 624.537987,356.356235 622.234717,357.097339 C612.733385,360.153707 604.396042,366.079794 594.238594,367.781588 C588.080984,368.813644 582.104561,370.912067 576.069116,372.604254 C574.382156,373.077737 572.691078,373.538869 571,374 C571.958094,364.944807 572.52499,355.836089 572.850303,346.742469 C573.138555,338.668552 572.229875,330.558953 571.947113,322.461705 C571.683569,314.902444 571.550424,307.339066 571.341784,299.77706 C570.972547,286.39876 570.876463,273.043791 572.526362,259.708036 C573.369156,252.898113 574.21195,245.985259 573.898991,239.169847 C573.568187,231.971531 572.467339,224.819877 573.41308,217.588624 C573.904481,213.826834 574.577069,210.051321 574.629229,206.275808 C574.755511,197.04769 574.413726,187.815456 574.540008,178.588711 C574.778845,161.056111 575.74243,143.516649 575.363585,126.000518 C575.148082,116.053255 576.778764,106.357144 577.249576,96.5292815 C577.740977,86.2677356 578.523375,76.0185414 579.22616,65.76523 C580.107388,52.9111925 581.106661,40.0626446 581.909648,27.2044898 C604.644488,31.9310866 627.666207,35.5172066 650.637138,39.0552921 C663.495918,41.0370592 676.789822,40.2026309 689.726842,41.8481563 C697.434148,42.8280605 703.605485,41.2360593 709.461116,36.8717801 C713.890587,33.5697499 718.37359,30.3308509 722.779727,27 C721.939678,28.1528285 721.216303,29.3907467 720.766081,30.827665 C720.521753,31.6113139 719.63229,32.246742 718.941858,32.84237 C714.318847,36.83198 711.859097,41.9291288 710.830999,48.0171611 C707.090587,48.9023687 704.209441,50.5712252 702.27678,54.4482971 C699.893898,59.2297905 695.760915,63.1631315 693.254496,67.90208 C689.724096,74.574761 686.131929,81.1554903 681.585784,87.228426 C680.288651,88.9631584 678.677185,90.7967046 678.27775,92.789451 C677.197492,98.1679448 671.761885,101.059623 670.684372,106.322834 C665.33524,110.772203 663.874764,117.354305 661.147352,123.203537 C658.021877,129.905038 655.538793,136.893375 652.361159,143.570173 C648.018164,152.695359 643.26338,161.63527 638.728217,170.673994 C637.229307,173.660369 637.952682,175.080818 641.395233,175.165908 C651.630921,175.418432 661.878962,175.238646 672.105042,175.658605 C677.537904,175.882309 683.020181,175.428039 688.4201,176.538323 C695.026559,177.897014 701.407907,180.73654 708.438508,179.508229 C709.004031,179.409415 709.84957,179.937794 710.327244,180.405788 C712.738952,182.780066 715.729909,183.239825 718.972056,183.334521 C721.173752,183.397652 723.404272,183.753108 725.545572,184.273253 C728.757522,185.051412 730.250942,189.185126 727.729424,190.326975 Z M260.988356,255.81045 C259.844893,263.305217 257.731245,270.65382 255.556296,278 C255.538315,277.27483 255.521968,276.550468 255.501534,275.825298 C255.282486,267.95341 255.224455,260.095251 256.206901,252.248397 C256.709567,248.24139 257.210598,244.173817 257.024244,240.16358 C256.828081,235.928039 256.171755,231.719955 256.734904,227.465033 C257.02833,225.251569 257.428828,223.03003 257.45907,220.808491 C257.534266,215.379408 257.330747,209.946287 257.405943,204.517204 C257.548978,194.200897 258.121935,183.880552 257.896348,173.573935 C257.768843,167.720894 258.739846,162.01644 259.019377,156.232848 C259.311986,150.194881 259.777871,144.164181 260.196351,138.131059 C260.793011,129.534809 261.490204,120.943405 261.990418,112.34231 C262.202927,108.692234 262.026381,105.021971 262.026381,101.491411 C261.541697,101.337172 261.394575,101.24592 261.345535,101.281451 C258.173428,103.53933 254.856651,105.672847 253.790018,109.70408 C253.658426,110.199102 253.414041,110.786182 253.020899,111.076089 C251.641224,112.09278 250.791188,113.468826 250,114.882826 C250.241933,113.832219 250.493675,112.782418 250.768302,111.739078 C252.725021,104.308914 255.436147,97.0652916 257.481956,89.6545085 C259.417423,82.6474949 260.322222,75.3287712 262.769346,68.5123367 C265.24426,61.619186 267.649699,54.8027514 269.134811,47.6188868 C270.744976,39.8358283 274.813709,33.0694612 279.872243,27 C281.556786,27.4328408 282.984684,28.2565303 284.209064,28.0344571 C288.841762,27.1946168 291.467885,30.9722831 293.024923,33.2293539 C296.339248,38.0325943 298.022974,43.9025935 300.249415,49.3825514 C301.403503,52.2250878 302.042665,55.2775842 303.34551,58.0466346 C307.133893,66.090528 311.158489,74.031864 315,82.0547614 C312.553693,87.5742887 310.246335,93.1414608 308.200526,98.7950396 C302.691635,114.019568 301.027526,130.64033 294.707831,145.469971 C285.882164,166.185763 283.564998,188.506134 274.619998,209.309947 C268.377952,223.827878 263.459183,239.616876 260.988356,255.81045 Z M1243.81223,414.557554 C1243.06726,418.322964 1242.15116,422.081114 1241.45192,425.852866 C1240.31813,426.752489 1239.22551,428.081808 1238.06938,429.921734 C1234.72006,435.246964 1232.04867,440.976429 1228.96756,446.468165 C1226.25003,451.31466 1224.02789,456.613745 1220.47234,460.792593 C1201.65992,482.90482 1185.20655,506.699157 1170.02043,531.211967 C1164.6541,539.873795 1158.69779,548.029818 1152.13008,555.485898 C1151.43403,554.369811 1150.742,553.251485 1150.06479,552.124955 C1145.69415,544.849432 1141.44776,537.499754 1137.1302,530.193049 C1129.49171,517.26335 1122.13161,504.207513 1116.49437,490.223088 C1113.61596,483.081774 1110.68022,475.840188 1106.66715,469.320793 C1102.42693,462.436055 1097.45584,456.016311 1094.44916,448.405555 C1092.88581,444.445917 1091.49203,440.376442 1089.48792,436.643516 C1084.59293,427.517578 1079.23549,418.642698 1074.33915,409.517506 C1065.03622,392.182392 1056.43783,374.442664 1046.53907,357.460717 C1040.91644,347.815479 1037.24034,337.41348 1032.35475,327.511122 C1027.25417,317.173301 1022.44423,306.690217 1017.55745,296.246209 C1010.59087,281.364672 1003.79563,266.398724 996.667133,251.596376 C996.374363,250.985692 996.051389,250.393511 995.746508,249.789541 C998.184432,241.909319 995.732455,234.528114 989.501376,230.706642 C983.998266,227.332092 978.333069,224.337912 972.402554,222.159885 C968.220131,210.006642 965.056504,197.30804 966.308047,183.063573 C973.477633,183.970203 979.145401,184.503192 984.741654,185.42445 C1009.23475,189.453433 1021.80446,182.758847 1029.27748,159.554616 C1037.52101,133.951245 1042.21174,107.066875 1052.57007,82.3654124 C1064.21376,54.59734 1076.82134,27.1876779 1089.91786,1.13686838e-13 C1089.03555,12.0131712 1084.69675,23.7536997 1087.07779,36.1131278 C1087.68169,39.2558602 1083.51425,43.3812439 1082.20981,45.8104717 C1083.56843,52.0950931 1085.73034,57.7724527 1085.85462,63.5281181 C1086.15415,77.4797757 1083.0067,92.0391688 1085.86584,105.299197 C1089.52124,122.25209 1086.49779,137.984074 1083.29281,154.124817 C1080.63388,167.515435 1086.66579,178.175134 1099.79021,181.874898 C1103.46615,182.911558 1107.27986,183.498574 1112.94456,184.698824 C1111.73202,197.620478 1111.32641,210.115973 1109.14331,222.33077 C1107.6868,230.480447 1108.3219,236.373784 1115.29652,240.330698 C1118.59713,242.203998 1122.47927,243.10171 1126.92524,244.746855 C1127.17551,250.533048 1127.91398,256.26696 1127.56777,261.957687 C1126.92254,272.624535 1124.94792,283.27643 1124.91508,293.911951 C1124.8973,299.776293 1125.86164,307.628202 1129.65677,310.977569 C1135.89049,316.48261 1144.47699,319.926369 1152.64688,322.618557 C1152.78317,322.664501 1152.91932,322.691154 1153.05681,322.732912 C1153.26842,324.406295 1153.47451,326.079222 1153.59166,327.750384 C1154.17326,336.025734 1155.54067,344.233502 1156.0577,352.512952 C1156.76421,363.828549 1156.96758,375.18534 1157.43731,386.521255 C1157.59321,390.26799 1159.07435,391.267594 1162.49553,389.480371 C1172.66607,384.166728 1182.61757,378.419861 1192.86977,373.275762 C1198.31755,370.543013 1203.44495,367.118041 1209.34408,365.272546 C1216.55982,363.015936 1224.35912,362.335706 1230.58467,357.308955 C1231.08532,356.904665 1232.20034,356.96449 1232.92396,357.165555 C1236.57914,358.183793 1239.76142,357.009677 1242.99136,355.340784 C1245.18412,354.206309 1247.56283,353.343806 1249.94635,352.689923 C1253.51849,351.708197 1257.23131,354.953521 1255.38053,357.444372 C1253.12213,360.485145 1253.77686,363.608505 1253.18757,366.699532 C1251.39961,376.050646 1249.65052,385.408393 1247.82655,394.754824 C1246.53607,401.363375 1245.1193,407.950371 1243.81223,414.557554 Z M1703.63065,886.640418 C1702.22676,910.93244 1700.27003,935.192534 1698.59545,959.470873 C1698.35459,962.980582 1698.10455,966.490291 1697.8568,970 L1618.00248,970 C1619.99362,961.206343 1623.99884,953.749066 1630.9426,947.787806 C1632.09645,946.798063 1633.58521,945.739906 1633.99353,944.442294 C1636.37006,936.896077 1643.03395,932.458199 1647.44749,926.405719 C1649.17024,924.045388 1650.47549,921.580154 1654.10909,920.736364 C1655.97177,920.305347 1658.43316,916.795638 1658.28176,914.84808 C1657.98814,911.055587 1659.21081,908.350899 1661.71808,905.992849 C1668.77883,899.37024 1670.40753,889.034957 1678.45696,883.064574 C1679.56034,882.24587 1680.24853,880.587937 1680.61556,879.189983 C1681.18904,877.009813 1681.99651,875.028047 1682.98749,873.199076 C1681.59048,872.768059 1680.18429,872.353006 1678.79417,871.901464 C1633.14707,857.041644 1589.32366,836.749641 1545.13321,817.88524 C1529.72711,811.308241 1514.7064,803.096115 1501.11481,793.486034 C1481.21948,779.419832 1480.15738,771.613637 1490.32183,749.586164 C1491.70278,746.591851 1494.47386,743.636307 1494.45092,740.678482 C1494.14353,702.126414 1524.99242,693.512917 1553.35698,683.633736 C1580.76497,674.08751 1608.98042,666.741978 1636.66139,657.90043 C1643.91712,655.58343 1650.82187,651.788656 1657.34354,647.825125 C1664.76444,643.316552 1672.20139,638.826222 1679.63604,634.335892 C1680.7876,632.486397 1681.91622,630.620937 1682.99896,628.732673 C1688.20849,619.644829 1692.75049,610.196665 1697.7834,601.01076 C1702.94476,591.589962 1707.82167,581.961637 1713.81115,573.056235 C1718.78441,565.660532 1725.15697,559.149668 1730.98129,552.303569 C1737.45937,544.684376 1744.06821,537.170087 1750.53024,529.53493 C1759.39631,519.055974 1768.1798,508.513164 1777,498 L1777,895.340574 C1752.88611,889.335984 1728.07716,885.044059 1703.89445,879.016664 C1703.85775,881.557155 1703.77746,884.099927 1703.63065,886.640418 Z M219.630648,667.640418 C218.226757,691.93244 216.270027,716.192534 214.595451,740.470873 C214.354587,743.980582 214.104548,747.490291 213.856803,751 L134.002484,751 C135.993623,742.206343 139.998841,734.749066 146.942595,728.787806 C148.096447,727.798063 149.585213,726.739906 149.993534,725.442294 C152.370055,717.896077 159.033949,713.458199 163.447488,707.405719 C165.170236,705.045388 166.475488,702.580154 170.109088,701.736364 C171.971766,701.305347 174.433163,697.795638 174.281763,695.84808 C173.988139,692.055587 175.210808,689.350899 177.718084,686.992849 C184.778829,680.37024 186.407526,670.034957 194.456959,664.064574 C195.560343,663.24587 196.248525,661.587937 196.615555,660.189983 C197.18904,658.009813 197.996507,656.028047 198.987489,654.199076 C197.59048,653.768059 196.184295,653.353006 194.794168,652.901464 C149.147071,638.041644 105.323656,617.749641 61.1332104,598.88524 C45.7271146,592.308241 30.7064005,584.096115 17.1148105,574.486034 C-2.78052441,560.419832 -3.84261827,552.613637 6.32182646,530.586164 C7.70277788,527.591851 10.4738565,524.636307 10.4509171,521.678482 C10.1435292,483.126414 40.992424,474.512917 69.3569826,464.633736 C96.7649685,455.08751 124.980421,447.741978 152.661386,438.90043 C159.917116,436.58343 166.821873,432.788656 173.343542,428.825125 C180.764435,424.316552 188.201386,419.826222 195.636043,415.335892 C196.787601,413.486397 197.916219,411.620937 198.998958,409.732673 C204.208494,400.644829 208.750494,391.196665 213.783397,382.01076 C218.94476,372.589962 223.821675,362.961637 229.81115,354.056235 C234.78441,346.660532 241.156973,340.149668 246.981285,333.303569 C253.459369,325.684376 260.068208,318.170087 266.530235,310.53493 C275.39631,300.055974 284.179804,289.513164 293,279 L293,676.340574 C268.886111,670.335984 244.077158,666.044059 219.894451,660.016664 C219.857748,662.557155 219.77746,665.099927 219.630648,667.640418 Z M752.44664,425.269808 C752.859007,424.919115 753.392128,424.544989 753.538346,424.083593 C753.660741,423.700578 753.820924,423.343421 754,423 L754,514 C753.488237,513.93778 752.975653,513.890913 752.464712,513.876369 C750.524449,513.820613 748.734511,513.549917 747.291225,512.151993 C747.00536,511.876448 746.500169,511.56535 746.160911,511.623529 C741.953448,512.346733 738.134531,510.67488 734.181717,509.874912 C730.949315,509.221201 727.668447,509.488665 724.417151,509.356953 C718.297355,509.10969 712.163594,509.215545 706.038869,509.066864 C703.979496,509.016765 703.545771,508.180435 704.442793,506.422121 C707.157683,501.100313 710.002361,495.836685 712.601426,490.463971 C714.503081,486.532815 715.989083,482.418232 717.860344,478.472531 C719.492563,475.028628 720.365764,471.153227 723.566951,468.533534 C724.211789,465.434668 727.464728,463.73211 728.111208,460.565368 C728.35025,459.392081 729.31381,458.312528 730.090901,457.291155 C732.81154,453.71554 734.960451,449.840948 737.07404,445.912216 C738.574006,443.122024 741.04739,440.806157 742.473425,437.990916 C743.630026,435.708179 745.354248,434.725592 747.592697,434.204401 C748.207962,430.619898 749.679999,427.618805 752.44664,425.269808 Z M1230.44899,976.352112 C1229.19559,976.768432 1227.64759,977.127383 1226.89514,978.037374 C1226.26821,978.791849 1225.57943,979.453298 1224.86045,980.066406 L1308.02312,774.23159 C1309.12403,774.840098 1310.24083,775.414629 1311.38346,775.91455 C1315.72202,777.814142 1319.52406,780.06251 1321.51172,784.543725 C1321.90663,785.428277 1322.76523,786.593723 1323.58591,786.772221 C1333.7655,788.982181 1340.87728,796.254423 1349.08877,801.676917 C1355.80411,806.110106 1363.47094,808.503968 1370.70608,811.773705 C1384.3251,817.926733 1398.29842,823.293802 1412.01868,829.228351 C1416.63188,831.22402 1416.8488,833.512176 1413.21257,836.669428 C1402.20712,846.225418 1390.96123,855.531179 1380.1713,865.308186 C1372.27654,872.461962 1365.1545,880.410559 1357.31521,887.625015 C1350.4753,893.922937 1344.9582,901.890647 1335.32199,904.890173 C1331.03118,911.310156 1322.11603,912.187892 1317.75947,918.759904 C1316.14645,921.195291 1312.97998,922.756422 1310.28854,924.356396 C1300.86589,929.95738 1292.46345,936.757212 1284.09145,943.711789 C1278.14814,948.651952 1270.43612,951.629489 1264.63718,956.693888 C1259.93443,960.80008 1255.13572,961.446606 1249.59531,960.579468 C1244.92758,968.124954 1238.85473,973.567687 1230.44899,976.352112 Z M937.064065,1093.24805 C931.725371,1103.83094 924.600054,1113.12499 918.612282,1123.20166 C913.650707,1131.55556 908.500456,1139.79803 903.353069,1148.04203 L853.957376,1121.77787 L1011.43867,825.598637 C1014.1473,826.942554 1016.70139,829.098689 1019.05494,832.201853 C1033.97439,830.029636 1047.42361,828.070074 1055.52506,826.890942 C1059.81171,834.292151 1063.36946,839.56885 1066.0541,845.244224 C1067.16675,847.596847 1068.39216,849.637226 1069.7072,851.412318 C1067.48091,855.070916 1065.28468,858.745501 1063.14583,862.446888 C1058.32945,870.779852 1054.74157,879.814166 1050.50631,888.487593 C1046.55476,896.585985 1042.46346,904.615627 1038.45168,912.685694 C1031.3537,926.960694 1023.98519,941.064071 1014.80419,954.175951 C1010.11778,960.872552 1005.37237,967.676663 1001.88696,975.019256 C998.206009,982.774515 995.354349,990.907758 990.323478,997.989695 C987.705534,1001.67337 984.89236,1005.27176 982.727753,1009.215 C977.435545,1018.85043 972.627715,1028.75267 967.335508,1038.3881 C957.279029,1056.69715 946.465628,1074.613 937.064065,1093.24805 Z M1543.27717,121.461664 C1549.03983,102.344512 1558.12761,84.8377062 1565.10926,66.3685738 C1570.89317,51.0577597 1577.0211,35.8760981 1583.14385,20.692756 L1672.36619,49.6828524 L1497.75388,587.084305 C1492.88917,585.654252 1488.04503,582.832161 1483.25847,578.381001 C1459.23142,586.37712 1437.57252,593.587592 1424.5254,597.928908 C1415.30163,586.921836 1407.89665,579.222089 1401.81926,570.604209 C1399.30036,567.031758 1396.68539,564.01017 1393.99899,561.454783 C1396.62025,554.733678 1399.18721,547.994928 1401.6516,541.228646 C1407.20162,525.995319 1410.5187,509.961175 1415.00997,494.334607 C1419.19864,479.744918 1423.63813,465.228036 1427.93453,450.667559 C1435.537,424.911319 1443.63616,399.359903 1455.01723,374.918279 C1460.82558,362.436024 1466.70036,349.758157 1470.33723,336.55876 C1474.17793,322.617633 1476.53891,308.294175 1482.80509,295.071633 C1486.06632,288.193582 1489.67484,281.399413 1492.11187,274.224603 C1498.07164,256.691849 1503.15382,238.859467 1509.11359,221.326714 C1520.43878,188.011245 1533.12851,155.124661 1543.27717,121.461664 Z M289.281186,1115 C287.387677,1112.64187 285.283239,1110.47171 283.00424,1108.66893 C269.116893,1097.68752 256.650283,1085.63566 245.857768,1071.60039 C238.899547,1062.54991 230.409064,1054.55399 222.048289,1046.65572 C214.337271,1039.37505 205.999529,1032.74129 198,1025.74989 C198.07031,1025.39227 198.143044,1025.03586 198.212141,1024.67824 C199.754102,1016.72138 201.544571,1008.77795 202.45617,1000.74419 C203.729016,989.528428 204.229668,978.228443 205.170361,966.973619 C205.895277,958.310054 206.666258,949.648929 207.639681,941.010995 C208.87131,930.083283 210.526009,919.200731 211.609746,908.262034 C212.247381,901.833321 212.481342,900.773872 218.970428,899.714422 C222.655618,899.112683 227.163915,898.388889 230.196923,899.885301 C238.555273,904.012029 247.396092,908.165609 254.087621,914.357532 C264.001267,923.530073 272.83845,934.018382 281.019814,944.767892 C285.776618,951.018402 290.546757,957.288441 295.019899,963.751329 C292.031743,969.417189 288.964793,974.993948 285.126861,980.158155 C283.980088,981.700949 282.558138,983.331622 282.204166,985.103882 C281.251351,989.887274 276.450906,992.460223 275.499302,997.141087 C270.775228,1001.09694 269.485412,1006.95198 267.076704,1012.15281 C264.315236,1018.11282 262.122305,1024.32916 259.315985,1030.2672 C255.480478,1038.38274 251.282513,1046.33227 247.277293,1054.37091 C245.953534,1057.02686 246.592381,1058.29136 249.632663,1058.36581 C258.671076,1058.5904 267.722824,1058.43173 276.753964,1058.804 C281.551985,1059.00295 286.393645,1058.60016 291.162572,1059.5876 C296.997052,1060.79474 302.632726,1063.32009 308.841786,1062.22768 C309.341226,1062.14102 310.087962,1062.61094 310.508607,1063.02715 C312.639714,1065.13751 315.279958,1065.54762 318.143254,1065.63061 C320.088889,1065.68798 322.057556,1066.00289 323.949853,1066.46548 C326.785267,1067.15876 328.105389,1070.83388 325.877304,1071.85061 C323.160689,1073.0907 322.418802,1075.5062 320.831988,1077.42127 C316.027906,1083.21773 311.246857,1089.03371 306.419743,1094.81065 C303.006094,1098.89587 299.513649,1102.91763 296.089089,1106.99554 C293.840396,1109.67468 291.438961,1112.25861 289.281186,1115 Z M491.556296,1002 L491.501534,999.826099 C491.282486,991.954186 491.224455,984.095193 492.206901,976.248314 C492.709567,972.241294 493.210598,968.173708 493.024244,964.163458 C492.828081,959.927904 492.171755,955.719806 492.734904,951.465678 C493.02833,949.252207 493.428828,947.030661 493.45907,944.809115 C493.534266,939.379207 493.330747,933.946876 493.405943,928.517776 C493.548978,918.200627 494.121935,907.880249 493.896348,897.574406 C493.768843,891.720539 494.739846,886.016067 495.019377,880.233264 C495.311986,874.194469 495.777871,868.164558 496.196351,862.131417 C496.793011,853.534332 497.490204,844.943707 497.990418,836.341777 C498.202927,832.692497 498.025564,829.022222 498.025564,825.491651 C497.541697,825.336603 497.394575,825.245351 497.344717,825.280883 C494.173428,827.539576 490.856651,829.6731 489.790018,833.704347 C489.658426,834.198562 489.414041,834.786452 489.020899,835.075552 C487.640407,836.093054 486.791188,837.469104 486,838.883109 C486.241933,837.83169 486.493675,836.781887 486.768302,835.738543 C488.725021,828.308355 491.436147,821.064709 493.481956,813.65471 C495.417423,806.647674 496.322222,799.328119 498.769346,792.511663 C501.24426,785.619297 503.649699,778.802033 505.134811,771.618953 C506.744159,763.835062 510.813709,757.068673 515.872243,751 C517.556786,751.432842 518.984684,752.255727 520.209064,752.033653 C524.841762,751.194617 527.467885,754.972296 529.024923,757.229374 C532.339248,762.03263 534.022974,767.90184 536.249415,773.381816 C537.403503,776.224361 538.041848,779.276868 539.34551,782.045927 C543.133893,790.090654 547.158489,798.032015 551,806.054131 C548.553693,811.573676 546.246335,817.140866 544.200526,822.794463 C538.691635,838.01904 537.027526,854.640663 530.707831,869.470353 C521.882164,890.185403 519.564998,912.506653 510.619998,933.309726 C504.377952,947.827704 499.459183,963.61756 496.988356,979.810379 C495.844893,987.305978 493.731245,994.653796 491.556296,1002 Z M754,1081 L719,993.035022 C724.160489,984.994369 729.602034,977.130685 734.888958,969.168775 C739.507466,962.21428 744.067992,955.221632 748.641403,948.237102 C750.435655,945.496543 752.215412,942.746242 754,940 L754,1081 Z M624.535181,985.683038 L597,998 C609.376738,988.32233 622.104612,979.048429 635,970 C631.547431,975.23301 626.582401,979.471388 624.535181,985.683038 Z M754.899522,671.01334 C759.403861,656.788423 764.147094,642.63578 768.6801,628.420341 C770.752502,621.921618 772.528676,615.32337 775.06931,609 L913.508164,609 C913.392301,609.511841 913.280021,610.026052 913.189241,610.55685 C909.934315,611.321057 907.427127,612.76298 905.74651,616.108904 C903.671719,620.236808 900.07637,623.633679 897.894077,627.724853 C894.821905,633.485435 891.695982,639.16545 887.739903,644.408266 C886.611131,645.90706 885.208825,647.489976 884.861235,649.210331 C883.921189,653.852445 879.19229,656.35004 878.253438,660.893815 C873.598595,664.733808 872.328876,670.417377 869.955468,675.467068 C867.234469,681.251346 865.073677,687.285621 862.308483,693.049758 C858.529186,700.927608 854.391548,708.644323 850.445026,716.447531 C849.140666,719.025693 849.771346,720.253164 852.765877,720.325438 C861.673026,720.543444 870.590925,720.389418 879.489712,720.750787 C884.217417,720.943912 888.988123,720.552923 893.688355,721.51144 C899.43733,722.684409 904.989217,725.134611 911.107283,724.0742 C911.600598,723.990078 912.335196,724.446232 912.750871,724.850255 C914.850746,726.898804 917.452298,727.296903 920.273631,727.377471 C922.189558,727.433157 924.130569,727.73884 925.993939,728.18907 C928.788994,728.860862 930.088576,732.428347 927.894338,733.4153 C925.21634,734.619074 924.485326,736.963828 922.921767,738.822806 C918.18809,744.449504 913.478302,750.095158 908.72193,755.702899 C905.358308,759.669667 901.917045,763.572456 898.542673,767.53093 C895.511113,771.088937 892.191686,774.47159 889.603274,778.313953 C886.483323,782.94185 883.943884,787.942964 881.256331,792.836259 C878.635667,797.609888 876.271815,802.518587 873.557984,807.241268 C871.325523,811.126285 868.734721,814.818175 866.332646,818.613145 C865.913388,819.275458 865.674494,820.039665 865.294653,820.726859 C863.701233,823.61189 862.154397,826.522986 860.457057,829.34996 C859.264978,831.334529 857.468498,833.051329 856.613259,835.144902 C853.250831,843.379382 850.096241,851.69443 846.917761,860 C843.130103,855.045094 839.37589,850.068861 835.892821,844.924384 C824.994494,828.83338 814.889293,812.234089 804.570283,795.779345 C802.48952,792.461857 800.501925,788.950058 799.308651,785.27357 C794.754144,771.244148 791.007098,756.954066 786.073945,743.057343 C780.967594,728.67603 776.558812,713.04829 755.895708,712.946395 C754.310649,712.938102 752.745896,711.519875 751.150086,710.803061 C748.394448,709.563742 746.06643,708.657356 744,708.101677 C744.612762,705.679911 745.278081,703.268807 745.941011,700.868367 C748.707399,690.860215 751.762848,680.920782 754.899522,671.01334 Z"/>
    </g>
  </g>
</svg>
