<svg xmlns="http://www.w3.org/2000/svg" width="1638" height="1024" viewBox="0 0 1638 1024">
  <g fill="none" fill-rule="evenodd" transform="translate(-1302 -867)">
    <rect width="3538" height="2239" fill="#FF9565"/>
    <path fill="#50BFE3" d="M77,1866 L14.4472789,1989.28451 L0,1994 L0,1866 L0,1660.52103 L17.1842796,1627 L52.7283905,1735.98366 L162,1700.53295 L77.5366125,1866 L77,1866 Z M77,457 L14.4472789,580.284506 L0,585 L0,457 L0,251.521033 L17.1842796,218 L52.7283905,326.983661 L162,291.53295 L77.5366125,457 L77,457 Z M781.64353,1866 L782,1866 L719.025838,1989.51572 L609.78248,2025 L574,1915.15772 L599.170893,1866 L599,1866 L721.367594,1627 L756.866712,1735.98366 L866,1700.53214 L781.64353,1866 Z M781.64353,1161 L782,1161 L719.025838,1284.51572 L609.78248,1320 L574,1210.15772 L599.170893,1161 L599,1161 L721.367594,922 L756.866712,1030.98366 L866,995.532136 L781.64353,1161 Z M781.64353,457 L782,457 L719.025838,580.515718 L609.78248,616 L574,506.157723 L599.170893,457 L599,457 L721.367594,218 L756.866712,326.983661 L866,291.532136 L781.64353,457 Z M1486,1866 L1423.02584,1989.51572 L1313.78248,2025 L1278,1915.15772 L1303.17089,1866 L1304,1866 L1426.36759,1627 L1461.86671,1735.98366 L1571,1700.53214 L1486.64353,1866 L1486,1866 Z M1486,1161 L1423.02584,1284.51572 L1313.78248,1320 L1278,1210.15772 L1303.17089,1161 L1304,1161 L1426.36759,922 L1461.86671,1030.98366 L1571,995.532136 L1486.64353,1161 L1486,1161 Z M1486,457 L1423.02584,580.515718 L1313.78248,616 L1278,506.157723 L1303.17089,457 L1304,457 L1426.36759,218 L1461.86671,326.983661 L1571,291.532136 L1486.64353,457 L1486,457 Z M2190.64409,1866 L2191,1866 L2128.02584,1989.51572 L2018.78248,2025 L1983,1915.15772 L2008.17089,1866 L2008,1866 L2130.36715,1627 L2165.86719,1735.98366 L2275,1700.53214 L2190.64409,1866 Z M2190.64409,1161 L2191,1161 L2128.02584,1284.51572 L2018.78248,1320 L1983,1210.15772 L2008.17089,1161 L2008,1161 L2130.36715,922 L2165.86719,1030.98366 L2275,995.532136 L2190.64409,1161 Z M2190.64409,457 L2191,457 L2128.02584,580.515718 L2018.78248,616 L1983,506.157723 L2008.17089,457 L2008,457 L2130.36715,218 L2165.86719,326.983661 L2275,291.532136 L2190.64409,457 Z M2894.64409,1866 L2895,1866 L2832.02584,1989.51572 L2722.78248,2025 L2687,1915.15772 L2712.17089,1866 L2712,1866 L2834.36715,1627 L2869.86719,1735.98366 L2979,1700.53214 L2894.64409,1866 Z M2894.64409,1161 L2895,1161 L2832.02584,1284.51572 L2722.78248,1320 L2687,1210.15772 L2712.17089,1161 L2712,1161 L2834.36715,922 L2869.86719,1030.98366 L2979,995.532136 L2894.64409,1161 Z M2894.64409,457 L2895,457 L2832.02584,580.515718 L2722.78248,616 L2687,506.157723 L2712.17089,457 L2712,457 L2834.36715,218 L2869.86719,326.983661 L2979,291.532136 L2894.64409,457 Z M3538,1161 L3538,1281.16052 L3536.28627,1284.5149 L3426.84612,1320 L3391,1210.15772 L3416.21542,1161 L3417,1161 L3538,924 L3538,1161 Z M3538,457 L3538,577.160517 L3536.28627,580.515718 L3426.84612,616 L3391,506.157723 L3416.21542,457 L3417,457 L3538,220 L3538,457 Z M3417,1865 L3538,1628 L3538,1865 L3417,1865 Z M3416.21542,1866 L3538,1866 L3538,1986.16052 L3536.28627,1989.5149 L3426.84612,2025 L3391,1915.15772 L3416.21542,1866 Z M3172.35115,0 L3199.30435,0 L3314,265.425151 L3271.53997,372 L3163.97789,329.342357 L3036,31.7581644 L3142.81974,74.1224817 L3172.35115,0 Z M3142.82024,778.719539 L3185.28096,672 L3314,970.280461 L3271.53928,1077 L3163.97751,1034.28477 L3036,736.298846 L3142.82024,778.719539 Z M3142.82024,1482.71954 L3185.28096,1376 L3314,1674.28046 L3271.53928,1781 L3163.97751,1738.28477 L3036,1440.29885 L3142.82024,1482.71954 Z M3142.87957,2186.74673 L3185.36501,2080 L3254,2239 L3076.67715,2239 L3036,2144.31441 L3142.87957,2186.74673 Z M2467.35115,0 L2494.30517,0 L2609,265.425151 L2566.53997,372 L2458.97789,329.342357 L2331,31.7581644 L2437.81974,74.1224817 L2467.35115,0 Z M2437.82024,778.719539 L2480.28096,672 L2609,970.280461 L2566.53928,1077 L2458.97751,1034.28477 L2331,736.298846 L2437.82024,778.719539 Z M2437.82024,1482.71954 L2480.28096,1376 L2609,1674.28046 L2566.53928,1781 L2458.97751,1738.28477 L2331,1440.29885 L2437.82024,1482.71954 Z M2437.87917,2186.74673 L2480.36445,2080 L2549,2239 L2371.67782,2239 L2331,2144.31441 L2437.87917,2186.74673 Z M1763.35115,0 L1790.30517,0 L1905,265.425151 L1862.53997,372 L1754.97707,329.342357 L1627,31.7581644 L1733.81974,74.1224817 L1763.35115,0 Z M1733.82024,778.719539 L1776.28096,672 L1905,970.280461 L1862.53928,1077 L1754.97751,1034.28477 L1627,736.298846 L1733.82024,778.719539 Z M1733.82024,1482.71954 L1776.28096,1376 L1905,1674.28046 L1862.53928,1781 L1754.97751,1738.28477 L1627,1440.29885 L1733.82024,1482.71954 Z M1733.87917,2186.74673 L1776.36445,2080 L1845,2239 L1667.677,2239 L1627,2144.31441 L1733.87917,2186.74673 Z M1059.35075,0 L1086.30469,0 L1201,265.425151 L1158.53928,372 L1050.97669,329.342357 L923,31.7581644 L1029.81942,74.1224817 L1059.35075,0 Z M1029.82024,778.719539 L1072.28096,672 L1201,970.280461 L1158.53928,1077 L1050.97751,1034.28477 L923,736.298846 L1029.82024,778.719539 Z M1029.82024,1482.71954 L1072.28096,1376 L1201,1674.28046 L1158.53928,1781 L1050.97751,1738.28477 L923,1440.29885 L1029.82024,1482.71954 Z M1029.87917,2186.74673 L1072.36445,2080 L1141,2239 L963.677002,2239 L923,2144.31441 L1029.87917,2186.74673 Z M354.350748,0 L381.304686,0 L496,265.425151 L453.539279,372 L345.976693,329.342357 L218,31.7581644 L324.819424,74.1224817 L354.350748,0 Z M0,955.521033 L17.1842796,922 L52.7283905,1030.98366 L162,995.53295 L77.5366125,1161 L0,1161 L0,955.521033 Z M324.82024,778.719539 L367.280961,672 L496,970.280461 L453.539279,1077 L345.977509,1034.28477 L218,736.298846 L324.82024,778.719539 Z M0,1162 L77,1162 L14.4472789,1285.28451 L0,1290 L0,1162 Z M324.82024,1482.71954 L367.280961,1376 L496,1674.28046 L453.539279,1781 L345.977509,1738.28477 L218,1440.29885 L324.82024,1482.71954 Z M324.879168,2186.74673 L367.364454,2080 L436,2239 L258.677002,2239 L218,2144.31441 L324.879168,2186.74673 Z"/>
  </g>
</svg>
