<svg xmlns="http://www.w3.org/2000/svg" width="1638" height="1024" viewBox="0 0 1638 1024">
  <g fill="none" fill-rule="evenodd" transform="translate(-86 -182)">
    <rect width="1735" height="1330" fill="#FAED8F"/>
    <path fill="#23C17C" d="M1368.96715,662.806119 C1387.98707,633.207179 1408.34889,604.441747 1430.89107,577.044325 C1458.11111,543.955147 1485.02195,510.610152 1512.48721,476.874326 C1561.55009,481.429285 1614.41574,470.752491 1643.64379,527.053481 C1630.06398,541.379215 1613.21805,544.171881 1595.16021,542.064946 C1569.82379,539.112395 1549.83613,547.270105 1533.61214,567.248678 C1521.80222,581.794699 1507.8528,594.581981 1495.28943,608.541755 C1448.77121,660.206068 1412.76215,718.763219 1381.17425,780.450571 C1361.96136,817.970352 1338.19581,853.265949 1320.40807,891.393295 C1280.06669,977.877102 1239.74663,1064.85833 1238.32148,1163.12392 C1238.03716,1182.86799 1241.12558,1202.6547 1242.74265,1223.5535 C1278.1582,1223.66009 1296.99792,1199.36106 1319.13219,1181.20163 C1336.14871,1167.24185 1353.20432,1153.27853 1369.5136,1138.50866 C1404.42093,1106.89399 1441.70232,1077.2832 1472.80687,1042.23632 C1517.9568,991.360773 1558.96634,936.612448 1592.50893,877.110197 C1610.21137,845.712251 1625.18434,812.708345 1640.22129,779.899855 C1654.92771,747.805519 1654.67894,713.373303 1652.30487,679.033466 C1651.9317,673.625785 1649.72822,667.475525 1646.35904,663.286527 C1622.58282,633.718381 1625.72455,605.120207 1656.12541,581.137393 C1660.71362,577.513323 1665.7283,574.432863 1670.98466,570.798135 C1694.65781,582.277909 1697.76755,601.599175 1699.88573,622.107146 C1700.76002,630.598839 1702.7467,641.27208 1708.36556,646.566064 C1729.94186,666.896385 1734.30261,692.33238 1734.21376,719.69766 C1734.13557,743.73377 1734.41989,767.816069 1733.03028,791.788225 C1732.50073,800.859058 1728.88632,810.274534 1724.70682,818.535281 C1698.75201,869.847845 1673.46179,921.5619 1645.41723,971.726842 C1630.03554,999.248454 1611.60098,1025.64376 1590.98782,1049.47735 C1574.23429,1068.84481 1556.46788,1086.22258 1542.34786,1108.62075 C1528.5868,1130.45399 1503.06912,1144.74775 1483.28049,1162.96403 C1468.54919,1176.52587 1455.12931,1191.51246 1440.31271,1204.97482 C1433.65252,1211.02204 1424.40148,1214.15224 1417.41788,1219.92588 C1405.66482,1229.63625 1394.20675,1239.8476 1383.6656,1250.83706 C1366.48204,1268.75844 1350.42866,1285.85553 1322.28813,1287.80613 C1306.87446,1288.87558 1292.20713,1299.87925 1277.08134,1306.10413 C1226.65372,1326.86791 1185.70105,1305.191 1178.50066,1250.96142 C1168.49262,1175.57011 1172.37713,1100.91427 1192.89434,1026.81981 C1201.49022,995.775005 1211.52856,965.348448 1223.15944,935.623461 C1214.35887,932.975913 1205.53424,930.380086 1197.16389,926.739266 C1183.10381,920.624422 1167.88446,919.262194 1153.63524,914.24426 C1143.97494,910.841331 1134.28829,907.507701 1124.7084,903.890275 C1122.42349,903.027662 1120.51753,901.156579 1117.86685,899.364696 C1117.00416,899.430035 1115.11665,899.96859 1113.40313,899.627373 C1108.71402,898.693482 1104.01898,897.630892 1099.4854,896.134685 C1096.97444,895.305733 1094.91426,892.819536 1092.40923,892.33708 C1089.82907,891.840765 1086.95892,893.093433 1084.21004,893.129073 C1083.06792,893.144253 1081.87372,892.046683 1080.76587,891.355009 C1072.77955,886.368755 1072.66883,886.376014 1065.77126,893.618128 C1068.3132,899.501315 1063.74931,904.105433 1062.18869,909.324665 C1060.00791,916.613638 1056.88271,923.618154 1054.21819,930.765229 C1052.46447,935.467026 1051.01523,940.292902 1049.06906,944.91088 C1044.73386,955.194906 1040.90678,965.67627 1036.75216,976.021016 C1033.79238,983.387869 1031.20958,990.988359 1027.03453,997.895196 C1025.72896,1000.05602 1026.18041,1003.21145 1025.45875,1005.80984 C1022.65056,1015.92095 1019.90366,1026.05912 1016.7119,1036.05143 C1014.85932,1041.85145 1012.46501,1047.51816 1009.8565,1053.02713 C1004.15114,1065.08126 998.206552,1077.02187 992.243506,1088.95192 C990.487149,1092.46573 988.472447,1095.86866 986.350319,1099.17787 C979.144314,1110.41559 976.668279,1123.49007 972.02662,1135.7224 C970.712483,1139.18539 969.322555,1142.62395 967.851565,1146.02226 C962.755164,1157.79524 957.598791,1169.54115 952.483937,1181.30554 C950.225387,1186.49903 947.976064,1191.69715 945.784078,1196.91836 C940.462943,1209.59024 935.035701,1222.21989 929.922166,1234.97625 C925.554011,1245.87275 921.76318,1256.96197 918.790883,1268.36865 C917.329779,1273.97397 914.068162,1279.10345 911.696256,1284.48108 C910.860586,1286.37658 910.334009,1288.4087 909.516792,1290.31345 C905.316694,1300.09786 901.158774,1309.90207 896.780733,1319.60662 C895.473187,1322.50531 893.461779,1325.07863 891.852389,1327.8473 C890.646995,1329.921 888.982245,1330.57968 886.912183,1329.42007 C884.053901,1327.81892 881.382789,1325.87458 878.48826,1324.34801 C875.488943,1322.76667 872.326183,1321.49156 869.218123,1320.12207 C868.45363,1319.78548 867.420905,1319.82772 866.852808,1319.31622 C862.212467,1315.1411 857.70723,1310.8155 853.035255,1306.678 C851.765274,1305.55271 849.991123,1304.05848 848.582742,1304.18982 C841.620583,1304.83661 839.19859,1298.46767 834.796824,1295.35184 C833.427327,1294.38165 833.416782,1290.39396 833.938746,1288.04505 C835.357672,1281.6629 837.416531,1275.42464 839.170251,1269.11444 C839.579519,1267.64001 839.829956,1266.11543 840.07578,1264.60074 C841.855204,1253.61316 843.153524,1242.52196 845.519498,1231.66308 C847.598787,1222.11957 850.871608,1212.83741 853.604671,1203.4358 C854.031732,1201.96797 854.929353,1200.38861 854.693414,1199.01912 C853.771409,1193.67317 856.433954,1189.22415 857.812678,1184.44381 C859.735773,1177.77721 861.567261,1171.08421 863.42577,1164.39914 C863.654459,1163.57612 863.575374,1162.56765 864.031433,1161.9235 C869.64123,1154.00027 870.496672,1144.06472 875.171942,1135.74022 C878.211461,1130.32827 877.978159,1123.74681 881.716925,1118.35598 C883.615636,1115.61832 883.044902,1111.24454 883.904957,1107.68651 C886.214912,1098.13112 888.600658,1088.59223 891.141279,1079.09623 C892.546365,1073.84598 894.624995,1068.76667 895.865319,1063.48474 C898.00524,1054.36956 899.728645,1045.15604 901.624719,1035.98345 C901.668875,1035.76895 901.72819,1035.54587 901.71435,1035.33071 C901.02367,1024.54443 905.00826,1014.8214 908.644874,1005.03237 C909.313806,1003.23257 910.423639,1001.60106 911.193404,999.832278 C912.48118,996.871545 913.962714,994.061951 913.703709,990.527683 C913.558719,988.551001 914.698209,986.370381 915.609011,984.448479 C917.91633,979.579043 921.749999,975.003965 922.509219,969.939831 C923.445723,963.693648 926.178127,959.234729 930.2161,954.968528 C931.037271,954.101296 931.318024,952.61433 931.596801,951.357041 C932.853601,945.686373 932.820649,945.679113 938.514145,943.558552 C937.648818,942.927598 936.812489,942.317104 935.713859,941.515211 C937.86103,937.456248 939.993702,933.456685 942.096717,929.441281 C946.628316,920.79074 950.163437,911.624744 955.655924,903.460618 C956.718965,901.880593 956.962153,899.767952 957.725987,897.961549 C959.243769,894.371841 960.860408,890.823714 962.436186,887.258426 C964.626195,882.301872 966.728551,877.304397 969.026644,872.399322 C971.919195,866.227718 973.959601,859.769677 977.980439,853.96965 C981.448337,848.968876 982.796745,842.502915 985.136357,836.706848 C987.305936,831.330537 989.457061,825.943666 991.786129,820.636655 C993.712519,816.249015 995.980955,812.013174 997.930412,807.635434 C1001.37986,799.888424 1004.7924,792.122275 1008.03424,784.286827 C1009.36815,781.063416 1010.18603,777.628148 1011.2985,774.309698 C1012.62515,770.353694 1014.07703,769.347203 1018.32524,769.237644 C1019.41794,769.209264 1020.59565,768.804688 1021.5862,769.089806 C1028.83175,771.175386 1036.2559,771.040088 1043.6873,771.305405 C1056.84976,771.775321 1069.59307,774.792153 1082.21972,778.363381 C1087.21463,779.776428 1092.19768,781.468652 1097.30528,782.179466 C1103.10488,782.986639 1109.03761,782.8388 1114.913,783.103458 C1124.82242,783.550273 1133.88232,787.064081 1142.78932,791.004905 C1152.38634,795.250647 1161.59585,800.638177 1171.52306,803.804169 C1184.24725,807.863131 1195.92686,814.095455 1208.16534,819.123949 C1218.24215,823.263431 1228.07511,828.053667 1238.31404,831.720594 C1247.82997,835.128465 1257.73411,837.435247 1267.4285,840.360251 C1267.88899,839.51549 1268.35107,838.671447 1268.81475,837.828123 C1286.30399,806.019417 1303.51678,774.011135 1321.37373,742.390148 C1320.61906,741.83212 1319.9284,741.237444 1319.38253,740.681597 C1313.86328,735.060276 1308.90908,728.887182 1303.68208,722.975001 C1302.46042,721.594083 1301.08391,720.340631 1299.71439,719.098334 C1289.77733,710.090505 1279.42006,701.500486 1269.9977,691.984828 C1261.71664,683.621917 1254.48238,674.225316 1246.77345,665.295358 C1245.57013,663.900803 1244.56266,661.957882 1243.02395,661.297355 C1237.01677,658.719918 1234.26663,653.111483 1230.33979,648.581998 C1224.86369,642.264886 1219.30083,636.022953 1213.7637,629.758932 C1213.08193,628.987874 1212.01092,628.405889 1211.65901,627.522616 C1207.33058,616.658005 1197.85078,609.273635 1192.50399,599.089348 C1189.02794,592.468291 1182.22378,588.384562 1179.22761,581.071273 C1177.70607,577.357293 1172.9117,575.063167 1169.87999,571.859612 C1161.73819,563.255981 1153.66276,554.586646 1145.73225,545.789074 C1141.3478,540.92457 1137.57779,535.492113 1133.05328,530.773194 C1125.24485,522.630168 1117.06391,514.843198 1109.03755,506.908723 C1108.84973,506.723363 1108.66319,506.517066 1108.43668,506.389836 C1097.08324,500.008401 1089.87019,489.603722 1082.36225,479.507111 C1080.98205,477.650447 1080.06106,475.459017 1078.77832,473.520889 C1076.63071,470.277422 1074.7629,466.937489 1071.02136,464.879542 C1068.92866,463.728684 1067.47219,461.14693 1066.1272,458.965897 C1062.71925,453.440252 1060.60971,446.566497 1055.98981,442.476328 C1050.29161,437.431379 1047.57728,431.745904 1045.91386,424.868557 C1045.57594,423.470196 1044.25733,422.21082 1043.16954,421.104175 C1038.26298,416.113495 1038.23403,416.142006 1039.82461,409.001081 C1038.61952,409.460793 1037.45413,409.904651 1035.9233,410.487765 C1033.22939,405.655737 1030.586,400.877333 1027.90716,396.118481 C1022.13666,385.865299 1015.1918,376.280063 1010.543,365.375813 C1009.64334,363.265419 1007.6678,361.633355 1006.34316,359.676528 C1003.71075,355.788016 1001.18518,351.826967 998.615472,347.895917 C995.042555,342.431556 991.370806,337.028851 987.920792,331.489133 C983.580662,324.517933 978.392253,318.219236 975.167525,310.352565 C972.387916,303.568783 966.737715,297.963661 962.4145,291.797272 C958.403985,286.078062 954.370696,280.370555 950.534801,274.535774 C947.363953,269.710982 944.570812,264.64042 941.425095,259.798832 C935.858066,251.231371 930.247493,242.688617 924.454951,234.272747 C922.072133,230.810303 919.136818,227.729905 916.512742,224.428696 C913.384818,220.492783 913.319759,218.366147 915.994866,214.004449 C916.682738,212.882429 917.046181,211.427668 917.983883,210.614543 C924.842929,204.666801 929.574694,197.081178 934.716073,189.751153 C943.822446,176.768237 955.227843,165.880081 967.117011,155.47356 C971.820508,151.357117 976.79836,147.435873 980.866089,142.744764 C985.484986,137.418122 989.226058,131.33029 993.346395,125.571072 C1000.29619,115.857891 1009.78837,109.015358 1019.61183,102.607465 C1030.19593,95.7029086 1041.67979,89.9390043 1051.38922,81.9924098 C1063.83526,71.8074883 1077.79266,64.1037244 1090.89997,55.0455635 C1101.69131,47.5867888 1112.98039,40.8013283 1123.40049,32.86871 C1133.38383,25.2684078 1142.45515,16.4835395 1152.08844,8.41180318 C1155.48153,5.56849825 1159.35292,3.29410508 1164.10178,-5.68434189e-14 C1165.96208,6.08647904 1167.52441,11.2007723 1169.49066,17.6351736 C1170.856,18.8444794 1173.24919,21.3637168 1176.03544,23.3273497 C1179.30139,25.6299426 1182.24712,29.4901158 1187.25296,26.6808038 C1187.96592,26.2809131 1189.56525,27.3460236 1190.71047,27.8371106 C1196.46221,30.2997509 1198.51192,36.1383493 1202.20507,40.4801158 C1200.30558,44.748476 1204.76855,45.1318777 1206.33334,47.3146747 C1211.37013,54.341852 1216.52314,61.3054196 1221.16365,68.5909052 C1226.38908,76.793658 1230.93414,85.427878 1236.13008,93.6512182 C1238.24509,96.9974587 1238.05393,99.5405381 1235.3433,102.045517 C1232.8248,104.374385 1230.22302,106.622679 1227.55862,108.784887 C1215.92504,118.221054 1204.88075,128.554618 1192.44063,136.78105 C1177.04092,146.96569 1165.68395,161.440012 1151.26873,172.535536 C1141.49488,180.057106 1131.77378,187.650775 1121.83589,194.950382 C1119.46578,196.691542 1116.32502,197.388196 1112.77593,198.88884 C1112.27624,199.802858 1111.58274,202.062288 1110.11424,203.568646 C1106.09551,207.690761 1101.94282,211.734402 1097.45781,215.330421 C1094.97347,217.321937 1091.10995,217.770627 1088.97968,219.983554 C1086.78612,222.263252 1086.16992,225.983601 1084.40332,228.782781 C1083.66969,229.94605 1081.77739,230.431613 1080.3519,231.096379 C1070.07569,235.888471 1070.01042,236.00504 1072.80604,247.723028 C1080.41845,249.017252 1082.07849,256.647436 1086.3296,261.648639 C1092.26568,268.634415 1097.29499,276.387164 1102.77046,283.768289 C1106.37202,288.624898 1110.29864,293.255477 1113.6893,298.251402 C1121.23937,309.378298 1129.32207,320.121605 1137.05192,331.106004 C1142.55587,338.929509 1148.54315,346.525683 1152.78528,355.274464 C1154.11283,358.010929 1157.59773,359.625926 1159.7504,362.059934 C1168.12708,371.531389 1176.57129,380.958711 1184.57638,390.739519 C1189.22298,396.416704 1193.37959,402.553433 1197.23634,408.802927 C1205.67676,422.475085 1213.84557,436.314318 1221.99161,450.165254 C1224.39088,454.244865 1226.50867,458.512582 1228.46131,462.82727 C1235.0926,477.478966 1246.68185,488.559827 1255.99989,501.274822 C1258.63778,504.874531 1261.2013,508.534747 1263.67098,512.250397 C1272.22659,525.123116 1280.71553,538.038636 1289.25037,550.924358 C1293.01779,556.61343 1296.79593,562.296217 1300.63501,567.936266 C1309.95168,581.625862 1319.15608,595.394882 1328.69427,608.930289 C1336.84169,620.492417 1345.56245,631.598048 1355.1408,642.085474 C1359.84735,647.239576 1362.8923,653.89952 1366.77147,659.823905 C1367.44677,660.854867 1368.20515,661.831586 1368.96715,662.806119 Z M489.607006,594.028447 C462.167926,562.221582 437.076839,528.624507 414.664679,493.030717 C360.102782,406.377432 303.085275,320.878269 265.154191,224.845078 C249.410279,184.995946 233.292723,145.293221 217.102128,104.916109 C244.872141,64.2130338 261.163785,12.7994785 324.575776,14.5313176 C330.521724,33.3537405 324.797176,49.4414335 314.199794,64.2137151 C299.334095,84.9420223 296.778779,106.37856 306.38689,130.254177 C313.383564,147.635417 317.804757,166.035256 323.92341,183.791258 C346.557554,249.524367 380.315253,309.407673 418.954111,366.94169 C442.455058,401.935612 461.803513,439.83308 486.526775,473.87509 C542.609327,551.086638 599.137271,628.52069 684.391362,677.407257 C701.522078,687.228046 720.32522,694.11964 739.387694,702.837262 C756.650718,671.913804 744.531982,643.655809 739.380293,615.492871 C735.420572,593.842053 731.476697,572.15532 726.46558,550.730335 C715.738165,504.8726 707.914369,457.909968 692.341458,413.714247 C669.733826,349.560271 641.731678,287.150012 605.951607,228.965737 C587.072659,198.260806 565.465835,169.164536 544.060939,140.107054 C523.120417,111.684882 492.884712,95.2094004 461.699442,80.6375232 C456.788862,78.3422088 450.341458,77.2877073 445.044264,78.2035971 C407.656442,84.6638234 384.167056,68.0513342 377.929844,29.8350429 C376.984567,24.0651239 376.721504,18.1857453 376.090831,11.8262809 C397.608239,-3.31321869 416.014633,3.3340733 434.978223,11.423933 C442.829085,14.7761228 453.127275,18.213021 460.481577,15.8652265 C488.723272,6.85050891 513.084228,15.3681263 536.975366,28.712787 C557.959915,40.434109 579.160609,51.8607678 599.453432,64.698081 C607.130233,69.5588589 613.612892,77.2848074 618.811644,84.9451671 C651.10748,132.522585 684.076671,179.713379 714.355644,228.562153 C730.9694,255.35802 745.118002,284.277952 755.969869,313.861383 C764.786756,337.903876 771.372368,361.867641 784.116731,385.076135 C796.541021,407.696799 796.671409,436.944811 803.010006,463.083769 C807.729578,482.542967 814.331063,501.545903 818.922272,521.031471 C820.982371,529.788351 819.235111,539.397049 820.899136,548.304158 C823.694026,563.291296 827.070089,578.263315 831.571237,592.810603 C838.914875,616.52814 846.085483,638.85758 834.148723,664.415505 C827.611394,678.415087 830.124558,696.57811 828.235823,712.825308 C821.948448,766.996777 783.135147,792.305612 732.214064,772.312191 C661.423342,744.514993 598.011125,704.923651 543.153587,651.057192 C542.523076,650.438094 541.893497,649.818273 541.264855,649.197726 C539.658742,652.200388 538.011154,655.184461 536.43765,658.203504 C535.706929,659.606602 535.126011,661.094559 534.551885,662.573496 C530.390992,673.302561 526.694243,684.239805 521.967985,694.712668 C517.814321,703.916942 512.510122,712.600416 507.725965,721.520692 C506.978673,722.913292 505.731648,724.317563 505.675817,725.753197 C505.458876,731.35757 501.810592,735.284562 499.389092,739.822506 C496.011748,746.150994 492.72135,752.525866 489.405334,758.886921 C488.99721,759.670068 488.860395,760.706905 488.260835,761.260313 C480.885955,768.067311 477.885386,777.931052 471.369098,785.344684 C467.132692,790.164452 465.953865,796.870259 461.015027,801.518398 C458.506877,803.878881 458.143756,808.424631 456.509393,811.837948 C452.119961,821.004664 447.657449,830.138407 443.047572,839.195483 C440.498409,844.202976 437.305005,848.892855 434.915613,853.967793 C430.79272,862.725871 427.069805,871.672908 423.181109,880.541456 C423.090358,880.748883 422.982437,880.96173 422.950181,881.182288 C421.329943,892.238621 415.211346,901.21498 409.430381,910.332864 C408.367188,912.009205 406.8944,913.420599 405.735926,915.043901 C403.797509,917.761269 401.695679,920.284155 401.197842,923.913935 C400.919539,925.944065 399.298732,927.904391 397.964752,929.652229 C394.585248,934.080718 389.725808,937.883511 387.86965,942.841586 C385.580165,948.95694 381.859123,952.878931 376.859517,956.325459 C375.842862,957.025996 375.239379,958.469394 374.687265,959.680949 C372.197655,965.145465 372.229411,965.159889 366.017209,966.080804 C366.756468,966.904835 367.470806,967.701943 368.4092,968.748978 C365.365827,972.392272 362.34988,975.978613 359.360514,979.587345 C352.919402,987.361567 347.374975,995.871202 340.066918,1002.94702 C338.652504,1004.31641 337.952512,1006.40061 336.791949,1008.06323 C334.485783,1011.36724 332.088607,1014.60795 329.729054,1017.8748 C326.449429,1022.4166 323.249629,1027.01862 319.871793,1031.48513 C315.620686,1037.1047 312.169568,1043.19707 306.857585,1048.1984 C302.276451,1052.51029 299.523271,1058.75938 295.911934,1064.11801 C292.562737,1069.08869 289.229928,1074.07402 285.734376,1078.94034 C282.843571,1082.96347 279.639573,1086.75957 276.727575,1090.76773 C271.574786,1097.86079 266.455196,1104.98114 261.493289,1112.20825 C259.451765,1115.18134 257.886434,1118.47958 256.048366,1121.59637 C253.856698,1125.31188 252.172436,1126.0177 247.853756,1125.21554 C246.742889,1125.00942 245.465201,1125.16546 244.525002,1124.66425 C237.647729,1120.99806 230.112497,1119.5394 222.656049,1117.67405 C209.449219,1114.37017 197.21364,1108.58073 185.215169,1102.25571 C180.468832,1099.7533 175.794499,1096.97112 170.783273,1095.15465 C165.093119,1093.09201 159.063084,1091.96655 153.179687,1090.43626 C143.256872,1087.85483 134.852208,1082.35439 126.693921,1076.45498 C117.903535,1070.09893 109.750379,1062.67149 100.394068,1057.3364 C88.4018212,1050.49719 77.9328705,1041.68459 66.6401093,1033.9693 C57.3417977,1027.61759 48.4299079,1020.6602 38.8661029,1014.75153 C29.7030202,1009.09058 19.8712864,1004.52434 10.4381194,999.288713 C7.11532913,997.444662 4.10127543,995.042589 1.1937118e-12,992.251066 C4.30522087,988.889938 7.92302589,986.066333 12.4744663,982.513384 C13.0234394,981.047936 14.3058873,978.356466 15.0221183,975.520924 C15.8623712,972.196922 18.0494079,968.650645 14.2575639,965.504246 C13.7176885,965.056044 14.0790983,963.447485 14.1202336,962.379148 C14.3237863,957.014691 18.3720639,953.57802 20.7150435,949.284983 C24.7202409,949.49453 23.6540909,945.801585 24.9218438,943.877131 C29.0034237,937.682289 32.9982613,931.413899 37.408798,925.457099 C42.3744327,918.749787 47.895217,912.45486 52.8864256,905.764843 C54.9172394,903.042 57.0140856,902.413409 59.8557231,903.814764 C62.4971024,905.11635 65.0995375,906.509414 67.6522555,907.979109 C78.7944323,914.397664 90.4744384,920.068316 100.895334,927.504812 C113.796302,936.710176 128.890926,941.358464 142.218915,949.495198 C151.254434,955.012535 160.331502,960.465456 169.239622,966.18243 C171.364349,967.545806 172.889165,969.847585 175.183952,972.229316 C176.070216,972.348636 178.094335,972.209642 179.753434,972.922949 C184.293592,974.87508 188.812083,976.958636 193.074117,979.445997 C195.434629,980.823914 196.983144,983.780885 199.412139,984.807123 C201.914116,985.863523 205.085226,985.213536 207.872128,985.76824 C209.030132,985.998337 210.001586,987.364919 210.973001,988.302475 C217.975714,995.061245 218.089217,995.077698 226.619689,989.236242 C225.314284,982.740446 230.918254,979.065214 233.618002,974.122515 C237.389659,967.220014 242.055015,960.808135 246.285254,954.15309 C249.069011,949.775159 251.571597,945.206317 254.531904,940.954507 C261.125573,931.486176 267.247925,921.709083 273.672074,912.140541 C278.248068,905.326691 282.493145,898.195555 288.19896,892.108076 C289.983425,890.203464 290.205263,886.915435 291.493422,884.442827 C296.506048,874.821204 301.462522,865.159043 306.837413,855.739988 C309.957186,850.272689 313.596022,845.056633 317.417507,840.046125 C325.776956,829.082183 334.353879,818.284453 342.947189,807.501367 C345.47825,804.325388 348.246675,801.317057 351.103567,798.426588 C360.804747,788.61076 366.118531,775.920967 373.440836,764.548224 C375.513869,761.328602 377.658279,758.149963 379.875994,755.029458 C387.559323,744.218976 395.297471,733.448748 402.997612,722.650909 C406.397466,717.884228 409.788984,713.110893 413.127497,708.301875 C421.231266,696.630643 429.433235,685.024928 437.345271,673.22365 C444.103911,663.14302 450.320275,652.743429 455.777302,641.846895 C458.459428,636.492361 462.859667,632.005985 466.413709,627.077451 C467.666054,625.340164 468.635258,623.398293 469.870932,621.647697 C476.220611,612.65558 482.531901,603.634376 489.044322,594.761259 C489.226528,594.512983 489.414365,594.268922 489.607006,594.028447 Z M328.226491,564.826355 C328.595759,564.759557 328.964044,564.693311 329.333157,564.627241 C329.38286,565.929424 329.433547,567.231055 329.48325,568.533238 C329.052758,568.513237 328.622111,568.493963 328.191619,568.473962 C328.20314,567.258578 328.21497,566.041739 328.226491,564.826355 Z M960.259544,183.814098 C960.310011,183.458947 960.360045,183.104461 960.409844,182.748877 C959.218833,182.245079 958.026487,181.740416 956.835475,181.236619 C956.681217,181.611414 956.527627,181.986642 956.373369,182.361438 C957.668839,182.846024 958.964074,183.329512 960.259544,183.814098 Z M1059.57865,785.988546 C1059.92596,785.847177 1060.27242,785.705808 1060.61973,785.563695 C1060.37831,784.372474 1060.13689,783.179766 1059.89547,781.988546 C1059.47022,782.058486 1059.04498,782.129171 1058.61973,782.199111 C1058.93909,783.462504 1059.25929,784.725153 1059.57865,785.988546 Z"/>
  </g>
</svg>
