<svg xmlns="http://www.w3.org/2000/svg" width="1638" height="1024" viewBox="0 0 1638 1024">
  <g fill="none" fill-rule="evenodd" transform="translate(-120 -170)">
    <rect width="1891" height="1280" fill="#CFCDC3"/>
    <polygon fill="#FF9565" points="126.536 98.406 454.269 98.421 454.459 622.377 126.726 622.362" transform="rotate(-38 290.498 360.392)"/>
    <polygon fill="#D1BD19" points="1630.288 681.737 1695.164 681.743 1695.192 973.742 1630.316 973.736" transform="rotate(-67 1662.74 827.74)"/>
    <polygon fill="#F5A623" points="181.624 843.918 246.501 843.924 246.528 1135.923 181.652 1135.917" transform="rotate(-74 214.076 989.92)"/>
    <polygon fill="#23C17C" points="1407.436 570.379 1483.923 703.611 1330.969 703.6" transform="rotate(-17 1407.446 636.995)"/>
    <polygon fill="#DE4500" points="958.078 473.171 1198.586 891.404 717.632 891.368" transform="rotate(-17 958.11 682.287)"/>
    <circle cx="1602.5" cy="288.5" r="288.5" fill="#50E3C2"/>
    <polygon fill="#FFCFC4" points="777.488 1010.323 842.37 1010.314 842.331 1302.289 777.449 1302.298" transform="rotate(-133 809.91 1156.306)"/>
  </g>
</svg>
