<svg xmlns="http://www.w3.org/2000/svg" width="1638" height="1024" viewBox="0 0 1638 1024">
  <g fill="none" fill-rule="evenodd">
    <rect width="1638" height="1024" fill="#DE4500"/>
    <path fill="#FF616B" d="M1251.02387,1023.99972 L1161.17059,1023.99972 C1089.94402,960.311811 1045.16759,885.683805 1038.29978,804.433538 C1035.53603,771.738359 1038.33253,738.916657 1044.71895,706.50208 C1046.20989,698.934265 1047.22382,691.003747 1049.81738,683.578763 C1052.6786,675.38845 1058.46657,667.29542 1062.98732,659.499299 C1071.97528,643.99928 1081.50057,628.655587 1091.36464,613.422392 C1130.85848,552.431692 1175.7168,493.260969 1216.39675,432.669522 C1226.25323,417.989096 1235.86562,403.225727 1245.06612,388.335552 C1254.5962,372.911165 1266.54007,356.738882 1272.5238,340.421237 C1277.93024,325.679798 1279.43396,309.405733 1281.55251,294.289784 C1283.90037,277.538583 1285.17918,260.710625 1285.11206,243.876481 C1284.95705,205.102252 1277.33218,166.365417 1260.84479,129.326814 C1239.78232,82.0119407 1204.62067,38.8507062 1161.17059,-4.54747351e-13 L1251.02387,-4.54747351e-13 C1319.44674,73.7445887 1354.85688,157.575662 1356.62667,245.514544 C1356.95186,261.667146 1356.25753,277.826776 1354.76619,293.945639 C1353.34397,309.30845 1352.99241,325.994983 1348.23755,341.049357 C1343.32409,356.606735 1332.88395,372.223438 1324.83161,387.104053 C1316.61668,402.284389 1308.0438,417.368004 1299.25119,432.386671 C1263.62572,493.238194 1224.40395,553.024105 1189.7996,614.175631 C1181.24429,629.294673 1172.98062,644.496378 1165.15281,659.809423 C1161.0783,667.780428 1155.75256,676.080958 1153.55011,684.405948 C1151.65129,691.584351 1151.06162,699.090873 1150.04849,706.354188 C1145.48539,739.068204 1143.89059,772.026834 1146.86287,804.851066 C1153.98517,883.500002 1189.81638,958.031851 1251.02387,1023.99972 Z M1057.51026,1023.99972 C1027.53727,1023.99972 997.56428,1023.99972 967.59129,1024 C917.900438,990.822906 873.931844,952.920848 845.608406,908.740112 C824.566425,875.917285 813.065538,840.453483 811.50554,804.477118 C810.084671,771.712773 816.590925,739.009441 827.741592,707.247165 C839.428384,673.959012 861.9588,643.637984 884.813849,613.500275 C931.366315,552.113415 984.96116,493.550287 1033.07842,432.785362 C1045.10504,417.597434 1056.79223,402.273986 1067.87813,386.735165 C1078.40352,371.983042 1090.09191,356.829417 1097.90909,341.237175 C1113.2552,310.627673 1121.01321,276.358537 1123.32202,244.045461 C1126.11139,205.001032 1118.02035,165.850605 1097.94467,129.336092 C1070.41882,79.2703086 1022.52305,36.67562 967.59129,-4.54747351e-13 L1057.51026,-4.54747351e-13 C1107.37422,37.5663482 1149.4298,80.34295 1174.17428,128.978451 C1193.05497,166.089032 1201.14641,205.434869 1199.82469,244.784641 C1199.27457,261.172015 1197.16926,277.521713 1193.84696,293.743482 C1190.62902,309.457467 1187.5498,326.203326 1180.62256,341.345423 C1173.33471,357.276187 1161.52998,372.809946 1151.26406,387.877817 C1141.07849,402.827598 1130.40878,417.612336 1119.45241,432.289388 C1074.10613,493.035756 1023.83917,551.918287 979.837794,613.167657 C968.91461,628.372736 958.379227,643.71924 948.49111,659.271837 C943.360948,667.340406 937.343242,675.554056 933.759884,684.037342 C930.710652,691.255952 928.982341,698.915427 926.946188,706.303016 C918.060756,738.539616 913.379563,771.44623 915.596423,804.292674 C921.289096,888.639403 976.514303,962.978653 1057.51026,1023.99972 Z M89.5137104,1024 L-0.000159197324,1024 L-0.000159197324,614.130645 L-0.000159197324,245.415855 L-0.000159197324,0 L89.5137104,0 C108.142981,80.911464 116.079764,162.785353 117.775613,244.701136 C118.435884,276.582906 119.717025,308.867866 117.300807,340.719833 C114.980108,371.316402 108.221784,402.069298 103.147369,432.494076 C93.0642087,492.949439 82.0258642,553.324108 72.2101552,613.802245 C67.2037973,644.648488 61.6947739,675.345432 61.1769846,706.410139 C60.6361117,738.880387 60.7821753,771.357382 61.9443157,803.819756 C64.5842054,877.545788 72.7470482,951.175099 89.5137104,1024 Z M283.948119,1023.99972 L193.90456,1023.99972 C159.46234,953.243624 141.888324,879.331462 136.870379,804.741975 C134.678882,772.165448 134.726523,739.527345 136.274664,706.937322 C136.634575,699.359666 136.546499,691.636367 137.603814,684.08992 C138.732792,676.032316 141.923154,667.922135 144.301613,659.995554 C148.914007,644.624026 153.766608,629.288488 158.783752,613.980222 C178.559274,553.645197 200.855778,493.738104 221.206998,433.500362 C226.339442,418.308499 231.35018,403.09611 236.161546,387.852231 C240.97091,372.615943 247.496159,356.927824 250.094409,341.424149 C252.703067,325.860024 251.988048,309.588209 252.370379,293.930737 C252.768324,277.651611 252.750709,261.366581 252.22145,245.088861 C249.513106,161.79453 232.362256,79.003765 193.90456,-4.54747351e-13 L283.948119,-4.54747351e-13 C337.366769,76.5289577 362.845629,159.801639 365.667272,244.771708 C366.216547,261.31569 365.991953,277.870357 365.140015,294.40731 C364.349331,309.759438 364.67121,326.000606 360.997229,341.161542 C357.272404,356.529133 348.959206,371.976294 342.528038,386.883339 C335.83184,402.405289 328.842989,417.864822 321.677986,433.283023 C293.63971,493.617204 262.878677,553.314829 235.638693,613.834016 C228.867631,628.876301 222.319962,643.969195 216.099376,659.128444 C212.718449,667.368523 208.29662,675.82791 206.551109,684.328628 C205.038199,691.696817 204.943717,699.397061 204.315573,706.824013 C201.560388,739.394355 200.986291,772.079692 203.701842,804.661281 C210.058145,880.918071 235.998204,955.304839 283.948119,1023.99972 Z M476.828854,1023.99972 L386.975571,1023.99972 C325.768479,958.031851 289.937668,883.499721 282.815371,804.851066 C279.842687,772.026834 281.437893,739.068204 286.000989,706.354188 C287.014122,699.090873 287.603785,691.584351 289.502612,684.405948 C291.704659,676.080958 297.030801,667.780428 301.105308,659.809423 C308.933124,644.496378 317.196794,629.294673 325.7521,614.175631 C360.356444,553.024105 399.578217,493.238194 435.203685,432.386671 C443.996295,417.368004 452.569179,402.284389 460.78371,387.104053 C468.836045,372.223438 479.276195,356.606735 484.190052,341.049357 C488.944509,325.994983 489.296469,309.30845 490.718292,293.945639 C492.210027,277.826776 492.90396,261.667146 492.579166,245.514544 C490.809378,157.575381 455.398841,73.7445887 386.975571,-4.54747351e-13 L476.828854,-4.54747351e-13 C520.278941,38.8507062 555.440589,82.0119407 576.503061,129.326814 C592.990851,166.365417 600.61572,205.102252 600.770327,243.876481 C600.837443,260.710625 599.558642,277.538583 597.211176,294.289784 C595.092624,309.405733 593.588504,325.679798 588.182462,340.421237 C582.198342,356.738882 570.254871,372.911165 560.724385,388.335552 C551.523885,403.225727 541.9119,417.989096 532.055421,432.669522 C491.375071,493.26125 446.516744,552.431692 407.022911,613.422673 C397.158841,628.655587 387.633548,643.99928 378.645583,659.499299 C374.124834,667.295701 368.336869,675.388731 365.476045,683.578763 C362.882487,691.003747 361.868155,698.934546 360.377218,706.50208 C353.991201,738.916657 351.194297,771.738359 353.958042,804.433538 C360.825858,885.683805 405.602287,960.311811 476.828854,1023.99972 Z M669.994185,1024 C640.070866,1023.99972 610.147147,1023.99972 580.223828,1023.99972 C499.362494,962.978653 444.228804,888.639403 438.545166,804.292674 C436.331979,771.446511 441.005415,738.539897 449.876122,706.303578 C451.9093,698.915708 453.633949,691.256233 456.678527,684.037342 C460.255947,675.554056 466.26368,667.340688 471.385341,659.2724 C481.257071,643.719521 491.774996,628.372736 502.680477,613.167938 C546.608538,551.918568 596.792592,493.035756 642.063332,432.289388 C653.001543,417.612336 663.653975,402.827598 673.82226,387.877817 C684.071568,372.809946 695.856737,357.276187 703.132512,341.345423 C710.048271,326.203326 713.121986,309.457467 716.334998,293.743482 C719.651385,277.521713 721.753214,261.172297 722.302819,244.784641 C723.622349,205.434869 715.543919,166.089032 696.694515,128.978451 C671.991441,80.34295 630.005158,37.5663482 580.223828,0 L669.994185,0 C724.834912,36.67562 772.651316,79.2705898 800.131948,129.336092 C820.174357,165.850605 828.25159,205.001032 825.466847,244.045461 C823.16186,276.358537 815.416705,310.627673 800.096026,341.237175 C792.291799,356.829417 780.623177,371.983042 770.115231,386.735446 C759.047303,402.273986 747.379479,417.597434 735.373192,432.785362 C687.33527,493.550568 633.829241,552.113696 587.35392,613.500275 C564.536746,643.638546 542.043666,673.959293 530.376641,707.247446 C519.244053,739.009441 512.748979,771.713336 514.167095,804.477399 C515.724907,840.453764 527.206336,875.917566 548.213846,908.740393 C576.489948,952.921129 620.385679,990.822906 669.994185,1024 Z M1444.09472,1023.99972 L1354.05116,1023.99972 C1306.10124,955.304839 1280.16079,880.918071 1273.80448,804.661281 C1271.08853,772.079692 1271.66303,739.394355 1274.41821,706.824294 C1275.04636,699.397061 1275.14084,691.697098 1276.65375,684.328909 C1278.39926,675.828191 1282.82109,667.368804 1286.20202,659.128444 C1292.4222,643.969195 1298.97027,628.876582 1305.74093,613.834016 C1332.98132,553.31511 1363.74235,493.617485 1391.78063,433.283023 C1398.94563,417.864822 1405.93448,402.405289 1412.63068,386.883339 C1419.06185,371.976294 1427.37504,356.529133 1431.09987,341.161542 C1434.77425,326.000606 1434.45197,309.759438 1435.24306,294.40731 C1436.09459,277.870357 1436.31919,261.31569 1435.76991,244.771708 C1432.94827,159.801639 1407.46981,76.5289577 1354.05116,-4.54747351e-13 L1444.09472,-4.54747351e-13 C1482.55202,79.003765 1499.70206,161.79453 1502.41081,245.088861 C1502.94007,261.366581 1502.95768,277.651611 1502.56014,293.930737 C1502.17741,309.588209 1502.89243,325.860024 1500.28417,341.424149 C1497.68552,356.927824 1491.16067,372.615943 1486.35131,387.852231 C1481.53914,403.09611 1476.5288,418.308499 1471.39596,433.500644 C1451.04474,493.738104 1428.74823,553.645478 1408.97311,613.980222 C1403.95557,629.288769 1399.10297,644.624308 1394.49097,659.995554 C1392.11251,667.922135 1388.92215,676.032316 1387.79317,684.090201 C1386.73586,691.636367 1386.82393,699.359666 1386.46402,706.937322 C1384.91548,739.527627 1384.86824,772.165729 1387.05934,804.741975 C1392.07768,879.331743 1409.6521,953.243906 1444.09472,1023.99972 Z M864.440949,1024 L774.635486,1024 C720.295341,991.6619 670.779415,954.091053 639.374874,908.68894 C616.877689,876.163585 605.07668,840.521806 605.000415,804.34244 C604.855074,735.785612 642.859076,672.304641 688.943905,613.255943 C736.707349,552.056619 792.360359,494.142981 841.939373,433.692398 C890.114484,374.953261 933.449803,313.426662 942.58755,244.904417 C947.850189,205.44246 940.267676,165.682469 918.654919,129.0046 C888.366792,77.6041296 834.342086,35.5312817 774.635486,0 L864.440949,0 C924.147549,35.5312817 978.172256,77.6041296 1008.46038,129.0046 C1030.07274,165.682469 1037.65565,205.44246 1032.39301,244.904417 C1023.25527,313.426662 979.919947,374.953261 931.744836,433.692398 C882.165822,494.142981 826.512812,552.056619 778.749369,613.255943 C732.66454,672.304641 694.660537,735.785612 694.805879,804.342159 C694.882542,840.521806 706.683153,876.163304 729.180736,908.68894 C760.584878,954.091053 810.100804,991.661619 864.440949,1024 Z M1638,1024 L1547.84412,1024 C1530.95688,951.175381 1522.73552,877.546069 1520.07671,803.819756 C1518.90624,771.357382 1518.75913,738.880387 1519.30388,706.410421 C1519.82538,675.345432 1525.37389,644.648769 1530.41573,613.802245 C1540.3018,553.324389 1551.41966,492.949439 1561.5751,432.494076 C1566.68588,402.069298 1573.49305,371.316402 1575.83038,340.719833 C1578.26392,308.867866 1576.9732,276.582906 1576.30859,244.701136 C1574.60019,162.785353 1566.60692,80.911464 1547.84412,0 L1638,0 C1637.9996,81.805285 1637.9996,163.61057 1637.9996,245.415855 C1638,368.320597 1637.9992,491.225621 1637.9996,614.130645 C1638,750.753951 1637.9992,887.376694 1638,1024 Z"/>
  </g>
</svg>
