<svg xmlns="http://www.w3.org/2000/svg" width="1638" height="1024" viewBox="0 0 1638 1024">
  <g fill="none" fill-rule="evenodd">
    <rect width="1638" height="1024" fill="#0D75FF"/>
    <g transform="translate(-75 -159)">
      <rect width="1742" height="1196" fill="#0D75FF"/>
      <path fill="#FFCFC4" d="M461.691046,795.414253 C461.618046,795.627253 462.431046,794.522253 462.166046,793.825253 C458.394046,783.859253 461.501046,773.565253 460.488046,763.524253 C460.013046,758.810253 457.744046,754.198253 455.843046,749.729253 C454.185046,745.832253 451.370046,742.387253 449.992046,738.420253 C445.058046,724.212253 440.576046,709.848253 435.759046,695.599253 C435.081046,693.594253 433.485046,691.900253 431.637046,688.999253 C424.814046,698.893253 418.525046,707.730253 412.582046,716.793253 C410.653046,719.735253 410.018046,723.525253 408.097046,726.475253 C405.277046,730.807253 403.078046,735.224253 402.708046,740.430253 C394.422046,744.358253 393.408046,753.379253 389.464046,760.164253 C382.947046,771.377253 377.772046,783.373253 372.092046,795.068253 C368.078046,803.333253 363.457046,811.409253 360.549046,820.055253 C359.366046,823.574253 358.595046,826.604253 355.866046,829.301253 C350.807046,834.298253 349.460046,840.834253 348.316046,849.118253 C352.069046,847.253253 354.539046,846.349253 356.647046,844.914253 C361.536046,841.587253 365.905046,837.338253 371.096046,834.640253 C395.065046,822.185253 418.563046,808.679253 444.248046,799.854253 C449.348046,798.102253 454.726046,797.160253 461.691046,795.414253 Z M479.063046,828.170253 C478.497046,823.882253 478.124046,821.054253 477.756046,818.263253 C471.237046,815.382253 465.064046,817.215253 459.864046,819.434253 C440.433046,827.724253 421.077046,836.298253 402.261046,845.881253 C391.690046,851.265253 382.364046,859.046253 372.232046,865.353253 C363.049046,871.069253 356.953046,869.677253 350.010046,861.154253 C348.424046,859.206253 346.702046,857.369253 344.590046,854.967253 C334.636046,864.812253 333.877046,878.337253 327.386046,888.643253 C307.909046,884.245253 298.732046,864.774253 307.099046,845.657253 C311.959046,834.552253 318.763046,824.231253 322.941046,812.911253 C327.793046,799.766253 334.554046,787.375253 342.161046,776.276253 C353.062046,760.370253 358.869046,742.066253 369.659046,726.214253 C377.383046,714.866253 381.658046,701.226253 388.797046,689.409253 C396.128046,677.274253 404.949046,666.022253 413.372046,654.571253 C416.308046,650.579253 419.703046,646.805253 423.419046,643.535253 C428.860046,638.748253 431.238046,638.960253 437.100046,643.339253 C437.897046,643.935253 438.593046,644.926253 439.470046,645.115253 C450.894046,647.579253 451.457046,657.015253 452.556046,665.821253 C453.618046,674.330253 453.975046,682.925253 454.811046,691.466253 C455.030046,693.704253 455.708046,695.940253 456.461046,698.077253 C460.196046,708.673253 463.796046,719.327253 467.895046,729.783253 C471.252046,738.347253 475.718046,746.492253 478.830046,755.133253 C482.455046,765.196253 488.042046,774.887253 486.215046,786.352253 C485.873046,788.493253 486.511046,790.990253 487.323046,793.079253 C490.830046,802.092253 490.828046,810.139253 483.085046,817.392253 C481.000046,819.345253 480.786046,823.295253 479.063046,828.170253 Z M325.691046,336.414253 C325.618046,336.627253 326.431046,335.522253 326.166046,334.825253 C322.394046,324.859253 325.501046,314.565253 324.488046,304.524253 C324.013046,299.810253 321.744046,295.198253 319.843046,290.729253 C318.185046,286.832253 315.370046,283.387253 313.992046,279.420253 C309.058046,265.212253 304.576046,250.848253 299.759046,236.599253 C299.081046,234.594253 297.485046,232.900253 295.637046,229.999253 C288.814046,239.893253 282.525046,248.730253 276.582046,257.793253 C274.653046,260.735253 274.018046,264.525253 272.097046,267.475253 C269.277046,271.807253 267.078046,276.224253 266.708046,281.430253 C258.422046,285.358253 257.408046,294.379253 253.464046,301.164253 C246.947046,312.377253 241.772046,324.373253 236.092046,336.068253 C232.078046,344.333253 227.457046,352.409253 224.549046,361.055253 C223.366046,364.574253 222.595046,367.604253 219.866046,370.301253 C214.807046,375.298253 213.460046,381.834253 212.316046,390.118253 C216.069046,388.253253 218.539046,387.349253 220.647046,385.914253 C225.536046,382.587253 229.905046,378.338253 235.096046,375.640253 C259.065046,363.185253 282.563046,349.679253 308.248046,340.854253 C313.348046,339.102253 318.726046,338.160253 325.691046,336.414253 Z M343.063046,369.170253 C342.497046,364.882253 342.124046,362.054253 341.756046,359.263253 C335.237046,356.382253 329.064046,358.215253 323.864046,360.434253 C304.433046,368.724253 285.077046,377.298253 266.261046,386.881253 C255.690046,392.265253 246.364046,400.046253 236.232046,406.353253 C227.049046,412.069253 220.953046,410.677253 214.010046,402.154253 C212.424046,400.206253 210.702046,398.369253 208.590046,395.967253 C198.636046,405.812253 197.877046,419.337253 191.386046,429.643253 C171.909046,425.245253 162.732046,405.774253 171.099046,386.657253 C175.959046,375.552253 182.763046,365.231253 186.941046,353.911253 C191.793046,340.766253 198.554046,328.375253 206.161046,317.276253 C217.062046,301.370253 222.869046,283.066253 233.659046,267.214253 C241.383046,255.866253 245.658046,242.226253 252.797046,230.409253 C260.128046,218.274253 268.949046,207.022253 277.372046,195.571253 C280.308046,191.579253 283.703046,187.805253 287.419046,184.535253 C292.860046,179.748253 295.238046,179.960253 301.100046,184.339253 C301.897046,184.935253 302.593046,185.926253 303.470046,186.115253 C314.894046,188.579253 315.457046,198.015253 316.556046,206.821253 C317.618046,215.330253 317.975046,223.925253 318.811046,232.466253 C319.030046,234.704253 319.708046,236.940253 320.461046,239.077253 C324.196046,249.673253 327.796046,260.327253 331.895046,270.783253 C335.252046,279.347253 339.718046,287.492253 342.830046,296.133253 C346.455046,306.196253 352.042046,315.887253 350.215046,327.352253 C349.873046,329.493253 350.511046,331.990253 351.323046,334.079253 C354.830046,343.092253 354.828046,351.139253 347.085046,358.392253 C345.000046,360.345253 344.786046,364.295253 343.063046,369.170253 Z M865.691046,978.414253 C865.618046,978.627253 866.431046,977.522253 866.166046,976.825253 C862.394046,966.859253 865.501046,956.565253 864.488046,946.524253 C864.013046,941.810253 861.744046,937.198253 859.843046,932.729253 C858.185046,928.832253 855.370046,925.387253 853.992046,921.420253 C849.058046,907.212253 844.576046,892.848253 839.759046,878.599253 C839.081046,876.594253 837.485046,874.900253 835.637046,871.999253 C828.814046,881.893253 822.525046,890.730253 816.582046,899.793253 C814.653046,902.735253 814.018046,906.525253 812.097046,909.475253 C809.277046,913.807253 807.078046,918.224253 806.708046,923.430253 C798.422046,927.358253 797.408046,936.379253 793.464046,943.164253 C786.947046,954.377253 781.772046,966.373253 776.092046,978.068253 C772.078046,986.333253 767.457046,994.409253 764.549046,1003.05525 C763.366046,1006.57425 762.595046,1009.60425 759.866046,1012.30125 C754.807046,1017.29825 753.460046,1023.83425 752.316046,1032.11825 C756.069046,1030.25325 758.539046,1029.34925 760.647046,1027.91425 C765.536046,1024.58725 769.905046,1020.33825 775.096046,1017.64025 C799.065046,1005.18525 822.563046,991.679253 848.248046,982.854253 C853.348046,981.102253 858.726046,980.160253 865.691046,978.414253 Z M883.063046,1011.17025 C882.497046,1006.88225 882.124046,1004.05425 881.756046,1001.26325 C875.237046,998.382253 869.064046,1000.21525 863.864046,1002.43425 C844.433046,1010.72425 825.077046,1019.29825 806.261046,1028.88125 C795.690046,1034.26525 786.364046,1042.04625 776.232046,1048.35325 C767.049046,1054.06925 760.953046,1052.67725 754.010046,1044.15425 C752.424046,1042.20625 750.702046,1040.36925 748.590046,1037.96725 C738.636046,1047.81225 737.877046,1061.33725 731.386046,1071.64325 C711.909046,1067.24525 702.732046,1047.77425 711.099046,1028.65725 C715.959046,1017.55225 722.763046,1007.23125 726.941046,995.911253 C731.793046,982.766253 738.554046,970.375253 746.161046,959.276253 C757.062046,943.370253 762.869046,925.066253 773.659046,909.214253 C781.383046,897.866253 785.658046,884.226253 792.797046,872.409253 C800.128046,860.274253 808.949046,849.022253 817.372046,837.571253 C820.308046,833.579253 823.703046,829.805253 827.419046,826.535253 C832.860046,821.748253 835.238046,821.960253 841.100046,826.339253 C841.897046,826.935253 842.593046,827.926253 843.470046,828.115253 C854.894046,830.579253 855.457046,840.015253 856.556046,848.821253 C857.618046,857.330253 857.975046,865.925253 858.811046,874.466253 C859.030046,876.704253 859.708046,878.940253 860.461046,881.077253 C864.196046,891.673253 867.796046,902.327253 871.895046,912.783253 C875.252046,921.347253 879.718046,929.492253 882.830046,938.133253 C886.455046,948.196253 892.042046,957.887253 890.215046,969.352253 C889.873046,971.493253 890.511046,973.990253 891.323046,976.079253 C894.830046,985.092253 894.828046,993.139253 887.085046,1000.39225 C885.000046,1002.34525 884.786046,1006.29525 883.063046,1011.17025 Z M933.691046,460.414253 C933.618046,460.627253 934.431046,459.522253 934.166046,458.825253 C930.394046,448.859253 933.501046,438.565253 932.488046,428.524253 C932.013046,423.810253 929.744046,419.198253 927.843046,414.729253 C926.185046,410.832253 923.370046,407.387253 921.992046,403.420253 C917.058046,389.212253 912.576046,374.848253 907.759046,360.599253 C907.081046,358.594253 905.485046,356.900253 903.637046,353.999253 C896.814046,363.893253 890.525046,372.730253 884.582046,381.793253 C882.653046,384.735253 882.018046,388.525253 880.097046,391.475253 C877.277046,395.807253 875.078046,400.224253 874.708046,405.430253 C866.422046,409.358253 865.408046,418.379253 861.464046,425.164253 C854.947046,436.377253 849.772046,448.373253 844.092046,460.068253 C840.078046,468.333253 835.457046,476.409253 832.549046,485.055253 C831.366046,488.574253 830.595046,491.604253 827.866046,494.301253 C822.807046,499.298253 821.460046,505.834253 820.316046,514.118253 C824.069046,512.253253 826.539046,511.349253 828.647046,509.914253 C833.536046,506.587253 837.905046,502.338253 843.096046,499.640253 C867.065046,487.185253 890.563046,473.679253 916.248046,464.854253 C921.348046,463.102253 926.726046,462.160253 933.691046,460.414253 Z M951.063046,493.170253 C950.497046,488.882253 950.124046,486.054253 949.756046,483.263253 C943.237046,480.382253 937.064046,482.215253 931.864046,484.434253 C912.433046,492.724253 893.077046,501.298253 874.261046,510.881253 C863.690046,516.265253 854.364046,524.046253 844.232046,530.353253 C835.049046,536.069253 828.953046,534.677253 822.010046,526.154253 C820.424046,524.206253 818.702046,522.369253 816.590046,519.967253 C806.636046,529.812253 805.877046,543.337253 799.386046,553.643253 C779.909046,549.245253 770.732046,529.774253 779.099046,510.657253 C783.959046,499.552253 790.763046,489.231253 794.941046,477.911253 C799.793046,464.766253 806.554046,452.375253 814.161046,441.276253 C825.062046,425.370253 830.869046,407.066253 841.659046,391.214253 C849.383046,379.866253 853.658046,366.226253 860.797046,354.409253 C868.128046,342.274253 876.949046,331.022253 885.372046,319.571253 C888.308046,315.579253 891.703046,311.805253 895.419046,308.535253 C900.860046,303.748253 903.238046,303.960253 909.100046,308.339253 C909.897046,308.935253 910.593046,309.926253 911.470046,310.115253 C922.894046,312.579253 923.457046,322.015253 924.556046,330.821253 C925.618046,339.330253 925.975046,347.925253 926.811046,356.466253 C927.030046,358.704253 927.708046,360.940253 928.461046,363.077253 C932.196046,373.673253 935.796046,384.327253 939.895046,394.783253 C943.252046,403.347253 947.718046,411.492253 950.830046,420.133253 C954.455046,430.196253 960.042046,439.887253 958.215046,451.352253 C957.873046,453.493253 958.511046,455.990253 959.323046,458.079253 C962.830046,467.092253 962.828046,475.139253 955.085046,482.392253 C953.000046,484.345253 952.786046,488.295253 951.063046,493.170253 Z M1323.69105,1102.41425 C1323.61805,1102.62725 1324.43105,1101.52225 1324.16605,1100.82525 C1320.39405,1090.85925 1323.50105,1080.56525 1322.48805,1070.52425 C1322.01305,1065.81025 1319.74405,1061.19825 1317.84305,1056.72925 C1316.18505,1052.83225 1313.37005,1049.38725 1311.99205,1045.42025 C1307.05805,1031.21225 1302.57605,1016.84825 1297.75905,1002.59925 C1297.08105,1000.59425 1295.48505,998.900253 1293.63705,995.999253 C1286.81405,1005.89325 1280.52505,1014.73025 1274.58205,1023.79325 C1272.65305,1026.73525 1272.01805,1030.52525 1270.09705,1033.47525 C1267.27705,1037.80725 1265.07805,1042.22425 1264.70805,1047.43025 C1256.42205,1051.35825 1255.40805,1060.37925 1251.46405,1067.16425 C1244.94705,1078.37725 1239.77205,1090.37325 1234.09205,1102.06825 C1230.07805,1110.33325 1225.45705,1118.40925 1222.54905,1127.05525 C1221.36605,1130.57425 1220.59505,1133.60425 1217.86605,1136.30125 C1212.80705,1141.29825 1211.46005,1147.83425 1210.31605,1156.11825 C1214.06905,1154.25325 1216.53905,1153.34925 1218.64705,1151.91425 C1223.53605,1148.58725 1227.90505,1144.33825 1233.09605,1141.64025 C1257.06505,1129.18525 1280.56305,1115.67925 1306.24805,1106.85425 C1311.34805,1105.10225 1316.72605,1104.16025 1323.69105,1102.41425 Z M1341.06305,1135.17025 C1340.49705,1130.88225 1340.12405,1128.05425 1339.75605,1125.26325 C1333.23705,1122.38225 1327.06405,1124.21525 1321.86405,1126.43425 C1302.43305,1134.72425 1283.07705,1143.29825 1264.26105,1152.88125 C1253.69005,1158.26525 1244.36405,1166.04625 1234.23205,1172.35325 C1225.04905,1178.06925 1218.95305,1176.67725 1212.01005,1168.15425 C1210.42405,1166.20625 1208.70205,1164.36925 1206.59005,1161.96725 C1196.63605,1171.81225 1195.87705,1185.33725 1189.38605,1195.64325 C1169.90905,1191.24525 1160.73205,1171.77425 1169.09905,1152.65725 C1173.95905,1141.55225 1180.76305,1131.23125 1184.94105,1119.91125 C1189.79305,1106.76625 1196.55405,1094.37525 1204.16105,1083.27625 C1215.06205,1067.37025 1220.86905,1049.06625 1231.65905,1033.21425 C1239.38305,1021.86625 1243.65805,1008.22625 1250.79705,996.409253 C1258.12805,984.274253 1266.94905,973.022253 1275.37205,961.571253 C1278.30805,957.579253 1281.70305,953.805253 1285.41905,950.535253 C1290.86005,945.748253 1293.23805,945.960253 1299.10005,950.339253 C1299.89705,950.935253 1300.59305,951.926253 1301.47005,952.115253 C1312.89405,954.579253 1313.45705,964.015253 1314.55605,972.821253 C1315.61805,981.330253 1315.97505,989.925253 1316.81105,998.466253 C1317.03005,1000.70425 1317.70805,1002.94025 1318.46105,1005.07725 C1322.19605,1015.67325 1325.79605,1026.32725 1329.89505,1036.78325 C1333.25205,1045.34725 1337.71805,1053.49225 1340.83005,1062.13325 C1344.45505,1072.19625 1350.04205,1081.88725 1348.21505,1093.35225 C1347.87305,1095.49325 1348.51105,1097.99025 1349.32305,1100.07925 C1352.83005,1109.09225 1352.82805,1117.13925 1345.08505,1124.39225 C1343.00005,1126.34525 1342.78605,1130.29525 1341.06305,1135.17025 Z M1360.69105,528.414253 C1360.61805,528.627253 1361.43105,527.522253 1361.16605,526.825253 C1357.39405,516.859253 1360.50105,506.565253 1359.48805,496.524253 C1359.01305,491.810253 1356.74405,487.198253 1354.84305,482.729253 C1353.18505,478.832253 1350.37005,475.387253 1348.99205,471.420253 C1344.05805,457.212253 1339.57605,442.848253 1334.75905,428.599253 C1334.08105,426.594253 1332.48505,424.900253 1330.63705,421.999253 C1323.81405,431.893253 1317.52505,440.730253 1311.58205,449.793253 C1309.65305,452.735253 1309.01805,456.525253 1307.09705,459.475253 C1304.27705,463.807253 1302.07805,468.224253 1301.70805,473.430253 C1293.42205,477.358253 1292.40805,486.379253 1288.46405,493.164253 C1281.94705,504.377253 1276.77205,516.373253 1271.09205,528.068253 C1267.07805,536.333253 1262.45705,544.409253 1259.54905,553.055253 C1258.36605,556.574253 1257.59505,559.604253 1254.86605,562.301253 C1249.80705,567.298253 1248.46005,573.834253 1247.31605,582.118253 C1251.06905,580.253253 1253.53905,579.349253 1255.64705,577.914253 C1260.53605,574.587253 1264.90505,570.338253 1270.09605,567.640253 C1294.06505,555.185253 1317.56305,541.679253 1343.24805,532.854253 C1348.34805,531.102253 1353.72605,530.160253 1360.69105,528.414253 Z M1378.06305,561.170253 C1377.49705,556.882253 1377.12405,554.054253 1376.75605,551.263253 C1370.23705,548.382253 1364.06405,550.215253 1358.86405,552.434253 C1339.43305,560.724253 1320.07705,569.298253 1301.26105,578.881253 C1290.69005,584.265253 1281.36405,592.046253 1271.23205,598.353253 C1262.04905,604.069253 1255.95305,602.677253 1249.01005,594.154253 C1247.42405,592.206253 1245.70205,590.369253 1243.59005,587.967253 C1233.63605,597.812253 1232.87705,611.337253 1226.38605,621.643253 C1206.90905,617.245253 1197.73205,597.774253 1206.09905,578.657253 C1210.95905,567.552253 1217.76305,557.231253 1221.94105,545.911253 C1226.79305,532.766253 1233.55405,520.375253 1241.16105,509.276253 C1252.06205,493.370253 1257.86905,475.066253 1268.65905,459.214253 C1276.38305,447.866253 1280.65805,434.226253 1287.79705,422.409253 C1295.12805,410.274253 1303.94905,399.022253 1312.37205,387.571253 C1315.30805,383.579253 1318.70305,379.805253 1322.41905,376.535253 C1327.86005,371.748253 1330.23805,371.960253 1336.10005,376.339253 C1336.89705,376.935253 1337.59305,377.926253 1338.47005,378.115253 C1349.89405,380.579253 1350.45705,390.015253 1351.55605,398.821253 C1352.61805,407.330253 1352.97505,415.925253 1353.81105,424.466253 C1354.03005,426.704253 1354.70805,428.940253 1355.46105,431.077253 C1359.19605,441.673253 1362.79605,452.327253 1366.89505,462.783253 C1370.25205,471.347253 1374.71805,479.492253 1377.83005,488.133253 C1381.45505,498.196253 1387.04205,507.887253 1385.21505,519.352253 C1384.87305,521.493253 1385.51105,523.990253 1386.32305,526.079253 C1389.83005,535.092253 1389.82805,543.139253 1382.08505,550.392253 C1380.00005,552.345253 1379.78605,556.295253 1378.06305,561.170253 Z M1713.69105,279.414253 C1713.61805,279.627253 1714.43105,278.522253 1714.16605,277.825253 C1710.39405,267.859253 1713.50105,257.565253 1712.48805,247.524253 C1712.01305,242.810253 1709.74405,238.198253 1707.84305,233.729253 C1706.18505,229.832253 1703.37005,226.387253 1701.99205,222.420253 C1697.05805,208.212253 1692.57605,193.848253 1687.75905,179.599253 C1687.08105,177.594253 1685.48505,175.900253 1683.63705,172.999253 C1676.81405,182.893253 1670.52505,191.730253 1664.58205,200.793253 C1662.65305,203.735253 1662.01805,207.525253 1660.09705,210.475253 C1657.27705,214.807253 1655.07805,219.224253 1654.70805,224.430253 C1646.42205,228.358253 1645.40805,237.379253 1641.46405,244.164253 C1634.94705,255.377253 1629.77205,267.373253 1624.09205,279.068253 C1620.07805,287.333253 1615.45705,295.409253 1612.54905,304.055253 C1611.36605,307.574253 1610.59505,310.604253 1607.86605,313.301253 C1602.80705,318.298253 1601.46005,324.834253 1600.31605,333.118253 C1604.06905,331.253253 1606.53905,330.349253 1608.64705,328.914253 C1613.53605,325.587253 1617.90505,321.338253 1623.09605,318.640253 C1647.06505,306.185253 1670.56305,292.679253 1696.24805,283.854253 C1701.34805,282.102253 1706.72605,281.160253 1713.69105,279.414253 Z M1731.06305,312.170253 C1730.49705,307.882253 1730.12405,305.054253 1729.75605,302.263253 C1723.23705,299.382253 1717.06405,301.215253 1711.86405,303.434253 C1692.43305,311.724253 1673.07705,320.298253 1654.26105,329.881253 C1643.69005,335.265253 1634.36405,343.046253 1624.23205,349.353253 C1615.04905,355.069253 1608.95305,353.677253 1602.01005,345.154253 C1600.42405,343.206253 1598.70205,341.369253 1596.59005,338.967253 C1586.63605,348.812253 1585.87705,362.337253 1579.38605,372.643253 C1559.90905,368.245253 1550.73205,348.774253 1559.09905,329.657253 C1563.95905,318.552253 1570.76305,308.231253 1574.94105,296.911253 C1579.79305,283.766253 1586.55405,271.375253 1594.16105,260.276253 C1605.06205,244.370253 1610.86905,226.066253 1621.65905,210.214253 C1629.38305,198.866253 1633.65805,185.226253 1640.79705,173.409253 C1648.12805,161.274253 1656.94905,150.022253 1665.37205,138.571253 C1668.30805,134.579253 1671.70305,130.805253 1675.41905,127.535253 C1680.86005,122.748253 1683.23805,122.960253 1689.10005,127.339253 C1689.89705,127.935253 1690.59305,128.926253 1691.47005,129.115253 C1702.89405,131.579253 1703.45705,141.015253 1704.55605,149.821253 C1705.61805,158.330253 1705.97505,166.925253 1706.81105,175.466253 C1707.03005,177.704253 1707.70805,179.940253 1708.46105,182.077253 C1712.19605,192.673253 1715.79605,203.327253 1719.89505,213.783253 C1723.25205,222.347253 1727.71805,230.492253 1730.83005,239.133253 C1734.45505,249.196253 1740.04205,258.887253 1738.21505,270.352253 C1737.87305,272.493253 1738.51105,274.990253 1739.32305,277.079253 C1742.83005,286.092253 1742.82805,294.139253 1735.08505,301.392253 C1733.00005,303.345253 1732.78605,307.295253 1731.06305,312.170253 Z M1620.69105,795.414253 C1620.61805,795.627253 1621.43105,794.522253 1621.16605,793.825253 C1617.39405,783.859253 1620.50105,773.565253 1619.48805,763.524253 C1619.01305,758.810253 1616.74405,754.198253 1614.84305,749.729253 C1613.18505,745.832253 1610.37005,742.387253 1608.99205,738.420253 C1604.05805,724.212253 1599.57605,709.848253 1594.75905,695.599253 C1594.08105,693.594253 1592.48505,691.900253 1590.63705,688.999253 C1583.81405,698.893253 1577.52505,707.730253 1571.58205,716.793253 C1569.65305,719.735253 1569.01805,723.525253 1567.09705,726.475253 C1564.27705,730.807253 1562.07805,735.224253 1561.70805,740.430253 C1553.42205,744.358253 1552.40805,753.379253 1548.46405,760.164253 C1541.94705,771.377253 1536.77205,783.373253 1531.09205,795.068253 C1527.07805,803.333253 1522.45705,811.409253 1519.54905,820.055253 C1518.36605,823.574253 1517.59505,826.604253 1514.86605,829.301253 C1509.80705,834.298253 1508.46005,840.834253 1507.31605,849.118253 C1511.06905,847.253253 1513.53905,846.349253 1515.64705,844.914253 C1520.53605,841.587253 1524.90505,837.338253 1530.09605,834.640253 C1554.06505,822.185253 1577.56305,808.679253 1603.24805,799.854253 C1608.34805,798.102253 1613.72605,797.160253 1620.69105,795.414253 Z M1638.06305,828.170253 C1637.49705,823.882253 1637.12405,821.054253 1636.75605,818.263253 C1630.23705,815.382253 1624.06405,817.215253 1618.86405,819.434253 C1599.43305,827.724253 1580.07705,836.298253 1561.26105,845.881253 C1550.69005,851.265253 1541.36405,859.046253 1531.23205,865.353253 C1522.04905,871.069253 1515.95305,869.677253 1509.01005,861.154253 C1507.42405,859.206253 1505.70205,857.369253 1503.59005,854.967253 C1493.63605,864.812253 1492.87705,878.337253 1486.38605,888.643253 C1466.90905,884.245253 1457.73205,864.774253 1466.09905,845.657253 C1470.95905,834.552253 1477.76305,824.231253 1481.94105,812.911253 C1486.79305,799.766253 1493.55405,787.375253 1501.16105,776.276253 C1512.06205,760.370253 1517.86905,742.066253 1528.65905,726.214253 C1536.38305,714.866253 1540.65805,701.226253 1547.79705,689.409253 C1555.12805,677.274253 1563.94905,666.022253 1572.37205,654.571253 C1575.30805,650.579253 1578.70305,646.805253 1582.41905,643.535253 C1587.86005,638.748253 1590.23805,638.960253 1596.10005,643.339253 C1596.89705,643.935253 1597.59305,644.926253 1598.47005,645.115253 C1609.89405,647.579253 1610.45705,657.015253 1611.55605,665.821253 C1612.61805,674.330253 1612.97505,682.925253 1613.81105,691.466253 C1614.03005,693.704253 1614.70805,695.940253 1615.46105,698.077253 C1619.19605,708.673253 1622.79605,719.327253 1626.89505,729.783253 C1630.25205,738.347253 1634.71805,746.492253 1637.83005,755.133253 C1641.45505,765.196253 1647.04205,774.887253 1645.21505,786.352253 C1644.87305,788.493253 1645.51105,790.990253 1646.32305,793.079253 C1649.83005,802.092253 1649.82805,810.139253 1642.08505,817.392253 C1640.00005,819.345253 1639.78605,823.295253 1638.06305,828.170253 Z M772.691046,155.414253 C772.618046,155.627253 773.431046,154.522253 773.166046,153.825253 C769.394046,143.859253 772.501046,133.565253 771.488046,123.524253 C771.013046,118.810253 768.744046,114.198253 766.843046,109.729253 C765.185046,105.832253 762.370046,102.387253 760.992046,98.4202526 C756.058046,84.2122526 751.576046,69.8482526 746.759046,55.5992526 C746.081046,53.5942526 744.485046,51.9002526 742.637046,48.9992526 C735.814046,58.8932526 729.525046,67.7302526 723.582046,76.7932526 C721.653046,79.7352526 721.018046,83.5252526 719.097046,86.4752526 C716.277046,90.8072526 714.078046,95.2242526 713.708046,100.430253 C705.422046,104.358253 704.408046,113.379253 700.464046,120.164253 C693.947046,131.377253 688.772046,143.373253 683.092046,155.068253 C679.078046,163.333253 674.457046,171.409253 671.549046,180.055253 C670.366046,183.574253 669.595046,186.604253 666.866046,189.301253 C661.807046,194.298253 660.460046,200.834253 659.316046,209.118253 C663.069046,207.253253 665.539046,206.349253 667.647046,204.914253 C672.536046,201.587253 676.905046,197.338253 682.096046,194.640253 C706.065046,182.185253 729.563046,168.679253 755.248046,159.854253 C760.348046,158.102253 765.726046,157.160253 772.691046,155.414253 Z M790.063046,188.170253 C789.497046,183.882253 789.124046,181.054253 788.756046,178.263253 C782.237046,175.382253 776.064046,177.215253 770.864046,179.434253 C751.433046,187.724253 732.077046,196.298253 713.261046,205.881253 C702.690046,211.265253 693.364046,219.046253 683.232046,225.353253 C674.049046,231.069253 667.953046,229.677253 661.010046,221.154253 C659.424046,219.206253 657.702046,217.369253 655.590046,214.967253 C645.636046,224.812253 644.877046,238.337253 638.386046,248.643253 C618.909046,244.245253 609.732046,224.774253 618.099046,205.657253 C622.959046,194.552253 629.763046,184.231253 633.941046,172.911253 C638.793046,159.766253 645.554046,147.375253 653.161046,136.276253 C664.062046,120.370253 669.869046,102.066253 680.659046,86.2142526 C688.383046,74.8662526 692.658046,61.2262526 699.797046,49.4092526 C707.128046,37.2742526 715.949046,26.0222526 724.372046,14.5712526 C727.308046,10.5792526 730.703046,6.80525262 734.419046,3.53525262 C739.860046,-1.25174738 742.238046,-1.03974738 748.100046,3.33925262 C748.897046,3.93525262 749.593046,4.92625262 750.470046,5.11525262 C761.894046,7.57925262 762.457046,17.0152526 763.556046,25.8212526 C764.618046,34.3302526 764.975046,42.9252526 765.811046,51.4662526 C766.030046,53.7042526 766.708046,55.9402526 767.461046,58.0772526 C771.196046,68.6732526 774.796046,79.3272526 778.895046,89.7832526 C782.252046,98.3472526 786.718046,106.492253 789.830046,115.133253 C793.455046,125.196253 799.042046,134.887253 797.215046,146.352253 C796.873046,148.493253 797.511046,150.990253 798.323046,153.079253 C801.830046,162.092253 801.828046,170.139253 794.085046,177.392253 C792.000046,179.345253 791.786046,183.295253 790.063046,188.170253 Z M157.691046,1102.41425 C157.618046,1102.62725 158.431046,1101.52225 158.166046,1100.82525 C154.394046,1090.85925 157.501046,1080.56525 156.488046,1070.52425 C156.013046,1065.81025 153.744046,1061.19825 151.843046,1056.72925 C150.185046,1052.83225 147.370046,1049.38725 145.992046,1045.42025 C141.058046,1031.21225 136.576046,1016.84825 131.759046,1002.59925 C131.081046,1000.59425 129.485046,998.900253 127.637046,995.999253 C120.814046,1005.89325 114.525046,1014.73025 108.582046,1023.79325 C106.653046,1026.73525 106.018046,1030.52525 104.097046,1033.47525 C101.277046,1037.80725 99.0780462,1042.22425 98.7080462,1047.43025 C90.4220462,1051.35825 89.4080462,1060.37925 85.4640462,1067.16425 C78.9470462,1078.37725 73.7720462,1090.37325 68.0920462,1102.06825 C64.0780462,1110.33325 59.4570462,1118.40925 56.5490462,1127.05525 C55.3660462,1130.57425 54.5950462,1133.60425 51.8660462,1136.30125 C46.8070462,1141.29825 45.4600462,1147.83425 44.3160462,1156.11825 C48.0690462,1154.25325 50.5390462,1153.34925 52.6470462,1151.91425 C57.5360462,1148.58725 61.9050462,1144.33825 67.0960462,1141.64025 C91.0650462,1129.18525 114.563046,1115.67925 140.248046,1106.85425 C145.348046,1105.10225 150.726046,1104.16025 157.691046,1102.41425 Z M175.063046,1135.17025 C174.497046,1130.88225 174.124046,1128.05425 173.756046,1125.26325 C167.237046,1122.38225 161.064046,1124.21525 155.864046,1126.43425 C136.433046,1134.72425 117.077046,1143.29825 98.2610462,1152.88125 C87.6900462,1158.26525 78.3640462,1166.04625 68.2320462,1172.35325 C59.0490462,1178.06925 52.9530462,1176.67725 46.0100462,1168.15425 C44.4240462,1166.20625 42.7020462,1164.36925 40.5900462,1161.96725 C30.6360462,1171.81225 29.8770462,1185.33725 23.3860462,1195.64325 C3.90904622,1191.24525 -5.26795378,1171.77425 3.09904622,1152.65725 C7.95904622,1141.55225 14.7630462,1131.23125 18.9410462,1119.91125 C23.7930462,1106.76625 30.5540462,1094.37525 38.1610462,1083.27625 C49.0620462,1067.37025 54.8690462,1049.06625 65.6590462,1033.21425 C73.3830462,1021.86625 77.6580462,1008.22625 84.7970462,996.409253 C92.1280462,984.274253 100.949046,973.022253 109.372046,961.571253 C112.308046,957.579253 115.703046,953.805253 119.419046,950.535253 C124.860046,945.748253 127.238046,945.960253 133.100046,950.339253 C133.897046,950.935253 134.593046,951.926253 135.470046,952.115253 C146.894046,954.579253 147.457046,964.015253 148.556046,972.821253 C149.618046,981.330253 149.975046,989.925253 150.811046,998.466253 C151.030046,1000.70425 151.708046,1002.94025 152.461046,1005.07725 C156.196046,1015.67325 159.796046,1026.32725 163.895046,1036.78325 C167.252046,1045.34725 171.718046,1053.49225 174.830046,1062.13325 C178.455046,1072.19625 184.042046,1081.88725 182.215046,1093.35225 C181.873046,1095.49325 182.511046,1097.99025 183.323046,1100.07925 C186.830046,1109.09225 186.828046,1117.13925 179.085046,1124.39225 C177.000046,1126.34525 176.786046,1130.29525 175.063046,1135.17025 Z"/>
    </g>
  </g>
</svg>
