<svg xmlns="http://www.w3.org/2000/svg" width="1638" height="1024" viewBox="0 0 1638 1024">
  <g fill="none" fill-rule="evenodd" transform="translate(-172 -218)">
    <rect width="2163" height="1329" fill="#FAED8F"/>
    <path fill="#FF9565" d="M623.033817,492.579592 C616.820458,502.332374 613.129671,512.811284 609.572803,523.235629 C606.057206,533.537414 603.556533,544.184215 600.587563,554.764698 C590.793753,554.983796 585.531307,550.235002 582.553914,537.580227 C579.264043,540.887677 576.30518,543.948328 573.251142,546.910763 C569.616786,550.434792 564.913601,550.902369 561.587513,547.23815 C558.275743,543.589881 554.963973,539.443815 553.384734,534.914959 C552.423714,532.15903 554.104024,527.920624 555.725377,524.961547 C558.66571,519.594915 562.574643,514.764694 565.827454,509.55588 C567.563354,506.776446 568.774525,503.671304 570.240059,500.67697 C568.487314,498.59932 566.808688,497.058082 565.685955,495.186938 C563.315832,491.233947 564.620494,488.076759 567.583568,484.36637 C572.02481,478.803306 575.661693,472.602256 579.815724,466.412119 C577.336108,464.218624 575.606104,462.852832 574.068135,461.299841 C568.57491,455.752726 568.514267,448.676125 573.51477,442.65304 C579.541989,435.393438 585.367908,428.289974 588.215592,418.697528 C590.44253,411.195324 596.007348,404.718933 599.693924,397.58357 C601.21589,394.639604 601.703559,391.165102 602.75807,387.608333 C604.072839,386.745374 607.274273,385.82869 607.838588,384.070033 C610.159016,376.836454 615.947876,372.009591 619.690883,365.799307 C624.104331,358.478425 629.449319,351.716619 634.383283,344.707175 C639.636465,337.242746 644.871116,329.765725 650.133563,322.308851 C653.479865,317.567613 658.146833,313.284716 659.933269,308.023855 C662.683251,299.925638 671.420866,295.463938 672.007079,286.19804 C672.144368,284.028889 675.273367,282.141796 676.7608,279.946622 C684.220705,268.934659 691.567747,257.847145 699.003227,246.818392 C703.750209,239.778728 709.619084,238.946828 716.361382,244.028885 C719.069251,246.070439 722.092968,247.696462 725.999374,250.159421 C729.550346,247.521855 735.445331,243.143261 741.985487,238.287017 C748.539119,241.354383 753.441078,238.579147 756.788223,231.911361 C758.035611,229.427415 759.639276,227.120594 761.089649,224.738222 C764.569029,219.024056 769.477726,218.192996 774.814291,222.493521 C776.091159,223.521853 777.035333,224.980825 778.356841,225.932766 C784.095165,230.067079 786.140174,234.783134 782.23461,241.51304 C779.909128,245.518917 780.305833,249.711152 785.065449,252.200135 C792.844571,256.26981 791.23838,263.28597 790.283256,269.727104 C789.820012,272.849035 787.982199,275.944104 786.173865,278.659739 C779.583173,288.561943 772.785285,298.329835 765.965498,308.079259 C764.223702,310.568241 761.985815,312.70969 760.204433,315.175167 C757.297791,319.196994 754.525068,323.317876 751.7953,327.462262 C748.301602,332.765935 744.916555,338.140123 741.465812,343.471498 C736.510791,351.128162 731.570088,358.79322 726.566216,366.417145 C720.837157,375.144953 714.94133,383.765311 709.350402,392.579582 C707.763583,395.080317 707.27844,398.258492 705.787639,400.838975 C700.513401,409.968881 694.951109,418.932576 689.633916,428.038138 C684.880195,436.180007 680.37073,444.463743 675.627959,452.611488 C673.117179,456.925444 670.211379,461.011908 667.707337,465.329222 C662.574599,474.178751 657.536194,483.083684 652.570224,492.027231 C650.024911,496.610653 647.799658,501.371199 645.280455,505.97057 C642.746092,510.596803 639.735009,511.503414 635.945677,507.826603 C631.432001,503.444651 627.738687,498.224084 623.033817,492.579592 Z M250.968018,1124.07053 C249.948515,1124.12624 248.930987,1124.20986 247.916222,1124.33457 C237.817914,1125.57458 227.563499,1125.53302 217.377065,1126.05762 C206.530193,1126.61726 195.685045,1127.20347 184.838492,1127.7489 C177.941784,1128.09539 170.509973,1126.87013 164.265692,1129.05711 C154.653618,1132.42354 144.078468,1127.52096 134.951905,1133.76817 C132.815333,1135.2306 128.756702,1133.68714 125.608796,1133.90547 C109.818757,1135.00231 94.0402959,1136.26015 78.2523511,1137.39215 C68.1742248,1138.11386 63.103377,1133.23312 62.945624,1123.19788 C62.8827145,1119.16713 62.1988666,1115.14564 61.6554523,1109.68449 C56.5838937,1108.29665 48.1646149,1105.99265 38.8253614,1103.43535 C36.9142907,1095.05421 30.7259774,1092.50337 22.0201693,1094.26201 C18.7766508,1094.91671 15.4389778,1095.10817 12.1424342,1095.49847 C4.23514747,1096.434 -0.13305825,1092.45098 0.00308973288,1084.30411 C0.0350601095,1082.3553 0.714466285,1080.40192 0.642097625,1078.46737 C0.328548955,1070.06652 3.26076731,1064.69445 12.4330718,1063.41269 C17.8933004,1062.65046 21.5386496,1059.20469 20.3959985,1052.9262 C18.5300252,1042.66341 26.2902855,1039.02045 33.0348522,1035.19008 C36.304078,1033.33384 40.5528469,1032.78334 44.4238869,1032.48353 C58.5368128,1031.38737 72.6751097,1030.58357 86.8120776,1029.8138 C90.4217174,1029.61797 94.0677454,1030.14116 97.684257,1029.99961 C103.584264,1029.7694 109.479367,1029.34125 115.365135,1028.85567 C122.89755,1028.23459 130.416739,1027.46014 137.94376,1026.77856 C148.753142,1025.79897 159.559939,1024.79984 170.374297,1023.88997 C182.754975,1022.84899 195.156687,1022.04284 207.517561,1020.80921 C211.024951,1020.45977 214.362981,1018.58277 217.875047,1018.085 C230.300724,1016.32359 242.780931,1014.95358 255.215155,1013.25021 C266.332864,1011.72644 277.405206,1009.87011 288.520428,1008.33178 C294.405302,1007.51696 300.365371,1007.23856 306.248472,1006.41497 C318.307522,1004.7268 330.349627,1002.90974 342.375034,1000.9966 C348.538101,1000.01645 354.633488,998.606963 360.792442,997.590694 C366.987695,996.568908 370.039736,998.721132 369.35811,1004.96299 C368.544024,1012.39969 366.343061,1019.68392 364.483561,1028.22545 C374.41324,1027.2543 383.732063,1024.76286 392.826063,1021.82079 C393.260695,1021.50188 393.70261,1021.18512 394.154461,1020.87427 C394.447811,1020.90331 394.789974,1020.96963 395.163888,1021.05365 C397.822661,1020.16969 400.46492,1019.25483 403.100428,1018.3361 C415.340667,1014.06986 427.162906,1008.60103 439.2652,1003.61897 C440.558328,1005.19966 441.605557,1006.76197 442.400845,1008.32895 C444.882542,1007.66594 447.36299,1006.99934 449.829927,1006.29534 C459.308086,1003.58958 468.779287,1000.86067 478.26007,998.167544 C484.288428,996.455417 491.111477,996.02425 496.186422,992.81741 C503.998506,987.881057 514.353528,990.061357 521.147046,982.676254 C522.737458,980.947437 526.642455,981.485198 529.381707,980.650502 C543.121571,976.46213 556.818268,972.13373 570.549088,967.914685 C579.314247,965.22228 584.796976,968.505157 586.988953,977.347967 C587.868979,980.899852 589.296251,984.316998 590.893773,989.035964 C595.662745,989.229652 603.579707,989.551229 612.362073,989.909312 C615.76632,996.931903 621.760776,997.926507 629.100221,994.596765 C631.834781,993.356664 634.74735,992.507045 637.582881,991.489971 C644.384487,989.050926 649.062216,991.683095 650.608056,998.915771 C650.978364,1000.64578 650.777036,1002.51178 651.236702,1004.20791 C653.232184,1011.57354 651.737754,1016.92215 643.888218,1019.92522 C639.215267,1021.71224 636.696187,1025.50261 638.990822,1030.82227 C642.740034,1039.51815 636.622192,1044.32162 631.440926,1049.08381 C628.929378,1051.39177 625.284497,1052.74462 621.922394,1053.79876 C609.665574,1057.6447 597.326524,1061.23726 584.981687,1064.79945 C581.829492,1065.70836 578.498057,1065.9888 575.328684,1066.85111 C570.157993,1068.25725 565.032125,1069.83745 559.926257,1071.46653 C553.39186,1073.55107 546.90053,1075.76856 540.38328,1077.90551 C531.024163,1080.97501 521.671333,1084.06129 512.293558,1087.07016 C501.557399,1090.51423 490.754607,1093.75491 480.075362,1097.36533 C477.04501,1098.38925 474.476861,1100.72959 471.47271,1101.88564 C460.844099,1105.97602 450.087213,1109.73136 439.439174,1113.77215 C429.918683,1117.38577 420.506334,1121.28426 410.99102,1124.91025 C405.953282,1126.83033 400.739332,1128.29133 395.704955,1130.2188 C385.385597,1134.16968 375.107587,1138.23109 364.863996,1142.37408 C359.614045,1144.49706 354.511761,1146.98596 349.272835,1149.14006 C344.002937,1151.30643 340.863626,1150.02512 340.189813,1144.36602 C339.388768,1137.62322 339.845416,1130.73259 339.742933,1122.79963 C327.903873,1126.77605 317.684312,1133.07378 307.614062,1139.41652 C297.661749,1145.68433 288.325063,1152.93048 278.641148,1159.80322 C270.286948,1153.34283 269.108104,1145.78392 275.221078,1133.1347 C270.215219,1133.68081 265.654542,1134.2442 261.080932,1134.66052 C255.639155,1135.15483 251.380833,1132.35679 251.086557,1127.02254 C251.032879,1126.04995 250.990555,1125.06335 250.968018,1124.07053 Z M1580.39546,1184.1783 C1576.14426,1191.66788 1571.98617,1199.21164 1567.66495,1206.66 C1564.68395,1211.799 1561.23395,1216.667 1558.26095,1221.81 C1552.16695,1232.352 1546.18495,1242.96 1540.28895,1253.614 C1537.26695,1259.074 1534.62495,1264.745 1531.63395,1270.224 C1528.62495,1275.735 1525.04995,1276.815 1520.55095,1272.435 C1515.19195,1267.215 1510.80695,1260.996 1505.22095,1254.272 C1497.84395,1265.89 1493.46195,1278.373 1489.23895,1290.791 C1485.06495,1303.063 1482.09595,1315.746 1478.57095,1328.35 C1466.94295,1328.611 1460.69495,1322.954 1457.15995,1307.879 C1453.25395,1311.819 1449.74095,1315.465 1446.11495,1318.994 C1441.79995,1323.192 1436.21595,1323.749 1432.26695,1319.384 C1428.33495,1315.038 1424.40295,1310.099 1422.52795,1304.704 C1421.38695,1301.421 1423.38195,1296.372 1425.30695,1292.847 C1428.79795,1286.454 1433.43895,1280.7 1437.30095,1274.495 C1439.36195,1271.184 1440.79995,1267.485 1442.53995,1263.918 C1440.45895,1261.443 1438.46595,1259.607 1437.13295,1257.378 C1434.31895,1252.669 1435.86795,1248.908 1439.38595,1244.488 C1444.65895,1237.861 1448.97695,1230.474 1453.90895,1223.1 C1450.96495,1220.487 1448.91095,1218.86 1447.08495,1217.01 C1440.56295,1210.402 1440.49095,1201.972 1446.42795,1194.797 C1453.58395,1186.149 1460.50095,1177.687 1463.88195,1166.26 C1466.52595,1157.323 1473.13295,1149.608 1477.50995,1141.108 C1479.31695,1137.601 1479.89595,1133.462 1481.14795,1129.225 C1482.70895,1128.197 1486.50995,1127.105 1487.17995,1125.01 C1489.93495,1116.393 1496.80795,1110.643 1501.25195,1103.245 C1506.49195,1094.524 1512.83795,1086.469 1518.69595,1078.119 C1524.93295,1069.227 1531.14795,1060.32 1537.39595,1051.437 C1541.36895,1045.789 1546.90995,1040.687 1549.03095,1034.42 C1552.29595,1024.773 1562.66995,1019.458 1563.36595,1008.42 C1563.52895,1005.836 1567.24395,1003.588 1569.00995,1000.973 C1577.86695,987.855002 1586.58995,974.647002 1595.41795,961.509002 C1601.05395,953.123002 1608.02195,952.132002 1616.02695,958.186002 C1619.24195,960.618002 1622.83195,962.555002 1627.46995,965.489002 C1631.68595,962.347002 1638.68495,957.131002 1646.44995,951.346002 C1654.23095,955.000002 1660.05095,951.694002 1664.02495,943.751002 C1665.50595,940.792002 1667.40995,938.044002 1669.13195,935.206002 C1672.7076,929.314099 1677.55465,927.780311 1682.90205,930.796591 C1685.15661,927.578188 1687.41288,924.36108 1689.67348,921.147114 C1693.64648,915.499114 1699.18748,910.397114 1701.30848,904.130114 C1704.57348,894.483114 1714.94748,889.168114 1715.64348,878.130114 C1715.80648,875.546114 1719.52148,873.298114 1721.28748,870.683114 C1730.14448,857.565114 1738.86748,844.357114 1747.69548,831.219114 C1753.33148,822.833114 1760.29948,821.842114 1768.30448,827.896114 C1771.51948,830.328114 1775.10948,832.265114 1779.74748,835.199114 C1783.96348,832.057114 1790.96248,826.841114 1798.72748,821.056114 C1806.50848,824.710114 1812.32848,821.404114 1816.30248,813.461114 C1817.78348,810.502114 1819.68748,807.754114 1821.40948,804.916114 C1825.54048,798.109114 1831.36848,797.119114 1837.70448,802.242114 C1839.22048,803.467114 1840.34148,805.205114 1841.91048,806.339114 C1848.72348,811.264114 1851.15148,816.882114 1846.51448,824.899114 C1843.75348,829.671114 1844.22448,834.665114 1849.87548,837.630114 C1859.11148,842.478114 1857.20448,850.836114 1856.07048,858.509114 C1855.52048,862.228114 1853.33848,865.915114 1851.19148,869.150114 C1843.36648,880.946114 1835.29548,892.582114 1827.19848,904.196114 C1825.13048,907.161114 1822.47348,909.712114 1820.35848,912.649114 C1816.90748,917.440114 1813.61548,922.349114 1810.37448,927.286114 C1806.22648,933.604114 1802.20748,940.006114 1798.11048,946.357114 C1792.22748,955.478114 1786.36148,964.609114 1780.42048,973.691114 C1773.61848,984.088114 1766.61848,994.357114 1759.98048,1004.85711 C1758.09648,1007.83611 1757.52048,1011.62211 1755.75048,1014.69611 C1749.48848,1025.57211 1742.88448,1036.25011 1736.57148,1047.09711 C1730.92748,1056.79611 1725.57348,1066.66411 1719.94248,1076.37011 C1716.96148,1081.50911 1713.51148,1086.37711 1710.53848,1091.52011 C1704.44448,1102.06211 1698.46248,1112.67011 1692.56648,1123.32411 C1689.54448,1128.78411 1686.90248,1134.45511 1683.91148,1139.93411 C1680.90248,1145.44511 1677.32748,1146.52511 1672.82848,1142.14511 C1667.46948,1136.92511 1663.08448,1130.70611 1657.49848,1123.98211 C1650.12148,1135.60011 1645.73948,1148.08311 1641.51648,1160.50111 C1637.34248,1172.77311 1634.37348,1185.45611 1630.84848,1198.06011 C1619.22048,1198.32111 1612.97248,1192.66411 1609.43748,1177.58911 C1605.53148,1181.52911 1602.01848,1185.17511 1598.39248,1188.70411 C1594.07748,1192.90211 1588.49348,1193.45911 1584.54448,1189.09411 C1583.12952,1187.53017 1581.71456,1185.88944 1580.39546,1184.1783 Z M1151.93906,196.318129 C1140.07069,189.351085 1127.44236,185.407405 1114.88455,181.620359 C1102.47435,177.877189 1089.69546,175.352627 1076.97612,172.269648 C1076.30947,160.65784 1081.74497,154.21622 1096.68742,150.157263 C1092.6135,146.391147 1088.84712,143.007531 1085.19372,139.5069 C1080.84769,135.341036 1080.09615,129.779877 1084.32067,125.680946 C1088.5268,121.599668 1093.32557,117.497695 1098.65184,115.435554 C1101.89302,114.180674 1107.00857,115.998252 1110.59861,117.799058 C1117.10954,121.064819 1123.02201,125.50218 1129.35801,129.145276 C1132.73892,131.089469 1136.48585,132.397499 1140.11141,134.011953 C1142.51227,131.845844 1144.2776,129.789983 1146.45872,128.380004 C1151.06664,125.403376 1154.87941,126.820176 1159.4195,130.181777 C1166.22648,135.220286 1173.75968,139.277853 1181.30131,143.949499 C1183.80998,140.9161 1185.3643,138.80657 1187.14945,136.917119 C1193.52581,130.168476 1201.94816,129.802317 1209.32599,135.485296 C1218.21846,142.335126 1226.91671,148.952593 1238.45474,151.932737 C1247.47857,154.263229 1255.41945,160.596955 1264.06703,164.674643 C1267.63496,166.35815 1271.79164,166.792348 1276.06975,167.895716 C1277.15161,169.419888 1278.37559,173.180463 1280.4927,173.77694 C1289.2006,176.229533 1295.18696,182.897674 1302.73555,187.08078 C1311.63411,192.01323 1319.90567,198.074248 1328.45503,203.637269 C1337.55928,209.560143 1346.67775,215.460507 1355.77339,221.394689 C1361.55661,225.168157 1366.84888,230.527724 1373.18608,232.428717 C1382.94115,235.355052 1388.61496,245.537242 1399.67053,245.847597 C1402.25864,245.920318 1404.63493,249.554601 1407.30997,251.228263 C1420.72908,259.622056 1434.23346,267.878789 1447.67155,276.242902 C1456.24914,281.582801 1457.48271,288.511971 1451.71177,296.723376 C1449.39345,300.021293 1447.58292,303.676707 1444.81257,308.414277 C1448.0998,312.518054 1453.55688,319.330755 1459.60935,326.889131 C1456.22913,334.792914 1459.73623,340.493991 1467.81308,344.188363 C1470.82197,345.565193 1473.63474,347.372129 1476.53111,348.994036 C1483.47813,352.884958 1484.67092,358.674858 1479.77217,365.185788 C1478.60082,366.743616 1476.903,367.924589 1475.82445,369.532209 C1471.14022,376.512939 1465.61038,379.135525 1457.43643,374.781139 C1452.57098,372.188361 1447.59646,372.833363 1444.83049,378.584397 C1440.30777,387.983964 1431.88831,386.369815 1424.18041,385.50429 C1420.44448,385.084416 1416.68357,383.03242 1413.37562,380.999628 C1401.31371,373.591069 1389.40313,365.931076 1377.51362,358.244331 C1374.47826,356.281068 1371.83608,353.714715 1368.82706,351.703503 C1363.91854,348.421809 1358.89764,345.303136 1353.85054,342.236409 C1347.39162,338.311431 1340.85326,334.518306 1334.36315,330.645449 C1325.04239,325.084351 1315.71223,319.540591 1306.42843,313.920168 C1295.80037,307.485161 1285.29333,300.847808 1274.56807,294.580297 C1271.52513,292.80141 1267.72134,292.357891 1264.58744,290.69625 C1253.49952,284.817631 1242.59755,278.590311 1231.53684,272.659712 C1221.64677,267.35764 1211.59793,262.35129 1201.70132,257.062455 C1196.46142,254.262619 1191.47598,250.984612 1186.23236,248.192911 C1175.4841,242.470533 1164.6738,236.862391 1153.82052,231.341802 C1148.25838,228.512195 1142.49863,226.069719 1136.91858,223.271755 C1131.30593,220.45692 1130.10182,216.921789 1134.32214,212.27267 C1139.35193,206.734759 1145.41411,202.13539 1151.93906,196.318129 Z M1098.20592,952.323179 C1102.8193,965.28909 1109.95821,976.427455 1117.14379,987.400509 C1124.24448,998.245063 1132.41092,1008.3931 1140.1728,1018.93064 C1133.21956,1028.25431 1124.91513,1029.69501 1110.85951,1023.19953 C1111.5595,1028.70321 1112.26977,1033.71619 1112.81827,1038.74619 C1113.46976,1044.731 1110.47083,1049.47417 1104.59991,1049.89867 C1098.75444,1050.32146 1092.44167,1050.37917 1087.03599,1048.53519 C1083.74648,1047.4131 1080.99606,1042.73254 1079.40347,1039.04541 C1076.51499,1032.35854 1074.83806,1025.15887 1072.32614,1018.29539 C1070.98591,1014.63285 1068.95638,1011.22236 1067.2168,1007.65515 C1063.98528,1007.77124 1061.31148,1008.21139 1058.73433,1007.8895 C1053.29111,1007.20781 1051.28106,1003.67168 1049.96395,998.178236 C1047.98819,989.943066 1044.82558,981.992544 1042.05123,973.566188 C1038.17965,974.277368 1035.63299,974.894261 1033.05097,975.194195 C1023.82845,976.26531 1017.14119,971.13202 1015.1424,962.036229 C1012.73335,951.072984 1010.32374,940.412586 1003.40069,930.713158 C997.986047,923.127491 995.974219,913.171276 991.970878,904.48903 C990.319825,900.90597 987.414716,897.901489 984.846723,894.306342 C984.997695,892.443357 986.477317,888.775826 985.238927,886.958048 C980.144786,879.481923 979.845166,870.525872 976.751462,862.469288 C973.105286,852.970928 970.664847,843.011059 967.691502,833.254119 C964.524391,822.864834 961.331916,812.48365 958.178669,802.091238 C956.174007,795.483215 955.564957,787.975743 951.932311,782.446022 C946.340506,773.93388 948.539101,762.486816 940.269539,755.142689 C938.333672,753.423374 938.849406,749.111907 937.876016,746.110325 C932.991805,731.054667 927.954174,716.049192 923.036348,701.004073 C919.897958,691.399907 923.406968,685.298928 933.105956,682.718116 C937.001749,681.68195 940.738351,680.045528 945.905812,678.197085 C946.025511,672.940423 946.224262,664.213846 946.446231,654.533341 C954.116084,650.651456 955.094071,644.029857 951.28154,636.008103 C949.861611,633.019317 948.868377,629.827106 947.692171,626.722905 C944.87148,619.276824 947.679424,614.074793 955.617234,612.23599 C957.51589,611.795551 959.575609,611.982211 961.435186,611.443982 C969.510641,609.107398 975.432511,610.652894 978.895171,619.242658 C980.955717,624.356292 985.18102,627.059752 990.996575,624.43214 C1000.5031,620.138799 1005.91523,626.787235 1011.26347,632.404809 C1013.85547,635.12786 1015.41749,639.117243 1016.64488,642.800767 C1021.12271,656.229294 1025.323,669.753166 1029.48994,683.283982 C1030.55321,686.739024 1030.92761,690.403321 1031.93987,693.878162 C1033.59059,699.547221 1035.43217,705.163634 1037.32722,710.757098 C1039.75211,717.915516 1042.32261,725.023996 1044.8049,732.162542 C1048.37041,742.413857 1051.95427,752.657933 1055.45334,762.930943 C1059.45856,774.692024 1063.24101,786.530327 1067.42836,798.225588 C1068.61594,801.544256 1071.24473,804.329044 1072.57735,807.616367 C1077.29248,819.246824 1081.64103,831.024881 1086.30192,842.677673 C1090.47004,853.096506 1094.94988,863.390863 1099.13152,873.803762 C1101.34582,879.316706 1103.05782,885.032383 1105.2802,890.541486 C1109.83557,901.833927 1114.5119,913.078744 1119.27743,924.284113 C1121.71944,930.026993 1124.56167,935.600334 1127.03774,941.330483 C1129.52794,947.094518 1128.178,950.576571 1121.95665,951.425234 C1114.54391,952.434431 1106.94359,952.061059 1098.20592,952.323179 Z M293.708586,293.191524 C301.717135,304.383539 311.649645,313.122673 321.58145,321.690035 C331.396243,330.157272 342.043508,337.661217 352.409245,345.651081 C348.295315,356.530147 340.709694,360.204043 325.408163,357.834443 C327.598054,362.931973 329.662573,367.554986 331.576282,372.238941 C333.852172,377.812338 332.27681,383.198388 326.750331,385.22468 C321.247837,387.242326 315.195523,389.037831 309.490979,388.755299 C306.019608,388.583382 302.085597,384.842261 299.538391,381.736944 C294.918657,376.105285 291.32219,369.646739 287.015745,363.741521 C284.717903,360.590272 281.826934,357.871312 279.171485,354.921791 C276.097149,355.924109 273.648248,357.084209 271.082205,357.485147 C265.661953,358.33022 262.75508,355.485116 259.974794,350.567522 C255.805647,343.195964 250.574091,336.425165 245.584597,329.089946 C242.059024,330.840728 239.781054,332.135678 237.381732,333.135694 C228.811717,336.707387 220.968585,333.61621 216.54008,325.423718 C211.202479,315.549192 205.947803,305.96594 196.619418,298.550502 C189.323636,292.751169 184.645438,283.735175 178.404029,276.492736 C175.829309,273.503569 172.208592,271.416233 168.749122,268.668191 C168.380737,266.835761 168.792132,262.902465 167.100669,261.496451 C160.143166,255.714074 157.38653,247.187552 152.191976,240.295807 C146.068944,232.17042 140.977732,223.269055 135.430192,214.709647 C129.522094,205.595799 123.591848,196.496731 117.696216,187.376055 C113.947793,181.576576 111.292996,174.527807 106.276876,170.213591 C98.5554235,163.572506 97.5136101,151.962866 87.5400809,147.182639 C85.2052987,146.063524 84.5126529,141.776921 82.7496224,139.159918 C73.9047152,126.033761 64.9261641,112.998133 56.0518496,99.8913721 C50.3877686,91.524313 52.0791881,84.6924607 60.691085,79.5382223 C64.1503563,77.4683694 67.2911491,74.8653924 71.7489319,71.6642094 C70.4150616,66.5781884 68.2007422,58.1348806 65.7458038,48.7681988 C72.0485475,42.9225937 71.1634881,36.2879343 65.2875533,29.6278055 C63.0988086,27.1461853 61.2641584,24.3514083 59.2778831,21.6916642 C54.5140425,15.3115206 55.7793377,9.53703257 62.902808,5.58150525 C64.6065118,4.6347876 66.6378913,4.24648076 68.2770755,3.21653317 C75.3956507,-1.25543296 81.5141145,-1.40209552 87.2102966,5.90047708 C90.6005292,10.2480544 95.4073251,11.6821361 100.273327,7.55332868 C108.228181,0.805951366 115.263209,5.70505288 121.952687,9.63083577 C125.19485,11.5339488 127.795985,14.9382385 129.991144,18.1407546 C137.996909,29.8148276 145.76217,41.6570508 153.497294,53.5151394 C155.471707,56.5432642 156.841624,59.9624131 158.77247,63.0236265 C161.92184,68.0180782 165.240181,72.9093112 168.603588,77.7637469 C172.907667,83.9764699 177.337954,90.1010533 181.691736,96.278852 C187.944769,105.150261 194.213443,114.009655 200.408589,122.920231 C207.500445,133.12172 214.39945,143.458842 221.648242,153.546858 C223.704564,156.409626 226.999108,158.361944 229.186218,161.1546 C236.924483,171.034847 244.35105,181.158018 252.043322,191.074687 C258.921799,199.941022 266.065605,208.601783 272.955442,217.458687 C276.603538,222.147725 279.824676,227.170094 283.479477,231.853213 C290.970997,241.452575 298.565666,250.972815 306.235203,260.43055 C310.165565,265.277851 314.433914,269.851865 318.393506,274.677542 C322.376025,279.531895 322.038165,283.251152 316.291745,285.781775 C309.444329,288.795107 302.035522,290.53113 293.708586,293.191524 Z M1831.93906,528.318129 C1820.07069,521.351085 1807.44236,517.407405 1794.88455,513.620359 C1782.47435,509.877189 1769.69546,507.352627 1756.97612,504.269648 C1756.30947,492.65784 1761.74497,486.21622 1776.68742,482.157263 C1772.6135,478.391147 1768.84712,475.007531 1765.19372,471.5069 C1760.84769,467.341036 1760.09615,461.779877 1764.32067,457.680946 C1768.5268,453.599668 1773.32557,449.497695 1778.65184,447.435554 C1781.89302,446.180674 1787.00857,447.998252 1790.59861,449.799058 C1797.10954,453.064819 1803.02201,457.50218 1809.35801,461.145276 C1812.73892,463.089469 1816.48585,464.397499 1820.11141,466.011953 C1822.51227,463.845844 1824.2776,461.789983 1826.45872,460.380004 C1831.06664,457.403376 1834.87941,458.820176 1839.4195,462.181777 C1846.22648,467.220286 1853.75968,471.277853 1861.30131,475.949499 C1863.80998,472.9161 1865.3643,470.80657 1867.14945,468.917119 C1873.52581,462.168476 1881.94816,461.802317 1889.32599,467.485296 C1898.21846,474.335126 1906.91671,480.952593 1918.45474,483.932737 C1927.47857,486.263229 1935.41945,492.596955 1944.06703,496.674643 C1947.63496,498.35815 1951.79164,498.792348 1956.06975,499.895716 C1957.15161,501.419888 1958.37559,505.180463 1960.4927,505.77694 C1969.2006,508.229533 1975.18696,514.897674 1982.73555,519.08078 C1991.63411,524.01323 1999.90567,530.074248 2008.45503,535.637269 C2017.55928,541.560143 2026.67775,547.460507 2035.77339,553.394689 C2041.55661,557.168157 2046.84888,562.527724 2053.18608,564.428717 C2062.94115,567.355052 2068.61496,577.537242 2079.67053,577.847597 C2082.25864,577.920318 2084.63493,581.554601 2087.30997,583.228263 C2100.72908,591.622056 2114.23346,599.878789 2127.67155,608.242902 C2136.24914,613.582801 2137.48271,620.511971 2131.71177,628.723376 C2129.39345,632.021293 2127.58292,635.676707 2124.81257,640.414277 C2128.0998,644.518054 2133.55688,651.330755 2139.60935,658.889131 C2136.22913,666.792914 2139.73623,672.493991 2147.81308,676.188363 C2150.82197,677.565193 2153.63474,679.372129 2156.53111,680.994036 C2163.47813,684.884958 2164.67092,690.674858 2159.77217,697.185788 C2158.60082,698.743616 2156.903,699.924589 2155.82445,701.532209 C2151.14022,708.512939 2145.61038,711.135525 2137.43643,706.781139 C2132.57098,704.188361 2127.59646,704.833363 2124.83049,710.584397 C2120.30777,719.983964 2111.88831,718.369815 2104.18041,717.50429 C2100.44448,717.084416 2096.68357,715.03242 2093.37562,712.999628 C2081.31371,705.591069 2069.40313,697.931076 2057.51362,690.244331 C2054.47826,688.281068 2051.83608,685.714715 2048.82706,683.703503 C2043.91854,680.421809 2038.89764,677.303136 2033.85054,674.236409 C2027.39162,670.311431 2020.85326,666.518306 2014.36315,662.645449 C2005.04239,657.084351 1995.71223,651.540591 1986.42843,645.920168 C1975.80037,639.485161 1965.29333,632.847808 1954.56807,626.580297 C1951.52513,624.80141 1947.72134,624.357891 1944.58744,622.69625 C1933.49952,616.817631 1922.59755,610.590311 1911.53684,604.659712 C1901.64677,599.35764 1891.59793,594.35129 1881.70132,589.062455 C1876.46142,586.262619 1871.47598,582.984612 1866.23236,580.192911 C1855.4841,574.470533 1844.6738,568.862391 1833.82052,563.341802 C1828.25838,560.512195 1822.49863,558.069719 1816.91858,555.271755 C1811.30593,552.45692 1810.10182,548.921789 1814.32214,544.27267 C1819.35193,538.734759 1825.41411,534.13539 1831.93906,528.318129 Z"/>
  </g>
</svg>
