<svg xmlns="http://www.w3.org/2000/svg" xmlns:xlink="http://www.w3.org/1999/xlink" width="1638" height="1024" viewBox="0 0 1638 1024">
  <defs>
    <rect id="pattern-2.2-a" width="2120" height="1963"/>
  </defs>
  <g fill="none" fill-rule="evenodd">
    <rect width="1638" height="1024" fill="#DE4500"/>
    <g transform="translate(-288 -471)">
      <mask id="pattern-2.2-b" fill="#fff">
        <use xlink:href="#pattern-2.2-a"/>
      </mask>
      <rect width="2119" height="1962" x=".5" y=".5" stroke="#979797"/>
      <g fill="#303030" mask="url(#pattern-2.2-b)">
        <g transform="rotate(165 960.752 891.04)">
          <path d="M727.729424,295.326975 C724.651991,296.721348 723.811943,299.43873 722.015173,301.592049 C716.575448,308.108274 711.163175,314.647831 705.69737,321.144843 C701.832049,325.738316 697.876135,330.260423 693.999833,334.845661 C690.516103,338.96565 686.702942,342.883894 683.725711,347.336008 C680.141779,352.695288 677.223572,358.488251 674.135159,364.157697 C671.123613,369.687157 668.407182,375.371699 665.288571,380.842145 C662.723129,385.342293 659.745898,389.62011 656.985543,394.015955 C656.503751,394.781762 656.227852,395.66697 655.792729,396.464343 C653.961643,399.806173 652.182717,403.176824 650.233585,406.451406 C648.86233,408.751573 646.79927,410.73883 645.816468,413.165259 C641.702702,423.322502 637.859343,433.582675 633.965197,443.823635 C633.134757,446.005774 633.085342,448.761583 631.64271,450.360447 C629.662008,452.553566 629.933788,455.044499 629.206295,457.396818 C628.920789,458.321825 628.882355,459.09724 629.078641,459.732668 C626.817922,460.562979 624.537987,461.356235 622.234717,462.097339 C612.733385,465.153707 604.396042,471.079794 594.238594,472.781588 C588.080984,473.813644 582.104561,475.912067 576.069116,477.604254 C574.382156,478.077737 572.691078,478.538869 571,479 C571.958094,469.944807 572.52499,460.836089 572.850303,451.742469 C573.138555,443.668552 572.229875,435.558953 571.947113,427.461705 C571.683569,419.902444 571.550424,412.339066 571.341784,404.77706 C570.972547,391.39876 570.876463,378.043791 572.526362,364.708036 C573.369156,357.898113 574.21195,350.985259 573.898991,344.169847 C573.568187,336.971531 572.467339,329.819877 573.41308,322.588624 C573.904481,318.826834 574.577069,315.051321 574.629229,311.275808 C574.755511,302.04769 574.413726,292.815456 574.540008,283.588711 C574.778845,266.056111 575.74243,248.516649 575.363585,231.000518 C575.148082,221.053255 576.778764,211.357144 577.249576,201.529281 C577.740977,191.267736 578.523375,181.018541 579.22616,170.76523 C580.107388,157.911192 581.106661,145.062645 581.909648,132.20449 C604.644488,136.931087 627.666207,140.517207 650.637138,144.055292 C663.495918,146.037059 676.789822,145.202631 689.726842,146.848156 C697.434148,147.828061 703.605485,146.236059 709.461116,141.87178 C713.890587,138.56975 718.37359,135.330851 722.779727,132 C721.939678,133.152828 721.216303,134.390747 720.766081,135.827665 C720.521753,136.611314 719.63229,137.246742 718.941858,137.84237 C714.318847,141.83198 711.859097,146.929129 710.830999,153.017161 C707.090587,153.902369 704.209441,155.571225 702.27678,159.448297 C699.893898,164.22979 695.760915,168.163131 693.254496,172.90208 C689.724096,179.574761 686.131929,186.15549 681.585784,192.228426 C680.288651,193.963158 678.677185,195.796705 678.27775,197.789451 C677.197492,203.167945 671.761885,206.059623 670.684372,211.322834 C665.33524,215.772203 663.874764,222.354305 661.147352,228.203537 C658.021877,234.905038 655.538793,241.893375 652.361159,248.570173 C648.018164,257.695359 643.26338,266.63527 638.728217,275.673994 C637.229307,278.660369 637.952682,280.080818 641.395233,280.165908 C651.630921,280.418432 661.878962,280.238646 672.105042,280.658605 C677.537904,280.882309 683.020181,280.428039 688.4201,281.538323 C695.026559,282.897014 701.407907,285.73654 708.438508,284.508229 C709.004031,284.409415 709.84957,284.937794 710.327244,285.405788 C712.738952,287.780066 715.729909,288.239825 718.972056,288.334521 C721.173752,288.397652 723.404272,288.753108 725.545572,289.273253 C728.757522,290.051412 730.250942,294.185126 727.729424,295.326975"/>
          <path d="M1162.15737,562.201004 C1159.6803,565.133138 1157.05707,567.975952 1154.61692,570.935804 C1153.18914,571.172962 1151.58905,571.805896 1149.68586,572.854627 C1144.17476,575.888399 1139.06061,579.604385 1133.70336,582.913815 C1128.97693,585.835168 1124.46435,589.392536 1119.32866,591.323678 C1092.15472,601.543024 1066.22855,614.377267 1041.06243,628.454278 C1032.16959,633.428433 1023.00597,637.674174 1013.64694,641.011323 C1013.57925,639.697715 1013.51617,638.384107 1013.47001,637.070499 C1013.17461,628.588257 1013.02383,620.101395 1012.78997,611.617612 C1012.37764,596.60583 1012.26994,581.618687 1014.11928,566.654644 C1015.06395,559.013233 1016.00708,551.256324 1015.65783,543.608754 C1015.28704,535.531528 1014.05158,527.506662 1015.11165,519.392476 C1015.66399,515.171375 1016.41788,510.936413 1016.47481,506.699912 C1016.61789,496.345047 1016.23479,485.985561 1016.37634,475.630696 C1016.64405,455.958916 1017.72411,436.274816 1017.29947,416.623056 C1017.05792,405.461238 1018.88572,394.581238 1019.41344,383.551858 C1019.96424,372.037384 1020.83968,360.536769 1021.62896,349.033074 C1022.75057,332.639924 1024.06295,316.256014 1025.00455,299.853624 C1025.04455,299.17757 1025.04916,298.503056 1025.07532,297.827003 C1031.02798,292.116735 1032.46192,284.472245 1028.86478,278.109023 C1025.68766,272.489614 1022.18438,267.124303 1018.05336,262.344187 C1020.28734,249.687043 1023.67677,237.046839 1031.67725,225.195107 C1037.50837,229.463948 1042.20712,232.677899 1046.65507,236.196766 C1066.12393,251.595086 1080.36325,251.833783 1098.14893,235.161896 C1117.77164,216.765224 1134.90805,195.525738 1155.94316,178.94317 C1179.58919,160.301641 1203.90449,142.440884 1228.53981,125.011323 C1221.94403,135.090531 1212.45731,143.255537 1208.54784,155.219687 C1207.5524,158.261159 1201.90745,159.848885 1199.58885,161.341131 C1197.73027,167.496455 1196.86868,173.5101 1194.18698,178.604373 C1187.68506,190.95198 1177.8737,202.159998 1173.94577,215.143619 C1168.92393,231.743127 1158.65255,244.036835 1148.02422,256.60004 C1139.20677,267.022664 1139.31447,279.270172 1148.99966,288.868905 C1151.71213,291.55772 1154.76309,293.920058 1159.13565,297.716124 C1151.8106,308.429806 1145.39791,319.161967 1137.56667,328.786879 C1132.34174,335.208621 1130.04007,340.670951 1134.22186,347.513108 C1136.20044,350.751699 1139.16061,353.418954 1142.25157,357.013281 C1139.66526,362.195334 1137.53128,367.568345 1134.46956,372.377721 C1128.73383,381.394338 1121.84265,389.753382 1116.65773,399.039497 C1113.79909,404.15995 1110.83584,411.494903 1112.53133,416.264239 C1115.31457,424.101228 1121.15492,431.276022 1126.99527,437.591504 C1127.0922,437.697763 1127.19836,437.787082 1127.29836,437.890261 C1126.67217,439.456427 1126.04137,441.019513 1125.33363,442.537939 C1121.83034,450.05769 1119.0471,457.899298 1115.48535,465.39133 C1110.61737,475.630696 1105.28935,485.662164 1100.20443,495.804512 C1098.52433,499.157061 1099.33515,500.749406 1103.19384,500.844886 C1114.6653,501.128243 1126.15522,500.926505 1137.6159,501.397741 C1143.7055,501.648758 1149.85048,501.139023 1155.90469,502.384871 C1163.30975,503.909458 1170.46095,507.095688 1178.34296,505.717401 C1178.97684,505.606522 1179.92305,506.199417 1180.45847,506.726092 C1183.16171,509.388727 1186.51422,509.904623 1190.14828,510.010882 C1192.61612,510.081721 1195.11473,510.480577 1197.51641,511.064232 C1201.11663,511.937404 1202.79058,516.575842 1199.96425,517.85711 C1196.51482,519.421736 1195.57322,522.470908 1193.55925,524.888686 C1187.46197,532.200539 1181.39545,539.537032 1175.26893,546.827325 C1170.93636,551.981658 1166.50379,557.055911 1162.15737,562.201004" transform="rotate(-29 1120.54 383.011)"/>
          <path d="M1703.63065,991.640418 C1703.77746,989.099927 1703.85775,986.557155 1703.89445,984.016664 C1728.07716,990.044059 1752.88611,994.335984 1777,1000.34057 L1777,603 C1768.1798,613.513164 1759.39631,624.055974 1750.53024,634.53493 C1744.06821,642.170087 1737.45937,649.684376 1730.98129,657.303569 C1725.15697,664.149668 1718.78441,670.660532 1713.81115,678.056235 C1707.82167,686.961637 1702.94476,696.589962 1697.7834,706.01076 C1692.75049,715.196665 1688.20849,724.644829 1682.99896,733.732673 C1681.91622,735.620937 1680.7876,737.486397 1679.63604,739.335892 C1672.20139,743.826222 1664.76444,748.316552 1657.34354,752.825125 C1650.82187,756.788656 1643.91712,760.58343 1636.66139,762.90043 C1608.98042,771.741978 1580.76497,779.08751 1553.35698,788.633736 C1524.99242,798.512917 1494.14353,807.126414 1494.45092,845.678482 C1494.47386,848.636307 1491.70278,851.591851 1490.32183,854.586164 C1480.15738,876.613637 1481.21948,884.419832 1501.11481,898.486034 C1514.7064,908.096115 1529.72711,916.308241 1545.13321,922.88524 C1589.32366,941.749641 1633.14707,962.041644 1678.79417,976.901464 C1680.18429,977.353006 1681.59048,977.768059 1682.98749,978.199076 C1681.99651,980.028047 1681.18904,982.009813 1680.61556,984.189983 C1680.24853,985.587937 1679.56034,987.24587 1678.45696,988.064574 C1670.40753,994.034957 1668.77883,1004.37024 1661.71808,1010.99285 C1659.21081,1013.3509 1657.98814,1016.05559 1658.28176,1019.84808 C1658.43316,1021.79564 1655.97177,1025.30535 1654.10909,1025.73636 C1650.47549,1026.58015 1649.17024,1029.04539 1647.44749,1031.40572 C1643.03395,1037.4582 1636.37006,1041.89608 1633.99353,1049.44229 C1633.58521,1050.73991 1632.09645,1051.79806 1630.9426,1052.78781 C1623.99884,1058.74907 1619.99362,1066.20634 1618.00248,1075 L1697.8568,1075 C1698.10455,1071.49029 1698.35459,1067.98058 1698.59545,1064.47087 C1700.27003,1040.19253 1702.22676,1015.93244 1703.63065,991.640418"/>
          <path d="M1327.57292,1483.88001 C1327.71974,1481.33952 1327.80002,1478.79675 1327.83673,1476.25625 C1352.01943,1482.28365 1376.82839,1486.57558 1400.94228,1492.58017 L1400.94228,1095.23959 C1392.12208,1105.75275 1383.33859,1116.29556 1374.47251,1126.77452 C1368.01048,1134.40968 1361.40165,1141.92397 1354.92356,1149.54316 C1349.09925,1156.38926 1342.72669,1162.90012 1337.75343,1170.29583 C1331.76395,1179.20123 1326.88704,1188.82955 1321.72567,1198.25035 C1316.69277,1207.43626 1312.15077,1216.88442 1306.94123,1225.97226 C1305.8585,1227.86053 1304.72988,1229.72599 1303.57832,1231.57548 C1296.14366,1236.06581 1288.70671,1240.55614 1281.28582,1245.06472 C1274.76415,1249.02825 1267.85939,1252.82302 1260.60366,1255.14002 C1232.9227,1263.98157 1204.70724,1271.3271 1177.29926,1280.87333 C1148.9347,1290.75251 1118.08581,1299.366 1118.39319,1337.91807 C1118.41613,1340.8759 1115.64505,1343.83144 1114.2641,1346.82575 C1104.09966,1368.85323 1105.16175,1376.65942 1125.05709,1390.72563 C1138.64868,1400.33571 1153.66939,1408.54783 1169.07549,1415.12483 C1213.26593,1433.98923 1257.08935,1454.28123 1302.73644,1469.14106 C1304.12657,1469.5926 1305.53276,1470.00765 1306.92976,1470.43867 C1305.93878,1472.26764 1305.13132,1474.2494 1304.55783,1476.42957 C1304.1908,1477.82753 1303.50262,1479.48546 1302.39923,1480.30417 C1294.3498,1486.27455 1292.72111,1496.60983 1285.66036,1503.23244 C1283.15308,1505.59049 1281.93041,1508.29518 1282.22404,1512.08767 C1282.37544,1514.03523 1279.91404,1517.54494 1278.05136,1517.97595 C1274.41776,1518.81974 1273.11251,1521.28498 1271.38976,1523.64531 C1266.97623,1529.69779 1260.31233,1534.13567 1257.93581,1541.68188 C1257.52749,1542.9795 1256.03872,1544.03765 1254.88487,1545.0274 C1247.94112,1550.98866 1243.9359,1558.44593 1241.94476,1567.23959 L1321.79908,1567.23959 C1322.04682,1563.72988 1322.29686,1560.22017 1322.53773,1556.71046 C1324.2123,1532.43212 1326.16903,1508.17203 1327.57292,1483.88001" transform="rotate(-112 1254.442 1331.24)"/>
          <path d="M219.630648 772.640418C219.77746 770.099927 219.857748 767.557155 219.894451 765.016664 244.077158 771.044059 268.886111 775.335984 293 781.340574L293 384C284.179804 394.513164 275.39631 405.055974 266.530235 415.53493 260.068208 423.170087 253.459369 430.684376 246.981285 438.303569 241.156973 445.149668 234.78441 451.660532 229.81115 459.056235 223.821675 467.961637 218.94476 477.589962 213.783397 487.01076 208.750494 496.196665 204.208494 505.644829 198.998958 514.732673 197.916219 516.620937 196.787601 518.486397 195.636043 520.335892 188.201386 524.826222 180.764435 529.316552 173.343542 533.825125 166.821873 537.788656 159.917116 541.58343 152.661386 543.90043 124.980421 552.741978 96.7649685 560.08751 69.3569826 569.633736 40.992424 579.512917 10.1435292 588.126414 10.4509171 626.678482 10.4738565 629.636307 7.70277788 632.591851 6.32182646 635.586164-3.84261827 657.613637-2.78052441 665.419832 17.1148105 679.486034 30.7064005 689.096115 45.7271146 697.308241 61.1332104 703.88524 105.323656 722.749641 149.147071 743.041644 194.794168 757.901464 196.184295 758.353006 197.59048 758.768059 198.987489 759.199076 197.996507 761.028047 197.18904 763.009813 196.615555 765.189983 196.248525 766.587937 195.560343 768.24587 194.456959 769.064574 186.407526 775.034957 184.778829 785.37024 177.718084 791.992849 175.210808 794.350899 173.988139 797.055587 174.281763 800.84808 174.433163 802.795638 171.971766 806.305347 170.109088 806.736364 166.475488 807.580154 165.170236 810.045388 163.447488 812.405719 159.033949 818.458199 152.370055 822.896077 149.993534 830.442294 149.585213 831.739906 148.096447 832.798063 146.942595 833.787806 139.998841 839.749066 135.993623 847.206343 134.002484 856L213.856803 856C214.104548 852.490291 214.354587 848.980582 214.595451 845.470873 216.270027 821.192534 218.226757 796.93244 219.630648 772.640418M752.44664 530.269808C749.679999 532.618805 748.207962 535.619898 747.592697 539.204401 745.354248 539.725592 743.630026 540.708179 742.473425 542.990916 741.04739 545.806157 738.574006 548.122024 737.07404 550.912216 734.960451 554.840948 732.81154 558.71554 730.090901 562.291155 729.31381 563.312528 728.35025 564.392081 728.111208 565.565368 727.464728 568.73211 724.211789 570.434668 723.566951 573.533534 720.365764 576.153227 719.492563 580.028628 717.860344 583.472531 715.989083 587.418232 714.503081 591.532815 712.601426 595.463971 710.002361 600.836685 707.157683 606.100313 704.442793 611.422121 703.545771 613.180435 703.979496 614.016765 706.038869 614.066864 712.163594 614.215545 718.297355 614.10969 724.417151 614.356953 727.668447 614.488665 730.949315 614.221201 734.181717 614.874912 738.134531 615.67488 741.953448 617.346733 746.160911 616.623529 746.500169 616.56535 747.00536 616.876448 747.291225 617.151993 748.734511 618.549917 750.524449 618.820613 752.464712 618.876369 752.975653 618.890913 753.488237 618.93778 754 619L754 528C753.820924 528.343421 753.660741 528.700578 753.538346 529.083593 753.392128 529.544989 752.859007 529.919115 752.44664 530.269808"/>
          <path d="M1380.2098,899.537335 C1373.4592,905.267855 1369.86743,912.589201 1368.36618,921.333813 C1362.90436,922.60529 1358.69726,925.002371 1355.87516,930.571246 C1352.39563,937.439197 1346.36057,943.088894 1342.70066,949.895735 C1337.5435,959.480114 1332.30016,968.932417 1325.6618,977.655345 C1323.7657,980.147047 1321.41461,982.780681 1320.83135,985.642985 C1319.25394,993.368443 1311.31676,997.521937 1309.74336,1005.08181 C1301.93246,1011.47271 1299.80185,1020.92698 1295.81924,1029.32859 C1291.25336,1038.95437 1287.62752,1048.99214 1282.98748,1058.58243 C1276.64576,1071.6895 1269.70475,1084.53044 1263.08042,1097.51331 C1260.89168,1101.80282 1261.94997,1103.8431 1266.97484,1103.96532 C1281.91917,1104.32803 1296.88555,1104.06979 1311.81785,1104.67301 C1319.75101,1104.99433 1327.75633,1104.34183 1335.64339,1105.9366 C1345.28826,1107.88817 1354.60641,1111.96675 1364.87262,1110.20246 C1365.70041,1110.06052 1366.93308,1110.81947 1367.63059,1111.49168 C1371.15221,1114.902 1375.51965,1115.56238 1380.2539,1115.69839 C1381.50059,1115.73388 1382.7513,1115.84821 1384,1116 L1384,894 C1383.56305,894.837795 1383.17221,895.709103 1382.87356,896.643491 C1382.51679,897.769093 1381.21598,898.681798 1380.2098,899.537335" transform="rotate(-158 1323 1005)"/>
          <path d="M938.499463,972.019063 C938.947003,992.886605 937.810317,1013.78194 937.526551,1034.6691 C937.377371,1045.66123 937.78113,1056.66153 937.63195,1067.65365 C937.571954,1072.15154 936.777409,1076.64944 936.195283,1081.13098 C935.078055,1089.74581 936.378514,1098.26581 936.769301,1106.8414 C937.139008,1114.96082 936.143394,1123.19633 935.149402,1131.30922 C933.198713,1147.19654 933.313841,1163.10839 933.748408,1179.04476 C933.994879,1188.05363 934.152167,1197.06413 934.46512,1206.06973 C934.797532,1215.71624 935.870979,1225.37747 935.530459,1234.9962 C935.379658,1239.26846 935.165617,1243.54399 934.917524,1247.81952 C936.911995,1248.76946 938.951868,1249.99571 941.038765,1251.5506 C946.073586,1255.3013 951.692155,1258.29008 958.951703,1262.8125 C965.551292,1257.96799 976.506285,1249.92377 988.659582,1241.00156 C992.194497,1242.63656 995.461861,1243.34125 998.484375,1243.25623 L998.484375,907.8125 L942.540293,907.8125 C941.86574,917.508067 941.187945,927.203634 940.729054,936.909011 C940.172873,948.617267 938.244885,960.168562 938.499463,972.019063" transform="rotate(-152 965.984 1085.313)"/>
          <path d="M235.015088,54.6950037 C235.462628,75.5625455 234.325942,96.4578823 234.042176,117.345044 C233.892996,128.337168 234.296755,139.337468 234.147575,150.329592 C234.087579,154.827485 233.293034,159.325378 232.710908,163.806921 C231.59368,172.421751 232.894139,180.941751 233.284926,189.517341 C233.654633,197.636765 232.659019,205.872275 231.665027,213.985159 C229.714338,229.872482 229.829466,245.78433 230.264033,261.720703 C230.510504,270.729569 230.667792,279.74007 230.980745,288.745666 C231.313157,298.392183 232.386604,308.053415 232.046084,317.672137 C231.895283,321.944399 231.681242,326.219932 231.433149,330.495464 C233.42762,331.445401 235.467493,332.671653 237.55439,334.226541 C242.589211,337.977237 248.20778,340.966023 255.467328,345.488441 C262.066917,340.643927 273.02191,332.599713 285.175207,323.677502 C288.710122,325.312505 291.977486,326.017191 295,325.932171 L295,-9.5115593 L239.055918,-9.5115593 C238.381365,0.184007768 237.70357,9.87957484 237.244679,19.5849519 C236.688498,31.2932075 234.76051,42.8445029 235.015088,54.6950037" transform="rotate(-32 262.5 167.988)"/>
          <path d="M1482.04745,231.363732 C1482.79794,266.515253 1480.8918,301.713595 1480.41595,336.898166 C1480.16579,355.414477 1480.84286,373.944559 1480.5927,392.46087 C1480.49209,400.037602 1479.1597,407.614334 1478.18352,415.163525 C1476.31001,429.675267 1478.49078,444.027267 1479.1461,458.472909 C1479.76607,472.150136 1478.0965,486.02291 1476.42965,499.689121 C1473.1585,526.451428 1473.35156,553.255048 1474.08029,580.099981 C1474.49361,595.275479 1474.75737,610.453731 1475.28217,625.623721 C1475.83959,641.873346 1477.63968,658.14776 1477.06866,674.350565 C1476.81578,681.547221 1476.45685,688.749386 1476.04081,695.95155 C1479.38539,697.551725 1482.8061,699.617356 1486.30566,702.236575 C1494.74867,708.55465 1504.17058,713.58928 1516.34428,721.207325 C1527.41128,713.046707 1545.78197,699.496172 1566.16211,684.466645 C1572.08989,687.220819 1577.56901,688.407868 1582.63753,688.264651 L1582.63753,123.207325 L1488.82361,123.207325 C1487.69244,139.539576 1486.55583,155.871827 1485.7863,172.220603 C1484.85363,191.943242 1481.62054,211.40148 1482.04745,231.363732" transform="rotate(18 1528.138 422.207)"/>
          <path d="M289.281186 1220C291.438961 1217.25861 293.840396 1214.67468 296.089089 1211.99554 299.513649 1207.91763 303.006094 1203.89587 306.419743 1199.81065 311.246857 1194.03371 316.027906 1188.21773 320.831988 1182.42127 322.418802 1180.5062 323.160689 1178.0907 325.877304 1176.85061 328.105389 1175.83388 326.785267 1172.15876 323.949853 1171.46548 322.057556 1171.00289 320.088889 1170.68798 318.143254 1170.63061 315.279958 1170.54762 312.639714 1170.13751 310.508607 1168.02715 310.087962 1167.61094 309.341226 1167.14102 308.841786 1167.22768 302.632726 1168.32009 296.997052 1165.79474 291.162572 1164.5876 286.393645 1163.60016 281.551985 1164.00295 276.753964 1163.804 267.722824 1163.43173 258.671076 1163.5904 249.632663 1163.36581 246.592381 1163.29136 245.953534 1162.02686 247.277293 1159.37091 251.282513 1151.33227 255.480478 1143.38274 259.315985 1135.2672 262.122305 1129.32916 264.315236 1123.11282 267.076704 1117.15281 269.485412 1111.95198 270.775228 1106.09694 275.499302 1102.14109 276.450906 1097.46022 281.251351 1094.88727 282.204166 1090.10388 282.558138 1088.33162 283.980088 1086.70095 285.126861 1085.15816 288.964793 1079.99395 292.031743 1074.41719 295.019899 1068.75133 290.546757 1062.28844 285.776618 1056.0184 281.019814 1049.76789 272.83845 1039.01838 264.001267 1028.53007 254.087621 1019.35753 247.396092 1013.16561 238.555273 1009.01203 230.196923 1004.8853 227.163915 1003.38889 222.655618 1004.11268 218.970428 1004.71442 212.481342 1005.77387 212.247381 1006.83332 211.609746 1013.26203 210.526009 1024.20073 208.87131 1035.08328 207.639681 1046.011 206.666258 1054.64893 205.895277 1063.31005 205.170361 1071.97362 204.229668 1083.22844 203.729016 1094.52843 202.45617 1105.74419 201.544571 1113.77795 199.754102 1121.72138 198.212141 1129.67824 198.143044 1130.03586 198.07031 1130.39227 198 1130.74989 205.999529 1137.74129 214.337271 1144.37505 222.048289 1151.65572 230.409064 1159.55399 238.899547 1167.54991 245.857768 1176.60039 256.650283 1190.63566 269.116893 1202.68752 283.00424 1213.66893 285.283239 1215.47171 287.387677 1217.64187 289.281186 1220zM491.556296 1107C493.731245 1099.6538 495.844893 1092.30598 496.988356 1084.81038 499.459183 1068.61756 504.377952 1052.8277 510.619998 1038.30973 519.564998 1017.50665 521.882164 995.185403 530.707831 974.470353 537.027526 959.640663 538.691635 943.01904 544.200526 927.794463 546.246335 922.140866 548.553693 916.573676 551 911.054131 547.158489 903.032015 543.133893 895.090654 539.34551 887.045927 538.041848 884.276868 537.403503 881.224361 536.249415 878.381816 534.022974 872.90184 532.339248 867.03263 529.024923 862.229374 527.467885 859.972296 524.841762 856.194617 520.209064 857.033653 518.984684 857.255727 517.556786 856.432842 515.872243 856 510.813709 862.068673 506.744159 868.835062 505.134811 876.618953 503.649699 883.802033 501.24426 890.619297 498.769346 897.511663 496.322222 904.328119 495.417423 911.647674 493.481956 918.65471 491.436147 926.064709 488.725021 933.308355 486.768302 940.738543 486.493675 941.781887 486.241933 942.83169 486 943.883109 486.791188 942.469104 487.640407 941.093054 489.020899 940.075552 489.414041 939.786452 489.658426 939.198562 489.790018 938.704347 490.856651 934.6731 494.173428 932.539576 497.344717 930.280883 497.394575 930.245351 497.541697 930.336603 498.025564 930.491651 498.025564 934.022222 498.202927 937.692497 497.990418 941.341777 497.490204 949.943707 496.793011 958.534332 496.196351 967.131417 495.777871 973.164558 495.311986 979.194469 495.019377 985.233264 494.739846 991.016067 493.768843 996.720539 493.896348 1002.57441 494.121935 1012.88025 493.548978 1023.20063 493.405943 1033.51778 493.330747 1038.94688 493.534266 1044.37921 493.45907 1049.80911 493.428828 1052.03066 493.02833 1054.25221 492.734904 1056.46568 492.171755 1060.71981 492.828081 1064.9279 493.024244 1069.16346 493.210598 1073.17371 492.709567 1077.24129 492.206901 1081.24831 491.224455 1089.09519 491.282486 1096.95419 491.501534 1104.8261M754 1186L754 1045C752.215412 1047.74624 750.435655 1050.49654 748.641403 1053.2371 744.067992 1060.22163 739.507466 1067.21428 734.888958 1074.16877 729.602034 1082.13068 724.160489 1089.99437 719 1098.03502M624.535181 1090.68304C626.582401 1084.47139 631.547431 1080.23301 635 1075 622.104612 1084.04843 609.376738 1093.32233 597 1103M754.899522 776.01334C751.762848 785.920782 748.707399 795.860215 745.941011 805.868367 745.278081 808.268807 744.612762 810.679911 744 813.101677 746.06643 813.657356 748.394448 814.563742 751.150086 815.803061 752.745896 816.519875 754.310649 817.938102 755.895708 817.946395 776.558812 818.04829 780.967594 833.67603 786.073945 848.057343 791.007098 861.954066 794.754144 876.244148 799.308651 890.27357 800.501925 893.950058 802.48952 897.461857 804.570283 900.779345 814.889293 917.234089 824.994494 933.83338 835.892821 949.924384 839.37589 955.068861 843.130103 960.045094 846.917761 965 850.096241 956.69443 853.250831 948.379382 856.613259 940.144902 857.468498 938.051329 859.264978 936.334529 860.457057 934.34996 862.154397 931.522986 863.701233 928.61189 865.294653 925.726859 865.674494 925.039665 865.913388 924.275458 866.332646 923.613145 868.734721 919.818175 871.325523 916.126285 873.557984 912.241268 876.271815 907.518587 878.635667 902.609888 881.256331 897.836259 883.943884 892.942964 886.483323 887.94185 889.603274 883.313953 892.191686 879.47159 895.511113 876.088937 898.542673 872.53093 901.917045 868.572456 905.358308 864.669667 908.72193 860.702899 913.478302 855.095158 918.18809 849.449504 922.921767 843.822806 924.485326 841.963828 925.21634 839.619074 927.894338 838.4153 930.088576 837.428347 928.788994 833.860862 925.993939 833.18907 924.130569 832.73884 922.189558 832.433157 920.273631 832.377471 917.452298 832.296903 914.850746 831.898804 912.750871 829.850255 912.335196 829.446232 911.600598 828.990078 911.107283 829.0742 904.989217 830.134611 899.43733 827.684409 893.688355 826.51144 888.988123 825.552923 884.217417 825.943912 879.489712 825.750787 870.590925 825.389418 861.673026 825.543444 852.765877 825.325438 849.771346 825.253164 849.140666 824.025693 850.445026 821.447531 854.391548 813.644323 858.529186 805.927608 862.308483 798.049758 865.073677 792.285621 867.234469 786.251346 869.955468 780.467068 872.328876 775.417377 873.598595 769.733808 878.253438 765.893815 879.19229 761.35004 883.921189 758.852445 884.861235 754.210331 885.208825 752.489976 886.611131 750.90706 887.739903 749.408266 891.695982 744.16545 894.821905 738.485435 897.894077 732.724853 900.07637 728.633679 903.671719 725.236808 905.74651 721.108904 907.427127 717.76298 909.934315 716.321057 913.189241 715.55685 913.280021 715.026052 913.392301 714.511841 913.508164 714L775.06931 714C772.528676 720.32337 770.752502 726.921618 768.6801 733.420341 764.147094 747.63578 759.403861 761.788423 754.899522 776.01334"/>
        </g>
      </g>
    </g>
  </g>
</svg>
