<svg xmlns="http://www.w3.org/2000/svg" width="1638" height="1024" viewBox="0 0 1638 1024">
  <g fill="none" fill-rule="evenodd">
    <rect width="1638" height="1024" fill="#CFCDC3"/>
    <g transform="translate(-139 -57)">
      <rect width="1777" height="1153" fill="#CFCDC3"/>
      <g>
        <path fill="#50E3C2" d="M727.729424,190.326975 C724.651991,191.721348 723.811943,194.43873 722.015173,196.592049 C716.575448,203.108274 711.163175,209.647831 705.69737,216.144843 C701.832049,220.738316 697.876135,225.260423 693.999833,229.845661 C690.516103,233.96565 686.702942,237.883894 683.725711,242.336008 C680.141779,247.695288 677.223572,253.488251 674.135159,259.157697 C671.123613,264.687157 668.407182,270.371699 665.288571,275.842145 C662.723129,280.342293 659.745898,284.62011 656.985543,289.015955 C656.503751,289.781762 656.227852,290.66697 655.792729,291.464343 C653.961643,294.806173 652.182717,298.176824 650.233585,301.451406 C648.86233,303.751573 646.79927,305.73883 645.816468,308.165259 C641.702702,318.322502 637.859343,328.582675 633.965197,338.823635 C633.134757,341.005774 633.085342,343.761583 631.64271,345.360447 C629.662008,347.553566 629.933788,350.044499 629.206295,352.396818 C628.920789,353.321825 628.882355,354.09724 629.078641,354.732668 C626.817922,355.562979 624.537987,356.356235 622.234717,357.097339 C612.733385,360.153707 604.396042,366.079794 594.238594,367.781588 C588.080984,368.813644 582.104561,370.912067 576.069116,372.604254 C574.382156,373.077737 572.691078,373.538869 571,374 C571.958094,364.944807 572.52499,355.836089 572.850303,346.742469 C573.138555,338.668552 572.229875,330.558953 571.947113,322.461705 C571.683569,314.902444 571.550424,307.339066 571.341784,299.77706 C570.972547,286.39876 570.876463,273.043791 572.526362,259.708036 C573.369156,252.898113 574.21195,245.985259 573.898991,239.169847 C573.568187,231.971531 572.467339,224.819877 573.41308,217.588624 C573.904481,213.826834 574.577069,210.051321 574.629229,206.275808 C574.755511,197.04769 574.413726,187.815456 574.540008,178.588711 C574.778845,161.056111 575.74243,143.516649 575.363585,126.000518 C575.148082,116.053255 576.778764,106.357144 577.249576,96.5292815 C577.740977,86.2677356 578.523375,76.0185414 579.22616,65.76523 C580.107388,52.9111925 581.106661,40.0626446 581.909648,27.2044898 C604.644488,31.9310866 627.666207,35.5172066 650.637138,39.0552921 C663.495918,41.0370592 676.789822,40.2026309 689.726842,41.8481563 C697.434148,42.8280605 703.605485,41.2360593 709.461116,36.8717801 C713.890587,33.5697499 718.37359,30.3308509 722.779727,27 C721.939678,28.1528285 721.216303,29.3907467 720.766081,30.827665 C720.521753,31.6113139 719.63229,32.246742 718.941858,32.84237 C714.318847,36.83198 711.859097,41.9291288 710.830999,48.0171611 C707.090587,48.9023687 704.209441,50.5712252 702.27678,54.4482971 C699.893898,59.2297905 695.760915,63.1631315 693.254496,67.90208 C689.724096,74.574761 686.131929,81.1554903 681.585784,87.228426 C680.288651,88.9631584 678.677185,90.7967046 678.27775,92.789451 C677.197492,98.1679448 671.761885,101.059623 670.684372,106.322834 C665.33524,110.772203 663.874764,117.354305 661.147352,123.203537 C658.021877,129.905038 655.538793,136.893375 652.361159,143.570173 C648.018164,152.695359 643.26338,161.63527 638.728217,170.673994 C637.229307,173.660369 637.952682,175.080818 641.395233,175.165908 C651.630921,175.418432 661.878962,175.238646 672.105042,175.658605 C677.537904,175.882309 683.020181,175.428039 688.4201,176.538323 C695.026559,177.897014 701.407907,180.73654 708.438508,179.508229 C709.004031,179.409415 709.84957,179.937794 710.327244,180.405788 C712.738952,182.780066 715.729909,183.239825 718.972056,183.334521 C721.173752,183.397652 723.404272,183.753108 725.545572,184.273253 C728.757522,185.051412 730.250942,189.185126 727.729424,190.326975"/>
        <path fill="#F5A623" d="M260.988356,255.81045 C259.844893,263.305217 257.731245,270.65382 255.556296,278 C255.538315,277.27483 255.521968,276.550468 255.501534,275.825298 C255.282486,267.95341 255.224455,260.095251 256.206901,252.248397 C256.709567,248.24139 257.210598,244.173817 257.024244,240.16358 C256.828081,235.928039 256.171755,231.719955 256.734904,227.465033 C257.02833,225.251569 257.428828,223.03003 257.45907,220.808491 C257.534266,215.379408 257.330747,209.946287 257.405943,204.517204 C257.548978,194.200897 258.121935,183.880552 257.896348,173.573935 C257.768843,167.720894 258.739846,162.01644 259.019377,156.232848 C259.311986,150.194881 259.777871,144.164181 260.196351,138.131059 C260.793011,129.534809 261.490204,120.943405 261.990418,112.34231 C262.202927,108.692234 262.026381,105.021971 262.026381,101.491411 C261.541697,101.337172 261.394575,101.24592 261.345535,101.281451 C258.173428,103.53933 254.856651,105.672847 253.790018,109.70408 C253.658426,110.199102 253.414041,110.786182 253.020899,111.076089 C251.641224,112.09278 250.791188,113.468826 250,114.882826 C250.241933,113.832219 250.493675,112.782418 250.768302,111.739078 C252.725021,104.308914 255.436147,97.0652916 257.481956,89.6545085 C259.417423,82.6474949 260.322222,75.3287712 262.769346,68.5123367 C265.24426,61.619186 267.649699,54.8027514 269.134811,47.6188868 C270.744976,39.8358283 274.813709,33.0694612 279.872243,27 C281.556786,27.4328408 282.984684,28.2565303 284.209064,28.0344571 C288.841762,27.1946168 291.467885,30.9722831 293.024923,33.2293539 C296.339248,38.0325943 298.022974,43.9025935 300.249415,49.3825514 C301.403503,52.2250878 302.042665,55.2775842 303.34551,58.0466346 C307.133893,66.090528 311.158489,74.031864 315,82.0547614 C312.553693,87.5742887 310.246335,93.1414608 308.200526,98.7950396 C302.691635,114.019568 301.027526,130.64033 294.707831,145.469971 C285.882164,166.185763 283.564998,188.506134 274.619998,209.309947 C268.377952,223.827878 263.459183,239.616876 260.988356,255.81045"/>
        <path fill="#50E3C2" d="M1162.15737,457.201004 C1159.6803,460.133138 1157.05707,462.975952 1154.61692,465.935804 C1153.18914,466.172962 1151.58905,466.805896 1149.68586,467.854627 C1144.17476,470.888399 1139.06061,474.604385 1133.70336,477.913815 C1128.97693,480.835168 1124.46435,484.392536 1119.32866,486.323678 C1092.15472,496.543024 1066.22855,509.377267 1041.06243,523.454278 C1032.16959,528.428433 1023.00597,532.674174 1013.64694,536.011323 C1013.57925,534.697715 1013.51617,533.384107 1013.47001,532.070499 C1013.17461,523.588257 1013.02383,515.101395 1012.78997,506.617612 C1012.37764,491.60583 1012.26994,476.618687 1014.11928,461.654644 C1015.06395,454.013233 1016.00708,446.256324 1015.65783,438.608754 C1015.28704,430.531528 1014.05158,422.506662 1015.11165,414.392476 C1015.66399,410.171375 1016.41788,405.936413 1016.47481,401.699912 C1016.61789,391.345047 1016.23479,380.985561 1016.37634,370.630696 C1016.64405,350.958916 1017.72411,331.274816 1017.29947,311.623056 C1017.05792,300.461238 1018.88572,289.581238 1019.41344,278.551858 C1019.96424,267.037384 1020.83968,255.536769 1021.62896,244.033074 C1022.75057,227.639924 1024.06295,211.256014 1025.00455,194.853624 C1025.04455,194.17757 1025.04916,193.503056 1025.07532,192.827003 C1031.02798,187.116735 1032.46192,179.472245 1028.86478,173.109023 C1025.68766,167.489614 1022.18438,162.124303 1018.05336,157.344187 C1020.28734,144.687043 1023.67677,132.046839 1031.67725,120.195107 C1037.50837,124.463948 1042.20712,127.677899 1046.65507,131.196766 C1066.12393,146.595086 1080.36325,146.833783 1098.14893,130.161896 C1117.77164,111.765224 1134.90805,90.5257384 1155.94316,73.9431701 C1179.58919,55.3016406 1203.90449,37.440884 1228.53981,20.0113234 C1221.94403,30.0905312 1212.45731,38.2555365 1208.54784,50.2196871 C1207.5524,53.2611593 1201.90745,54.8488848 1199.58885,56.3411311 C1197.73027,62.4964548 1196.86868,68.5100998 1194.18698,73.6043732 C1187.68506,85.9519803 1177.8737,97.1599977 1173.94577,110.143619 C1168.92393,126.743127 1158.65255,139.036835 1148.02422,151.60004 C1139.20677,162.022664 1139.31447,174.270172 1148.99966,183.868905 C1151.71213,186.55772 1154.76309,188.920058 1159.13565,192.716124 C1151.8106,203.429806 1145.39791,214.161967 1137.56667,223.786879 C1132.34174,230.208621 1130.04007,235.670951 1134.22186,242.513108 C1136.20044,245.751699 1139.16061,248.418954 1142.25157,252.013281 C1139.66526,257.195334 1137.53128,262.568345 1134.46956,267.377721 C1128.73383,276.394338 1121.84265,284.753382 1116.65773,294.039497 C1113.79909,299.15995 1110.83584,306.494903 1112.53133,311.264239 C1115.31457,319.101228 1121.15492,326.276022 1126.99527,332.591504 C1127.0922,332.697763 1127.19836,332.787082 1127.29836,332.890261 C1126.67217,334.456427 1126.04137,336.019513 1125.33363,337.537939 C1121.83034,345.05769 1119.0471,352.899298 1115.48535,360.39133 C1110.61737,370.630696 1105.28935,380.662164 1100.20443,390.804512 C1098.52433,394.157061 1099.33515,395.749406 1103.19384,395.844886 C1114.6653,396.128243 1126.15522,395.926505 1137.6159,396.397741 C1143.7055,396.648758 1149.85048,396.139023 1155.90469,397.384871 C1163.30975,398.909458 1170.46095,402.095688 1178.34296,400.717401 C1178.97684,400.606522 1179.92305,401.199417 1180.45847,401.726092 C1183.16171,404.388727 1186.51422,404.904623 1190.14828,405.010882 C1192.61612,405.081721 1195.11473,405.480577 1197.51641,406.064232 C1201.11663,406.937404 1202.79058,411.575842 1199.96425,412.85711 C1196.51482,414.421736 1195.57322,417.470908 1193.55925,419.888686 C1187.46197,427.200539 1181.39545,434.537032 1175.26893,441.827325 C1170.93636,446.981658 1166.50379,452.055911 1162.15737,457.201004" transform="rotate(-29 1120.54 278.011)"/>
        <path fill="#F5A623" d="M1703.63065,886.640418 C1703.77746,884.099927 1703.85775,881.557155 1703.89445,879.016664 C1728.07716,885.044059 1752.88611,889.335984 1777,895.340574 L1777,498 C1768.1798,508.513164 1759.39631,519.055974 1750.53024,529.53493 C1744.06821,537.170087 1737.45937,544.684376 1730.98129,552.303569 C1725.15697,559.149668 1718.78441,565.660532 1713.81115,573.056235 C1707.82167,581.961637 1702.94476,591.589962 1697.7834,601.01076 C1692.75049,610.196665 1688.20849,619.644829 1682.99896,628.732673 C1681.91622,630.620937 1680.7876,632.486397 1679.63604,634.335892 C1672.20139,638.826222 1664.76444,643.316552 1657.34354,647.825125 C1650.82187,651.788656 1643.91712,655.58343 1636.66139,657.90043 C1608.98042,666.741978 1580.76497,674.08751 1553.35698,683.633736 C1524.99242,693.512917 1494.14353,702.126414 1494.45092,740.678482 C1494.47386,743.636307 1491.70278,746.591851 1490.32183,749.586164 C1480.15738,771.613637 1481.21948,779.419832 1501.11481,793.486034 C1514.7064,803.096115 1529.72711,811.308241 1545.13321,817.88524 C1589.32366,836.749641 1633.14707,857.041644 1678.79417,871.901464 C1680.18429,872.353006 1681.59048,872.768059 1682.98749,873.199076 C1681.99651,875.028047 1681.18904,877.009813 1680.61556,879.189983 C1680.24853,880.587937 1679.56034,882.24587 1678.45696,883.064574 C1670.40753,889.034957 1668.77883,899.37024 1661.71808,905.992849 C1659.21081,908.350899 1657.98814,911.055587 1658.28176,914.84808 C1658.43316,916.795638 1655.97177,920.305347 1654.10909,920.736364 C1650.47549,921.580154 1649.17024,924.045388 1647.44749,926.405719 C1643.03395,932.458199 1636.37006,936.896077 1633.99353,944.442294 C1633.58521,945.739906 1632.09645,946.798063 1630.9426,947.787806 C1623.99884,953.749066 1619.99362,961.206343 1618.00248,970 L1697.8568,970 C1698.10455,966.490291 1698.35459,962.980582 1698.59545,959.470873 C1700.27003,935.192534 1702.22676,910.93244 1703.63065,886.640418"/>
        <path fill="#50E3C2" d="M219.630648,667.640418 C219.77746,665.099927 219.857748,662.557155 219.894451,660.016664 C244.077158,666.044059 268.886111,670.335984 293,676.340574 L293,279 C284.179804,289.513164 275.39631,300.055974 266.530235,310.53493 C260.068208,318.170087 253.459369,325.684376 246.981285,333.303569 C241.156973,340.149668 234.78441,346.660532 229.81115,354.056235 C223.821675,362.961637 218.94476,372.589962 213.783397,382.01076 C208.750494,391.196665 204.208494,400.644829 198.998958,409.732673 C197.916219,411.620937 196.787601,413.486397 195.636043,415.335892 C188.201386,419.826222 180.764435,424.316552 173.343542,428.825125 C166.821873,432.788656 159.917116,436.58343 152.661386,438.90043 C124.980421,447.741978 96.7649685,455.08751 69.3569826,464.633736 C40.992424,474.512917 10.1435292,483.126414 10.4509171,521.678482 C10.4738565,524.636307 7.70277788,527.591851 6.32182646,530.586164 C-3.84261827,552.613637 -2.78052441,560.419832 17.1148105,574.486034 C30.7064005,584.096115 45.7271146,592.308241 61.1332104,598.88524 C105.323656,617.749641 149.147071,638.041644 194.794168,652.901464 C196.184295,653.353006 197.59048,653.768059 198.987489,654.199076 C197.996507,656.028047 197.18904,658.009813 196.615555,660.189983 C196.248525,661.587937 195.560343,663.24587 194.456959,664.064574 C186.407526,670.034957 184.778829,680.37024 177.718084,686.992849 C175.210808,689.350899 173.988139,692.055587 174.281763,695.84808 C174.433163,697.795638 171.971766,701.305347 170.109088,701.736364 C166.475488,702.580154 165.170236,705.045388 163.447488,707.405719 C159.033949,713.458199 152.370055,717.896077 149.993534,725.442294 C149.585213,726.739906 148.096447,727.798063 146.942595,728.787806 C139.998841,734.749066 135.993623,742.206343 134.002484,751 L213.856803,751 C214.104548,747.490291 214.354587,743.980582 214.595451,740.470873 C216.270027,716.192534 218.226757,691.93244 219.630648,667.640418"/>
        <path fill="#F5A623" d="M752.44664,425.269808 C749.679999,427.618805 748.207962,430.619898 747.592697,434.204401 C745.354248,434.725592 743.630026,435.708179 742.473425,437.990916 C741.04739,440.806157 738.574006,443.122024 737.07404,445.912216 C734.960451,449.840948 732.81154,453.71554 730.090901,457.291155 C729.31381,458.312528 728.35025,459.392081 728.111208,460.565368 C727.464728,463.73211 724.211789,465.434668 723.566951,468.533534 C720.365764,471.153227 719.492563,475.028628 717.860344,478.472531 C715.989083,482.418232 714.503081,486.532815 712.601426,490.463971 C710.002361,495.836685 707.157683,501.100313 704.442793,506.422121 C703.545771,508.180435 703.979496,509.016765 706.038869,509.066864 C712.163594,509.215545 718.297355,509.10969 724.417151,509.356953 C727.668447,509.488665 730.949315,509.221201 734.181717,509.874912 C738.134531,510.67488 741.953448,512.346733 746.160911,511.623529 C746.500169,511.56535 747.00536,511.876448 747.291225,512.151993 C748.734511,513.549917 750.524449,513.820613 752.464712,513.876369 C752.975653,513.890913 753.488237,513.93778 754,514 L754,423 C753.820924,423.343421 753.660741,423.700578 753.538346,424.083593 C753.392128,424.544989 752.859007,424.919115 752.44664,425.269808"/>
        <path fill="#F5A623" d="M1380.2098,794.537335 C1373.4592,800.267855 1369.86743,807.589201 1368.36618,816.333813 C1362.90436,817.60529 1358.69726,820.002371 1355.87516,825.571246 C1352.39563,832.439197 1346.36057,838.088894 1342.70066,844.895735 C1337.5435,854.480114 1332.30016,863.932417 1325.6618,872.655345 C1323.7657,875.147047 1321.41461,877.780681 1320.83135,880.642985 C1319.25394,888.368443 1311.31676,892.521937 1309.74336,900.081808 C1301.93246,906.472708 1299.80185,915.926983 1295.81924,924.328592 C1291.25336,933.954367 1287.62752,943.992142 1282.98748,953.582434 C1276.64576,966.689496 1269.70475,979.530435 1263.08042,992.513306 C1260.89168,996.802818 1261.94997,998.843097 1266.97484,998.965316 C1281.91917,999.328032 1296.88555,999.069794 1311.81785,999.673007 C1319.75101,999.994326 1327.75633,999.341831 1335.64339,1000.9366 C1345.28826,1002.88817 1354.60641,1006.96675 1364.87262,1005.20246 C1365.70041,1005.06052 1366.93308,1005.81947 1367.63059,1006.49168 C1371.15221,1009.902 1375.51965,1010.56238 1380.2539,1010.69839 C1381.50059,1010.73388 1382.7513,1010.84821 1384,1011 L1384,789 C1383.56305,789.837795 1383.17221,790.709103 1382.87356,791.643491 C1382.51679,792.769093 1381.21598,793.681798 1380.2098,794.537335" transform="rotate(-158 1323 900)"/>
        <path fill="#F59994" d="M938.499463,867.019063 C938.947003,887.886605 937.810317,908.781942 937.526551,929.669103 C937.377371,940.661228 937.78113,951.661527 937.63195,962.653651 C937.571954,967.151544 936.777409,971.649437 936.195283,976.13098 C935.078055,984.74581 936.378514,993.26581 936.769301,1001.8414 C937.139008,1009.96082 936.143394,1018.19633 935.149402,1026.30922 C933.198713,1042.19654 933.313841,1058.10839 933.748408,1074.04476 C933.994879,1083.05363 934.152167,1092.06413 934.46512,1101.06973 C934.797532,1110.71624 935.870979,1120.37747 935.530459,1129.9962 C935.379658,1134.26846 935.165617,1138.54399 934.917524,1142.81952 C936.911995,1143.76946 938.951868,1144.99571 941.038765,1146.5506 C946.073586,1150.3013 951.692155,1153.29008 958.951703,1157.8125 C965.551292,1152.96799 976.506285,1144.92377 988.659582,1136.00156 C992.194497,1137.63656 995.461861,1138.34125 998.484375,1138.25623 L998.484375,802.8125 L942.540293,802.8125 C941.86574,812.508067 941.187945,822.203634 940.729054,831.909011 C940.172873,843.617267 938.244885,855.168562 938.499463,867.019063" transform="rotate(-152 965.984 980.313)"/>
        <path fill="#F59994" d="M1482.04745,126.363732 C1482.79794,161.515253 1480.8918,196.713595 1480.41595,231.898166 C1480.16579,250.414477 1480.84286,268.944559 1480.5927,287.46087 C1480.49209,295.037602 1479.1597,302.614334 1478.18352,310.163525 C1476.31001,324.675267 1478.49078,339.027267 1479.1461,353.472909 C1479.76607,367.150136 1478.0965,381.02291 1476.42965,394.689121 C1473.1585,421.451428 1473.35156,448.255048 1474.08029,475.099981 C1474.49361,490.275479 1474.75737,505.453731 1475.28217,520.623721 C1475.83959,536.873346 1477.63968,553.14776 1477.06866,569.350565 C1476.81578,576.547221 1476.45685,583.749386 1476.04081,590.95155 C1479.38539,592.551725 1482.8061,594.617356 1486.30566,597.236575 C1494.74867,603.55465 1504.17058,608.58928 1516.34428,616.207325 C1527.41128,608.046707 1545.78197,594.496172 1566.16211,579.466645 C1572.08989,582.220819 1577.56901,583.407868 1582.63753,583.264651 L1582.63753,18.2073246 L1488.82361,18.2073246 C1487.69244,34.5395756 1486.55583,50.8718266 1485.7863,67.2206026 C1484.85363,86.9432417 1481.62054,106.40148 1482.04745,126.363732" transform="rotate(18 1528.138 317.207)"/>
        <path fill="#F59994" d="M289.281186 1115C291.438961 1112.25861 293.840396 1109.67468 296.089089 1106.99554 299.513649 1102.91763 303.006094 1098.89587 306.419743 1094.81065 311.246857 1089.03371 316.027906 1083.21773 320.831988 1077.42127 322.418802 1075.5062 323.160689 1073.0907 325.877304 1071.85061 328.105389 1070.83388 326.785267 1067.15876 323.949853 1066.46548 322.057556 1066.00289 320.088889 1065.68798 318.143254 1065.63061 315.279958 1065.54762 312.639714 1065.13751 310.508607 1063.02715 310.087962 1062.61094 309.341226 1062.14102 308.841786 1062.22768 302.632726 1063.32009 296.997052 1060.79474 291.162572 1059.5876 286.393645 1058.60016 281.551985 1059.00295 276.753964 1058.804 267.722824 1058.43173 258.671076 1058.5904 249.632663 1058.36581 246.592381 1058.29136 245.953534 1057.02686 247.277293 1054.37091 251.282513 1046.33227 255.480478 1038.38274 259.315985 1030.2672 262.122305 1024.32916 264.315236 1018.11282 267.076704 1012.15281 269.485412 1006.95198 270.775228 1001.09694 275.499302 997.141087 276.450906 992.460223 281.251351 989.887274 282.204166 985.103882 282.558138 983.331622 283.980088 981.700949 285.126861 980.158155 288.964793 974.993948 292.031743 969.417189 295.019899 963.751329 290.546757 957.288441 285.776618 951.018402 281.019814 944.767892 272.83845 934.018382 264.001267 923.530073 254.087621 914.357532 247.396092 908.165609 238.555273 904.012029 230.196923 899.885301 227.163915 898.388889 222.655618 899.112683 218.970428 899.714422 212.481342 900.773872 212.247381 901.833321 211.609746 908.262034 210.526009 919.200731 208.87131 930.083283 207.639681 941.010995 206.666258 949.648929 205.895277 958.310054 205.170361 966.973619 204.229668 978.228443 203.729016 989.528428 202.45617 1000.74419 201.544571 1008.77795 199.754102 1016.72138 198.212141 1024.67824 198.143044 1025.03586 198.07031 1025.39227 198 1025.74989 205.999529 1032.74129 214.337271 1039.37505 222.048289 1046.65572 230.409064 1054.55399 238.899547 1062.54991 245.857768 1071.60039 256.650283 1085.63566 269.116893 1097.68752 283.00424 1108.66893 285.283239 1110.47171 287.387677 1112.64187 289.281186 1115zM491.556296 1002C493.731245 994.653796 495.844893 987.305978 496.988356 979.810379 499.459183 963.61756 504.377952 947.827704 510.619998 933.309726 519.564998 912.506653 521.882164 890.185403 530.707831 869.470353 537.027526 854.640663 538.691635 838.01904 544.200526 822.794463 546.246335 817.140866 548.553693 811.573676 551 806.054131 547.158489 798.032015 543.133893 790.090654 539.34551 782.045927 538.041848 779.276868 537.403503 776.224361 536.249415 773.381816 534.022974 767.90184 532.339248 762.03263 529.024923 757.229374 527.467885 754.972296 524.841762 751.194617 520.209064 752.033653 518.984684 752.255727 517.556786 751.432842 515.872243 751 510.813709 757.068673 506.744159 763.835062 505.134811 771.618953 503.649699 778.802033 501.24426 785.619297 498.769346 792.511663 496.322222 799.328119 495.417423 806.647674 493.481956 813.65471 491.436147 821.064709 488.725021 828.308355 486.768302 835.738543 486.493675 836.781887 486.241933 837.83169 486 838.883109 486.791188 837.469104 487.640407 836.093054 489.020899 835.075552 489.414041 834.786452 489.658426 834.198562 489.790018 833.704347 490.856651 829.6731 494.173428 827.539576 497.344717 825.280883 497.394575 825.245351 497.541697 825.336603 498.025564 825.491651 498.025564 829.022222 498.202927 832.692497 497.990418 836.341777 497.490204 844.943707 496.793011 853.534332 496.196351 862.131417 495.777871 868.164558 495.311986 874.194469 495.019377 880.233264 494.739846 886.016067 493.768843 891.720539 493.896348 897.574406 494.121935 907.880249 493.548978 918.200627 493.405943 928.517776 493.330747 933.946876 493.534266 939.379207 493.45907 944.809115 493.428828 947.030661 493.02833 949.252207 492.734904 951.465678 492.171755 955.719806 492.828081 959.927904 493.024244 964.163458 493.210598 968.173708 492.709567 972.241294 492.206901 976.248314 491.224455 984.095193 491.282486 991.954186 491.501534 999.826099M754 1081L754 940C752.215412 942.746242 750.435655 945.496543 748.641403 948.237102 744.067992 955.221632 739.507466 962.21428 734.888958 969.168775 729.602034 977.130685 724.160489 984.994369 719 993.035022M624.535181 985.683038C626.582401 979.471388 631.547431 975.23301 635 970 622.104612 979.048429 609.376738 988.32233 597 998M754.899522 671.01334C751.762848 680.920782 748.707399 690.860215 745.941011 700.868367 745.278081 703.268807 744.612762 705.679911 744 708.101677 746.06643 708.657356 748.394448 709.563742 751.150086 710.803061 752.745896 711.519875 754.310649 712.938102 755.895708 712.946395 776.558812 713.04829 780.967594 728.67603 786.073945 743.057343 791.007098 756.954066 794.754144 771.244148 799.308651 785.27357 800.501925 788.950058 802.48952 792.461857 804.570283 795.779345 814.889293 812.234089 824.994494 828.83338 835.892821 844.924384 839.37589 850.068861 843.130103 855.045094 846.917761 860 850.096241 851.69443 853.250831 843.379382 856.613259 835.144902 857.468498 833.051329 859.264978 831.334529 860.457057 829.34996 862.154397 826.522986 863.701233 823.61189 865.294653 820.726859 865.674494 820.039665 865.913388 819.275458 866.332646 818.613145 868.734721 814.818175 871.325523 811.126285 873.557984 807.241268 876.271815 802.518587 878.635667 797.609888 881.256331 792.836259 883.943884 787.942964 886.483323 782.94185 889.603274 778.313953 892.191686 774.47159 895.511113 771.088937 898.542673 767.53093 901.917045 763.572456 905.358308 759.669667 908.72193 755.702899 913.478302 750.095158 918.18809 744.449504 922.921767 738.822806 924.485326 736.963828 925.21634 734.619074 927.894338 733.4153 930.088576 732.428347 928.788994 728.860862 925.993939 728.18907 924.130569 727.73884 922.189558 727.433157 920.273631 727.377471 917.452298 727.296903 914.850746 726.898804 912.750871 724.850255 912.335196 724.446232 911.600598 723.990078 911.107283 724.0742 904.989217 725.134611 899.43733 722.684409 893.688355 721.51144 888.988123 720.552923 884.217417 720.943912 879.489712 720.750787 870.590925 720.389418 861.673026 720.543444 852.765877 720.325438 849.771346 720.253164 849.140666 719.025693 850.445026 716.447531 854.391548 708.644323 858.529186 700.927608 862.308483 693.049758 865.073677 687.285621 867.234469 681.251346 869.955468 675.467068 872.328876 670.417377 873.598595 664.733808 878.253438 660.893815 879.19229 656.35004 883.921189 653.852445 884.861235 649.210331 885.208825 647.489976 886.611131 645.90706 887.739903 644.408266 891.695982 639.16545 894.821905 633.485435 897.894077 627.724853 900.07637 623.633679 903.671719 620.236808 905.74651 616.108904 907.427127 612.76298 909.934315 611.321057 913.189241 610.55685 913.280021 610.026052 913.392301 609.511841 913.508164 609L775.06931 609C772.528676 615.32337 770.752502 621.921618 768.6801 628.420341 764.147094 642.63578 759.403861 656.788423 754.899522 671.01334"/>
      </g>
    </g>
  </g>
</svg>
