<svg xmlns="http://www.w3.org/2000/svg" width="1638" height="1024" viewBox="0 0 1638 1024">
  <g fill="none" fill-rule="evenodd" transform="translate(-85 -242)">
    <rect width="1804" height="1446" fill="#23C17C"/>
    <path fill="#F8E71C" d="M462.5712,1142.945 C459.9082,1130.602 466.1492,1119.195 478.2862,1115.267 C489.3972,1111.672 503.4782,1119.462 505.9642,1130.982 C512.8902,1163.087 515.7632,1195.611 511.0162,1228.209 C506.9392,1256.204 495.5212,1281.934 477.6922,1303.841 C463.3722,1321.436 444.0772,1335.363 423.7432,1345.212 C379.3232,1366.728 329.9482,1373.213 281.3492,1377.918 C268.8032,1379.133 259.3522,1366.636 258.8492,1355.418 C258.2692,1342.456 269.6692,1334.049 281.3492,1332.918 C287.5132,1332.321 293.6732,1331.694 299.8262,1331 C302.7012,1330.676 305.5752,1330.338 308.4472,1329.984 C310.3422,1329.75 312.3062,1329.321 314.2122,1329.249 C307.6592,1329.498 312.4352,1329.487 314.0042,1329.266 C326.0392,1327.569 338.0312,1325.522 349.9002,1322.894 C360.1972,1320.614 370.4022,1317.896 380.4102,1314.563 C385.6602,1312.815 390.9252,1310.029 396.2562,1308.65 C390.4732,1310.147 394.3582,1309.441 396.0022,1308.702 C396.8462,1308.322 397.6892,1307.937 398.5282,1307.546 C401.0332,1306.377 403.5132,1305.155 405.9632,1303.875 C410.6132,1301.447 415.1542,1298.811 419.5502,1295.948 C421.6372,1294.589 423.6922,1293.181 425.7092,1291.718 C426.1772,1291.379 429.7062,1288.57 426.6862,1291.038 C423.6522,1293.517 427.1632,1290.631 427.5962,1290.277 C431.7992,1286.84 435.7962,1283.15 439.5372,1279.216 C441.1082,1277.565 442.6332,1275.87 444.1122,1274.135 C444.7652,1273.369 445.8652,1271.403 446.7362,1270.947 C444.6432,1273.69 444.3142,1274.11 445.7492,1272.206 C446.0232,1271.832 446.2972,1271.457 446.5712,1271.083 C449.8512,1266.549 452.8232,1261.795 455.4462,1256.851 C456.8972,1254.117 458.7782,1251.099 459.6472,1248.118 C458.1582,1253.227 458.9752,1249.657 459.5052,1248.273 C459.9852,1247.021 460.4472,1245.762 460.8882,1244.496 C463.0112,1238.404 464.6902,1232.16 465.9762,1225.84 C466.5152,1223.189 466.9582,1220.525 467.3882,1217.856 C468.2862,1212.285 466.9212,1223.009 467.4352,1217.379 C467.5832,1215.751 467.7792,1214.129 467.9172,1212.5 C468.9402,1200.431 468.7902,1188.28 467.7912,1176.215 C467.5162,1172.9 467.1292,1169.6 466.7792,1166.293 C466.1742,1160.58 467.5802,1171.363 466.7102,1165.687 C466.4592,1164.046 466.2232,1162.404 465.9592,1160.766 C464.9982,1154.794 463.8462,1148.857 462.5712,1142.945 Z M22.5114,1057.95389 C12.7804,1049.99889 14.9454,1034.37589 22.5114,1026.13389 C31.2924,1016.56889 45.2334,1018.69689 54.3314,1026.13389 C56.5074,1027.91289 58.6934,1029.67989 60.8994,1031.42189 C61.7524,1032.09589 62.6164,1032.95189 63.5534,1033.50189 C59.6144,1031.19189 61.9954,1032.30789 63.0104,1033.06689 C66.8394,1035.92589 70.6634,1038.78489 74.5584,1041.55489 C82.3454,1047.09089 90.3054,1052.38289 98.4234,1057.42189 C112.9894,1066.46289 128.0594,1074.68989 143.5364,1082.06289 C147.5964,1083.99689 151.6844,1085.87189 155.7984,1087.68789 C157.5984,1088.48189 159.4064,1089.25689 161.2134,1090.03589 C163.6054,1091.06789 159.7674,1089.46189 159.7244,1089.40389 C160.0234,1089.80589 162.2064,1090.42789 162.8434,1090.68789 C170.6524,1093.86689 178.5474,1096.83589 186.5174,1099.58689 C202.7224,1105.18189 219.2364,1109.88089 235.9614,1113.64389 C244.4604,1115.55589 253.0134,1117.22689 261.6074,1118.64989 C263.8254,1119.01689 266.0464,1119.36789 268.2694,1119.70189 C269.3814,1119.86989 270.4944,1120.02689 271.6064,1120.19089 C272.1714,1120.27489 275.0554,1120.64189 271.9564,1120.24989 C268.6724,1119.83589 272.3364,1120.29389 273.1454,1120.39589 C273.9824,1120.50089 274.8194,1120.60389 275.6564,1120.70489 C277.8894,1120.97189 280.1234,1121.21889 282.3594,1121.45689 C294.9394,1122.79689 304.2654,1130.69789 304.8594,1143.95689 C305.3644,1155.21489 294.1024,1167.70789 282.3594,1166.45689 C260.7954,1164.15889 239.3504,1160.73489 218.2494,1155.70489 C146.4564,1138.59189 79.5594,1104.59189 22.5114,1057.95389 Z M346.8519,889.6703 C339.7729,900.0863 327.4639,903.7633 316.0679,897.7423 C305.8229,892.3293 301.3619,876.7173 307.9959,866.9583 C341.7229,817.3373 375.7309,767.4713 416.2729,723.0703 C433.4649,704.2423 451.9509,684.3713 474.1959,671.4643 C498.3549,657.4463 526.9149,654.1523 552.4339,666.5033 C563.5149,671.8663 573.4319,681.7493 578.6309,692.9053 C585.5889,707.8363 586.2969,723.1093 583.8259,739.1683 C582.1719,749.9173 577.9389,759.6623 575.0749,770.0623 C574.5739,771.8853 574.2189,773.7303 573.7759,775.5653 C572.8649,779.3393 574.1359,774.1573 573.9629,773.6893 C574.2829,774.5523 573.7419,776.7233 573.7489,777.6933 C573.7539,778.3933 573.9039,782.8243 573.6539,778.5183 C573.3839,773.8733 574.1049,778.8693 574.0699,779.1223 C572.4649,775.6473 572.2129,774.9423 573.3139,777.0073 C572.6139,776.1413 571.9149,775.2763 571.2149,774.4113 C571.0899,774.3653 572.9629,776.0213 572.9909,776.1713 C572.7409,774.8233 565.5699,772.3883 569.7889,773.7463 C572.2689,774.2443 571.8489,774.1923 568.5289,773.5923 C569.0659,773.5993 569.6019,773.6063 570.1379,773.6133 C571.2119,773.5973 572.2829,773.5313 573.3509,773.4163 C572.3579,773.5413 571.3649,773.6673 570.3719,773.7923 C570.4879,773.4903 576.6249,772.3193 577.2169,772.1343 C578.0519,771.8743 580.3219,770.6193 581.1409,770.7463 C579.0429,770.4203 577.0809,772.6753 579.5639,771.3563 C581.8129,770.1623 584.0619,769.0293 586.2249,767.6753 C587.6079,766.8093 588.9249,765.8563 590.2829,764.9533 C594.2729,762.3013 587.2349,767.5223 589.6569,765.4843 C591.6649,763.7943 593.6789,762.1273 595.6069,760.3433 C599.1859,757.0333 602.5779,753.5273 605.8709,749.9353 C620.8199,733.6253 634.1839,716.4403 651.6769,702.6413 C691.8839,670.9233 741.5839,652.7793 793.0239,653.2903 C805.6389,653.4153 814.9729,663.4993 815.5239,675.7903 C816.0639,687.8573 804.7959,698.4063 793.0239,698.2903 C786.5879,698.2263 780.1609,698.4383 773.7489,698.9993 C771.6129,699.1853 769.4849,699.4293 767.3549,699.6653 C763.1499,700.1303 768.0799,699.4383 768.5569,699.4993 C765.7559,699.1403 761.8699,700.5743 759.0509,701.1263 C746.3789,703.6093 734.1399,707.4583 722.1249,712.1493 C717.4379,713.9783 725.7769,710.4443 721.5769,712.3943 C720.1169,713.0713 718.6429,713.7143 717.1879,714.4013 C714.2789,715.7733 711.4009,717.2143 708.5609,718.7253 C702.8819,721.7453 697.3439,725.0313 691.9789,728.5793 C689.2969,730.3533 686.6579,732.1913 684.0649,734.0923 C682.9709,734.8953 678.7359,737.5533 683.4969,734.4603 C682.1779,735.3173 680.9529,736.4833 679.7409,737.4843 C674.9889,741.4073 670.4239,745.5563 666.0699,749.9183 C651.2459,764.7673 639.2969,782.4413 623.1259,795.9543 C603.2599,812.5573 571.6209,828.1393 546.7559,812.3093 C533.5779,803.9193 527.4029,788.2503 529.0459,773.0093 C530.3739,760.6863 534.9059,750.0453 538.1009,738.2273 C538.9449,735.1063 539.5619,731.9583 540.1839,728.7893 C540.8029,725.6383 540.8799,729.1043 540.0299,730.0203 C540.5689,729.4403 540.3399,726.0863 540.3689,725.2863 C540.4039,724.2653 540.8629,717.7933 540.1359,717.5123 C539.8029,717.3843 541.2039,722.4953 540.2589,718.9453 C539.8719,717.4913 539.4629,715.9853 539.1279,714.5193 C538.0699,709.8873 541.4639,718.3993 539.1189,714.2313 C538.3579,712.8783 537.5479,711.5503 536.7859,710.2003 C534.8939,706.8463 537.3469,711.4903 537.8529,711.5033 C537.4529,711.4923 535.4559,708.9423 535.0809,708.5893 C534.6359,708.1713 531.5359,705.0323 534.2829,707.7883 C536.8439,710.3563 534.0209,707.7433 533.2589,707.2803 C532.3029,706.6993 531.3219,706.1643 530.3229,705.6613 C526.9419,703.9613 529.3999,706.5093 531.3709,706.0313 C530.0689,706.3473 525.0209,704.1913 523.4859,703.7963 C518.8739,702.6113 527.8409,704.1033 524.6849,703.8823 C523.5299,703.8013 522.3819,703.6713 521.2239,703.6213 C518.8959,703.5203 516.5959,703.6293 514.2739,703.7453 C509.2909,703.9933 519.6079,702.5603 514.7509,703.6453 C513.8529,703.8453 512.9439,703.9903 512.0459,704.1953 C510.8099,704.4773 504.1619,707.4773 503.2059,706.9423 C506.0709,705.6833 506.3699,705.5593 504.1009,706.5713 C503.6119,706.8033 503.1239,707.0343 502.6359,707.2653 C501.6639,707.7383 500.6999,708.2303 499.7459,708.7383 C497.3529,710.0153 495.0219,711.4043 492.7459,712.8783 C491.3739,713.7673 490.0239,714.6893 488.6909,715.6373 C488.4809,715.7873 484.1299,718.9943 487.0189,716.8183 C489.7439,714.7663 484.6309,718.7933 484.1629,719.1873 C483.3219,719.8953 482.4859,720.6113 481.6569,721.3343 C479.3779,723.3203 477.1469,725.3633 474.9459,727.4363 C470.4679,731.6543 466.1009,735.9933 461.7979,740.3883 C452.9159,749.4603 444.3499,758.8403 436.0589,768.4533 C427.7589,778.0763 419.7849,787.9583 411.9199,797.9373 C410.3719,799.9303 410.4319,799.8473 412.0989,797.6893 C411.5439,798.4093 410.9909,799.1293 410.4379,799.8503 C409.5169,801.0523 408.5989,802.2563 407.6829,803.4623 C405.8509,805.8763 404.0309,808.2973 402.2199,810.7263 C398.5959,815.5863 395.0119,820.4773 391.4599,825.3913 C376.1799,846.5293 361.5129,868.1003 346.8519,889.6703 Z M1334.99076,1026.39051 C1327.91176,1036.80651 1315.60276,1040.48351 1304.20676,1034.46251 C1293.96176,1029.04951 1289.50076,1013.43751 1296.13476,1003.67851 C1329.86176,954.057511 1363.86976,904.191511 1404.41176,859.790511 C1421.60376,840.962511 1440.08976,821.091511 1462.33476,808.184511 C1486.49376,794.166511 1515.05376,790.872511 1540.57376,803.223511 C1551.65476,808.586511 1561.57076,818.469511 1566.76976,829.625511 C1573.72876,844.556511 1574.43576,859.829511 1571.96476,875.888511 C1570.31076,886.637511 1566.07776,896.382511 1563.21376,906.782511 C1562.71276,908.605511 1562.35776,910.450511 1561.91476,912.285511 C1561.00376,916.059511 1562.27476,910.877511 1562.10176,910.409511 C1562.42176,911.272511 1561.88076,913.443511 1561.88776,914.413511 C1561.89276,915.113511 1562.04276,919.544511 1561.79276,915.238511 C1561.52276,910.593511 1562.24376,915.589511 1562.20876,915.842511 C1560.60376,912.367511 1560.35176,911.662511 1561.45276,913.727511 C1560.75276,912.861511 1560.05276,911.996511 1559.35376,911.131511 C1559.22876,911.085511 1561.10176,912.741511 1561.12976,912.891511 C1560.87976,911.543511 1553.70876,909.108511 1557.92776,910.466511 C1560.40776,910.964511 1559.98776,910.912511 1556.66776,910.312511 C1557.20476,910.319511 1557.74076,910.326511 1558.27676,910.333511 C1559.35076,910.317511 1560.42176,910.251511 1561.48976,910.136511 C1560.49676,910.261511 1559.50376,910.387511 1558.51076,910.512511 C1558.62676,910.210511 1564.76376,909.039511 1565.35576,908.854511 C1566.19076,908.594511 1568.46076,907.339511 1569.27976,907.466511 C1567.18176,907.140511 1565.21976,909.395511 1567.70276,908.076511 C1569.95176,906.882511 1572.20076,905.749511 1574.36376,904.395511 C1575.74676,903.529511 1577.06376,902.576511 1578.42176,901.673511 C1582.41176,899.021511 1575.37376,904.242511 1577.79576,902.204511 C1579.80376,900.514511 1581.81776,898.847511 1583.74576,897.063511 C1587.32476,893.753511 1590.71676,890.247511 1594.00976,886.655511 C1608.95876,870.345511 1622.32376,853.160511 1639.81576,839.361511 C1680.02276,807.643511 1729.72376,789.499511 1781.16276,790.010511 C1793.77776,790.135511 1803.11176,800.219511 1803.66276,812.510511 C1804.20276,824.577511 1792.93476,835.126511 1781.16276,835.010511 C1774.72676,834.946511 1768.29976,835.158511 1761.88776,835.719511 C1759.75176,835.905511 1757.62376,836.149511 1755.49376,836.385511 C1751.28876,836.850511 1756.21876,836.158511 1756.69576,836.219511 C1753.89476,835.860511 1750.00876,837.294511 1747.18976,837.846511 C1734.51776,840.329511 1722.27876,844.178511 1710.26376,848.869511 C1705.57676,850.698511 1713.91576,847.164511 1709.71576,849.114511 C1708.25576,849.791511 1706.78176,850.434511 1705.32676,851.121511 C1702.41776,852.493511 1699.53976,853.934511 1696.69976,855.445511 C1691.02076,858.465511 1685.48276,861.751511 1680.11776,865.299511 C1677.43576,867.073511 1674.79676,868.911511 1672.20376,870.812511 C1671.10976,871.615511 1666.87476,874.273511 1671.63576,871.180511 C1670.31676,872.037511 1669.09176,873.203511 1667.87976,874.204511 C1663.12776,878.127511 1658.56276,882.276511 1654.20876,886.638511 C1639.38476,901.487511 1627.43576,919.161511 1611.26476,932.674511 C1591.39876,949.277511 1559.75976,964.859511 1534.89476,949.029511 C1521.71676,940.639511 1515.54176,924.970511 1517.18476,909.729511 C1518.51276,897.406511 1523.04476,886.765511 1526.23976,874.947511 C1527.08376,871.826511 1527.70076,868.678511 1528.32276,865.509511 C1528.94176,862.358511 1529.01876,865.824511 1528.16876,866.740511 C1528.70776,866.160511 1528.47976,862.806511 1528.50776,862.006511 C1528.54276,860.985511 1529.00176,854.513511 1528.27476,854.232511 C1527.94176,854.104511 1529.34276,859.215511 1528.39776,855.665511 C1528.01076,854.211511 1527.60176,852.705511 1527.26676,851.239511 C1526.20876,846.607511 1529.60276,855.119511 1527.25776,850.951511 C1526.49676,849.598511 1525.68676,848.270511 1524.92476,846.920511 C1523.03276,843.566511 1525.48576,848.210511 1525.99176,848.223511 C1525.59176,848.212511 1523.59476,845.662511 1523.21976,845.309511 C1522.77476,844.891511 1519.67476,841.752511 1522.42276,844.508511 C1524.98276,847.076511 1522.15976,844.463511 1521.39776,844.000511 C1520.44176,843.419511 1519.46076,842.884511 1518.46176,842.381511 C1515.08076,840.681511 1517.53876,843.229511 1519.50976,842.751511 C1518.20776,843.067511 1513.15976,840.911511 1511.62476,840.516511 C1507.01276,839.331511 1515.97976,840.823511 1512.82376,840.602511 C1511.66876,840.521511 1510.52176,840.391511 1509.36276,840.341511 C1507.03476,840.240511 1504.73576,840.349511 1502.41276,840.465511 C1497.42976,840.713511 1507.74676,839.280511 1502.88976,840.365511 C1501.99176,840.565511 1501.08376,840.710511 1500.18476,840.915511 C1498.94876,841.197511 1492.30076,844.197511 1491.34476,843.662511 C1494.20976,842.403511 1494.50876,842.279511 1492.23976,843.291511 C1491.75076,843.523511 1491.26276,843.754511 1490.77476,843.985511 C1489.80276,844.458511 1488.83876,844.950511 1487.88476,845.458511 C1485.49176,846.735511 1483.16076,848.124511 1480.88476,849.598511 C1479.51276,850.487511 1478.16276,851.409511 1476.82976,852.357511 C1476.61976,852.507511 1472.26876,855.714511 1475.15776,853.538511 C1477.88376,851.486511 1472.76976,855.513511 1472.30176,855.907511 C1471.46076,856.615511 1470.62576,857.331511 1469.79576,858.054511 C1467.51676,860.040511 1465.28576,862.083511 1463.08476,864.156511 C1458.60676,868.374511 1454.23976,872.713511 1449.93676,877.108511 C1441.05476,886.180511 1432.48876,895.560511 1424.19776,905.173511 C1415.89776,914.796511 1407.92376,924.678511 1400.05876,934.657511 C1398.51076,936.650511 1398.57076,936.567511 1400.23776,934.409511 C1399.68276,935.129511 1399.12976,935.849511 1398.57676,936.570511 C1397.65576,937.772511 1396.73776,938.976511 1395.82176,940.182511 C1393.99076,942.596511 1392.16976,945.017511 1390.35876,947.446511 C1386.73476,952.306511 1383.15076,957.197511 1379.59876,962.111511 C1364.31876,983.249511 1349.65176,1004.82051 1334.99076,1026.39051 Z M634.253,64.5175 C635.565,51.9355 643.516,42.6105 656.753,42.0175 C668.03,41.5125 680.478,52.7725 679.253,64.5175 C678.648,70.3225 677.642,76.0665 676.768,81.8325 C676.421,84.1195 675.925,90.2035 676.886,80.6775 C676.754,81.9865 676.561,83.2905 676.423,84.5985 C676.124,87.4385 675.905,90.2865 675.79,93.1395 C675.652,96.5265 675.658,99.9205 675.832,103.3065 C675.917,104.9645 676.041,106.6215 676.208,108.2735 C676.311,109.2925 676.85,113.4505 676.213,108.6785 C675.606,104.1315 676.02,107.3255 676.196,108.2725 C676.922,112.1715 677.724,116.0185 678.87,119.8215 C679.426,121.6695 680.042,123.4985 680.716,125.3065 C681.053,126.2095 681.564,127.1415 681.801,128.0775 C680.248,121.9465 680.224,124.4055 681.159,126.4215 C682.965,130.3165 685.047,134.0835 687.364,137.6985 C688.394,139.3045 689.47,140.8805 690.589,142.4255 C691.686,143.9405 694.365,146.1325 689.944,141.6565 C690.493,142.2135 690.988,142.9545 691.481,143.5475 C694.804,147.5435 698.406,151.3035 702.213,154.8385 C703.932,156.4355 705.694,157.9865 707.492,159.4935 C708.325,160.1915 709.866,161.9635 710.902,162.2665 C708.315,160.2855 707.996,160.0305 709.945,161.5025 C710.152,161.6545 710.359,161.8065 710.566,161.9595 C720.809,169.5005 731.909,176.0125 743.475,181.3015 C745.014,182.0055 746.659,182.8825 748.264,183.4195 C742.891,181.6225 748.418,183.4375 749.353,183.8085 C752.064,184.8825 754.792,185.9145 757.527,186.9255 C763.555,189.1515 769.629,191.2505 775.686,193.3955 C789.016,198.1175 802.353,203.1025 815.013,209.4405 C826.786,215.3355 837.5,222.8515 847.758,231.0685 C867.82,247.1375 883.829,268.5085 892.035,292.9715 C900.789,319.0675 898.157,348.5115 888.708,374.0225 C878.38,401.9075 861.701,425.5005 843.147,448.4785 C834.794,458.8225 826.157,468.9345 817.849,479.3145 C816.528,480.9655 815.23,482.6345 813.913,484.2885 C811.644,487.1395 817.067,480.0485 813.561,484.7575 C811.586,487.4095 809.599,490.0485 807.679,492.7415 C804.164,497.6715 800.811,502.7175 797.677,507.8995 C794.087,513.8345 790.773,519.9445 787.856,526.2395 C787.428,527.1625 786.721,528.3705 786.434,529.3885 C787.957,523.9935 786.482,529.3235 786.073,530.3815 C785.043,533.0465 784.089,535.7415 783.224,538.4645 C782.02,542.2535 780.983,546.0965 780.146,549.9835 C779.908,551.0905 779.686,552.2015 779.479,553.3135 C779.249,554.5585 777.716,559.8805 779.256,554.0375 C777.748,559.7585 778.385,566.9235 778.729,572.7355 C779.473,585.3185 767.824,594.7155 756.229,595.2355 C743.581,595.8015 734.422,584.4625 733.729,572.7355 C729.825,506.7065 779.244,457.3895 816.964,409.5735 C818.514,407.5835 818.448,407.6695 816.766,409.8305 C817.497,408.8715 818.224,407.9085 818.946,406.9425 C819.668,405.9765 820.386,405.0075 821.098,404.0345 C823.235,401.1145 825.323,398.1595 827.35,395.1615 C830.621,390.3215 833.724,385.3695 836.583,380.2745 C838.426,376.9915 840.166,373.6505 841.797,370.2575 C842.425,368.9505 843.009,367.6245 843.632,366.3165 C846.152,361.0235 842.018,370.7785 844.072,365.2955 C846.196,359.6255 848.197,353.9585 849.686,348.0795 C850.485,344.9245 852.218,340.4655 851.92,337.2035 C852.307,341.4465 851.641,339.8485 851.786,338.1295 C851.928,336.4385 852.111,334.7565 852.211,333.0615 C852.377,330.2445 852.426,327.4215 852.347,324.6005 C852.3,322.9075 852.207,321.2155 852.067,319.5275 C851.973,318.3995 851.858,317.2735 851.722,316.1495 C851.832,317.0195 851.941,317.8895 852.051,318.7595 C851.579,318.6395 850.196,310.0655 849.978,309.2825 C849.3,306.8505 848.513,304.4495 847.632,302.0845 C847.28,301.1415 846.912,300.2045 846.528,299.2735 C846.886,300.1415 847.244,301.0095 847.602,301.8775 C847.805,301.2985 845.937,298.3685 845.646,297.7965 C844.505,295.5525 843.276,293.3535 841.97,291.2015 C840.391,288.5995 838.644,286.1405 836.924,283.6345 C833.938,279.2805 840.154,287.3905 836.727,283.3585 C835.902,282.3885 835.105,281.3955 834.271,280.4315 C830.752,276.3605 826.973,272.5185 822.99,268.9005 C820.701,266.8205 818.316,264.8645 815.938,262.8885 C811.815,259.4635 819.969,265.7295 815.592,262.6385 C814.33,261.7485 813.095,260.8215 811.827,259.9405 C807.507,256.9395 803.052,254.1225 798.461,251.5535 C794.914,249.5695 791.281,247.7415 787.594,246.0315 C786.541,245.5425 785.478,245.0765 784.421,244.5955 C779.047,242.1465 788.875,246.3105 783.377,244.1415 C777.409,241.7885 771.419,239.5245 765.374,237.3735 C751.979,232.6075 738.614,227.9155 725.552,222.2755 C685.553,205.0045 647.737,174.0925 635.21,130.8785 C631.359,117.5985 630.028,103.2625 630.993,89.4735 C631.453,82.9095 632.389,76.3715 633.375,69.8705 C633.694,67.7695 634.043,65.6745 634.368,63.5745 C634.485,62.8215 634.588,62.0665 634.709,61.3145 C635.092,58.9485 633.765,69.1945 634.253,64.5175 Z M1158.8962,620.4121 C1170.3852,615.1651 1182.5342,617.3991 1189.6802,628.4841 C1195.8082,637.9891 1192.3492,654.3631 1181.6082,659.2681 C1172.9092,663.2411 1164.5812,667.9391 1156.7182,673.3871 C1154.8692,674.6681 1153.0722,676.0151 1151.2552,677.3401 C1149.0052,678.9811 1154.8622,674.4221 1151.6692,677.0421 C1150.8972,677.6761 1150.1162,678.3001 1149.3482,678.9391 C1145.6912,681.9811 1142.1582,685.1671 1138.7452,688.4791 C1132.0372,694.9921 1125.9072,702.0051 1120.0532,709.2871 C1117.4512,712.5221 1121.9532,706.7001 1120.3172,708.9601 C1119.7212,709.7841 1119.0992,710.5911 1118.4972,711.4111 C1117.1412,713.2621 1115.8092,715.1311 1114.5042,717.0191 C1111.7392,721.0201 1109.0862,725.0981 1106.5402,729.2421 C1102.0972,736.4721 1097.9782,743.9001 1094.1512,751.4741 C1092.1792,755.3781 1090.2832,759.3211 1088.4602,763.2971 C1087.6032,765.1651 1086.7632,767.0391 1085.9382,768.9211 C1085.5262,769.8611 1085.1262,770.8061 1084.7142,771.7451 C1083.4792,774.5681 1086.3442,767.7641 1085.1932,770.6191 C1077.9112,788.6691 1071.6842,807.0661 1066.0562,825.6961 C1054.2032,864.9341 1044.5092,904.9121 1029.5042,943.1291 C1003.3092,1009.8451 958.0952,1074.6601 886.3502,1096.4201 C874.2872,1100.0781 862.3472,1092.0611 858.6722,1080.7051 C854.8632,1068.9341 863.1372,1056.4391 874.3872,1053.0271 C879.1532,1051.5821 883.7022,1049.6581 888.3982,1048.0441 C887.2842,1048.4271 884.4052,1049.8091 887.0902,1048.5491 C887.9802,1048.1321 888.8782,1047.7311 889.7662,1047.3081 C891.9812,1046.2531 894.1712,1045.1431 896.3332,1043.9821 C900.2202,1041.8941 904.0162,1039.6351 907.7122,1037.2251 C909.7682,1035.8841 911.7942,1034.4981 913.7892,1033.0681 C914.5882,1032.4951 915.3752,1031.9061 916.1702,1031.3291 C919.2982,1029.0591 915.5222,1031.8001 915.1362,1032.1601 C922.0462,1025.7201 929.4302,1020.0131 935.9662,1013.1211 C939.0662,1009.8531 942.0592,1006.4841 944.9522,1003.0311 C946.4052,1001.2971 947.8042,999.5201 949.2312,997.7641 C950.9892,995.6021 946.4712,1001.4561 948.9452,998.1301 C949.5482,997.3201 950.1562,996.5141 950.7532,995.7011 C960.6452,982.2381 969.1942,967.8101 976.5572,952.8211 C978.4412,948.9861 980.2442,945.1111 981.9722,941.2031 C982.3772,940.2881 982.7652,939.3661 983.1732,938.4521 C984.3552,935.8061 981.7582,941.9421 982.9982,938.8781 C983.9222,936.5941 984.8672,934.3181 985.7722,932.0251 C989.5052,922.5751 992.9122,913.0001 996.1062,903.3551 C1008.8122,864.9841 1018.0802,825.5651 1031.1062,787.2941 C1053.8122,720.5851 1091.8792,651.0201 1158.8962,620.4121 Z M1368.40227,422.738813 C1356.02742,425.26687 1344.69233,420.357197 1340.22307,407.948804 C1336.39029,397.308917 1343.44398,382.132687 1355.01308,379.769601 C1364.38285,377.855278 1373.55423,375.15108 1382.44123,371.611502 C1384.531,370.779268 1386.58496,369.871029 1388.65345,368.988725 C1391.21492,367.895923 1384.48249,371.020538 1388.18302,369.185957 C1389.07785,368.741869 1389.97921,368.309549 1390.87127,367.859689 C1395.11884,365.718301 1399.27798,363.40871 1403.34855,360.949354 C1411.34973,356.112254 1418.9002,350.657946 1426.24225,344.879447 C1429.50528,342.312683 1423.809,346.972735 1425.91146,345.138679 C1426.67754,344.469869 1427.46514,343.823472 1428.23617,343.159909 C1429.9738,341.661384 1431.69209,340.139921 1433.38835,338.593871 C1436.98252,335.317406 1440.48487,331.94072 1443.89781,328.475656 C1449.85334,322.430418 1455.5377,316.119371 1460.9704,309.600379 C1463.77006,306.240042 1466.50445,302.824608 1469.17513,299.360599 C1470.43038,297.733258 1471.67041,296.096248 1472.89762,294.448068 C1473.51051,293.62484 1474.11284,292.794041 1474.72551,291.971787 C1476.56389,289.498955 1472.24176,295.484084 1474.00549,292.961176 C1485.16122,277.01189 1495.36705,260.487174 1505.04164,243.600684 C1525.41748,208.034697 1543.85611,171.262006 1567.07349,137.399895 C1607.60495,78.2864151 1666.24032,25.3035563 1741.04144,20.2403771 C1753.61813,19.389716 1763.44868,29.8871564 1764.47495,41.7787979 C1765.53842,54.1049465 1754.66572,64.4184555 1742.93652,65.2123068 C1737.96762,65.5481548 1733.10241,66.3995405 1728.16369,66.9158036 C1729.3353,66.7932153 1732.45139,66.09427 1729.55177,66.7179827 C1728.59078,66.9240886 1727.62559,67.1128049 1726.66519,67.3252069 C1724.26964,67.8549008 1721.88607,68.4438087 1719.51832,69.0887082 C1715.26124,70.2488081 1711.05437,71.5959959 1706.91097,73.1128087 C1704.606,73.9569395 1702.32015,74.8516656 1700.0546,75.7962375 C1699.14718,76.1748156 1698.24785,76.5716831 1697.34343,76.9550585 C1693.78496,78.4632317 1698.08078,76.6418985 1698.53787,76.3779564 C1690.35628,81.0984878 1681.87774,84.9981792 1673.95889,90.2432576 C1670.20321,92.7301507 1666.52906,95.339525 1662.93345,98.0532414 C1661.12762,99.4159452 1659.36474,100.832694 1657.5793,102.222683 C1655.38001,103.933807 1661.09908,99.2461736 1657.9403,101.9304 C1657.17055,102.583994 1656.39682,103.232566 1655.63224,103.890433 C1642.96525,114.783161 1631.38977,126.918266 1620.84369,139.866784 C1618.14529,143.179686 1615.51681,146.549783 1612.95399,149.968906 C1612.35354,150.769349 1611.76808,151.580437 1611.16494,152.379232 C1609.41801,154.691523 1613.32875,149.296986 1611.43128,152.003516 C1610.01717,154.021123 1608.58441,156.02621 1607.18679,158.05686 C1601.42368,166.424915 1595.95009,174.9881 1590.6683,183.667406 C1569.65636,218.196731 1551.75855,254.520579 1530.4573,288.880483 C1493.327,348.771997 1440.58693,407.990839 1368.40227,422.738813 Z M219.385229,6.34188052 C229.174229,-1.60811948 241.459229,-2.60511948 251.205229,6.34188052 C259.528229,13.9828805 260.381229,30.7098805 251.205229,38.1618805 C246.686229,41.8318805 242.451229,45.8158805 238.598229,50.1848805 C237.644229,51.2658805 236.730229,52.3748805 235.806229,53.4808805 C232.672229,57.2328805 238.070229,50.2728805 236.247229,52.9078805 C234.746229,55.0778805 233.199229,57.2038805 231.785229,59.4338805 C228.822229,64.1088805 226.209229,69.0028805 223.915229,74.0388805 C221.528229,79.2788805 225.252229,70.4238805 223.619229,74.6818805 C223.270229,75.5908805 222.910229,76.4938805 222.570229,77.4048805 C221.546229,80.1508805 220.608229,82.9288805 219.754229,85.7328805 C218.175229,90.9188805 216.875229,96.1878805 215.832229,101.506881 C215.614229,102.619881 215.213229,109.663881 214.342229,110.315881 C214.769229,107.045881 214.874229,106.284881 214.658229,108.035881 C214.565229,108.776881 214.479229,109.518881 214.398229,110.261881 C214.235229,111.748881 214.091229,113.237881 213.964229,114.727881 C213.033229,125.628881 213.039229,136.609881 213.889229,147.516881 C214.140229,150.723881 214.510229,153.912881 214.853229,157.111881 C215.501229,163.142881 214.314229,153.887881 214.911229,157.613881 C215.157229,159.150881 215.366229,160.692881 215.612229,162.229881 C216.597229,168.373881 217.765229,174.486881 219.070229,180.569881 C221.687229,192.764881 224.854229,204.833881 228.195229,216.847881 C234.942229,241.111881 242.452229,265.205881 247.650229,289.868881 C257.641229,337.263881 259.043229,387.976881 237.308229,432.438881 C198.520229,511.782881 101.105229,526.790881 22.5212291,534.398881 C9.97522908,535.613881 0.524229077,523.116881 0.0212290767,511.898881 C-0.558770923,498.936881 10.8412291,490.529881 22.5212291,489.398881 C33.3902291,488.346881 44.4932291,486.143881 55.3842291,485.729881 C48.9292291,485.975881 53.6252291,485.965881 55.1762291,485.746881 C56.3802291,485.577881 57.5832291,485.403881 58.7862291,485.226881 C61.4352291,484.836881 64.0802291,484.429881 66.7232291,484.000881 C72.0062291,483.144881 77.2772291,482.205881 82.5272291,481.165881 C93.3962291,479.011881 104.187229,476.426881 114.791229,473.204881 C119.772229,471.691881 124.713229,470.040881 129.591229,468.220881 C132.004229,467.319881 134.391229,466.357881 136.781229,465.397881 C138.364229,464.742881 137.645229,465.045881 134.624229,466.306881 C135.477229,465.937881 136.326229,465.563881 137.173229,465.182881 C138.018229,464.803881 138.860229,464.417881 139.700229,464.026881 C147.984229,460.165881 156.005229,455.707881 163.551229,450.543881 C164.671229,449.776881 165.781229,448.995881 166.880229,448.199881 C167.349229,447.859881 170.878229,445.050881 167.857229,447.518881 C164.824229,449.997881 168.335229,447.112881 168.768229,446.757881 C169.467229,446.185881 170.161229,445.606881 170.848229,445.021881 C174.293229,442.086881 177.592229,438.977881 180.709229,435.696881 C182.437229,433.878881 184.110229,432.009881 185.726229,430.090881 C186.307229,429.400881 187.145229,427.826881 187.908229,427.427881 C185.748229,428.556881 185.407229,430.810881 186.921229,428.686881 C189.816229,424.624881 192.603229,420.526881 195.058229,416.178881 C196.518229,413.592881 197.883229,410.954881 199.152229,408.270881 C199.708229,407.092881 200.455229,405.846881 200.818229,404.598881 C199.409229,409.433881 199.958229,406.706881 200.389229,405.505881 C202.209229,400.441881 203.975229,395.405881 205.328229,390.189881 C206.687229,384.953881 207.660229,379.665881 208.560229,374.336881 C209.498229,368.778881 208.101229,379.483881 208.607229,373.859881 C208.704229,372.775881 208.840229,371.693881 208.942229,370.610881 C209.200229,367.891881 209.394229,365.165881 209.531229,362.437881 C210.084229,351.419881 209.721229,340.363881 208.667229,329.384881 C208.508229,327.729881 208.334229,326.076881 208.145229,324.424881 C208.107229,324.087881 207.495229,318.627881 207.931229,322.468881 C208.366229,326.300881 207.693229,320.869881 207.641229,320.524881 C207.477229,319.431881 207.307229,318.338881 207.131229,317.246881 C206.257229,311.815881 205.237229,306.407881 204.089229,301.028881 C201.497229,288.885881 198.347229,276.868881 195.026229,264.908881 C182.127229,218.442881 166.206229,171.075881 168.473229,122.193881 C170.460229,79.3548805 185.070229,34.2098805 219.385229,6.34188052 Z M848.4937,612.8338 C840.1147,603.4338 839.8587,590.4208 848.4937,581.0138 C856.3917,572.4108 872.4577,572.2008 880.3137,581.0138 C893.9007,596.2568 906.3147,612.6928 917.0357,630.0788 C953.3547,688.9748 971.7287,759.5898 967.8447,828.7238 C967.1367,841.3338 958.1007,850.6528 945.3447,851.2238 C933.6667,851.7468 922.1837,840.4958 922.8447,828.7238 C923.8697,810.4788 923.3497,792.1828 921.2207,774.0318 C921.0637,772.6998 920.7717,771.3078 920.7187,769.9738 C920.7207,770.0208 921.3767,774.4918 920.9677,771.9048 C920.6697,770.0208 920.4107,768.1298 920.1067,766.2468 C919.4977,762.4788 918.8217,758.7228 918.0807,754.9788 C916.4927,746.9558 914.5977,738.9918 912.4087,731.1118 C910.2927,723.4918 907.8987,715.9498 905.2357,708.5038 C903.8577,704.6518 902.4087,700.8268 900.8887,697.0288 C900.4837,696.0158 900.0687,695.0078 899.6577,693.9978 C899.4507,693.4898 898.3967,690.8748 899.5257,693.6678 C900.7537,696.7038 898.4087,691.1558 898.0487,690.3538 C891.4767,675.6758 883.8177,661.4828 875.1317,647.9468 C870.8597,641.2908 866.3057,634.8398 861.5907,628.4908 C858.3767,624.1628 863.5857,630.9688 861.6217,628.5058 C860.9417,627.6538 860.2727,626.7928 859.5917,625.9418 C858.3997,624.4508 857.1947,622.9718 855.9757,621.5038 C853.5357,618.5668 851.0337,615.6838 848.4937,612.8338 Z"/>
    <path fill="#FFF" d="M849.253,837.2676 C849.253,879.6556 814.891,914.0176 772.503,914.0176 C730.115,914.0176 695.753,879.6556 695.753,837.2676 C695.753,794.8796 730.115,760.5176 772.503,760.5176 C814.891,760.5176 849.253,794.8796 849.253,837.2676 Z M757.430279,1113.75 C757.430279,1156.138 723.068279,1190.5 680.680279,1190.5 C638.292279,1190.5 603.930279,1156.138 603.930279,1113.75 C603.930279,1071.362 638.292279,1037 680.680279,1037 C723.068279,1037 757.430279,1071.362 757.430279,1113.75 Z M1102.253,505.2676 C1102.253,547.6556 1067.891,582.0176 1025.503,582.0176 C983.115,582.0176 948.753,547.6556 948.753,505.2676 C948.753,462.8796 983.115,428.5176 1025.503,428.5176 C1067.891,428.5176 1102.253,462.8796 1102.253,505.2676 Z M1803.5,610.75 C1803.5,653.138 1769.138,687.5 1726.75,687.5 C1684.362,687.5 1650,653.138 1650,610.75 C1650,568.362 1684.362,534 1726.75,534 C1769.138,534 1803.5,568.362 1803.5,610.75 Z M1102.253,1369.2648 C1102.253,1411.6528 1067.891,1446.0148 1025.503,1446.0148 C983.115,1446.0148 948.753,1411.6528 948.753,1369.2648 C948.753,1326.8768 983.115,1292.5148 1025.503,1292.5148 C1067.891,1292.5148 1102.253,1326.8768 1102.253,1369.2648 Z"/>
  </g>
</svg>
