<svg xmlns="http://www.w3.org/2000/svg" width="1638" height="1024" viewBox="0 0 1638 1024">
  <g fill="none" fill-rule="evenodd" transform="translate(-161 -270)">
    <rect width="2349" height="1554" fill="#FFF"/>
    <path fill="#000" d="M771.739083,940.076463 C764.242545,935.444524 757.498719,929.693789 751.061,923.630219 C743.245,916.268219 734.796,910.244219 725.344,905.126219 C707.813,895.634219 690.824,885.150219 673.465,875.335219 C651.846,863.111219 629.954,851.366219 608.411,839.012219 C584.198,825.126219 558.25,814.923219 532.77,803.915219 C510.857,794.446219 489.513,784.244219 469.151,771.880219 C450.571,760.597219 431.593,749.907219 413.575,737.789219 C404.65,731.787219 397.491,723.161219 390,716.159219 C394.089,706.199219 398.97,697.738219 400.964,688.644219 C403.92,675.158219 410.304,663.380219 415.816,651.067219 C418.767,644.474219 420.558,637.323219 422.476,630.315219 C428.551,608.128219 434.23,585.830219 440.532,563.709219 C442.329,557.402219 446.015,551.661219 448.331,545.471219 C452.625,533.992219 456.605,522.395219 460.612,510.811219 C467.995,489.471219 475.436,468.150219 482.597,446.736219 C487.626,431.695219 492.132,416.481219 497.101,401.421219 C498.21,398.058219 500.628,395.139219 501.838,391.797219 C505.435,381.867219 508.903,371.883219 512.099,361.818219 C515.37505,351.504455 518.52687,341.148154 521.565556,330.760414 C520.988177,330.580483 520.386942,330.296933 519.773423,329.910076 C517.656317,328.575531 515.582842,327.172113 512.972114,325.460074 C506.541999,332.317327 498.555475,336.949903 492.90161,344.603075 C488.179637,350.995121 482.110295,356.571106 475.940667,361.66759 C471.421873,365.40029 468.175557,369.605993 466.285726,374.949375 C465.614972,376.844638 464.653776,377.810787 462.98601,379.084908 C459.706482,381.589617 457.224043,385.225508 454.711648,388.614501 C451.906857,392.399179 449.497355,396.473637 446.80327,400.34408 C442.01357,407.226022 436.956871,413.929939 432.344302,420.926234 C425.92656,430.661141 419.78298,440.576674 413.600327,450.464269 C412.347386,452.468686 411.116586,454.591355 410.438018,456.829675 C407.777146,465.601033 402.303668,471.883924 395.233407,477.74644 C388.391071,483.421833 382.929966,490.843702 377.280009,497.834799 C372.412814,503.857798 368.125853,510.348603 363.60185,516.646438 C362.245365,518.535203 361.269842,520.336905 358.247545,520.61304 C356.484701,520.774174 354.694505,523.325664 353.379047,525.136462 C350.181573,529.537735 346.916371,530.166674 342.719278,526.670475 C337.714677,522.501806 335.060968,517.044072 333.879661,510.687112 C331.429132,497.503436 331.122408,484.119644 329.782204,470.833311 C329.028095,463.358814 327.170173,455.994772 325.687353,447.913428 C319.377712,450.542236 316.3743,454.935062 313.599465,459.151811 C309.514382,465.360633 306.433475,472.219835 302.486449,478.529365 C298.526399,484.860986 294.033003,490.861894 289.755811,496.995347 C289.515512,497.340354 288.870156,497.54242 288.827175,497.865336 C287.834721,505.330736 280.55607,508.773657 277.798818,515.013016 C275.099524,521.11918 273.386823,527.67171 270.528633,533.69146 C266.025468,543.175572 262.454195,553.19961 255.363745,561.321237 C253.746774,563.174268 252.777112,565.611406 251.61469,567.834133 C249.528191,571.822177 247.405224,575.797876 245.537534,579.887928 C244.763237,581.581125 244.464329,583.533564 244.194725,585.404137 C243.468618,590.442145 239.881064,591.977458 235.47949,589.189465 C228.930853,585.040288 225.506754,578.377305 222.542415,571.819578 C218.123258,562.040488 214.044686,552.032044 211.822083,541.423899 C207.998789,523.176226 199.377329,506.619151 193.241563,489.18494 C192.971308,488.41631 192.417123,487.676267 191.813445,487.118149 C191.387549,486.725062 190.653628,486.663987 189.812907,486.36901 C185.591719,490.034138 183.698631,495.145565 181.668137,500.067921 C178.128774,508.647609 174.97493,517.385181 171.520225,526.000603 C167.202006,536.769232 163.118225,547.654812 158.228889,558.164198 C154.147712,566.936206 148.667722,575.057184 144.507749,583.798004 C139.688744,593.924049 135.420669,604.330128 131.383124,614.795333 C130.20898,617.83802 130.645296,621.499249 130.350294,624.79793 C122.908188,626.002529 116.801076,621.719508 115.645166,614.669285 C115.366446,612.970241 115.399658,611.221167 115.245319,609.498732 C114.019729,595.782278 112.70362,582.07362 111.589388,568.348069 C111.153072,562.979998 111.207123,557.572944 110.962266,552.18733 C110.217274,535.801134 109.674159,519.400644 108.598349,503.035889 C107.565519,487.329961 105.658104,471.719543 102.18256,456.309241 C100.001635,446.641256 99.2585963,436.852421 100.549308,426.864768 C101.339885,420.748857 100.918548,414.678428 98.4458776,408.519635 C96.0813092,402.629831 95.4424654,395.959051 94.654493,389.556609 C93.8958254,383.39067 94.2318533,377.092185 93.4972807,370.921697 C92.8877417,365.80832 91.7520195,360.696893 90.2698499,355.757644 C85.5153155,339.911374 81.5064245,323.920863 79.2063265,307.515176 C78.5570633,302.887147 77.171925,298.365675 76.424328,293.746743 C75.5751412,288.500821 75.2586498,283.166536 74.3358755,277.936208 C73.6989854,274.330855 72.385481,270.848301 71.4470775,267.292327 C69.8535498,261.255034 72.5854046,257.068823 78.5961363,256.224823 C89.018211,254.760981 99.4943368,253.591466 109.844778,251.730639 C118.869992,250.107613 127.712215,247.492449 136.714637,245.712838 C143.021021,244.466655 149.498024,244.104106 155.831108,242.969027 C168.947267,240.618303 181.987234,237.838757 195.120324,235.595239 C201.19748,234.55762 207.418555,234.351655 213.577764,233.801984 C214.419787,233.727265 215.32042,234.032638 216.124673,233.852663 C232.662977,230.1492 249.416182,230.941871 266.163526,231.297274 C269.758894,231.373292 273.373148,230.43963 276.973726,230.476664 C285.61863,230.566327 293.971789,229.111581 302.39072,227.228663 C311.747404,225.135882 321.337224,224.082669 330.820895,222.550606 C340.309125,221.017892 349.777167,219.351984 359.283631,217.944018 C363.898805,217.261152 368.622081,216.426249 373.224881,216.733571 C381.550038,217.28974 389.460369,215.226847 397.278228,213.338081 C408.759832,210.564383 420.281161,208.528128 431.977667,206.887559 C443.594074,205.258036 454.991671,202.023029 466.453088,199.353288 C477.560243,196.766062 476.8413,197.489862 485.516811,205.042326 C490.867209,209.699592 492.731643,215.04947 494.831166,220.989954 C498.330805,230.892492 502.234199,240.652739 505.78268,250.538384 C508.973642,259.427993 511.769968,268.459243 515.02475,277.324162 C516.923047,282.494715 519.448466,287.432664 521.555152,292.531097 C522.612077,295.087786 523.534852,297.72634 524.218629,300.403878 C525.173818,304.147002 526.236961,307.890125 527.023486,311.667224 C532.088833,293.604917 536.979079,275.491467 542.426,257.545219 C548.158,238.664219 554.617,219.998219 561.034,201.333219 C565.015,189.755219 569.587,178.382219 573.76,166.869219 C576.345,159.739219 580.975,156.496219 588.819,156.606219 C600.733,156.773219 612.673,156.302219 624.575,155.619219 C629.8,155.318219 634.964,153.861219 640.139,152.840219 C641.087,152.653219 641.913,151.805219 642.858,151.655219 C656.905,149.425219 670.925,146.980219 685.024,145.144219 C711.692,141.673219 738.427,143.111219 765.155,144.626219 C778.748,145.396219 792.357,145.967219 805.967,146.349219 C821.165,146.776219 836.385,147.352219 851.574,146.982219 C862.729,146.710219 873.843,144.929219 884.989,143.981219 C900.941,142.623219 916.688,144.903219 932.394,147.174219 C939.615,148.218219 946.69,150.243219 953.892,151.460219 C956.736,151.940219 959.76,151.590219 962.678,151.337219 C967.926,150.882219 973.297,150.771219 978.356,149.486219 C984.03,148.046219 986.788,151.656219 990.361,154.501219 C994.701,157.954219 992.894,161.743219 992.282,166.109219 C990.869,176.179219 990.613,186.406219 989.634,196.545219 C989.06,202.493219 987.615,208.370219 987.243,214.322219 C986.544,225.506219 987.02,236.795219 985.793,247.905219 C982.944,273.701219 992.758,297.082219 998.64,321.242219 C999.572,325.069219 999.556,329.121219 1000.415,332.971219 C1005.749,356.864219 1007.18,381.041219 1006.461,405.454219 C1006.278,411.692219 1006.574,418.318219 1008.492,424.161219 C1011.966,434.746219 1012.41,445.672219 1014.267,456.437219 C1015.434,463.204219 1017.137,470.343219 1020.562,476.159219 C1027.338,487.668219 1030.338,500.291219 1031.592,512.972219 C1032.827,525.460219 1036.616,536.917219 1040.271,548.633219 C1044.746,562.979219 1048.687,577.491219 1052.833,591.841219 C1050.134,593.866219 1048.069,595.415219 1045.854,597.076219 C1036.901,593.857219 1034.584,585.986219 1032.502,578.362219 C1028.666,564.311219 1025.255,550.139219 1021.898,535.964219 C1020.451,529.850219 1019.136,523.643219 1018.536,517.404219 C1017.186,503.385219 1013.206,490.231219 1007.566,477.370219 C1004.943,471.388219 1003.477,464.807219 1002.163,458.359219 C999.185,443.740219 996.109,429.106219 994.098,414.338219 C992.942,405.852219 993.124,397.035219 993.881,388.471219 C995.281,372.638219 992.717,357.401219 989.106,342.132219 C984.372,322.118219 979.598,302.093219 975.717,281.904219 C973.54,270.580219 972.027,258.902219 972.166,247.407219 C972.418,226.471219 974.218,205.557219 975.17,184.625219 C975.497,177.435219 975.222,170.217219 975.222,162.930219 C974.806,162.592219 974.265,161.785219 973.794,161.823219 C956.681,163.218219 940.36,158.446219 923.737,155.771219 C907.986,153.236219 892.094,153.494219 876.078,154.292219 C851.237,155.530219 826.304,155.570219 801.425,155.171219 C779.874,154.826219 758.353,152.685219 736.801,152.224219 C716.566,151.792219 696.384,153.107219 676.536,157.815219 C664.651,160.633219 652.723,163.600219 640.642,165.179219 C627.679,166.874219 614.522,167.420219 601.433,167.714219 C591.647,167.933219 585.014,171.491219 581.749,181.025219 C577.164,194.417219 572.254,207.696219 567.551,221.048219 C563.377,232.895219 559.204,244.746219 555.216,256.657219 C553.429,261.994219 552.048,267.470219 550.561,272.905219 C543.62,298.272219 537.002,323.732219 529.648,348.978219 C526.436,360.007219 521.587,370.550219 517.758,381.412219 C514.044,391.949219 510.804,402.653219 507.125,413.204219 C505.18,418.780219 502.385,424.073219 500.607,429.693219 C497.335,440.029219 494.86,450.621219 491.439,460.902219 C488.112,470.899219 483.799,480.563219 480.303,490.508219 C473.719,509.236219 466.678,527.853219 461.293,546.931219 C458.556,556.623219 456.071,566.191219 452.199,575.582219 C448.72,584.020219 446.786,593.396219 446.025,602.512219 C445.693,606.493219 445.306,609.176219 442.529,611.833219 C441.482,612.835219 441.018,614.630219 440.679,616.150219 C439.838,619.923219 439.211,623.742219 438.52,627.547219 C436.816,636.936219 435.665,646.468219 433.281,655.681219 C430.716,665.593219 427.03,675.216219 423.774,684.946219 C421.818,690.790219 419.748,696.596219 417.481,703.136219 C420.692,703.631219 423.143,704.008219 426.516,704.528219 C424.934,705.025219 424.14,705.555219 423.448,705.445219 C418.964,704.735219 414.823,705.663219 414.392,710.622219 C413.985,715.305219 409.938,720.104219 416.278,724.985219 C434.834,739.274219 454.449,751.801219 474.472,763.885219 C487.48,771.735219 500.165,780.069219 514.126,786.157219 C529.585,792.898219 545.233,799.213219 560.609,806.134219 C580.855,815.250219 601.029,824.544219 620.996,834.250219 C628.342,837.820219 635.018,842.773219 641.99,847.112219 C644.81,848.867219 647.526,850.805219 650.424,852.418219 C667.503,861.922219 684.659,871.288219 701.714,880.835219 C711.791,886.476219 721.656,892.497219 731.772,898.066219 C734.881,899.778219 738.861,899.996219 741.818,901.878219 C750.122,907.161219 758.248,912.756219 766.161,918.610219 C769.473292,921.059907 772.557566,923.835379 775.697456,926.521513 C781.981758,904.62275 787.776158,882.579441 794.391731,860.782777 C800.123731,841.901777 806.582731,823.235777 812.999731,804.570777 C816.980731,792.992777 821.552731,781.619777 825.725731,770.106777 C828.310731,762.976777 832.940731,759.733777 840.784731,759.843777 C852.698731,760.010777 864.638731,759.539777 876.540731,758.856777 C881.765731,758.555777 886.929731,757.098777 892.104731,756.077777 C893.052731,755.890777 893.878731,755.042777 894.823731,754.892777 C908.870731,752.662777 922.890731,750.217777 936.989731,748.381777 C950.111816,746.673859 963.250124,746.154492 976.395837,746.248019 C983.529019,737.430954 991.131041,728.965697 998.335,720.195219 C1001.06,716.877219 1003.511,713.290219 1005.74,709.614219 C1013.649,696.577219 1021.59,683.552219 1029.175,670.325219 C1038.08,654.796219 1047.237,639.360219 1055.087,623.298219 C1059.525,614.219219 1061.898,604.055219 1064.534,594.201219 C1065.927,588.991219 1068.233,586.757219 1073.502,588.796219 C1077.498,590.342219 1081.163,592.745219 1086.723,595.694219 C1084.396,601.364219 1082.332,606.407219 1080.251,611.442219 C1079.997,612.056219 1079.326,612.681219 1079.402,613.222219 C1080.851,623.407219 1073.08,629.792219 1069.215,637.738219 C1066.39,643.545219 1062.693,648.922219 1059.53,654.572219 C1055.528,661.724219 1051.831,669.051219 1047.715,676.136219 C1042.757,684.671219 1037.526,693.047219 1032.356,701.457219 C1029.812,705.593219 1026.706,709.441219 1024.607,713.783219 C1018.36,726.704219 1007.508,735.628219 998.032,745.825219 C997.725625,746.154949 997.420926,746.486357 997.117841,746.819367 C1003.78514,747.112704 1010.45315,747.485844 1017.12073,747.863777 C1030.71373,748.633777 1044.32273,749.204777 1057.93273,749.586777 C1073.13073,750.013777 1088.35073,750.589777 1103.53973,750.219777 C1114.69473,749.947777 1125.80873,748.166777 1136.95473,747.218777 C1152.90673,745.860777 1168.65373,748.140777 1184.35973,750.411777 C1191.58073,751.455777 1198.65573,753.480777 1205.85773,754.697777 C1208.70173,755.177777 1211.72573,754.827777 1214.64373,754.574777 C1219.89173,754.119777 1225.26273,754.008777 1230.32173,752.723777 C1235.99573,751.283777 1238.75373,754.893777 1242.32673,757.738777 C1246.66673,761.191777 1244.85973,764.980777 1244.24773,769.346777 C1242.83473,779.416777 1242.57873,789.643777 1241.59973,799.782777 C1241.02573,805.730777 1239.58073,811.607777 1239.20873,817.559777 C1238.50973,828.743777 1238.98573,840.032777 1237.75873,851.142777 C1234.90973,876.938777 1244.72373,900.319777 1250.60573,924.479777 C1251.53773,928.306777 1251.52173,932.358777 1252.38073,936.208777 C1257.71473,960.101777 1259.14573,984.278777 1258.42673,1008.69178 C1258.24373,1014.92978 1258.53973,1021.55578 1260.45773,1027.39878 C1263.93173,1037.98378 1264.37573,1048.90978 1266.23273,1059.67478 C1267.39973,1066.44178 1269.10273,1073.58078 1272.52773,1079.39678 C1279.30373,1090.90578 1282.30373,1103.52878 1283.55773,1116.20978 C1284.79273,1128.69778 1288.58173,1140.15478 1292.23673,1151.87078 C1296.71173,1166.21678 1300.65273,1180.72878 1304.79873,1195.07878 C1302.09973,1197.10378 1300.03473,1198.65278 1297.81973,1200.31378 C1288.86673,1197.09478 1286.54973,1189.22378 1284.46773,1181.59978 C1280.63173,1167.54878 1277.22073,1153.37678 1273.86373,1139.20178 C1272.41673,1133.08778 1271.10173,1126.88078 1270.50173,1120.64178 C1269.15173,1106.62278 1265.17173,1093.46878 1259.53173,1080.60778 C1256.90873,1074.62578 1255.44273,1068.04478 1254.12873,1061.59678 C1251.15073,1046.97778 1248.07473,1032.34378 1246.06373,1017.57578 C1244.90773,1009.08978 1245.08973,1000.27278 1245.84673,991.708777 C1247.24673,975.875777 1244.68273,960.638777 1241.07173,945.369777 C1236.33773,925.355777 1231.56373,905.330777 1227.68273,885.141777 C1225.50573,873.817777 1223.99273,862.139777 1224.13173,850.644777 C1224.38373,829.708777 1226.18373,808.794777 1227.13573,787.862777 C1227.46273,780.672777 1227.18773,773.454777 1227.18773,766.167777 C1226.77173,765.829777 1226.23073,765.022777 1225.75973,765.060777 C1208.64673,766.455777 1192.32573,761.683777 1175.70273,759.008777 C1159.95173,756.473777 1144.05973,756.731777 1128.04373,757.529777 C1103.20273,758.767777 1078.26973,758.807777 1053.39073,758.408777 C1032.18432,758.069293 1011.00695,755.990784 989.80051,755.485164 C986.27129,759.946758 982.914683,764.560824 979.606,769.175219 C971.632,780.295219 961.273,788.352219 949.765,795.524219 C941.638,800.589219 934.68,807.487219 926.887,813.134219 C911.308,824.423219 902.023,841.193219 889.622,855.239219 C888.745,856.232219 888.248,857.698219 887.205,858.383219 C880.306,862.917219 876.874,869.959219 872.67,876.708219 C866.615,886.428219 860.846,896.250219 855.892,906.556219 C854.17,910.140219 852.379,913.749219 851.204,917.528219 C848.3,926.871219 843.056,934.848219 837.185,942.465219 C836.078,943.901219 834.229,945.372219 832.534,945.643219 C825.158,946.823219 818.098,951.375219 810.21,947.972219 C809.466,947.651219 808.221,947.990219 807.407,948.408219 C799.41,952.524219 792.028,949.269219 784.667,946.495219 C784.244571,946.336038 783.824631,946.172963 783.407125,946.006095 C782.81388,948.077313 782.216276,950.147263 781.613731,952.215777 C778.401731,963.244777 773.552731,973.787777 769.723731,984.649777 C766.009731,995.186777 762.769731,1005.89078 759.090731,1016.44178 C757.145731,1022.01778 754.350731,1027.31078 752.572731,1032.93078 C749.300731,1043.26678 746.825731,1053.85878 743.404731,1064.13978 C740.077731,1074.13678 735.764731,1083.80078 732.268731,1093.74578 C725.684731,1112.47378 718.643731,1131.09078 713.258731,1150.16878 C710.521731,1159.86078 708.036731,1169.42878 704.164731,1178.81978 C700.685731,1187.25778 698.751731,1196.63378 697.990731,1205.74978 C697.658731,1209.73078 697.271731,1212.41378 694.494731,1215.07078 C693.447731,1216.07278 692.983731,1217.86778 692.644731,1219.38778 C691.803731,1223.16078 691.176731,1226.97978 690.485731,1230.78478 C688.781731,1240.17378 687.630731,1249.70578 685.246731,1258.91878 C682.681731,1268.83078 678.995731,1278.45378 675.739731,1288.18378 C673.783731,1294.02778 671.713731,1299.83378 669.446731,1306.37378 C672.657731,1306.86878 675.108731,1307.24578 678.481731,1307.76578 C676.899731,1308.26278 676.105731,1308.79278 675.413731,1308.68278 C670.929731,1307.97278 666.788731,1308.90078 666.357731,1313.85978 C665.950731,1318.54278 661.903731,1323.34178 668.243731,1328.22278 C686.799731,1342.51178 706.414731,1355.03878 726.437731,1367.12278 C739.445731,1374.97278 752.130731,1383.30678 766.091731,1389.39478 C781.550731,1396.13578 797.198731,1402.45078 812.574731,1409.37178 C832.820731,1418.48778 852.994731,1427.78178 872.961731,1437.48778 C880.307731,1441.05778 886.983731,1446.01078 893.955731,1450.34978 C896.775731,1452.10478 899.491731,1454.04278 902.389731,1455.65578 C919.468731,1465.15978 936.624731,1474.52578 953.679731,1484.07278 C963.756731,1489.71378 973.621731,1495.73478 983.737731,1501.30378 C986.846731,1503.01578 990.826731,1503.23378 993.783731,1505.11578 C1002.08773,1510.39878 1010.21373,1515.99378 1018.12673,1521.84778 C1024.19373,1526.33478 1029.49573,1531.91478 1035.77573,1536.03678 C1040.00573,1538.81378 1044.76073,1541.41778 1050.68973,1539.99378 C1054.74473,1539.01978 1059.16273,1539.35178 1063.41273,1539.43578 C1070.95773,1539.58278 1076.79173,1536.02178 1079.35773,1529.51578 C1087.24373,1509.51978 1098.99573,1491.52178 1108.03573,1472.14678 C1116.15473,1465.95578 1118.98473,1455.41778 1127.33773,1449.18578 C1131.70773,1445.92678 1134.56173,1440.64978 1138.15273,1436.32778 C1153.92273,1417.34878 1171.63173,1400.42478 1192.66073,1387.40978 C1205.19673,1379.65078 1213.80273,1368.59078 1222.42273,1357.09078 C1231.14873,1345.44778 1241.05273,1334.69178 1250.30073,1323.43278 C1253.02573,1320.11478 1255.47673,1316.52778 1257.70573,1312.85178 C1265.61473,1299.81478 1273.55573,1286.78978 1281.14073,1273.56278 C1290.04573,1258.03378 1299.20273,1242.59778 1307.05273,1226.53578 C1311.49073,1217.45678 1313.86373,1207.29278 1316.49973,1197.43878 C1317.89273,1192.22878 1320.19873,1189.99478 1325.46773,1192.03378 C1329.46373,1193.57978 1333.12873,1195.98278 1338.68873,1198.93178 C1336.36173,1204.60178 1334.29773,1209.64478 1332.21673,1214.67978 C1331.96273,1215.29378 1331.29173,1215.91878 1331.36773,1216.45978 C1332.81673,1226.64478 1325.04573,1233.02978 1321.18073,1240.97578 C1318.35573,1246.78278 1314.65873,1252.15978 1311.49573,1257.80978 C1307.49373,1264.96178 1303.79673,1272.28878 1299.68073,1279.37378 C1294.72273,1287.90878 1289.49173,1296.28478 1284.32173,1304.69478 C1281.77773,1308.83078 1278.67173,1312.67878 1276.57273,1317.02078 C1270.32573,1329.94178 1259.47373,1338.86578 1249.99773,1349.06278 C1243.26773,1356.30578 1237.34673,1364.35878 1231.57173,1372.41278 C1223.59773,1383.53278 1213.23873,1391.58978 1201.73073,1398.76178 C1193.60373,1403.82678 1186.64573,1410.72478 1178.85273,1416.37178 C1163.27373,1427.66078 1153.98873,1444.43078 1141.58773,1458.47678 C1140.71073,1459.46978 1140.21373,1460.93578 1139.17073,1461.62078 C1132.27173,1466.15478 1128.83973,1473.19678 1124.63573,1479.94578 C1118.58073,1489.66578 1112.81173,1499.48778 1107.85773,1509.79378 C1106.13573,1513.37778 1104.34473,1516.98678 1103.16973,1520.76578 C1100.26573,1530.10878 1095.02173,1538.08578 1089.15073,1545.70278 C1088.04373,1547.13878 1086.19473,1548.60978 1084.49973,1548.88078 C1077.12373,1550.06078 1070.06373,1554.61278 1062.17573,1551.20978 C1061.43173,1550.88878 1060.18673,1551.22778 1059.37273,1551.64578 C1051.37573,1555.76178 1043.99373,1552.50678 1036.63273,1549.73278 C1023.61073,1544.82578 1012.95473,1536.21878 1003.02673,1526.86778 C995.210731,1519.50578 986.761731,1513.48178 977.309731,1508.36378 C959.778731,1498.87178 942.789731,1488.38778 925.430731,1478.57278 C903.811731,1466.34878 881.919731,1454.60378 860.376731,1442.24978 C836.163731,1428.36378 810.215731,1418.16078 784.735731,1407.15278 C762.822731,1397.68378 741.478731,1387.48178 721.116731,1375.11778 C702.536731,1363.83478 683.558731,1353.14478 665.540731,1341.02678 C656.615731,1335.02478 649.456731,1326.39878 641.965731,1319.39678 C646.054731,1309.43678 650.935731,1300.97578 652.929731,1291.88178 C655.885731,1278.39578 662.269731,1266.61778 667.781731,1254.30478 C670.732731,1247.71178 672.523731,1240.56078 674.441731,1233.55278 C680.516731,1211.36578 686.195731,1189.06778 692.497731,1166.94678 C694.294731,1160.63978 697.980731,1154.89878 700.296731,1148.70878 C704.590731,1137.22978 708.570731,1125.63278 712.577731,1114.04878 C719.960731,1092.70878 727.401731,1071.38778 734.562731,1049.97378 C739.591731,1034.93278 744.097731,1019.71878 749.066731,1004.65878 C750.175731,1001.29578 752.593731,998.376777 753.803731,995.034777 C757.400731,985.104777 760.868731,975.120777 764.064731,965.055777 C766.70139,956.754963 769.257579,948.426597 771.739083,940.076463 Z M969.107678,755.648767 C955.477657,756.239428 941.913442,757.871482 928.501731,761.052777 C916.616731,763.870777 904.688731,766.837777 892.607731,768.416777 C879.644731,770.111777 866.487731,770.657777 853.398731,770.951777 C843.612731,771.170777 836.979731,774.728777 833.714731,784.262777 C829.129731,797.654777 824.219731,810.933777 819.516731,824.285777 C815.342731,836.132777 811.169731,847.983777 807.181731,859.894777 C805.394731,865.231777 804.013731,870.707777 802.526731,876.142777 C797.202419,895.601328 792.068166,915.114602 786.645978,934.544031 C790.160032,936.517054 794.082232,937.871058 798.724,936.756219 C802.779,935.782219 807.197,936.114219 811.447,936.198219 C818.992,936.345219 824.826,932.784219 827.392,926.278219 C835.278,906.282219 847.03,888.284219 856.07,868.909219 C864.189,862.718219 867.019,852.180219 875.372,845.948219 C879.742,842.689219 882.596,837.412219 886.187,833.090219 C901.957,814.111219 919.666,797.187219 940.695,784.172219 C952.577113,776.817935 960.928517,766.498034 969.107678,755.648767 Z M1904.34209,863.014249 C1898.48127,859.774933 1892.62222,856.532629 1886.77713,853.266015 C1884.55723,853.961053 1882.34382,854.686104 1880.10896,855.325714 C1876.1992,856.44338 1872.30665,858.05942 1868.31747,858.389491 C1847.21218,860.135435 1826.43359,863.999061 1805.92602,868.90192 C1797.37124,870.946888 1788.76406,872.202628 1780.25676,872.459168 C1758.84279,873.103787 1738.04291,877.536867 1717.13741,881.215032 C1701.15451,884.02717 1685.34028,887.60321 1669.02413,888.153056 C1660.87383,888.42757 1652.9618,891.260951 1644.61336,890.303418 C1639.55238,889.722526 1634.38496,890.036257 1629.2642,890.012564 C1622.10711,889.979067 1614.93773,889.742134 1607.79537,890.06812 C1596.44849,890.583652 1585.11062,891.374514 1573.78831,892.293647 C1569.20878,892.665386 1564.65054,893.529779 1560.1357,894.435023 C1551.96493,896.073939 1543.87359,899.089512 1535.6758,899.362392 C1525.88055,899.688378 1516.43983,901.318307 1506.87301,902.887777 C1495.86921,904.69418 1484.80564,906.121491 1474.04174,909.126443 C1471.98984,909.699165 1470.13363,911.16079 1468.07272,911.483508 C1453.67255,913.735996 1439.24209,915.802207 1424.82063,917.917438 C1419.25445,918.734445 1413.70711,919.812894 1408.11064,920.252444 C1401.38587,920.781048 1399.19886,922.892194 1400.25101,929.496061 C1404.76586,957.833132 1409.37077,986.156314 1414.00843,1014.47541 C1414.30811,1016.31041 1414.94186,1018.16093 1415.77293,1019.83007 C1422.54356,1033.43814 1422.94231,1048.28888 1424.34163,1062.94599 C1425.70247,1077.20112 1426.16018,1091.78306 1434.57986,1104.14847 C1437.86733,1108.97698 1437.73305,1113.00809 1436.59983,1118.51799 C1434.99008,1126.34655 1434.62571,1134.71842 1435.44451,1142.6826 C1436.42543,1152.22279 1439.62037,1161.51461 1441.11713,1171.02866 C1443.17558,1184.11384 1445.21684,1197.17533 1445.94967,1210.49908 C1446.74881,1225.0271 1449.67028,1239.43502 1451.55678,1253.90994 C1452.1848,1258.72701 1452.65724,1263.57921 1452.88077,1268.42978 C1453.54973,1282.97333 1454.04592,1297.52504 1454.67885,1312.07021 C1454.70751,1312.72218 1455.41904,1313.34556 1456.44254,1315 C1458.55176,1311.83573 1460.50295,1309.3602 1461.96941,1306.62568 C1466.84944,1297.52994 1471.60501,1288.36639 1476.31226,1279.17996 C1479.7725,1272.4274 1483.44971,1265.75163 1486.37199,1258.76786 C1490.45206,1249.0177 1493.86889,1238.99302 1497.66401,1229.12194 C1500.58629,1221.52378 1503.55034,1213.93868 1506.68551,1206.42712 C1510.65176,1196.92615 1514.98319,1187.57387 1518.82252,1178.02387 C1521.07913,1172.41267 1521.56467,1171.5205 1527.59347,1172.24518 C1531.01767,1172.65614 1535.20418,1173.17085 1537.49763,1175.29997 C1543.81873,1181.16772 1550.55988,1187.18416 1554.8602,1194.47758 C1561.23207,1205.2825 1566.30287,1216.99102 1570.72437,1228.76491 C1576.40272,1243.88608 1582.12938,1259.10528 1584.37452,1275.25669 C1584.94441,1279.35889 1587.22066,1281.95043 1591.04198,1285.20784 C1593.63101,1280.92917 1596.13489,1277.2412 1598.18843,1273.31875 C1606.35101,1257.73108 1614.37276,1242.06905 1622.44854,1226.43644 C1626.65224,1218.29905 1630.50059,1209.95251 1635.15708,1202.08228 C1640.68477,1192.7398 1647.1287,1183.94064 1652.76611,1174.65944 C1658.09647,1165.88233 1662.19537,1156.28904 1668.12427,1147.96782 C1674.11868,1139.55428 1679.99108,1131.21754 1684.80151,1122.02866 C1690.01233,1112.07425 1698.05209,1104.44341 1707.11534,1098.13775 C1709.15742,1099.37224 1710.70576,1101.03649 1712.40395,1101.20479 C1718.82658,1101.84042 1720.77532,1107.97614 1721.92491,1111.63879 C1724.36983,1119.43385 1724.24783,1128.05164 1724.99457,1136.34835 C1725.38187,1140.65152 1725.00686,1145.04212 1725.6185,1149.30118 C1727.46406,1162.14044 1729.69365,1174.92415 1731.59735,1187.75524 C1731.9437,1190.08943 1731.60144,1192.5617 1731.33124,1194.94245 C1730.71468,1200.37964 1732.26548,1205.25472 1734.65228,1211.31037 C1737.57456,1208.093 1739.78121,1205.8062 1741.82575,1203.38214 C1745.56847,1198.94334 1749.05899,1194.28395 1752.93681,1189.9677 C1759.78522,1182.34421 1766.89483,1174.9552 1773.80301,1167.38399 C1780.40087,1160.15103 1786.36498,1152.55368 1790.17894,1143.31987 C1792.64924,1137.34019 1796.07099,1131.70938 1799.45262,1126.157 C1804.65443,1117.61601 1810.09615,1109.21636 1815.60338,1100.86655 C1823.50967,1088.87942 1831.6133,1077.02138 1839.54416,1065.04978 C1845.21514,1056.49 1850.29495,1047.50537 1858.06205,1040.51342 C1858.8309,1039.82224 1859.21655,1038.69722 1859.74959,1037.75603 C1868.92829,1021.55314 1882.53177,1008.93692 1894.6475,995.134404 C1900.14408,988.87368 1906.29979,983.175056 1912.31221,977.380842 C1917.72199,972.168337 1923.02697,966.634749 1931.61041,967.281001 C1933.40112,967.415808 1935.23932,966.921518 1937.75466,966.638017 C1937.75466,963.357734 1938.37613,960.283336 1937.64085,957.576592 C1935.23441,948.722687 1932.68713,939.87205 1929.52412,931.264882 C1926.36521,922.669151 1921.96991,914.521957 1918.87977,905.904984 C1913.78534,891.69679 1909.07581,877.350134 1904.34209,863.014249 Z M1855.7494,836.115369 C1835.87695,826.028506 1815.17343,817.729895 1794.77,808.9151 C1772.857,799.4461 1751.513,789.2441 1731.151,776.8801 C1712.571,765.5971 1693.593,754.9071 1675.575,742.7891 C1666.65,736.7871 1659.491,728.1611 1652,721.1591 C1656.089,711.1991 1660.97,702.7381 1662.964,693.6441 C1665.92,680.1581 1672.304,668.3801 1677.816,656.0671 C1680.767,649.4741 1682.558,642.3231 1684.476,635.3151 C1690.551,613.1281 1696.23,590.8301 1702.532,568.7091 C1704.329,562.4021 1708.015,556.6611 1710.331,550.4711 C1714.625,538.9921 1718.605,527.3951 1722.612,515.8111 C1729.995,494.4711 1737.436,473.1501 1744.597,451.7361 C1749.626,436.6951 1754.132,421.4811 1759.101,406.4211 C1760.21,403.0581 1762.628,400.1391 1763.838,396.7971 C1767.435,386.8671 1770.903,376.8831 1774.099,366.8181 C1778.086,354.2661 1781.889,341.6511 1785.528,328.9931 C1791.891,306.8611 1797.739,284.5771 1804.426,262.5451 C1810.158,243.6641 1816.617,224.9981 1823.034,206.3331 C1827.015,194.7551 1831.587,183.3821 1835.76,171.8691 C1838.345,164.7391 1842.975,161.4961 1850.819,161.6061 C1862.733,161.7731 1874.673,161.3021 1886.575,160.6191 C1891.8,160.3181 1896.964,158.8611 1902.139,157.8401 C1903.087,157.6531 1903.913,156.8051 1904.858,156.6551 C1918.905,154.4251 1932.925,151.9801 1947.024,150.1441 C1973.692,146.6731 2000.427,148.1111 2027.155,149.6261 C2040.748,150.3961 2054.357,150.9671 2067.967,151.3491 C2083.165,151.7761 2098.385,152.3521 2113.574,151.9821 C2124.729,151.7101 2135.843,149.9291 2146.989,148.9811 C2162.941,147.6231 2178.688,149.9031 2194.394,152.1741 C2201.615,153.2181 2208.69,155.2431 2215.892,156.4601 C2218.736,156.9401 2221.76,156.5901 2224.678,156.3371 C2229.926,155.8821 2235.297,155.7711 2240.356,154.4861 C2246.03,153.0461 2248.788,156.6561 2252.361,159.5011 C2256.701,162.9541 2254.894,166.7431 2254.282,171.1091 C2252.869,181.1791 2252.613,191.4061 2251.634,201.5451 C2251.06,207.4931 2249.615,213.3701 2249.243,219.3221 C2248.544,230.5061 2249.02,241.7951 2247.793,252.9051 C2244.944,278.7011 2254.758,302.0821 2260.64,326.2421 C2261.572,330.0691 2261.556,334.1211 2262.415,337.9711 C2267.749,361.8641 2269.18,386.0411 2268.461,410.4541 C2268.278,416.6921 2268.574,423.3181 2270.492,429.1611 C2273.966,439.7461 2274.41,450.6721 2276.267,461.4371 C2277.434,468.2041 2279.137,475.3431 2282.562,481.1591 C2289.338,492.6681 2292.338,505.2911 2293.592,517.9721 C2294.827,530.4601 2298.616,541.9171 2302.271,553.6331 C2306.746,567.9791 2310.687,582.4911 2314.833,596.8411 C2312.134,598.8661 2310.069,600.4151 2307.854,602.0761 C2298.901,598.8571 2296.584,590.9861 2294.502,583.3621 C2290.666,569.3111 2287.255,555.1391 2283.898,540.9641 C2282.451,534.8501 2281.136,528.6431 2280.536,522.4041 C2279.186,508.3851 2275.206,495.2311 2269.566,482.3701 C2266.943,476.3881 2265.477,469.8071 2264.163,463.3591 C2261.185,448.7401 2258.109,434.1061 2256.098,419.3381 C2254.942,410.8521 2255.124,402.0351 2255.881,393.4711 C2257.281,377.6381 2254.717,362.4011 2251.106,347.1321 C2246.372,327.1181 2241.598,307.0931 2237.717,286.9041 C2235.54,275.5801 2234.027,263.9021 2234.166,252.4071 C2234.418,231.4711 2236.218,210.5571 2237.17,189.6251 C2237.497,182.4351 2237.222,175.2171 2237.222,167.9301 C2236.806,167.5921 2236.265,166.7851 2235.794,166.8231 C2218.681,168.2181 2202.36,163.4461 2185.737,160.7711 C2169.986,158.2361 2154.094,158.4941 2138.078,159.2921 C2113.237,160.5301 2088.304,160.5701 2063.425,160.1711 C2041.874,159.8261 2020.353,157.6851 1998.801,157.2241 C1978.566,156.7921 1958.384,158.1071 1938.536,162.8151 C1926.651,165.6331 1914.723,168.6001 1902.642,170.1791 C1889.679,171.8741 1876.522,172.4201 1863.433,172.7141 C1853.647,172.9331 1847.014,176.4911 1843.749,186.0251 C1839.164,199.4171 1834.254,212.6961 1829.551,226.0481 C1825.377,237.8951 1821.204,249.7461 1817.216,261.6571 C1815.429,266.9941 1814.048,272.4701 1812.561,277.9051 C1805.62,303.2721 1799.002,328.7321 1791.648,353.9781 C1788.436,365.0071 1783.587,375.5501 1779.758,386.4121 C1776.044,396.9491 1772.804,407.6531 1769.125,418.2041 C1767.18,423.7801 1764.385,429.0731 1762.607,434.6931 C1759.335,445.0291 1756.86,455.6211 1753.439,465.9021 C1750.112,475.8991 1745.799,485.5631 1742.303,495.5081 C1735.719,514.2361 1728.678,532.8531 1723.293,551.9311 C1720.556,561.6231 1718.071,571.1911 1714.199,580.5821 C1710.72,589.0201 1708.786,598.3961 1708.025,607.5121 C1707.693,611.4931 1707.306,614.1761 1704.529,616.8331 C1703.482,617.8351 1703.018,619.6301 1702.679,621.1501 C1701.838,624.9231 1701.211,628.7421 1700.52,632.5471 C1698.816,641.9361 1697.665,651.4681 1695.281,660.6811 C1692.716,670.5931 1689.03,680.2161 1685.774,689.9461 C1683.818,695.7901 1681.748,701.5961 1679.481,708.1361 C1682.692,708.6311 1685.143,709.0081 1688.516,709.5281 C1686.934,710.0251 1686.14,710.5551 1685.448,710.4451 C1680.964,709.7351 1676.823,710.6631 1676.392,715.6221 C1675.985,720.3051 1671.938,725.1041 1678.278,729.9851 C1696.834,744.2741 1716.449,756.8011 1736.472,768.8851 C1749.48,776.7351 1762.165,785.0691 1776.126,791.1571 C1791.585,797.8981 1807.233,804.2131 1822.609,811.1341 C1838.35078,818.22202 1854.04903,825.41755 1869.64029,832.83068 C1873.94646,831.772849 1878.2503,830.705614 1882.56133,829.70191 C1896.53641,826.448186 1895.63183,827.358444 1906.54741,836.856508 C1913.27931,842.713538 1915.62515,849.441606 1918.26678,856.912424 C1918.81947,858.475572 1919.38017,860.035902 1919.94698,861.594077 C1934.5358,869.674749 1949.16167,877.689036 1963.714,885.8351 C1973.791,891.4761 1983.656,897.4971 1993.772,903.0661 C1996.881,904.7781 2000.861,904.9961 2003.818,906.8781 C2012.122,912.1611 2020.248,917.7561 2028.161,923.6101 C2034.228,928.0971 2039.53,933.6771 2045.81,937.7991 C2050.04,940.5761 2054.795,943.1801 2060.724,941.7561 C2064.779,940.7821 2069.197,941.1141 2073.447,941.1981 C2080.992,941.3451 2086.826,937.7841 2089.392,931.2781 C2097.278,911.2821 2109.03,893.2841 2118.07,873.9091 C2126.189,867.7181 2129.019,857.1801 2137.372,850.9481 C2141.742,847.6891 2144.596,842.4121 2148.187,838.0901 C2163.957,819.1111 2181.666,802.1871 2202.695,789.1721 C2215.231,781.4131 2223.837,770.3531 2232.457,758.8531 C2241.183,747.2101 2251.087,736.4541 2260.335,725.1951 C2263.06,721.8771 2265.511,718.2901 2267.74,714.6141 C2275.649,701.5771 2283.59,688.5521 2291.175,675.3251 C2300.08,659.7961 2309.237,644.3601 2317.087,628.2981 C2321.525,619.2191 2323.898,609.0551 2326.534,599.2011 C2327.927,593.9911 2330.233,591.7571 2335.502,593.7961 C2339.498,595.3421 2343.163,597.7451 2348.723,600.6941 C2346.396,606.3641 2344.332,611.4071 2342.251,616.4421 C2341.997,617.0561 2341.326,617.6811 2341.402,618.2221 C2342.851,628.4071 2335.08,634.7921 2331.215,642.7381 C2328.39,648.5451 2324.693,653.9221 2321.53,659.5721 C2317.528,666.7241 2313.831,674.0511 2309.715,681.1361 C2304.757,689.6711 2299.526,698.0471 2294.356,706.4571 C2291.812,710.5931 2288.706,714.4411 2286.607,718.7831 C2280.36,731.7041 2269.508,740.6281 2260.032,750.8251 C2253.302,758.0681 2247.381,766.1211 2241.606,774.1751 C2233.632,785.2951 2223.273,793.3521 2211.765,800.5241 C2203.638,805.5891 2196.68,812.4871 2188.887,818.1341 C2173.308,829.4231 2164.023,846.1931 2151.622,860.2391 C2150.745,861.2321 2150.248,862.6981 2149.205,863.3831 C2142.306,867.9171 2138.874,874.9591 2134.67,881.7081 C2128.615,891.4281 2122.846,901.2501 2117.892,911.5561 C2116.17,915.1401 2114.379,918.7491 2113.204,922.5281 C2110.3,931.8711 2105.056,939.8481 2099.185,947.4651 C2098.078,948.9011 2096.229,950.3721 2094.534,950.6431 C2087.158,951.8231 2080.098,956.3751 2072.21,952.9721 C2071.466,952.6511 2070.221,952.9901 2069.407,953.4081 C2061.41,957.5241 2054.028,954.2691 2046.667,951.4951 C2033.645,946.5881 2022.989,937.9811 2013.061,928.6301 C2005.245,921.2681 1996.796,915.2441 1987.344,910.1261 C1969.813,900.6341 1952.824,890.1501 1935.465,880.3351 C1931.87365,878.304448 1928.27477,876.287015 1924.6712,874.277813 C1927.15998,880.865344 1929.66644,887.446704 1932.04604,894.072863 C1936.06093,905.252534 1939.57928,916.610336 1943.67447,927.758958 C1946.06291,934.261503 1949.24041,940.471524 1951.89106,946.883371 C1953.22089,950.098691 1954.38192,953.416966 1955.24226,956.784269 C1956.97603,963.575253 1958.99249,970.366238 1959.83889,977.285509 C1960.37886,981.697892 1959.47592,986.447741 1958.40009,990.847868 C1957.28002,995.432661 1953.67481,996.428715 1949.64927,993.891595 C1946.98552,992.213255 1944.37666,990.448302 1941.09183,988.295222 C1933.00142,996.91898 1922.95273,1002.74496 1915.83901,1012.36968 C1909.89779,1020.40838 1902.26131,1027.42081 1894.49865,1033.8302 C1888.81308,1038.52449 1884.72855,1043.81363 1882.35075,1050.53352 C1881.5068,1052.91703 1880.29742,1054.13207 1878.19903,1055.73442 C1874.07271,1058.88437 1870.94929,1063.4569 1867.78818,1067.71894 C1864.25917,1072.47859 1861.22753,1077.60268 1857.83781,1082.47019 C1851.81139,1091.125 1845.44902,1099.55592 1839.64546,1108.35454 C1831.57062,1120.59727 1823.84073,1133.06715 1816.06168,1145.5019 C1814.48522,1148.02268 1812.93662,1150.69217 1812.08285,1153.50711 C1808.73492,1164.53807 1801.84816,1172.4395 1792.95232,1179.81227 C1784.34325,1186.94971 1777.47206,1196.28353 1770.36325,1205.07561 C1764.23932,1212.6502 1758.84544,1220.81311 1753.15331,1228.73334 C1751.44658,1231.10867 1750.21917,1233.37452 1746.41649,1233.72179 C1744.19847,1233.92443 1741.94604,1237.13321 1740.29092,1239.41049 C1736.26784,1244.94558 1732.15955,1245.73654 1726.87874,1241.33968 C1720.58192,1236.09712 1717.24301,1229.23341 1715.75668,1221.23883 C1712.67342,1204.65889 1712.28749,1187.82728 1710.60124,1171.11824 C1709.65242,1161.71823 1707.31477,1152.45713 1705.44908,1142.29394 C1697.51025,1145.59996 1693.73134,1151.12442 1690.24003,1156.42745 C1685.10015,1164.23574 1681.22374,1172.86195 1676.25757,1180.79688 C1671.27501,1188.7596 1665.62139,1196.30641 1660.23981,1204.01991 C1659.93746,1204.45379 1659.12547,1204.70791 1659.07139,1205.11402 C1657.82268,1214.50259 1648.66464,1218.83244 1645.19545,1226.67913 C1641.79918,1234.35831 1639.64425,1242.59885 1636.04806,1250.16935 C1630.38215,1262.09668 1625.88876,1274.70302 1616.96751,1284.91687 C1614.93303,1287.24726 1613.713,1290.31224 1612.25043,1293.10756 C1609.62519,1298.12297 1606.95406,1303.12286 1604.60412,1308.26655 C1603.62989,1310.39593 1603.25381,1312.85134 1602.91459,1315.2038 C1602.001,1321.53965 1597.48712,1323.47048 1591.94903,1319.96427 C1583.7095,1314.74622 1579.40128,1306.36677 1575.67153,1298.1197 C1570.11132,1285.82141 1564.97964,1273.23468 1562.18315,1259.89376 C1557.37266,1236.94528 1546.52509,1216.12291 1538.80503,1194.19745 C1538.46499,1193.23082 1537.76771,1192.30013 1537.00816,1191.59823 C1536.4723,1191.10388 1535.54888,1191.02708 1534.49108,1190.65611 C1529.17995,1195.26541 1526.79806,1201.6936 1524.24328,1207.88401 C1519.79003,1218.67393 1515.82185,1229.66239 1511.47512,1240.49725 C1506.04191,1254.03999 1500.90367,1267.72982 1494.75188,1280.94654 C1489.61692,1291.97832 1482.72197,1302.19135 1477.48787,1313.18391 C1471.42457,1325.91854 1466.05445,1339.00534 1460.97439,1352.1665 C1459.49708,1355.99301 1460.04605,1360.59742 1459.67488,1364.74587 C1450.31118,1366.26079 1442.62717,1360.87442 1441.1728,1352.00798 C1440.82211,1349.87124 1440.8639,1347.67158 1440.66971,1345.50543 C1439.12767,1328.25546 1437.47173,1311.0153 1436.0698,1293.7539 C1435.52082,1287.00295 1435.58883,1280.20298 1435.28075,1273.42997 C1434.3434,1252.8225 1433.66005,1232.19706 1432.30646,1211.61656 C1431.00694,1191.86461 1428.60702,1172.23277 1424.23407,1152.85261 C1421.49002,1140.69404 1420.55513,1128.38349 1422.17911,1115.8229 C1423.17382,1108.13147 1422.64369,1100.49723 1419.53256,1092.75186 C1416.55745,1085.34478 1415.75365,1076.95553 1414.76222,1068.90375 C1413.80766,1061.14939 1414.23045,1053.22835 1413.30621,1045.46827 C1412.53928,1039.03763 1411.11031,1032.60944 1409.24543,1026.39779 C1403.26325,1006.46934 1398.21924,986.359493 1395.32525,965.727516 C1394.50834,959.907255 1392.76555,954.221001 1391.82492,948.41218 C1390.75647,941.81485 1390.35826,935.106393 1389.19722,928.528673 C1388.39588,923.994541 1386.74322,919.614842 1385.56252,915.14281 C1383.55753,907.550242 1386.99477,902.285615 1394.5575,901.224192 C1407.67062,899.383248 1420.85174,897.912453 1433.87472,895.572256 C1445.2303,893.53112 1456.35563,890.24226 1467.68253,888.004201 C1475.61726,886.436988 1483.76666,885.981042 1491.73498,884.553554 C1508.23781,881.597257 1524.64477,878.101669 1541.1689,875.280195 C1548.81521,873.975274 1556.6426,873.71625 1564.39215,873.024977 C1565.45159,872.93101 1566.58477,873.31505 1567.59669,873.088712 C1588.40528,868.431196 1609.48425,869.428068 1630.55586,869.875026 C1635.07957,869.970627 1639.62705,868.796443 1644.15731,868.843018 C1655.03438,868.955779 1665.54437,867.126274 1676.13712,864.758295 C1687.90975,862.12639 1699.97572,860.801858 1711.90813,858.875118 C1723.84627,856.94756 1735.75902,854.852495 1747.7201,853.081822 C1753.52694,852.223041 1759.4698,851.173057 1765.26107,851.559549 C1775.73582,852.258994 1785.68865,849.664676 1795.52512,847.289343 C1809.97134,843.801109 1824.46754,841.240292 1839.18415,839.177095 C1844.73916,838.398219 1850.25441,837.327684 1855.7494,836.115369 Z M1110.65713,484.179469 C1107.91456,511.874258 1113.73199,537.637662 1128.57377,561.288432 C1131.63992,566.173445 1134.3288,571.304956 1137.03944,576.404567 C1147.96326,596.96396 1161.73703,615.088822 1180.53158,629.253764 C1189.34842,635.900514 1197.68349,643.222958 1205.91844,650.594702 C1218.45443,661.814716 1232.08454,668.970412 1249.78352,667.89307 C1275.65214,666.316932 1301.59622,665.990684 1327.50403,665.045292 C1330.38154,664.940892 1333.71325,665.088791 1336.02484,663.735952 C1348.32866,656.545456 1362.82217,657.3966 1375.58452,652.598586 C1385.36634,648.919964 1394.83472,647.507675 1405.07943,648.21382 C1430.3444,649.958157 1452.63753,642.658912 1473.02103,627.323829 C1492.12466,612.951538 1512.82885,600.709282 1532.01374,586.43704 C1541.53726,579.350944 1551.41049,571.078757 1557.24098,561.079634 C1565.85902,546.302796 1570.58813,529.316175 1577.75217,513.625845 C1586.49646,494.472941 1586.97387,473.461151 1592.41546,453.623852 C1598.75819,430.502328 1601.32372,407.560603 1596.47997,383.722784 C1594.521,374.077458 1595.07096,363.756436 1595.61367,353.805162 C1597.15183,325.598527 1589.32609,300.690617 1571.42831,278.756634 C1562.93217,268.344263 1554.75091,257.633195 1547.07753,246.604579 C1535.01605,229.267061 1525.27051,209.974958 1511.34728,194.355677 C1490.29628,170.739707 1466.43597,149.630767 1443.8947,127.329937 C1435.75407,119.276699 1427.20424,111.458358 1420.19256,102.480026 C1406.94989,85.5224056 1396.89962,66.1462032 1378.31983,53.4645998 C1368.11865,46.5003028 1359.56737,37.150774 1350.09028,29.0902854 C1344.67335,24.4822205 1339.57567,23.9500746 1331.87762,26.5803545 C1303.53343,36.2619308 1283.87984,57.7565671 1261.71585,75.7335302 C1250.80799,84.5799128 1241.08277,95.0691329 1231.77981,105.654052 C1219.83442,119.246249 1208.70164,133.56489 1197.52097,147.808131 C1192.50309,154.201133 1188.1237,161.10888 1183.63257,167.900628 C1180.47789,172.672542 1177.6947,177.688054 1174.62418,182.517967 C1163.21424,200.45578 1163.7526,222.021466 1156.74237,241.365769 C1151.06715,257.029999 1148.84553,273.94847 1143.11371,289.585151 C1136.44014,307.788313 1133.7266,326.738218 1129.38783,345.387976 C1126.38117,358.317528 1122.80712,371.15138 1120.55358,384.212881 C1116.80396,405.940965 1113.36051,427.756049 1110.8835,449.658132 C1109.59783,461.028946 1110.65713,472.663657 1110.65713,484.179469 Z M1379.68157,0 C1384.1791,7.6863638 1388.41999,16.7939798 1387.38913,27.8391395 C1387.08031,31.1573283 1389.15653,36.3260454 1391.80981,37.998192 C1400.63378,43.5613791 1407.60045,51.1607275 1415.58493,57.6027705 C1417.44078,59.1008863 1419.99257,60.0116479 1421.31921,61.8476737 C1431.11459,75.4133806 1440.6171,89.1922754 1450.36319,102.794239 C1453.07736,106.582311 1456.04382,110.264514 1459.34519,113.540646 C1468.54178,122.667115 1477.95584,131.577496 1487.32496,140.529934 C1499.08493,151.766528 1510.52158,163.381639 1522.79916,174.023627 C1530.86339,181.013867 1538.07074,188.384075 1543.88186,197.37422 C1560.29159,222.758074 1576.50994,248.295655 1593.90124,272.999338 C1601.33187,283.552861 1610.0413,293.004188 1614.73601,305.411139 C1619.25963,317.367061 1623.72526,328.783486 1623.67886,342.228822 C1623.61072,361.798594 1626.79031,381.358215 1627.54134,400.962793 C1628.19524,417.996065 1629.32614,434.858207 1621.29526,451.510062 C1616.32798,461.809789 1616.5962,474.612661 1614.34454,486.259677 C1613.43547,490.967213 1612.50899,495.751612 1610.82568,500.211153 C1608.14921,507.29711 1604.48101,514.008901 1601.84948,521.107911 C1593.56632,543.463627 1582.29061,564.316877 1570.19862,584.743751 C1568.32247,587.914014 1564.85001,590.243127 1561.84876,592.62445 C1550.95292,601.265083 1539.98023,609.812899 1528.93795,618.2679 C1527.08935,619.683351 1524.7072,620.383825 1522.65127,621.552732 C1516.41534,625.101512 1510.13301,628.577779 1504.02757,632.338296 C1489.50268,641.280583 1475.29096,650.753664 1460.52249,659.266674 C1450.65896,664.953133 1439.22087,664.896573 1428.20613,664.615223 C1406.92625,664.069926 1386.62939,666.557118 1366.29774,674.29134 C1349.65602,680.620263 1331.77611,684.122634 1312.96537,680.929168 C1302.41315,679.1381 1290.94751,681.364245 1280.08791,683.040742 C1259.87514,686.158796 1239.92045,685.989115 1220.54572,679.338235 C1213.01214,676.750976 1205.53367,672.756968 1199.33398,667.778234 C1183.59264,655.136341 1168.39211,641.792524 1153.33511,628.325434 C1134.13001,611.147136 1119.68631,590.379451 1108.9514,567.004204 C1104.12186,556.486938 1098.7573,546.161106 1094.73099,535.340736 C1087.20756,515.119798 1087.25106,493.716901 1087.01618,472.550395 C1086.78275,451.463653 1089.09531,430.717723 1092.65621,409.707845 C1097.82358,379.223436 1105.9313,349.65994 1113.62581,319.907911 C1122.1743,286.857997 1130.6706,253.779078 1140.21805,221.013415 C1143.38314,210.148087 1149.73216,200.209473 1154.63275,189.850285 C1166.83929,164.040056 1183.27947,141.056378 1201.59724,119.308319 C1208.66105,110.922931 1214.66501,101.44985 1222.61614,94.0419359 C1249.19823,69.2744414 1275.3584,43.8412788 1303.84128,21.4072483 C1320.67873,8.14754562 1341.56134,0.285700692 1364.57093,2.54085082 C1369.31058,3.00493317 1374.29527,0.974572919 1379.68157,0 Z M23.6571278,1136.17947 C20.9145631,1163.87426 26.7319927,1189.63766 41.5737661,1213.28843 C44.6399244,1218.17344 47.3287987,1223.30496 50.0394394,1228.40457 C60.9632632,1248.96396 74.7370326,1267.08882 93.5315818,1281.25376 C102.348419,1287.90051 110.683494,1295.22296 118.918444,1302.5947 C131.454431,1313.81472 145.084543,1320.97041 162.783517,1319.89307 C188.652142,1318.31693 214.596223,1317.99068 240.504028,1317.04529 C243.381544,1316.94089 246.713252,1317.08879 249.024843,1315.73595 C261.328655,1308.54546 275.822166,1309.3966 288.584524,1304.59859 C298.366339,1300.91996 307.834717,1299.50768 318.079429,1300.21382 C343.3444,1301.95816 365.637533,1294.65891 386.021028,1279.32383 C405.12466,1264.95154 425.828847,1252.70928 445.01374,1238.43704 C454.537259,1231.35094 464.410492,1223.07876 470.240982,1213.07963 C478.85902,1198.3028 483.58813,1181.31618 490.752173,1165.62584 C499.496456,1146.47294 499.973866,1125.46115 505.415462,1105.62385 C511.758187,1082.50233 514.323719,1059.5606 509.479972,1035.72278 C507.520997,1026.07746 508.070962,1015.75644 508.61367,1005.80516 C510.151828,977.598527 502.326087,952.690617 484.428312,930.756634 C475.932166,920.344263 467.750907,909.633195 460.07753,898.604579 C448.01605,881.267061 438.270513,861.974958 424.347281,846.355677 C403.296283,822.739707 379.435971,801.630767 356.894701,779.329937 C348.754072,771.276699 340.204236,763.458358 333.192557,754.480026 C319.949887,737.522406 309.899621,718.146203 291.319834,705.4646 C281.118654,698.500303 272.567366,689.150774 263.090281,681.090285 C257.673353,676.482221 252.575666,675.950075 244.87762,678.580355 C216.533432,688.261931 196.879836,709.756567 174.71585,727.73353 C163.807988,736.579913 154.082767,747.069133 144.779813,757.654052 C132.83442,771.246249 121.701639,785.56489 110.520972,799.808131 C105.503094,806.201133 101.123697,813.10888 96.6325663,819.900628 C93.4778913,824.672542 90.6946961,829.688054 87.6241845,834.517967 C76.2142447,852.45578 76.7526,874.021466 69.7423724,893.365769 C64.0671499,909.029999 61.8455274,925.94847 56.1137123,941.585151 C49.4401382,959.788313 46.7265953,978.738218 42.387829,997.387976 C39.3811654,1010.31753 35.8071248,1023.15138 33.5535782,1036.21288 C29.8039554,1057.94097 26.360513,1079.75605 23.8834982,1101.65813 C22.5978304,1113.02895 23.6571278,1124.66366 23.6571278,1136.17947 Z M292.681571,652 C297.179097,659.686364 301.419994,668.79398 300.38913,679.83914 C300.080305,683.157328 302.156533,688.326045 304.809812,689.998192 C313.633777,695.561379 320.600448,703.160727 328.584933,709.60277 C330.440779,711.100886 332.992566,712.011648 334.319206,713.847674 C344.114591,727.413381 353.6171,741.192275 363.363189,754.794239 C366.077363,758.582311 369.043816,762.264514 372.345191,765.540646 C381.541776,774.667115 390.955842,783.577496 400.324962,792.529934 C412.084934,803.766528 423.521582,815.381639 435.79916,826.023627 C443.863389,833.013867 451.070739,840.384075 456.881855,849.37422 C473.29159,874.758074 489.50994,900.295655 506.901242,924.999338 C514.331874,935.552861 523.041299,945.004188 527.736008,957.411139 C532.259632,969.367061 536.72526,980.783486 536.678864,994.228822 C536.61072,1013.79859 539.790305,1033.35821 540.541343,1052.96279 C541.195238,1069.99607 542.326144,1086.85821 534.295262,1103.51006 C529.327976,1113.80979 529.596203,1126.61266 527.344541,1138.25968 C526.435467,1142.96721 525.508994,1147.75161 523.825684,1152.21115 C521.149206,1159.29711 517.481012,1166.0089 514.849481,1173.10791 C506.56632,1195.46363 495.290609,1216.31688 483.198615,1236.74375 C481.322471,1239.91401 477.85001,1242.24313 474.84876,1244.62445 C463.952917,1253.26508 452.98023,1261.8129 441.937949,1270.2679 C440.089353,1271.68335 437.707201,1272.38383 435.651272,1273.55273 C429.415341,1277.10151 423.133014,1280.57778 417.027572,1284.3383 C402.502681,1293.28058 388.290964,1302.75366 373.522493,1311.26667 C363.658964,1316.95313 352.220866,1316.89657 341.206133,1316.61522 C319.926254,1316.06993 299.629393,1318.55712 279.297735,1326.29134 C262.65602,1332.62026 244.776108,1336.12263 225.965374,1332.92917 C215.413152,1331.1381 203.947506,1333.36424 193.08791,1335.04074 C172.875142,1338.1588 152.920453,1337.98912 133.545716,1331.33824 C126.012143,1328.75098 118.533665,1324.75697 112.333981,1319.77823 C96.5926411,1307.13634 81.3921062,1293.79252 66.3351094,1280.32543 C47.1300078,1263.14714 32.6863099,1242.37945 21.9514033,1219.0042 C17.1218553,1208.48694 11.7573018,1198.16111 7.73098685,1187.34074 C0.207563007,1167.1198 0.251059387,1145.7169 0.0161789356,1124.55039 C-0.217251637,1103.46365 2.0953059,1082.71772 5.65620953,1061.70784 C10.8235795,1031.22344 18.9313047,1001.65994 26.6258143,971.907911 C35.1743028,938.857997 43.6705957,905.779078 53.2180511,873.013415 C56.3831377,862.148087 62.7321593,852.209473 67.6327514,841.850285 C79.8392855,816.040056 96.2794672,793.056378 114.597243,771.308319 C121.661055,762.922931 127.665005,753.44985 135.616143,746.041936 C162.198231,721.274441 188.358404,695.841279 216.841283,673.407248 C233.678732,660.147546 254.561344,652.285701 277.570929,654.540851 C282.310584,655.004933 287.295269,652.974573 292.681571,652 Z M127.960329,585.209218 C129.637863,582.692813 131.189713,580.72413 132.356042,578.549483 C136.237295,571.316037 140.019562,564.028663 143.763408,556.723096 C146.515451,551.353076 149.440066,546.044131 151.764259,540.490237 C155.009272,532.736357 157.7268,524.764167 160.745191,516.914126 C163.069384,510.871635 165.426789,504.83954 167.920298,498.865921 C171.074792,491.310208 174.51973,483.872746 177.573286,476.27805 C179.368039,471.815703 179.754211,471.106197 184.549121,471.682508 C187.27251,472.009322 190.602181,472.418652 192.42624,474.111849 C197.453634,478.778212 202.815103,483.562825 206.235294,489.362967 C211.303063,497.955649 215.336049,507.266932 218.85262,516.630194 C223.368809,528.655401 227.92342,540.758575 229.709057,553.603092 C230.162304,556.865387 231.972687,558.926332 235.011916,561.516806 C237.071064,558.114169 239.062485,555.181287 240.695737,552.061932 C247.187718,539.665729 253.567689,527.210401 259.990641,514.778463 C263.333989,508.30715 266.394708,501.669506 270.098178,495.410655 C274.494543,487.98099 279.61962,480.983396 284.103248,473.602461 C288.34267,466.622409 291.602662,458.993277 296.318123,452.375775 C301.085682,445.684853 305.756209,439.055006 309.582108,431.74749 C313.726452,423.831177 320.120751,417.762697 327.32907,412.748079 C328.953205,413.729822 330.184656,415.053322 331.53528,415.187167 C336.643425,415.692657 338.193321,420.572131 339.10763,423.484871 C341.052163,429.683947 340.955132,436.537301 341.549042,443.135312 C341.857067,446.557441 341.55881,450.049091 342.045269,453.436135 C343.513112,463.646645 345.286375,473.812973 346.800455,484.016986 C347.075919,485.873266 346.803711,487.839349 346.588809,489.732663 C346.098443,494.056618 347.331848,497.933558 349.230145,502.749358 C351.554338,500.19072 353.309367,498.372126 354.935456,496.444376 C357.912168,492.914392 360.688306,489.20898 363.772469,485.776456 C369.219246,479.713823 374.873763,473.837663 380.368079,467.816613 C385.615585,462.064552 390.359048,456.02271 393.392417,448.67946 C395.357138,443.924084 398.078573,439.446144 400.768099,435.030577 C404.90528,428.238297 409.233267,421.558421 413.613352,414.918178 C419.901502,405.385337 426.346595,395.955152 432.654282,386.434656 C437.16461,379.627432 441.204759,372.482349 447.382202,366.921958 C447.993695,366.372286 448.300418,365.477608 448.72436,364.729119 C456.024501,351.843669 466.843818,341.810535 476.479874,330.833993 C480.851493,325.85511 485.747342,321.323242 490.529227,316.715355 C494.831817,312.570077 499.051051,308.169454 505.877757,308.68339 C507.301969,308.790596 508.763951,308.397509 510.764489,308.172053 C510.764489,305.563386 511.258762,303.118451 510.67397,300.965895 C508.760043,293.924769 506.734108,286.886241 504.218457,280.041334 C501.706062,273.205522 498.21033,266.726412 495.752638,259.873708 C491.125742,246.970716 486.898042,233.924133 482.585033,220.910687 C481.194685,216.716678 479.711212,215.553661 475.460069,216.539302 C471.897261,217.366408 468.440602,218.641829 464.916868,219.65021 C461.807307,220.539041 458.711422,221.824207 455.538694,222.086698 C438.752928,223.475172 422.226997,226.547746 405.916619,230.446777 C399.112706,232.073052 392.267114,233.071687 385.500971,233.275702 C368.469696,233.788339 351.926834,237.313775 335.299965,240.238861 C322.588211,242.475232 310.010609,245.319101 297.03381,245.75637 C290.551598,245.974679 284.258889,248.227944 277.619082,247.46646 C273.59391,247.004502 269.484081,247.253998 265.41137,247.235156 C259.719084,247.208517 254.017029,247.020095 248.336464,247.279337 C239.311901,247.689317 230.294501,248.318256 221.289474,249.049203 C217.647218,249.34483 214.021894,250.032244 210.431084,250.752145 C203.932591,252.055504 197.497266,254.453658 190.977282,254.670668 C183.186775,254.929911 175.678245,256.226122 168.069427,257.474254 C159.317723,258.910808 150.518481,260.045886 141.957584,262.435594 C140.325634,262.891055 138.849326,264.053422 137.210213,264.310066 C125.757262,266.101372 114.280216,267.74454 102.810333,269.426691 C98.3833608,270.076421 93.9713665,270.934065 89.5202992,271.28362 C84.1718551,271.703996 82.4324549,273.382898 83.2692685,278.634668 C86.8600783,301.16991 90.522522,323.694108 94.2110143,346.215056 C94.4493597,347.67435 94.9534016,349.145989 95.6143867,350.473388 C100.999299,361.295294 101.316442,373.10544 102.429371,384.7616 C103.511694,396.098093 103.875724,407.694478 110.572187,417.528145 C113.186823,421.36805 113.080023,424.573819 112.178739,428.9556 C110.898447,435.181314 110.608655,441.8391 111.259872,448.17267 C112.04003,455.75957 114.581078,463.148951 115.771502,470.71506 C117.408662,481.121139 119.032145,491.508376 119.614984,502.104176 C120.250572,513.657679 122.574114,525.115671 124.074517,536.626941 C124.574001,540.45775 124.949753,544.316498 125.127535,548.173946 C125.659579,559.739794 126.054217,571.312139 126.557607,582.879286 C126.5804,583.39777 127.146307,583.893514 127.960329,585.209218 Z"/>
  </g>
</svg>
