<svg xmlns="http://www.w3.org/2000/svg" width="215" height="227" viewBox="0 0 215 227">
  <path fill="#23C17C" fill-rule="evenodd" d="M132.836923,7.04628654 C130.112536,4.88242364 129.516088,4.58593281 128.093989,4.84861328 C127.075599,5.03847144 126.08586,5.37137343 125.080494,5.6366547 C117.193836,7.70428812 109.838512,11.0567151 102.717599,14.9449063 C85.5039528,24.3467866 69.4884115,35.410576 55.6138321,49.3560483 C52.5430363,52.4405932 49.930646,55.975076 46.9484059,59.1558504 C40.353618,66.1858041 35.0767459,74.1676494 30.5447826,82.5786261 C25.7211068,91.5279677 21.1136109,100.633357 17.0947492,109.965016 C10.6015399,125.036633 5.12671992,140.495769 3.14203258,156.919801 C1.94653193,166.789824 0.96200199,176.618235 3.72285315,186.509065 C7.04889743,198.425916 13.2165347,208.267331 23.8015339,214.75892 C32.9748526,220.384443 43.195211,223.159493 54.0120175,223.458585 C55.0460344,223.489795 56.1087017,223.424775 57.1218819,223.224513 C63.0212479,222.051554 69.0820975,221.606818 74.7913294,219.562591 C79.6749104,217.812255 84.8866681,216.558671 89.2779842,213.950072 C101.785161,206.516995 115.01641,200.381715 127.205828,192.381665 C134.693986,187.466159 142.197771,182.646882 148.482614,176.204709 C152.675982,171.905592 156.775586,167.512846 160.846539,163.096693 C161.823255,162.038169 162.508259,160.711762 163.341724,159.520597 C164.65443,157.653225 165.9463,155.770249 167.305889,153.939288 C171.374238,148.449006 175.489469,142.992534 179.557817,137.502252 C184.36847,131.013264 189.278097,124.591897 193.903825,117.970268 C198.315978,111.652933 201.824342,104.799834 204.202321,97.4551835 C205.673906,92.9167932 206.832943,88.2691694 207.973748,83.6345496 C208.768143,80.4147632 209.536494,77.153364 209.888111,73.8607553 C210.487164,68.2898487 210.713762,62.6773293 211.164354,57.0830154 C211.458671,53.4419 210.690321,50.1050777 208.877536,46.9217025 C205.423867,40.8514428 200.858044,35.8189011 195.133185,31.8318797 C188.994198,27.5587706 182.89428,23.2206416 176.635482,19.1243867 C172.291049,16.279115 167.725226,13.7745478 163.221913,11.1789526 C162.406681,10.7082084 161.419546,10.5365558 160.367297,10.1802466 C161.599262,19.5457158 161.599262,19.5457158 159.541646,21.6861715 C158.882688,19.7719851 158.028387,18.1074752 157.757511,16.3571389 C157.051671,11.7927406 154.13715,8.99688411 150.485534,6.76540049 C146.23226,4.16200294 141.486722,3.71726669 136.637,3.96954397 C134.826819,4.06577345 133.618296,5.11129375 132.836923,7.04628654 M0.0764459574,170.860071 C-0.447073933,158.8756 1.77462988,148.134309 5.01472313,137.554268 C7.19996287,130.409879 9.08828088,123.148455 11.7241124,116.170517 C15.3132189,106.667206 19.144551,97.2367166 24.4031911,88.4590276 C26.6353132,84.7346866 28.4793534,80.7788747 30.5161323,76.9348971 C34.928285,68.6149483 40.9188111,61.4471524 46.9405921,54.2715541 C53.5327754,46.4197487 61.0495834,39.5250365 69.2409767,33.4885872 C83.6130302,22.895542 98.2455414,12.6744107 114.914831,5.75369055 C121.913329,2.84860057 129.044659,0.871995032 136.551049,0.148973533 C139.89793,-0.173525266 143.234392,-0.0278806469 146.422394,1.1398771 C152.660355,3.42857825 159.005104,5.49881247 165.047721,8.23224987 C168.978027,10.0111949 172.462951,12.7836442 176.135404,15.1373653 C181.524273,18.5938242 187.01472,21.9176424 192.255128,25.5925682 C197.005876,28.9215881 201.668068,32.4352645 206.033338,36.2506334 C211.940518,41.4132149 215.170193,48.0972626 214.993081,56.014088 C214.808156,64.3028272 214.797738,72.6435824 212.570825,80.7424636 C210.648648,87.7412076 208.791585,94.7659597 206.718342,101.72049 C206.08022,103.868748 204.988903,105.923378 203.832471,107.860971 C201.069015,112.49039 198.344628,117.169223 195.237368,121.56717 C190.202722,128.688152 184.839899,135.580263 179.677628,142.615419 C174.645586,149.47632 169.733354,156.423049 164.680476,163.265745 C163.08387,165.429608 161.218994,167.39581 159.447882,169.427032 C158.494607,170.519367 157.418916,171.499867 156.496896,172.615609 C148.589402,182.202146 139.111348,189.861492 128.182544,195.767902 C127.091227,196.358283 126.117115,197.161929 125.080494,197.856342 C120.24119,201.096934 115.193521,203.950009 109.96874,206.561208 C103.095263,209.996861 96.549962,214.082713 89.7025302,217.572982 C79.2191095,222.915019 67.9933845,225.804504 56.2806037,226.87083 C51.2251206,227.331171 46.2686114,226.51192 41.4683768,225.193316 C36.8817174,223.934531 32.479983,221.999538 27.9975068,220.363637 C26.8358656,219.937106 25.6429695,219.585999 24.5282108,219.065839 C23.2207133,218.454652 21.7517322,217.931892 20.7489702,216.964396 C16.1414742,212.50663 11.4662593,208.095679 7.62190427,202.927895 C6.8848091,201.939593 6.251897,200.816048 5.81693271,199.661295 C2.66799964,191.304935 -0.491351734,182.940772 0.0660276511,173.754758 C0.141560372,172.514178 0.0764459574,171.268396 0.0764459574,170.860071"/>
</svg>
