<?xml version="1.0" encoding="UTF-8"?>
<svg width="16px" height="16px" viewBox="0 0 16 16" version="1.1" xmlns="http://www.w3.org/2000/svg" xmlns:xlink="http://www.w3.org/1999/xlink">
    <!-- Generator: Sketch 52.5 (67469) - http://www.bohemiancoding.com/sketch -->
    <title>safari-pinned-tab</title>
    <desc>Created with Sketch.</desc>
    <g id="safari-pinned-tab" stroke="none" stroke-width="1" fill="none" fill-rule="evenodd">
        <g id="ico">
            <g id="MARK">
                <rect id="Rectangle" fill="#FF7340" x="0" y="0" width="16" height="16"></rect>
                <g id="Combined-Shape-2" stroke-width="1" transform="translate(2.454545, 2.227273)" fill="#FFFFFF">
                    <path d="M4.78815962,5.20906307 L4.09701158,5.20906307 L4.03288444,4.5615276 C3.81200207,4.93565921 3.29185974,5.31698565 2.4867079,5.31698565 C1.16853895,5.31698565 0,4.33848761 0,2.6548954 C0,0.978498035 1.23266609,0 2.5437098,0 C3.76925065,0 4.55302678,0.712289011 4.8237858,1.55408511 L4.01863396,1.86346317 C3.84762826,1.28787609 3.34886164,0.798627073 2.5437098,0.798627073 C1.72430748,0.798627073 0.869278978,1.38860383 0.869278978,2.6548954 C0.869278978,3.89960246 1.66730558,4.52555341 2.53658456,4.52555341 C3.55549352,4.52555341 3.94025635,3.82045924 3.98300778,3.38157409 L2.3157022,3.38157409 L2.3157022,2.62611605 L4.78815962,2.62611605 L4.78815962,5.20906307 Z M10.8250311,5.20305024 L7.67247821,5.20305024 L7.67247821,0.151913876 L10.8250311,0.151913876 L10.8250311,0.949836686 L8.53619134,0.949836686 L8.53619134,2.28920712 L10.6091029,2.28920712 L10.6091029,3.065757 L8.53619134,3.065757 L8.53619134,4.40512743 L10.8250311,4.40512743 L10.8250311,5.20305024 Z M5.84931507,11.4315191 L5.00327777,11.4315191 L5.00327777,7.7126289 L3.43206565,11.4315191 L2.69267171,11.4315191 L1.1356787,7.72687752 L1.1356787,11.4315191 L0.303860523,11.4315191 L0.303860523,6.38038278 L1.44138966,6.38038278 L3.0765878,10.2346349 L4.69045726,6.38038278 L5.84931507,6.38038278 L5.84931507,11.4315191 Z M11.0336097,7.53073467 L10.2600676,7.77535918 C10.2099306,7.45878628 9.94492083,6.99112178 9.2644903,6.99112178 C8.74879559,6.99112178 8.39067426,7.33647403 8.39067426,7.72499531 C8.39067426,8.04876304 8.5912222,8.29338755 8.98515567,8.37972561 L9.71572318,8.53081722 C10.6110265,8.71068818 11.0909091,9.27908042 11.0909091,9.99856427 C11.0909091,10.7899965 10.4534531,11.5454545 9.29314001,11.5454545 C8.00390322,11.5454545 7.40942181,10.7108533 7.33063512,9.97697975 L8.1328269,9.74674492 C8.18296389,10.279163 8.5625725,10.768412 9.29314001,10.768412 C9.90194627,10.768412 10.217093,10.4590339 10.217093,10.0633178 C10.217093,9.73235525 9.97357054,9.46614622 9.53666252,9.37261332 L8.82041985,9.22152171 C8.04687778,9.06323527 7.53118306,8.55240173 7.53118306,7.78974885 C7.53118306,6.93356307 8.31188756,6.2284689 9.25732788,6.2284689 C10.4534531,6.2284689 10.9190109,6.96234243 11.0336097,7.53073467 Z" id="Combined-Shape"></path>
                </g>
            </g>
        </g>
    </g>
</svg>