<svg xmlns="http://www.w3.org/2000/svg" width="16" height="16" viewBox="0 0 16 16">
  <g fill="none" fill-rule="evenodd">
    <rect width="16" height="16" fill="#33FF7D" fill-rule="nonzero"/>
    <path fill="#000" d="M5.43824291,7.67061017 L4.92559199,7.67061017 L4.86718872,7.02377891 C4.6660219,7.38600441 4.16634948,7.76763485 3.39412847,7.76763485 C2.23904159,7.76763485 1.16182573,6.92675422 1.16182573,5.3743592 C1.16182573,3.82196419 2.30393411,2.98755187 3.43955324,2.98755187 C4.43889808,2.98755187 5.21111908,3.54382675 5.47717842,4.37177076 L4.89963498,4.61756663 C4.69197891,3.95779875 4.15337098,3.5697 3.43955324,3.5697 C2.61541821,3.5697 1.81075094,4.15831644 1.81075094,5.3743592 C1.81075094,6.59040197 2.5894612,7.19195504 3.41359623,7.19195504 C4.43889808,7.19195504 4.80878545,6.46750403 4.83474246,5.99531721 L3.23838642,5.99531721 L3.23838642,5.42610571 L5.43824291,5.42610571 L5.43824291,7.67061017 Z M11.219917,5.74273859 L8.43153527,5.74273859 L8.43153527,1.19502075 L11.219917,1.19502075 L11.219917,1.77871937 L9.06555246,1.77871937 L9.06555246,3.17703036 L11.0193606,3.17703036 L11.0193606,3.76714325 L9.06555246,3.76714325 L9.06555246,5.15903997 L11.219917,5.15903997 L11.219917,5.74273859 Z M14.8381743,11.9170124 L14.2118458,11.9170124 L14.2118458,8.37633509 L12.649253,11.9170124 L12.0681235,11.9170124 L10.5184447,8.37633509 L10.5184447,11.9170124 L9.89211618,11.9170124 L9.89211618,7.36929461 L10.7508965,7.36929461 L12.3651452,11.0703287 L13.9923079,7.36929461 L14.8381743,7.36929461 L14.8381743,11.9170124 Z M8.12692214,11.0969292 L7.55414531,11.2974469 C7.50207469,10.967563 7.2221951,10.5147811 6.57782117,10.5147811 C6.05711496,10.5147811 5.68611179,10.8511334 5.68611179,11.278042 C5.68611179,11.6079259 5.88788544,11.8601901 6.2784151,11.9442782 L6.96835083,12.0930494 C7.73639248,12.2612255 8.1659751,12.7398806 8.1659751,13.3802436 C8.1659751,14.091758 7.55414531,14.7385892 6.57131234,14.7385892 C5.45830282,14.7385892 4.93108779,14.0270748 4.84647303,13.3737753 L5.45830282,13.1797259 C5.50386462,13.6907226 5.86835896,14.1629094 6.56480351,14.1629094 C7.20266862,14.1629094 7.51509234,13.8330255 7.51509234,13.4319901 C7.51509234,13.1021061 7.28728338,12.8175004 6.82515662,12.7204757 L6.16776503,12.5781728 C5.51037344,12.4358699 5.04173786,12.0089613 5.04173786,11.3233202 C5.04173786,10.6053375 5.7121471,9.95850622 6.56480351,9.95850622 C7.60621593,9.95850622 8.0227809,10.5988692 8.12692214,11.0969292 Z"/>
  </g>
</svg>
